<svg xmlns="http://www.w3.org/2000/svg" width="1392" height="48" viewBox="0 0 1392 48"><filter width="37.025" height="17" id="c" filterUnits="userSpaceOnUse" y="0" x="2"><feColorMatrix values="1 0 0 0 0 0 1 0 0 0 0 0 1 0 0 0 0 0 1 0"/></filter><filter width="200%" height="200%" id="b" filterUnits="objectBoundingBox" y="-50%" x="-50%"><feOffset result="shadowOffsetOuter1" in="SourceAlpha" dy=".5"/><feGaussianBlur result="shadowBlurOuter1" in="shadowOffsetOuter1"/><feColorMatrix values="0 0 0 0 0.105882353 0 0 0 0 0.533333333 0 0 0 0 0.725490196 0 0 0 0.7 0" result="shadowMatrixOuter1" in="shadowBlurOuter1"/><feMerge><feMergeNode in="shadowMatrixOuter1"/><feMergeNode in="SourceGraphic"/></feMerge></filter><filter width="200%" height="200%" id="a" filterUnits="objectBoundingBox" y="-50%" x="-50%"><feOffset result="shadowOffsetOuter1" in="SourceAlpha" dy="-.5"/><feGaussianBlur result="shadowBlurOuter1" in="shadowOffsetOuter1"/><feColorMatrix values="0 0 0 0 0.031372549 0 0 0 0 0.403921569 0 0 0 0 0.623529412 0 0 0 0.7 0" result="shadowMatrixOuter1" in="shadowBlurOuter1"/><feMerge><feMergeNode in="shadowMatrixOuter1"/><feMergeNode in="SourceGraphic"/></feMerge></filter><title>konnectors-services-sprite</title><path d="M36.432 12.996c-.347-2.814-1.644-5.415-3.728-7.425C30.314 3.27 27.158 2 23.816 2c-3.342 0-6.5 1.267-8.888 3.572-2.093 2.018-3.393 4.633-3.732 7.463-2.87.333-5.523 1.616-7.57 3.677C1.286 19.066 0 22.178 0 25.472 0 32.383 5.7 38 12.71 38h1.41c.73 5.086 5.092 9 10.38 9v-2S16 45 16 36.5s8.5-8.5 8.5-8.5v-2c-5.288 0-9.65 3.914-10.38 9h-1.41C7.348 35 3 30.715 3 25.473c0-2.5.973-4.854 2.754-6.646 1.564-1.573 3.587-2.555 5.79-2.81l2.35-.274.282-2.35c.257-2.148 1.245-4.126 2.835-5.66C18.84 5.968 21.25 5 23.818 5c2.57 0 4.978.968 6.806 2.73 1.583 1.527 2.568 3.493 2.833 5.633l.297 2.407 2.416.213c4.98.44 8.83 4.57 8.83 9.492C45 30.713 40.65 35 35.29 35h-3.47c-.68-2.865-3.248-5-6.32-5-3.59 0-6.5 2.91-6.5 6.5s2.91 6.5 6.5 6.5c3.073 0 5.64-2.135 6.32-5h3.47C42.297 38 48 32.38 48 25.475c0-6.53-5.093-11.907-11.568-12.48zM25.5 41c-2.485 0-4.5-2.016-4.5-4.5s2.015-4.5 4.5-4.5 4.5 2.016 4.5 4.5-2.015 4.5-4.5 4.5z"/><path fill="#E21910" d="M624 15.143c0-.552.448-1 .995-1h1.048c.55 0 .995.447.995 1V31.98c0 .55-.448.998-.995.998h-1.048c-.55 0-.995-.446-.995-.998V15.143zm14.63-.26c-.903-.646-1.937-1.043-3.086-1.043-2.75 0-5.164 2.28-5.164 5.165 0 3.054 1.614 5.165 4.558 5.165 1.798 0 3.037.973 3.037 2.734 0 1.93-1.164 3.037-2.732 3.037-.527 0-1.098-.255-1.654-.716-.217-.178-.067-.06-.067-.06-.38-.396-1.053-.454-1.495-.136l-.854.61c-.445.315-.517.92-.145 1.325 0 0 .03.108.633.604 1.055.87 2.252 1.41 3.585 1.41 3.216 0 5.77-2.437 5.77-6.076 0-3.624-2.74-5.77-6.073-5.77-1.06 0-1.52-.6-1.52-2.126 0-1.167 1.02-2.126 2.126-2.126.447 0 .897.172 1.32.477.27.194 0 0 0 0 .295.26.883.192 1.31-.15l.818-.654c.43-.34.465-.943.062-1.322-.002 0 .1.03-.426-.345h-.004zm4.813.26c0-.552.438-1 1.004-1h9.536c.555 0 1.004.446 1.004 1.005v1.01c0 .554-.457 1.004-1.01 1.004h-6.487c-.56 0-1.01.45-1.01 1v2.88c0 .552.457 1 1 1h5.293c.552 0 1 .447 1 .994v1.05c0 .548-.457.993-1 .993h-5.294c-.556 0-1 .445-1 1.006v2.848c0 .557.457 1.008 1.01 1.008h6.486c.558 0 1.01.447 1.01.994v1.05c0 .548-.44.993-1.004.993h-9.536c-.557 0-1.004-.448-1.004-1V15.142zm14.582 0c0-.552.443-1 1.003-1h.425c.554 0 1.267.358 1.6.812l7.313 9.92c.33.448.598.374.598-.19v-9.538c0-.555.448-1.004.995-1.004h1.046c.55 0 .995.447.995 1V31.98c0 .55-.444.998-1.002.998h-.426c-.556 0-1.258-.363-1.574-.817l-7.363-10.546c-.313-.452-.57-.37-.57.18v10.19c0 .55-.447.994-.994.994h-1.048c-.55 0-.994-.445-.994-.998V15.143h-.006.003z"/><path fill="#0054A5" d="M576.02 15.62h4.61v1.232h-3.04v1.93h2.785v1.225h-2.786V22.2h3.06v1.23h-4.632l.002-7.81m5.657-.58h1.502v8.39h-1.504v-8.39zm12.823 8.324c-.367.13-.9.2-1.506.205-1.894.007-2.846-1.29-2.846-3.05 0-1.665.985-2.98 2.785-2.99.654 0 1.004.05 1.43.15l-.13 1.13c-.38-.12-.692-.18-1.197-.16-.91.04-1.308.813-1.316 1.87-.01 1.063.5 1.843 1.557 1.885.518.016 1.047-.15 1.356-.33l-.132 1.288m4.644.067c-.266.067-.73.14-1.106.14-1.176 0-1.823-.727-1.823-1.874v-2.84h-1.14l.12-1.186h1.02v-1.628l1.498-.006v1.634h1.335l-.124 1.187h-1.213v2.595c0 .495.138.952.713.952.266 0 .69-.1.847-.2l-.126 1.226m12.146-2.89c0-.812.38-1.84 1.34-1.84.98 0 1.244 1.063 1.244 1.84 0 .792-.277 1.864-1.268 1.864-.994 0-1.316-1.05-1.316-1.864zm-1.51 2.89h1.45v-.702h.022c.438.615 1.13.84 1.772.84 1.77 0 2.41-1.456 2.41-3.03 0-1.594-.643-3.006-2.41-3.006-.787 0-1.312.328-1.73.876h-.02v-3.37h-1.497v8.392h.003zm12.592-8.39h1.494v8.39h-1.494v-8.39zm-36.91 4.95c.063-.778.493-1.355 1.33-1.355.843 0 1.17.626 1.22 1.354h-2.55zm3.75 1.802c-.604.435-1.376.68-2.103.68-.932 0-1.583-.525-1.647-1.456h3.983c0-2.013-.606-3.484-2.74-3.484-1.797 0-2.678 1.38-2.678 3.052 0 1.888 1.11 2.94 3.01 2.985.846.016 1.534-.233 2.034-.505l.14-1.273zm28.346-1.802c.063-.778.49-1.355 1.33-1.355.836 0 1.18.626 1.22 1.354h-2.55zm3.75 1.802c-.61.435-1.378.68-2.103.68-.926 0-1.582-.525-1.646-1.456h3.98c0-2.013-.606-3.484-2.745-3.484-1.79 0-2.675 1.38-2.675 3.052 0 1.888 1.11 2.94 3.012 2.985.85.016 1.532-.233 2.03-.505l.146-1.273zm-16.264-.024c0-.886.995-.997 1.662-.997h.65c0 .45-.065.864-.313 1.187-.234.314-.593.516-1.053.516-.537 0-.946-.212-.946-.705zm-.725-2.706c.507-.222 1.097-.403 1.728-.435.82-.042 1.305.32 1.305 1.247h-.825c-.63 0-1.368.06-1.937.335-.574.275-.985.784-.985 1.644 0 1.097.992 1.714 2.016 1.714.684 0 1.437-.36 1.78-1h.02c.014.18.014.562.07.86h1.312c-.024-.444-.048-.847-.06-1.28-.014-.43-.026-.868-.026-1.45v-.735c0-1.7-.763-2.448-2.418-2.455-.638 0-1.233.085-1.832.255l-.15 1.297.003.002zm-4.208-1.392h1.333v1.306h.023c.176-.797.73-1.29 1.458-1.418.198-.036.513 0 .712.08 0 0-.144 1.2-.165 1.393-.288-.11-.855-.126-1.112.014-.655.36-.75 1.443-.75 2.277v2.11h-1.5l.002-5.76"/><path fill="#00ADEE" d="M590.884 28.027c-.34.054-.477.02-.505-.107-.027-.11.017-.232.403-.326 1.728-.416 6.232-.184 6.35 1.3.04.522-.695 1.003-2.766 1.343-.88.146-3.045.188-3.026-.523l.05-.977c.007-.112.11-.245.316-.237.154.003.3.075.31.34.015.325.042.616.042.616 0 .104.06.3.564.352 1.292.13 3.15-.312 3.157-.89.01-.945-2.927-1.085-4.896-.89m-.5.96c-.003-.09-.118-.225-.256-.243-.522-.073-1.537-.03-1.89-.01-.354.02-.324.383 0 .41.215.02 1.183.074 1.183.074.08 0 .148.043.148.115 0 .186-.47.5-1.57.5-.773 0-1.282-.37-1.282-.924 0-.772 1.045-1.185 2.468-.97.184.027.38-.103.373-.23-.015-.273-.88-.3-1.25-.3-1.62 0-2.51.61-2.51 1.504 0 .836.72 1.396 2.082 1.397 1.813.002 2.53-.75 2.504-1.322m11.98-1.342c-.014-.12-.168-.166-.34-.178-.68-.048-2.565-.168-3.533.282-.513.24-.737.582-.817.946-.104.47-.104 1.23.09 1.433.22.228.766.07.76-.148-.006-.168-.03-.428-.03-.428-.022-.473.83-.303 1.866-.422.3-.01.356-.438-.03-.426-.15.006-1.273.037-1.54.043-.038 0-.05-.03-.05-.048.06-.95 3.322-.85 3.404-.857.165-.014.228-.113.22-.2m6.924.03c-.04-.085-.11-.13-.22-.13-.177 0-.26.13-.26.25 0 .127.246.723.71 1.287.38.465 1.147 1.125 2.178 1.125 1.216 0 2.503-.768 3.82-2.264.058-.064.11-.13.11-.203 0-.11-.098-.197-.23-.197-.067 0-.117.035-.226.13-1.146 1.052-2.33 1.638-3.292 1.638-.983 0-1.988-.624-2.59-1.636M621.1 29.3l2.326-1.116c.12-.053.188-.186.188-.326 0-.184-.146-.348-.357-.348h-2.817c-.12 0-.194.1-.194.21 0 .13.074.202.184.214l1.553.187c.13.013.15.09.15.147 0 .03-.02.094-.086.127l-1.745.787c-.237.11-.356.263-.356.476 0 .264.227.52.494.52h3.29c.142 0 .234-.097.234-.214 0-.13-.095-.208-.204-.218l-2.627-.217c-.074-.01-.127-.043-.127-.107-.002-.052.02-.085.095-.12m-2.99.552c-.75 0-1.532-.252-1.532-1.024 0-.556.406-.927 1.025-.927.883 0 1.257.318 1.257.503 0 .074-.056.117-.117.117l-1.243.073c-.12.01-.204.093-.204.216 0 .11.085.195.204.195l1.296.058c.375.01.604-.26.604-.553 0-.734-.998-1.084-1.89-1.084-1.093 0-1.81.563-1.81 1.4 0 .895.854 1.504 2.152 1.504.857 0 1.416-.166 1.566-.25.053-.033.16-.076.16-.193 0-.12-.097-.2-.228-.2-.137 0-.644.167-1.242.167m-10.752-.314c-.297.08-1.024.084-1.256.084-1.092 0-1.79-.063-1.882-.063-.164 0-.24.108-.24.21 0 .144.154.193.323.228.156.032 1.346.203 2.823.203.604 0 1.133-.05 1.544-.13.18-.034.28-.147.304-.276.023-.136-.035-.254-.19-.38-.162-.134-1.46-.854-1.653-.976-.27-.164-.213-.438.02-.46.162-.014.846-.06 1.014-.075.14-.012.21-.104.21-.195 0-.14-.14-.184-.248-.193-.34-.04-.857-.074-1.202-.074-.427 0-.935.057-1.115.108-.138.04-.205.14-.21.23-.007.106.067.213.143.277.247.22 1.584.95 1.746 1.055.16.1.16.35-.124.43"/><path fill="#FFF" d="M585.78 31.633c5.405 1.443 11.995 2.293 19.105 2.293s13.7-.85 19.104-2.293h-38.21"/><path fill="#FCFDFF" d="M585.81 31.633c5.397 1.44 11.98 2.287 19.076 2.287 7.1 0 13.677-.847 19.076-2.287H585.81"/><path fill="#FAFDFF" d="M585.837 31.633c5.392 1.438 11.96 2.28 19.05 2.28 7.086 0 13.654-.845 19.047-2.28h-38.097"/><path fill="#F9FCFF" d="M585.866 31.633c5.385 1.434 11.942 2.276 19.02 2.276 7.075 0 13.634-.844 19.02-2.277h-38.04"/><path fill="#F7FBFF" d="M585.894 31.633c5.38 1.43 11.93 2.27 18.992 2.27s13.612-.84 18.99-2.27h-37.982"/><path fill="#F6FBFD" d="M585.92 31.633c5.374 1.428 11.912 2.266 18.966 2.266s13.59-.84 18.963-2.267h-37.93"/><path fill="#F5FBFD" d="M585.95 31.633c5.366 1.424 11.896 2.26 18.938 2.26 7.04 0 13.57-.836 18.937-2.26H585.95"/><path fill="#F4FAFD" d="M585.98 31.633c5.357 1.42 11.875 2.254 18.905 2.254s13.547-.834 18.906-2.254h-37.81"/><path fill="#F3FAFD" d="M586.006 31.633c5.354 1.416 11.86 2.248 18.88 2.248s13.525-.83 18.878-2.246h-37.758"/><path fill="#F2F9FD" d="M586.035 31.633c5.346 1.412 11.844 2.242 18.85 2.242 7.007 0 13.505-.83 18.853-2.242h-37.703"/><path fill="#F1F9FD" d="M586.062 31.633c5.34 1.41 11.827 2.236 18.823 2.236 6.995 0 13.48-.828 18.822-2.238h-37.645"/><path fill="#EFF8FD" d="M586.09 31.633c5.334 1.407 11.812 2.232 18.796 2.232s13.46-.825 18.794-2.23h-37.59"/><path fill="#EEF8FD" d="M586.12 31.633c5.325 1.402 11.793 2.227 18.766 2.227s13.438-.823 18.767-2.227H586.12"/><path fill="#EDF8FD" d="M586.148 31.633c5.32 1.398 11.775 2.22 18.737 2.22 6.96 0 13.417-.82 18.737-2.22h-37.474"/><path fill="#ECF7FD" d="M586.176 31.633c5.312 1.396 11.76 2.215 18.71 2.215s13.396-.817 18.71-2.215h-37.42"/><path fill="#EBF7FD" d="M586.204 31.633c5.307 1.393 11.742 2.21 18.682 2.21 6.938 0 13.374-.817 18.68-2.21h-37.362"/><path fill="#EAF6FD" d="M586.232 31.633c5.302 1.39 11.73 2.203 18.653 2.203s13.354-.814 18.653-2.203H586.23"/><path fill="#E9F6FD" d="M586.26 31.633c5.294 1.387 11.71 2.197 18.626 2.197 6.915 0 13.33-.812 18.624-2.197h-37.25"/><path fill="#E8F6FD" d="M586.288 31.633c5.288 1.383 11.694 2.192 18.598 2.192 6.904 0 13.31-.81 18.598-2.19H586.29"/><path fill="#E7F5FD" d="M586.317 31.633c5.28 1.38 11.678 2.188 18.57 2.188 6.892 0 13.285-.806 18.566-2.186h-37.136"/><path fill="#E6F5FC" d="M586.345 31.633c5.274 1.375 11.66 2.182 18.54 2.182s13.268-.807 18.54-2.182h-37.08"/><path fill="#E5F5FC" d="M586.373 31.633c5.27 1.37 11.644 2.176 18.513 2.176 6.868 0 13.244-.807 18.513-2.178h-37.027"/><path fill="#E4F4FC" d="M586.402 31.633c5.262 1.37 11.627 2.17 18.483 2.17s13.224-.8 18.483-2.17H586.4"/><path fill="#E3F4FC" d="M586.43 31.633c5.255 1.366 11.61 2.164 18.456 2.164 6.847 0 13.2-.798 18.456-2.164H586.43"/><path fill="#E2F3FC" d="M586.458 31.633c5.25 1.36 11.593 2.158 18.428 2.158 6.833 0 13.18-.795 18.427-2.156h-36.855"/><path fill="#E1F3FC" d="M586.487 31.633c5.24 1.357 11.575 2.152 18.4 2.152 6.82 0 13.155-.795 18.395-2.152h-36.795"/><path fill="#E0F3FC" d="M586.515 31.633c5.234 1.354 11.56 2.146 18.37 2.146 6.812 0 13.138-.794 18.372-2.148h-36.742"/><path fill="#DFF2FC" d="M586.543 31.633c5.23 1.352 11.543 2.143 18.343 2.143s13.113-.79 18.344-2.143h-36.687"/><path fill="#DEF2FC" d="M586.57 31.633c5.225 1.348 11.526 2.137 18.315 2.137 6.787 0 13.092-.79 18.313-2.137H586.57"/><path fill="#DDF1FC" d="M586.6 31.633c5.216 1.346 11.51 2.13 18.286 2.13 6.776 0 13.07-.784 18.286-2.13H586.6"/><path fill="#DCF1FC" d="M586.627 31.633c5.21 1.342 11.493 2.125 18.26 2.125 6.765 0 13.048-.783 18.258-2.125h-36.518"/><path fill="#DBF1FC" d="M586.656 31.633c5.202 1.338 11.478 2.12 18.23 2.12s13.025-.782 18.23-2.12h-36.46"/><path fill="#DAF0FC" d="M586.684 31.633c5.195 1.334 11.46 2.113 18.202 2.113 6.742 0 13.005-.78 18.2-2.113h-36.402"/><path fill="#D9F0FC" d="M586.71 31.633c5.19 1.33 11.443 2.11 18.176 2.11 6.73 0 12.983-.78 18.175-2.11h-36.35"/><path fill="#D8EFFC" d="M586.74 31.633c5.185 1.328 11.428 2.104 18.146 2.104 6.72 0 12.962-.774 18.146-2.104h-36.29"/><path fill="#D6EFFB" d="M586.768 31.633c5.178 1.324 11.41 2.098 18.118 2.098 6.707 0 12.94-.77 18.116-2.096h-36.234"/><path fill="#D5EFFB" d="M586.797 31.633c5.17 1.32 11.394 2.092 18.09 2.092 6.694 0 12.918-.77 18.088-2.092h-36.178"/><path fill="#D4EEFB" d="M586.825 31.633c5.164 1.32 11.376 2.086 18.06 2.086 6.685 0 12.898-.77 18.062-2.088h-36.122"/><path fill="#D3EEFB" d="M586.854 31.633c5.156 1.312 11.36 2.08 18.032 2.08s12.875-.768 18.032-2.08h-36.064"/><path fill="#D2EEFB" d="M586.88 31.633c5.15 1.31 11.344 2.074 18.006 2.074 6.66 0 12.854-.766 18.004-2.074h-36.01"/><path fill="#D1EDFB" d="M586.91 31.633c5.144 1.307 11.325 2.07 17.977 2.07 6.65 0 12.832-.766 17.977-2.07H586.91"/><path fill="#D0EDFB" d="M586.938 31.633c5.138 1.305 11.31 2.062 17.948 2.062 6.64 0 12.81-.76 17.947-2.062h-35.895"/><path fill="#CFECFB" d="M586.966 31.633c5.13 1.3 11.292 2.06 17.92 2.06 6.626 0 12.788-.76 17.92-2.06h-35.84"/><path fill="#CEECFB" d="M586.994 31.633c5.123 1.297 11.275 2.053 17.892 2.053 6.617 0 12.768-.756 17.893-2.053h-35.786"/><path fill="#CDECFB" d="M587.02 31.633c5.12 1.293 11.262 2.047 17.865 2.047 6.604 0 12.745-.754 17.862-2.047H587.02"/><path fill="#CCEBFB" d="M587.05 31.633c5.11 1.29 11.243 2.04 17.836 2.04 6.592 0 12.724-.75 17.835-2.04h-35.67"/><path fill="#CBEBFB" d="M587.078 31.633c5.104 1.287 11.227 2.037 17.808 2.037s12.702-.75 17.808-2.037h-35.616"/><path fill="#CAEBFB" d="M587.107 31.633c5.1 1.283 11.21 2.03 17.78 2.03 6.566 0 12.68-.747 17.776-2.03h-35.556"/><path fill="#C9EAFB" d="M587.135 31.633c5.092 1.28 11.192 2.026 17.75 2.026 6.56 0 12.66-.748 17.75-2.027h-35.5"/><path fill="#C8EAFB" d="M587.163 31.633c5.085 1.275 11.176 2.02 17.723 2.02 6.546 0 12.638-.74 17.723-2.02h-35.447"/><path fill="#C7E9FA" d="M587.192 31.633c5.077 1.27 11.16 2.014 17.693 2.014s12.615-.74 17.693-2.014H587.19"/><path fill="#C6E9FA" d="M587.22 31.633c5.07 1.27 11.143 2.01 17.666 2.01 6.522 0 12.593-.74 17.665-2.01h-35.33"/><path fill="#C6E9FA" d="M587.248 31.633c5.064 1.266 11.126 2.003 17.638 2.003 6.513 0 12.57-.737 17.64-2.003h-35.278"/><path fill="#C5E9FA" d="M587.276 31.633c5.06 1.262 11.11 1.998 17.61 1.998s12.55-.733 17.607-1.996h-35.217"/><path fill="#C4E8FA" d="M587.304 31.633c5.054 1.26 11.094 1.992 17.582 1.992s12.528-.732 17.58-1.992h-35.162"/><path fill="#C2E8FA" d="M587.332 31.633c5.046 1.256 11.077 1.987 17.554 1.987 6.478 0 12.507-.73 17.554-1.986h-35.11"/><path fill="#C1E8FA" d="M587.36 31.633c5.04 1.252 11.062 1.98 17.525 1.98s12.485-.73 17.522-1.98H587.36"/><path fill="#C0E7FA" d="M587.39 31.633c5.032 1.248 11.042 1.977 17.496 1.977s12.464-.73 17.496-1.978H587.39"/><path fill="#BFE7FA" d="M587.417 31.633c5.025 1.244 11.024 1.97 17.47 1.97 6.44 0 12.44-.726 17.467-1.97h-34.937"/><path fill="#BEE7FA" d="M587.446 31.633c5.02 1.242 11.01 1.965 17.44 1.965 6.43 0 12.42-.723 17.437-1.965h-34.877"/><path fill="#BDE6FA" d="M587.474 31.633c5.014 1.238 10.992 1.957 17.412 1.957s12.397-.72 17.41-1.957h-34.822"/><path fill="#BCE6FA" d="M587.502 31.633c5.007 1.236 10.975 1.953 17.384 1.953 6.407 0 12.377-.72 17.383-1.953H587.5"/><path fill="#BBE5FA" d="M587.53 31.633c5 1.23 10.96 1.947 17.355 1.947 6.396 0 12.354-.717 17.354-1.947h-34.71"/><path fill="#BAE5FA" d="M587.56 31.633c4.992 1.23 10.94 1.942 17.326 1.942s12.333-.714 17.327-1.94H587.56"/><path fill="#B9E5FA" d="M587.586 31.633c4.988 1.225 10.926 1.936 17.3 1.936 6.373 0 12.312-.712 17.3-1.938h-34.6"/><path fill="#B8E4FA" d="M587.615 31.633c4.98 1.223 10.908 1.93 17.27 1.93s12.29-.707 17.272-1.93h-34.542"/><path fill="#B7E4F9" d="M587.643 31.633c4.976 1.22 10.894 1.926 17.243 1.926 6.35 0 12.27-.708 17.242-1.927h-34.485"/><path fill="#B6E4F9" d="M587.67 31.633c4.968 1.215 10.877 1.92 17.216 1.92s12.246-.705 17.214-1.92h-34.43"/><path fill="#B4E3F9" d="M587.7 31.633c4.962 1.21 10.857 1.914 17.188 1.914 6.327 0 12.226-.703 17.187-1.914H587.7"/><path fill="#B3E3F9" d="M587.73 31.633c4.952 1.207 10.84 1.908 17.156 1.908s12.203-.7 17.157-1.906H587.73"/><path fill="#B2E2F9" d="M587.756 31.633c4.947 1.203 10.824 1.902 17.13 1.902 6.305 0 12.183-.7 17.13-1.902h-34.26"/><path fill="#B1E2F9" d="M587.784 31.633c4.94 1.2 10.808 1.897 17.102 1.897 6.292 0 12.16-.695 17.1-1.896h-34.202"/><path fill="#B0E2F9" d="M587.812 31.633c4.937 1.197 10.79 1.893 17.073 1.893 6.28 0 12.14-.694 17.072-1.893h-34.145"/><path fill="#AFE1F9" d="M587.84 31.633c4.93 1.193 10.774 1.887 17.046 1.887 6.27 0 12.116-.692 17.045-1.887h-34.09"/><path fill="#AEE1F9" d="M587.87 31.633c4.92 1.19 10.757 1.88 17.016 1.88 6.258 0 12.095-.69 17.018-1.88H587.87"/><path fill="#ADE1F9" d="M587.896 31.633c4.915 1.188 10.74 1.875 16.99 1.875 6.246 0 12.072-.688 16.986-1.875h-33.976"/><path fill="#ACE0F9" d="M587.925 31.633c4.908 1.184 10.727 1.87 16.96 1.87 6.234 0 12.053-.688 16.96-1.87h-33.92"/><path fill="#ABE0F9" d="M587.953 31.633c4.9 1.18 10.708 1.863 16.933 1.863 6.224 0 12.03-.686 16.933-1.863h-33.867"/><path fill="#A9E0F9" d="M587.982 31.633c4.895 1.176 10.69 1.858 16.903 1.858 6.212 0 12.008-.68 16.903-1.855H587.98"/><path fill="#A8DFF9" d="M588.01 31.633c4.89 1.174 10.675 1.854 16.876 1.854 6.2 0 11.986-.68 16.875-1.854h-33.75"/><path fill="#A7DFF8" d="M588.038 31.633c4.882 1.17 10.656 1.848 16.848 1.848 6.188 0 11.966-.677 16.848-1.847h-33.696"/><path fill="#A6DEF8" d="M588.067 31.633c4.876 1.166 10.64 1.842 16.82 1.842 6.177 0 11.94-.676 16.817-1.842h-33.637"/><path fill="#A5DEF8" d="M588.095 31.633c4.87 1.162 10.624 1.836 16.79 1.836 6.167 0 11.923-.676 16.79-1.838h-33.58"/><path fill="#A4DEF8" d="M588.122 31.633c4.86 1.158 10.606 1.83 16.764 1.83 6.154 0 11.9-.672 16.764-1.83h-33.53"/><path fill="#A3DDF8" d="M588.152 31.633c4.854 1.157 10.59 1.825 16.733 1.825s11.878-.668 16.734-1.824H588.15"/><path fill="#A2DDF8" d="M588.18 31.633c4.85 1.152 10.573 1.818 16.706 1.818 6.132 0 11.856-.664 16.706-1.816H588.18"/><path fill="#A0DDF8" d="M588.207 31.633c4.843 1.147 10.558 1.812 16.68 1.812 6.12 0 11.834-.665 16.678-1.812h-33.358"/><path fill="#9FDCF8" d="M588.236 31.633c4.836 1.146 10.54 1.81 16.65 1.81 6.107 0 11.81-.66 16.65-1.81h-33.3"/><path fill="#9EDCF8" d="M588.264 31.633c4.83 1.143 10.524 1.803 16.622 1.803s11.79-.66 16.62-1.803h-33.242"/><path fill="#9DDCF8" d="M588.292 31.633c4.822 1.14 10.507 1.797 16.594 1.797 6.085 0 11.77-.658 16.593-1.797h-33.19"/><path fill="#9CDBF8" d="M588.32 31.633c4.816 1.135 10.49 1.79 16.565 1.79 6.074 0 11.747-.655 16.565-1.79h-33.13"/><path fill="#9BDBF8" d="M588.348 31.633c4.81 1.133 10.476 1.785 16.538 1.785s11.728-.652 16.536-1.785h-33.074"/><path fill="#99DBF8" d="M588.376 31.633c4.804 1.13 10.458 1.78 16.51 1.78 6.05 0 11.704-.65 16.508-1.78h-33.018"/><path fill="#98DAF8" d="M588.405 31.633c4.797 1.125 10.44 1.774 16.48 1.774s11.684-.648 16.48-1.773h-32.96"/><path fill="#97DAF7" d="M588.433 31.633c4.79 1.12 10.425 1.77 16.453 1.77 6.027 0 11.66-.647 16.452-1.77h-32.905"/><path fill="#96D9F7" d="M588.46 31.633c4.785 1.117 10.407 1.764 16.426 1.764 6.018 0 11.64-.646 16.425-1.764h-32.85"/><path fill="#95D9F7" d="M588.49 31.633c4.776 1.116 10.39 1.758 16.396 1.758 6.005 0 11.618-.64 16.396-1.756H588.49"/><path fill="#94D9F7" d="M588.518 31.633c4.77 1.112 10.374 1.752 16.368 1.752 5.993 0 11.597-.64 16.367-1.752h-32.735"/><path fill="#93D8F7" d="M588.546 31.633c4.765 1.107 10.357 1.746 16.34 1.746 5.98 0 11.574-.64 16.34-1.748h-32.68"/><path fill="#91D8F7" d="M588.575 31.633c4.758 1.104 10.34 1.74 16.312 1.74 5.97 0 11.555-.637 16.31-1.74h-32.622"/><path fill="#90D8F7" d="M588.602 31.633c4.752 1.102 10.324 1.736 16.284 1.736s11.53-.638 16.282-1.738h-32.566"/><path fill="#8FD7F7" d="M588.63 31.633c4.745 1.098 10.308 1.73 16.256 1.73 5.947 0 11.51-.635 16.255-1.73h-32.51"/><path fill="#8ED7F7" d="M588.66 31.633c4.736 1.096 10.29 1.725 16.228 1.725 5.937 0 11.487-.63 16.228-1.725H588.66"/><path fill="#8DD7F7" d="M588.688 31.633c4.73 1.09 10.273 1.72 16.2 1.72 5.922 0 11.464-.63 16.196-1.72h-32.396"/><path fill="#8BD6F7" d="M588.73 31.633c4.72 1.086 10.247 1.71 16.155 1.71s11.435-.624 16.155-1.71h-32.31"/><path fill="#8AD6F7" d="M588.77 31.633c4.712 1.082 10.226 1.703 16.115 1.703 5.89 0 11.402-.62 16.112-1.703H588.77"/><path fill="#89D6F7" d="M588.816 31.633c4.7 1.076 10.194 1.696 16.07 1.696 5.873 0 11.37-.62 16.07-1.697h-32.14"/><path fill="#88D5F7" d="M588.858 31.633c4.688 1.072 10.17 1.688 16.027 1.688 5.856 0 11.338-.613 16.027-1.686h-32.054"/><path fill="#87D5F7" d="M588.9 31.633c4.68 1.068 10.146 1.682 15.985 1.682s11.307-.612 15.984-1.682H588.9"/><path fill="#85D5F6" d="M588.944 31.633c4.667 1.064 10.117 1.676 15.94 1.676 5.824 0 11.275-.614 15.943-1.678h-31.883"/><path fill="#84D4F6" d="M588.987 31.633c4.655 1.06 10.093 1.668 15.9 1.668s11.24-.606 15.895-1.666h-31.795"/><path fill="#83D4F6" d="M589.03 31.633c4.646 1.055 10.065 1.66 15.855 1.66s11.21-.605 15.856-1.66h-31.71"/><path fill="#82D4F6" d="M589.072 31.633c4.636 1.05 10.04 1.652 15.813 1.652 5.772 0 11.18-.604 15.813-1.652H589.07"/><path fill="#80D3F6" d="M589.115 31.633c4.624 1.045 10.014 1.646 15.77 1.646 5.757 0 11.147-.604 15.772-1.648h-31.542"/><path fill="#80D3F6" d="M589.16 31.633c4.61 1.04 9.986 1.64 15.728 1.64s11.114-.6 15.73-1.64H589.16"/><path fill="#7FD3F6" d="M589.2 31.633c4.604 1.035 9.964 1.63 15.687 1.63s11.083-.595 15.686-1.63H589.2"/><path fill="#7ED2F6" d="M589.242 31.633c4.592 1.03 9.938 1.623 15.644 1.623 5.705 0 11.05-.592 15.643-1.623H589.24"/><path fill="#7CD2F6" d="M589.285 31.633c4.582 1.028 9.912 1.616 15.6 1.616 5.69 0 11.02-.59 15.6-1.617h-31.2"/><path fill="#7BD2F6" d="M589.328 31.633c4.57 1.022 9.886 1.61 15.558 1.61 5.67 0 10.986-.588 15.558-1.61h-31.116"/><path fill="#7AD1F6" d="M589.37 31.633c4.56 1.018 9.86 1.602 15.516 1.602 5.654 0 10.955-.584 15.515-1.602h-31.03"/><path fill="#79D1F6" d="M589.414 31.633c4.55 1.014 9.833 1.596 15.472 1.596s10.923-.58 15.47-1.597h-30.942"/><path fill="#77D1F6" d="M589.457 31.633c4.535 1.01 9.807 1.588 15.43 1.588 5.62 0 10.89-.575 15.428-1.586h-30.858"/><path fill="#76D0F6" d="M589.5 31.633c4.524 1.004 9.78 1.58 15.386 1.58 5.604 0 10.86-.576 15.386-1.58H589.5"/><path fill="#75D0F6" d="M589.543 31.633c4.515 1 9.754 1.572 15.343 1.572 5.587 0 10.827-.572 15.343-1.572h-30.687"/><path fill="#73D0F5" d="M589.585 31.633c4.505.996 9.73 1.566 15.3 1.566s10.797-.57 15.3-1.567h-30.6"/><path fill="#72CFF5" d="M589.63 31.633c4.492.99 9.7 1.56 15.256 1.56 5.555 0 10.764-.566 15.256-1.56H589.63"/><path fill="#71CFF5" d="M589.67 31.633c4.482.986 9.678 1.55 15.216 1.55 5.537 0 10.73-.562 15.214-1.55h-30.43"/><path fill="#6FCFF5" d="M589.714 31.633c4.472.98 9.65 1.543 15.172 1.543 5.52 0 10.7-.562 15.17-1.543h-30.342"/><path fill="#6ECEF5" d="M589.757 31.633c4.46.977 9.625 1.535 15.13 1.535 5.502 0 10.666-.56 15.127-1.535h-30.257"/><path fill="#6DCEF5" d="M589.8 31.633c4.45.973 9.6 1.53 15.086 1.53 5.486 0 10.636-.56 15.085-1.53H589.8"/><path fill="#6BCEF5" d="M589.842 31.633c4.438.97 9.574 1.52 15.044 1.52 5.47 0 10.604-.553 15.042-1.52h-30.086"/><path fill="#6ACEF5" d="M589.885 31.633c4.43.963 9.547 1.514 15 1.514s10.572-.55 15-1.514h-30"/><path fill="#68CDF5" d="M589.928 31.633c4.418.96 9.52 1.508 14.958 1.508 5.437 0 10.54-.548 14.957-1.507h-29.915"/><path fill="#67CDF5" d="M589.97 31.633c4.407.955 9.496 1.5 14.916 1.5s10.508-.545 14.914-1.5h-29.83"/><path fill="#66CDF5" d="M590.014 31.633c4.396.95 9.47 1.492 14.872 1.492 5.4 0 10.477-.543 14.87-1.492h-29.742"/><path fill="#64CCF5" d="M590.056 31.633c4.387.946 9.444 1.485 14.83 1.485s10.443-.54 14.83-1.484h-29.66"/><path fill="#63CCF5" d="M590.1 31.633c4.373.94 9.417 1.48 14.786 1.48 5.368 0 10.41-.536 14.785-1.48H590.1"/><path fill="#61CCF5" d="M590.142 31.633c4.363.938 9.393 1.47 14.744 1.47 5.353 0 10.38-.532 14.743-1.47h-29.49"/><path fill="#60CBF5" d="M590.185 31.633c4.354.932 9.365 1.463 14.7 1.463 5.336 0 10.35-.53 14.7-1.463h-29.4"/><path fill="#5ECBF4" d="M590.23 31.633c4.34.928 9.34 1.455 14.656 1.455s10.315-.527 14.657-1.455H590.23"/><path fill="#5DCBF4" d="M590.27 31.633c4.332.922 9.314 1.447 14.616 1.447 5.3 0 10.284-.525 14.615-1.447h-29.228"/><path fill="#5BCAF4" d="M590.312 31.633c4.32.918 9.288 1.44 14.573 1.44 5.284 0 10.252-.522 14.57-1.44h-29.143"/><path fill="#59CAF4" d="M590.356 31.633c4.31.914 9.262 1.434 14.53 1.434 5.268 0 10.22-.52 14.53-1.434h-29.06"/><path fill="#58CAF4" d="M590.4 31.633c4.297.908 9.234 1.426 14.485 1.426 5.25 0 10.188-.52 14.485-1.428H590.4"/><path fill="#56CAF4" d="M590.44 31.633c4.29.904 9.21 1.42 14.445 1.42 5.233 0 10.156-.516 14.443-1.42H590.44"/><path fill="#55C9F4" d="M590.484 31.633c4.276.9 9.186 1.412 14.4 1.412s10.125-.513 14.4-1.412h-28.8"/><path fill="#53C9F4" d="M590.527 31.633c4.268.895 9.157 1.404 14.36 1.404 5.2 0 10.09-.51 14.354-1.404h-28.713"/><path fill="#51C9F4" d="M590.57 31.633c4.257.89 9.134 1.396 14.315 1.396 5.183 0 10.06-.51 14.315-1.398h-28.63"/><path fill="#4FC8F4" d="M590.613 31.633c4.244.887 9.105 1.39 14.272 1.39s10.027-.503 14.272-1.39h-28.544"/><path fill="#4EC8F4" d="M590.655 31.633c4.233.88 9.08 1.383 14.23 1.383s9.996-.502 14.23-1.383h-28.46"/><path fill="#4CC8F4" d="M590.698 31.633c4.225.877 9.057 1.375 14.188 1.375s9.964-.498 14.188-1.375h-28.376"/><path fill="#4AC7F4" d="M590.74 31.633c4.215.87 9.03 1.367 14.146 1.367 5.115 0 9.933-.496 14.145-1.367h-28.29"/><path fill="#48C7F4" d="M590.784 31.633c4.2.867 9.004 1.36 14.104 1.36s9.9-.493 14.1-1.36h-28.204"/><path fill="#46C7F4" d="M590.826 31.633c4.19.863 8.977 1.354 14.06 1.354 5.082 0 9.868-.49 14.06-1.354h-28.12"/><path fill="#44C7F4" d="M590.87 31.633c4.178.858 8.95 1.346 14.016 1.346 5.063 0 9.836-.487 14.017-1.348H590.87"/><path fill="#42C6F3" d="M590.912 31.633c4.168.854 8.925 1.34 13.974 1.34s9.806-.484 13.973-1.34H590.91"/><path fill="#40C6F3" d="M590.955 31.633c4.156.85 8.896 1.332 13.93 1.332 5.032 0 9.773-.482 13.93-1.332h-27.86"/><path fill="#3DC6F3" d="M590.997 31.633c4.146.846 8.873 1.324 13.89 1.324 5.015 0 9.74-.48 13.887-1.324h-27.777"/><path fill="#3BC5F3" d="M591.04 31.633c4.136.84 8.848 1.316 13.846 1.316s9.71-.478 13.845-1.317h-27.69"/><path fill="#38C5F3" d="M591.083 31.633c4.125.836 8.82 1.31 13.803 1.31 4.98 0 9.677-.474 13.8-1.31h-27.603"/><path fill="#36C5F3" d="M591.126 31.633c4.113.832 8.795 1.303 13.76 1.303 4.964 0 9.646-.47 13.76-1.303h-27.52"/><path fill="#33C5F3" d="M591.17 31.633c4.104.826 8.768 1.295 13.716 1.295 4.947 0 9.612-.47 13.716-1.295H591.17"/><path fill="#30C4F3" d="M591.212 31.633c4.093.822 8.743 1.287 13.674 1.287 4.932 0 9.58-.465 13.673-1.287h-27.35"/><path fill="#2DC4F3" d="M591.254 31.633c4.082.818 8.718 1.28 13.632 1.28s9.55-.462 13.63-1.28h-27.262"/><path fill="#2AC4F3" d="M591.297 31.633c4.07.812 8.69 1.272 13.59 1.272 4.896 0 9.517-.46 13.586-1.272h-27.176"/><path fill="#27C3F3" d="M591.34 31.633c4.06.81 8.665 1.266 13.546 1.266 4.88 0 9.485-.458 13.545-1.268h-27.09"/><path fill="#23C3F3" d="M591.383 31.633c4.05.805 8.64 1.26 13.503 1.26s9.453-.455 13.502-1.26h-27.005"/><path fill="#1FC3F3" d="M591.426 31.633c4.038.8 8.613 1.252 13.46 1.252s9.42-.45 13.46-1.252h-26.92"/><path fill="#1AC2F3" d="M591.47 31.633c4.026.795 8.585 1.244 13.416 1.244 4.83 0 9.39-.45 13.416-1.244H591.47"/><path fill="#14C2F3" d="M591.51 31.633c4.02.79 8.563 1.236 13.376 1.236s9.356-.447 13.373-1.238h-26.75"/><path fill="#0CC2F3" d="M591.554 31.633c4.006.785 8.535 1.23 13.332 1.23 4.796 0 9.325-.444 13.33-1.23h-26.662"/><path fill="#02C2F2" d="M591.597 31.633c3.995.78 8.51 1.223 13.29 1.223 4.777 0 9.292-.44 13.287-1.223h-26.577"/><path fill="#00C1F2" d="M591.64 31.633c3.984.777 8.483 1.215 13.246 1.215s9.263-.438 13.245-1.215h-26.49"/><path fill="#00C1F2" d="M591.682 31.633c3.976.77 8.458 1.207 13.204 1.207 4.745 0 9.23-.436 13.202-1.207h-26.406"/><path fill="#00C1F2" d="M591.725 31.633c3.963.768 8.433 1.2 13.16 1.2 4.73 0 9.198-.435 13.16-1.2h-26.32"/><path fill="#00C0F2" d="M591.768 31.633c3.952.764 8.406 1.193 13.118 1.193 4.71 0 9.165-.43 13.116-1.193h-26.234"/><path fill="#00C0F2" d="M591.81 31.633c3.942.76 8.38 1.186 13.076 1.186 4.694 0 9.134-.43 13.073-1.188h-26.15"/><path fill="#00C0F2" d="M591.854 31.633c3.93.754 8.354 1.178 13.032 1.178 4.68 0 9.103-.42 13.03-1.176h-26.062"/><path fill="#00C0F2" d="M591.896 31.633c3.92.75 8.33 1.17 12.99 1.17s9.07-.42 12.987-1.17h-25.977"/><path fill="#00BFF2" d="M591.94 31.633c3.907.744 8.3 1.164 12.945 1.164s9.037-.42 12.945-1.164h-25.89"/><path fill="#00BFF2" d="M591.982 31.633c3.896.74 8.275 1.156 12.903 1.156 4.627 0 9.006-.418 12.902-1.158h-25.805"/><path fill="#00BFF2" d="M592.05 31.633c3.878.734 8.233 1.146 12.836 1.146s8.957-.413 12.835-1.148h-25.67"/><path fill="#00BFF2" d="M592.117 31.633c3.86.73 8.19 1.137 12.77 1.137s8.908-.408 12.77-1.137h-25.54"/><path fill="#00BEF2" d="M592.185 31.633c3.84.723 8.15 1.128 12.7 1.128s8.86-.402 12.7-1.126h-25.4"/><path fill="#00BEF2" d="M592.252 31.633c3.822.717 8.106 1.12 12.634 1.12 4.525 0 8.81-.403 12.632-1.12h-25.266"/><path fill="#00BEF2" d="M592.32 31.633c3.804.71 8.064 1.107 12.565 1.107 4.5 0 8.763-.396 12.563-1.107H592.32"/><path fill="#00BEF2" d="M592.387 31.633c3.785.705 8.023 1.1 12.5 1.1 4.475 0 8.713-.395 12.496-1.1h-24.996"/><path fill="#00BDF2" d="M592.454 31.633c3.767.7 7.98 1.09 12.432 1.09 4.45 0 8.664-.39 12.43-1.09h-24.862"/><path fill="#00BDF2" d="M592.523 31.633c3.745.693 7.938 1.08 12.362 1.08s8.615-.387 12.362-1.08h-24.724"/><path fill="#00BDF1" d="M592.59 31.633c3.73.688 7.896 1.07 12.296 1.07 4.397 0 8.566-.385 12.294-1.07h-24.59"/><path fill="#00BDF1" d="M592.66 31.633c3.708.68 7.853 1.062 12.228 1.062 4.373 0 8.52-.38 12.23-1.062H592.66"/><path fill="#00BCF1" d="M592.725 31.633c3.69.674 7.812 1.053 12.16 1.053 4.35 0 8.47-.38 12.16-1.053h-24.32"/><path fill="#00BCF1" d="M592.793 31.633c3.67.668 7.77 1.043 12.093 1.043s8.42-.375 12.093-1.043h-24.187"/><path fill="#00BCF1" d="M592.86 31.633c3.65.662 7.73 1.033 12.025 1.033s8.372-.37 12.024-1.033h-24.05"/><path fill="#00BCF1" d="M592.928 31.633c3.634.656 7.687 1.023 11.958 1.023 4.27 0 8.324-.367 11.957-1.023h-23.915"/><path fill="#00BBF1" d="M592.995 31.633c3.613.65 7.644 1.016 11.89 1.016 4.247 0 8.276-.365 11.89-1.017h-23.78"/><path fill="#00BBF1" d="M593.064 31.633c3.597.645 7.602 1.006 11.82 1.006 4.222 0 8.23-.362 11.82-1.007h-23.64"/><path fill="#00BBF1" d="M593.13 31.633c3.577.64 7.56.996 11.756.996s8.177-.358 11.754-.998h-23.51"/><path fill="#00BAF1" d="M593.2 31.633c3.558.633 7.517.986 11.687.986s8.13-.356 11.688-.988H593.2"/><path fill="#00BAF1" d="M593.266 31.633c3.54.627 7.476.977 11.62.977 4.146 0 8.08-.35 11.62-.977h-23.24"/><path fill="#00BAF1" d="M593.333 31.633c3.52.62 7.433.967 11.553.967s8.03-.348 11.55-.967h-23.103"/><path fill="#00BAF1" d="M593.4 31.633c3.502.613 7.393.957 11.485.957 4.094 0 7.98-.344 11.483-.957H593.4"/><path fill="#00B9F1" d="M593.47 31.633c3.48.607 7.348.947 11.416.947s7.936-.34 11.416-.947H593.47"/><path fill="#00B9F1" d="M593.536 31.633c3.463.604 7.306.938 11.35.938 4.043 0 7.886-.335 11.35-.936h-22.7"/><path fill="#00B9F1" d="M593.604 31.633c3.444.598 7.265.93 11.282.93 4.02 0 7.837-.332 11.28-.93h-22.562"/><path fill="#00B9F1" d="M593.67 31.633c3.427.59 7.223.92 11.216.92 3.992 0 7.788-.33 11.214-.92h-22.43"/><path fill="#00B8F1" d="M593.74 31.633c3.406.584 7.18.91 11.146.91s7.74-.326 11.146-.91H593.74"/><path fill="#00B8F1" d="M593.807 31.633c3.388.578 7.138.9 11.08.9 3.94 0 7.69-.322 11.077-.9h-22.157"/><path fill="#00B8F0" d="M593.874 31.633c3.368.572 7.095.893 11.012.893 3.916 0 7.643-.32 11.01-.893h-22.022"/><path fill="#00B8F0" d="M593.942 31.633c3.352.565 7.054.883 10.943.883 3.89 0 7.593-.315 10.942-.883h-21.885"/><path fill="#00B7F0" d="M594.01 31.633c3.33.56 7.01.87 10.876.87s7.545-.31 10.876-.87H594.01"/><path fill="#00B7F0" d="M594.076 31.633c3.312.555 6.97.863 10.81.863s7.496-.31 10.81-.863h-21.62"/><path fill="#00B7F0" d="M594.144 31.633c3.294.55 6.928.854 10.742.854 3.815 0 7.447-.305 10.74-.854h-21.482"/><path fill="#00B7F0" d="M594.212 31.633c3.273.543 6.884.844 10.674.844s7.397-.3 10.673-.844h-21.35"/><path fill="#00B6F0" d="M594.28 31.633c3.257.535 6.843.835 10.605.835 3.764 0 7.35-.3 10.604-.835h-21.21"/><path fill="#00B6F0" d="M594.347 31.633c3.237.53 6.8.824 10.54.824 3.737 0 7.3-.295 10.537-.824h-21.077"/><path fill="#00B6F0" d="M594.414 31.633c3.218.524 6.758.816 10.472.816 3.713 0 7.253-.294 10.47-.817h-20.942"/><path fill="#00B5F0" d="M594.482 31.633c3.2.52 6.716.807 10.403.807 3.688 0 7.203-.29 10.402-.808h-20.805"/><path fill="#00B5F0" d="M594.55 31.633c3.18.512 6.673.797 10.336.797 3.662 0 7.155-.285 10.335-.797h-20.67"/><path fill="#00B5F0" d="M594.617 31.633c3.16.506 6.63.787 10.27.787 3.637 0 7.105-.28 10.268-.787h-20.538"/><path fill="#00B5F0" d="M594.686 31.633c3.144.5 6.59.777 10.2.777 3.612 0 7.06-.277 10.2-.777h-20.4"/><path fill="#00B5F0" d="M594.752 31.633c3.124.494 6.547.77 10.134.77s7.01-.274 10.132-.77h-20.266"/><path fill="#00B4F0" d="M594.82 31.633c3.104.488 6.505.76 10.065.76s6.96-.27 10.063-.76H594.82"/><path fill="#00B4F0" d="M594.888 31.633c3.085.48 6.462.748 9.998.748 3.535 0 6.912-.265 9.997-.746h-19.995"/><path fill="#00B4F0" d="M594.955 31.633c3.066.477 6.42.74 9.93.74s6.864-.266 9.93-.74h-19.86"/><path fill="#00B4F0" d="M595.023 31.633c3.048.47 6.378.73 9.862.73s6.813-.26 9.86-.73h-19.722"/><path fill="#00B3F0" d="M595.09 31.633c3.03.465 6.335.72 9.796.72 3.46 0 6.767-.255 9.794-.72h-19.59"/><path fill="#00B3F0" d="M595.16 31.633c3.01.46 6.292.712 9.728.712s6.718-.253 9.728-.712H595.16"/><path fill="#00B3EF" d="M595.226 31.633c2.99.45 6.25.7 9.66.7 3.408 0 6.67-.25 9.66-.7h-19.32"/><path fill="#00B3EF" d="M595.293 31.633c2.973.445 6.21.693 9.593.693 3.384 0 6.62-.248 9.593-.693h-19.187"/><path fill="#00B2EF" d="M595.36 31.633c2.955.44 6.168.684 9.525.684 3.356 0 6.57-.242 9.524-.684h-19.05"/><path fill="#00B2EF" d="M595.428 31.633c2.936.434 6.124.674 9.458.674 3.332 0 6.52-.24 9.456-.674h-18.914"/><path fill="#00B2EF" d="M595.496 31.633c2.915.428 6.082.664 9.39.664 3.31 0 6.475-.236 9.39-.664h-18.78"/><path fill="#00B2EF" d="M595.564 31.633c2.896.422 6.04.654 9.32.654s6.426-.232 9.32-.654h-18.64"/><path fill="#00B2EF" d="M595.63 31.633c2.88.416 6 .645 9.256.645s6.376-.23 9.254-.645h-18.51"/><path fill="#00B1EF" d="M595.7 31.633c2.857.41 5.955.637 9.187.637 3.232 0 6.327-.228 9.188-.638H595.7"/><path fill="#00B1EF" d="M595.767 31.633c2.84.404 5.912.627 9.12.627 3.205 0 6.277-.223 9.118-.627h-18.238"/><path fill="#00B1EF" d="M595.834 31.633c2.82.397 5.87.617 9.052.617 3.183 0 6.23-.22 9.05-.617h-18.102"/><path fill="#00B1EF" d="M595.902 31.633c2.803.393 5.83.606 8.983.606 3.154 0 6.18-.217 8.983-.608H595.9"/><path fill="#00B0EF" d="M595.97 31.633c2.782.387 5.786.598 8.916.598s6.132-.208 8.915-.596h-17.83"/><path fill="#00B0EF" d="M596.036 31.633c2.765.38 5.743.588 8.85.588 3.104 0 6.084-.206 8.85-.586h-17.7"/><path fill="#00B0EF" d="M596.104 31.633c2.746.373 5.703.578 8.782.578 3.078 0 6.035-.203 8.78-.576h-17.562"/><path fill="#00B0EF" d="M596.17 31.633c2.73.367 5.66.568 8.716.568 3.055 0 5.985-.2 8.714-.566h-17.43"/><path fill="#00B0EF" d="M596.24 31.633c2.708.36 5.618.56 8.646.56 3.028 0 5.938-.195 8.646-.56H596.24"/><path fill="#00AFEF" d="M596.307 31.633c2.69.355 5.575.55 8.58.55 3.002 0 5.89-.192 8.577-.55h-17.157"/><path fill="#00AFEF" d="M596.374 31.633c2.67.35 5.532.54 8.512.54 2.978 0 5.84-.19 8.51-.54h-17.022"/><path fill="#00AFEF" d="M596.442 31.633c2.65.344 5.49.53 8.443.53s5.79-.187 8.442-.53h-16.885"/><path fill="#00AFEF" d="M596.51 31.633c2.632.338 5.45.52 8.376.52 2.927 0 5.742-.184 8.376-.52H596.51"/><path fill="#00AEEF" d="M596.577 31.633c2.612.332 5.406.514 8.31.514 2.9 0 5.693-.182 8.308-.514h-16.618"/><path fill="#00AEEF" d="M596.645 31.633c2.596.326 5.364.504 8.24.504 2.877 0 5.647-.178 8.24-.504h-16.48"/><path fill="#00AEEE" d="M596.712 31.633c2.576.32 5.323.494 8.174.494 2.852 0 5.598-.174 8.173-.494h-16.35"/><path fill="#00AEEE" d="M596.78 31.633c2.56.312 5.28.484 8.105.484s5.548-.17 8.104-.484h-16.21"/><path fill="#00AEEE" d="M596.847 31.633c2.538.31 5.238.475 8.04.475 2.798 0 5.498-.166 8.036-.475h-16.076"/><path fill="#00ADEE" d="M596.915 31.633c2.52.303 5.194.467 7.97.467 2.773 0 5.45-.164 7.97-.468h-15.94"/><path fill="#00ADEE" d="M596.983 31.633c2.5.297 5.152.455 7.902.455 2.748 0 5.4-.16 7.902-.455h-15.804"/><path fill="#00ADEE" d="M597.05 31.633c2.48.29 5.11.447 7.836.447 2.725 0 5.354-.158 7.835-.447h-15.67"/><path fill="#00ADEE" d="M597.117 31.633c2.463.283 5.067.438 7.77.438 2.696 0 5.305-.148 7.768-.436h-15.538"/><path fill="#00ADEE" d="M597.185 31.633c2.444.277 5.027.428 7.7.428 2.674 0 5.257-.148 7.7-.426h-15.4"/><g transform="translate(48 4)"><path fill="#EA5B0F" d="M28.57 38.88c3.284 2.298 9.78-1.456 14.506-8.396 4.73-6.938 5.9-14.417 2.62-16.714-3.285-2.297-9.615 1.264-14.342 8.207-4.73 6.935-6.065 14.606-2.784 16.903z"/><path fill="#0055A4" d="M19.852 38.88c-3.283 2.298-9.778-1.456-14.505-8.396-4.73-6.938-5.902-14.42-2.62-16.714 3.285-2.297 9.615 1.264 14.343 8.205 4.73 6.937 6.063 14.608 2.782 16.905z"/><ellipse fill="#009DCC" cx="24.213" cy="7.754" rx="15.083" ry="7.309"/></g><path fill="#C70119" d="M131.005 15.58l-1.126 1.984h-10.22L104.004 47.13l-5.722.87-.282-.29 14.44-30.146h-8.436l1.03-1.983h8.25c3-5.37 5.438-9.385 14.064-13.257C129.88 1.163 133.82 0 137.382 0c1.875 0 3.844.388 3.844 1.55 0 .675-.938 2.322-2.626 2.322-1.78 0-3.75-.968-5.905-.968-5.72 0-7.41 3.29-8.722 6.048l-3.28 6.63h10.312"/><path fill="#161614" d="M167.998 0C154.748 0 144 10.745 144 24c0 10.605 6.876 19.6 16.413 22.77 1.2.225 1.638-.52 1.638-1.153 0-.57-.02-2.08-.03-4.08-6.676 1.447-8.084-3.22-8.084-3.22-1.092-2.77-2.665-3.51-2.665-3.51-2.18-1.49.166-1.46.166-1.46 2.41.17 3.676 2.473 3.676 2.473 2.142 3.67 5.62 2.61 6.986 1.996.218-1.55.838-2.607 1.523-3.207-5.33-.606-10.932-2.667-10.932-11.863 0-2.62.936-4.764 2.47-6.44-.247-.607-1.07-3.048.237-6.352 0 0 2.014-.646 6.6 2.46 1.913-.534 3.966-.8 6.007-.81 2.04.01 4.092.276 6.01.81 4.582-3.106 6.592-2.46 6.592-2.46 1.31 3.303.486 5.744.24 6.352 1.538 1.676 2.466 3.82 2.466 6.44 0 9.22-5.612 11.25-10.957 11.842.86.74 1.63 2.205 1.63 4.444 0 3.207-.03 5.796-.03 6.583 0 .642.433 1.39 1.65 1.154C185.13 43.59 192 34.6 192 24c0-13.255-10.747-24-24.002-24"/><path fill="#1A1918" d="M217.657 0h5.417v32.814c0 5.826-2.593 9.8-14.86 15.186L208 46.234c9.083-5.883 9.657-6.95 9.657-12.697V0z"/><path fill="#C23C2F" d="M285.244 13.16H274.84V2.754c0-1.522-1.234-2.755-2.756-2.755h-16.17c-1.52 0-2.755 1.232-2.755 2.754V13.16h-10.406c-1.522 0-2.755 1.233-2.755 2.755v16.17c0 1.52 1.233 2.755 2.754 2.755h10.404v10.404c0 1.52 1.233 2.755 2.755 2.755h16.17c1.52 0 2.755-1.234 2.755-2.757V34.84h10.404c1.52 0 2.756-1.234 2.756-2.756v-16.17c0-1.52-1.234-2.755-2.756-2.755h.002z"/><path fill="#FFF" d="M255.89 46c-.38 0-.69-.31-.69-.69V32.8h-12.51c-.38 0-.69-.31-.69-.692V15.89c0-.38.31-.69.69-.69h12.51V2.69c0-.38.31-.69.69-.69h16.22c.38 0 .69.31.69.69V15.2h12.51c.38 0 .69.31.69.69v16.22c0 .38-.31.69-.69.69H272.8v12.508c0 .38-.31.69-.69.69h-16.22V46z"/><path fill="#212828" d="M267.31 9.05l-3.54-5.275-3.543 5.274 2.19-.454v12.596c-.873.506-1.46 1.447-1.46 2.527 0 1.613 1.308 2.92 2.92 2.92 1.613 0 2.92-1.31 2.92-2.92 0-1.147-.66-2.136-1.623-2.614V8.61l2.136.44zm13.714 14.612l-4.057-2.725.277 1.345h-9.438v2.758h9.44l-.278 1.347 4.056-2.725z"/><path fill="#54ACEE" d="M336 8.7c-1.765.797-3.664 1.335-5.656 1.576 2.034-1.24 3.597-3.202 4.33-5.544-1.902 1.15-4.01 1.983-6.253 2.433C326.627 5.218 324.067 4 321.234 4c-5.438 0-9.85 4.486-9.85 10.02 0 .786.088 1.55.256 2.285-8.185-.42-15.44-4.408-20.3-10.47-.847 1.478-1.332 3.2-1.332 5.038 0 3.476 1.737 6.543 4.38 8.34-1.614-.052-3.133-.503-4.46-1.254-.002.04-.002.082-.002.125 0 4.854 3.395 8.903 7.9 9.825-.826.23-1.696.352-2.594.352-.635 0-1.252-.062-1.854-.18 1.254 3.98 4.89 6.88 9.2 6.96-3.37 2.687-7.616 4.29-12.23 4.29-.795 0-1.58-.05-2.35-.143 4.36 2.844 9.535 4.5 15.096 4.5 18.114 0 28.02-15.27 28.02-28.51 0-.434-.01-.867-.026-1.298 1.92-1.41 3.59-3.175 4.91-5.184L336 8.7z"/><path fill="#0D9EE3" d="M344.197 19.84c0-2.378-1.835-4.307-4.1-4.307-2.265 0-4.1 1.928-4.1 4.307 0 3.023 4.1 5.535 4.1 5.535s4.1-2.666 4.1-5.535zm3.917 5.535s-4.85 2.553-4.85 6.064c0 2.81 2.17 5.092 4.85 5.092 2.677 0 4.848-2.28 4.848-5.095 0-3.59-4.848-6.064-4.848-6.064v.002zm14.22-7.446c0-3.436-2.65-6.22-5.92-6.22s-5.916 2.784-5.916 6.22c0 4.24 5.917 7.444 5.917 7.444s5.918-3.203 5.918-7.446zm3.916 7.444s-6.548 2.856-6.548 7.744c0 3.8 2.93 6.88 6.548 6.88s6.55-3.08 6.55-6.88c0-4.81-6.55-7.745-6.55-7.744zm17.75-9.3c0-4.46-3.44-8.074-7.684-8.074-4.242 0-7.686 3.614-7.686 8.073 0 5.485 7.687 9.302 7.687 9.302S384 21.71 384 16.073z"/><path fill="#8C979B" d="M419.876 27.15c.925.396 1.48 1.14 1.48 1.99 0 1.125-.866 1.795-2.315 1.795-1.537 0-2.25-1.355-2.437-1.77l-.225-.516h-5.555c-.73 1.215-2.196 2.335-3.903 2.335-3.08 0-4.62-2.407-4.814-4.784H414.7v-.52c0-.986-.105-1.913-.295-2.772.36 1.105 1.183 2.25 2.903 3.062.63.3 1.58.75 2.568 1.18zm-13.136-7.552c2.577 0 3.84 1.778 4.205 3.588h-8.577c.447-1.814 2.038-3.588 4.372-3.588zm25.27.052v-3.252h-2.678v-3.844h-3.287v3.844h-6.62c-3.056.002-5.272 2.057-5.272 4.89 0 .305.025.633.09.973-1.043-3.607-3.788-5.86-7.478-5.86-4.51 0-7.958 3.51-8.247 8.27v-1.013c0-4.002-3.257-7.258-7.26-7.258S384 19.653 384 23.655V34.06h3.327V23.656c0-2.167 1.763-3.93 3.932-3.93 2.166 0 3.932 1.763 3.932 3.93V34.06h3.325v-8.096c.29 4.773 3.783 8.3 8.354 8.3 2.79 0 5.25-1.622 6.645-3.497 1.04 2.223 3.07 3.496 5.58 3.496 2.908 0 5.854-1.857 5.854-5.408 0-2.127-1.235-3.864-3.48-4.896-.286-.13-.518-.24-.738-.346l-.03-.016c-.25-.12-.492-.233-.793-.37-1.466-.658-2.164-1.14-2.164-2.1 0-.845.756-1.48 1.69-1.48h6.612v9.265c0 2.95 2.4 5.35 5.35 5.35v-3.287c-1.138 0-2.062-.926-2.062-2.062V19.65h2.674z"/><g fill="#60A6CF"><path d="M462.24 25.244h2.7v2.7h-2.7v-2.7zm5.786 9.456c3.906-.153 5.397-2.905 5.397-2.905s-1.232 1.44-5.297 1.8c-4.062.36-8.382-1.85-8.382-1.85.003.103 4.374 3.11 8.282 2.955zm-.104-9.723h2.7v2.697h-2.7v-2.697zm3.78-5.225h2.7v2.7h-2.7v-2.7zm-.848 8.08h2.81v2.81h-2.81v-2.81zm4.013-5.008h4.843v4.84h-4.843v-4.84zm-8.75-3.164h2.7v2.698h-2.7V19.66z"/><path d="M472.39 35.37c-6.995 1.737-12.755-2.12-21.805-4.956-5.955-1.867-10.908.72-13.6 2.705-1.4 1.03-2.19 1.9-2.19 1.9 0 .042.814-.454 2.19-1.034 2.853-1.202 8.128-2.78 13.577-.747 8.07 3.01 14.42 4.337 21.312 3.152 5.447-.938 7.354-4.496 7.917-5.95-.503 1.162-2.165 3.626-7.4 4.928zm-11.58-20.925h4.845v4.84h-4.844v-4.84z"/><path d="M434.88 36.336c6.627-2.173 16.502-1.55 23.237 1.11-4.862-2.662-14.624-6.64-23.237-1.11zm44.91-5.89c.17-.392.21-.632.21-.632s-.06.247-.21.63zm-42.806 1.798c.5-.338 1.012-.657 1.48-.9-.23-.146-.443-.312-.638-.502-.36-.353-.635-.746-.845-1.152-.906-1.758-.595-3.752-.595-3.752s-1.537 3.522.596 5.62l.057.054c.09.088.184.164.28.238-.114-.055-.23-.113-.336-.176-1.417-.816-2.37-2.334-2.37-4.07 0-1.737.953-3.255 2.37-4.07.647-.373 1.394-.6 2.19-.632-.105-.6-.16-1.218-.16-1.848 0-.375.02-.747.06-1.112-.73.033-1.43.168-2.086.393-2.9.992-4.984 3.713-4.984 6.917 0 2.578 1.354 4.847 3.395 6.147.46-.356 1.018-.768 1.59-1.156zm19.45-14.472h3.635v3.63h-3.635v-3.63z"/><path d="M442.444 23.803c-.015-.047-.025-.093-.037-.14.027.098.048.152.048.152s-.466-4.068 2.433-6.1c2.9-2.033 7.188-.794 7.188-.794s-4.512-2.66-7.896-.245c-.082.06-.16.12-.235.18 1.43-1.713 3.596-2.805 6.02-2.805 2.464 0 4.66 1.128 6.09 2.892h3.238C457.7 13.44 454.138 11 450 11c-5.62 0-10.178 4.5-10.178 10.05 0 .62.058 1.228.167 1.818.915.09 1.76.423 2.454.935z"/></g><path opacity=".9" fill="#01A1AB" enable-background="new" d="M524.932 19.286l-.425.938-.43-.944-.245 1.248h.16l.137-.764.375.806.363-.81.144.767h.166l-.248-1.24h.002zm-1.56 1.243h.167v-1.064h.266v-.157h-.695v.156h.266l-.004 1.063zm-2.958-.426c-2.008 0-2.994 1.54-2.994 1.54V17.76h-3.114v12.823h3.146v-5.876c0-.987.837-1.808 1.842-1.808 1.372 0 1.606.802 1.606 1.657v6.024h3.213v-7.06c0-1.94-1.657-3.415-3.7-3.416zm-11.568 3.114c0-.403.318-.62.82-.62.904 0 1.27.803 1.27.803l2.36-1.036c-.636-1.44-1.892-2.26-3.364-2.26-2.273 0-3.934 1.355-3.934 3.348 0 3.614 4.603 2.944 4.603 4.217 0 .486-.6.723-1.102.723-.92 0-1.44-.904-1.44-.904l-2.392 1.202c.803 1.508 2.075 2.144 3.8 2.144 2.176 0 4.116-1.188 4.116-3.414.002-3.518-4.734-3.05-4.734-4.204h-.002zm-8.948-3.115c-3.163 0-5.623 2.31-5.623 5.39 0 2.86 2.41 5.438 5.557 5.438 3.348 0 5.607-2.36 5.607-5.49 0-3.094-2.43-5.337-5.542-5.337zM490.715 23c-.335-.133-.987-.4-1.39-.552-.67-.25-1.456-.484-1.456-1.17 0-.67.467-1.122 1.287-1.122 1.24 0 2.578 1.02 2.578 1.02l1.305-2.51c-.92-.603-2.442-1.373-4.1-1.373-2.276 0-4.402 1.523-4.402 4.084 0 1.808.888 2.963 2.512 3.7.552.25 1.506.618 1.907.77 1.256.47 1.34.72 1.34 1.255 0 .688-.92 1.004-1.856 1.004-1.223 0-2.395-.686-3.014-1.236-.284.484-1.338 2.594-1.338 2.594 1.338.837 2.61 1.59 4.418 1.59 2.576 0 5.12-1.438 5.12-4.185 0-1.932-.987-3.1-2.91-3.87zM528 32.98l-46.487 3.35L480 15.35 526.487 12 528 32.98z"/><path fill="#FF6122" d="M528 0h48v48h-48V0z"/><path fill="#FFF" d="M533.928 38.505c-1.31 0-1.55 1.18-1.55 2.032 0 .854.24 2.035 1.55 2.035s1.55-1.182 1.55-2.035c0-.85-.24-2.032-1.55-2.032m0 5.548c-1.73 0-3.297-1.104-3.297-3.516 0-2.41 1.565-3.516 3.3-3.516 1.73 0 3.293 1.105 3.293 3.518s-1.562 3.517-3.294 3.517m4.494-6.857h1.668v.782c.318-.422 1.104-.92 1.836-.92.07 0 .155 0 .23.01v1.646h-.088c-.765 0-1.6.118-1.866.71v4.434h-1.78v-6.662m5.933 4.677c0 .45.28.867.79.867.55 0 1.087-.23 1.624-.7v-1.58c-1.636.204-2.412.626-2.413 1.413m2.455 1.404c-.68.442-1.41.66-2.2.66-1.244 0-1.98-.827-1.98-1.94 0-1.49 1.37-2.276 4.195-2.597v-.37c0-.485-.366-.77-1.045-.77-.68 0-1.23.27-1.625.77l-1.185-.677c.62-.87 1.566-1.303 2.837-1.303 1.737 0 2.713.752 2.713 1.978v4.828h-1.553l-.154-.58m3.092-5.902l1.452-.2.16.79c.815-.6 1.468-.917 2.284-.917 1.37 0 2.08.726 2.08 2.165v4.64h-1.755V39.52c0-.812-.213-1.182-.847-1.182-.522 0-1.046.236-1.645.738v4.777h-1.733l.003-6.477m13.395-.2v6.307c0 1.11-.088 2.947-3.26 2.966-1.31.01-2.524-.518-2.767-1.66l1.73-.28c.07.33.272.655 1.253.655.907 0 1.345-.436 1.345-1.477v-.778l-.02-.023c-.28.5-.703.973-1.72.973-1.557 0-2.777-1.076-2.777-3.33 0-2.228 1.262-3.475 2.677-3.478 1.33-.003 1.82.604 1.938.923l-.023-.004.146-.794h1.477zm-3.127 5.252c1.33-.01 1.443-1.363 1.443-2.244 0-1.045-.51-1.89-1.457-1.89-.63 0-1.333.46-1.333 1.962 0 .82.06 2.183 1.346 2.172zm8.634-2.783c0-.89-.51-1.414-1.343-1.414-.792 0-1.287.518-1.354 1.417h2.697v-.002zm-1.316 4.335c-1.963 0-3.134-1.266-3.134-3.455 0-2.217 1.186-3.48 3.104-3.48s3.064 1.227 3.064 3.393c0 .114-.017.23-.017.344h-4.433c.012 1.265.537 1.9 1.568 1.9.66 0 1.102-.27 1.513-.854l1.283.71c-.56.946-1.577 1.442-2.946 1.442zm1.986-9.31v.293h.687v1.91h.364v-1.91h.69v-.292h-1.74zm4.052 0l-.646 1.672-.657-1.67h-.563v2.2h.364v-1.837h.01l.725 1.838h.232l.718-1.838h.01v1.838h.364V34.67h-.558z"/><path fill="#D72938" d="M689.984 2c.85.003 1.295.667 1.453.886.072.22.136.443.214.897.013.09.018.146.018.24 0 .37-.09.582-.227.926-.12.297-.17.484-.39.722-.32.344-.546.45-.64.575-.042.06-.37.363-.465.502-.097.14-.463.715-.612 1.03-.12.257-.11.686-.54 1.283-.177.245-.327.365-.422.652-.092.29-.09.48-.244.742-.283.476-.543.683-.777 1.183-.226.485-.232.798-.385 1.307-.16.532-.522.743-.58 1.292-.03.256.03.41 0 .67-.085.79-.632 1.07-1.02 1.764-.146.257-.146.447-.19.74-.064.41-.135.632-.265 1.027-.22.665-.202 1.08-.332 1.766-.086.45-.137.708-.21 1.16-.038.234-.178.35-.178.59l.002.23c0 .156-.1.23-.105.39-.027.353-.09.548-.14.898-.24 1.77-.568 2.72-.997 4.456-.155.625-.152.997-.297 1.622-.106.466-.208.726-.245 1.203-.028.38-.024.593-.05.97-.032.44.02.688.02 1.125 0 .252-.02.396-.052.646-.18 1.426-.49 2.47-.52 3.655v.78l-.12 1.13v.192c.004.602-.552 1.186-1.085 1.186-.725-.002-.956-.762-1.07-1.52-.074-.48-.15-.754-.22-1.232-.037-.27-.168-.395-.23-.658-.02-.092-.013-.147-.026-.23-.016-.08-.293-1.354-.51-2.212-.18-.708-.37-2.026-.4-2.06-.035-.04-.13-.55-.17-1.055-.023-.295-.135-.606-.155-.74-.022-.144.033-.227.01-.37-.064-.4-.09-.63-.18-1.023-.087-.378-.134-.576-.196-.975v-.158c-.05-.693-.27-1.508-.395-2.475-.058-.44-.033-.693-.07-1.132-.036-.35-.063-.82-.227-.885-.225-.088-.297.235-.38.404-.184.367-.29.57-.443.956-.218.548-.293.875-.54 1.41-.277.597-.378.952-.63 1.56-.196.478-.51.907-.968.92-.387.01-.78-.42-.798-.775-.02-.285.13-.92.322-1.438.204-.543.357-.973.478-1.415.125-.476.202-.604.333-1.11.165-.652.42-1.085.6-1.734.21-.766.42-1.116.67-1.87.116-.355.2-.61.296-.973.045-.17.225-.684.333-1.13.085-.35.15-.72.244-.885.184-.277.5-.348.838-.345.71 0 1.19.37 1.198 1.075.006.47-.063 1.026.022 1.5.007.326.054.198.104.515.193 1.245.28 1.404.38 2.384.125.566.213 1.585.213 1.585 0 .398.146 1.085.238 1.474.087.382-.002.532.14 1.13.104.46.17 1.045.186 1.2.015.202.062.587.1.79.023.145.055.46.15.95.108.335.072.614.228.972.038.1.096.2.2.2.09.003.172-.138.232-.257.206-.39.188-.638.34-1.054.188-.523.27-.87.353-1.38.138-.585.277-1.69.54-2.755.27-1.074.372-1.69.578-2.774.145-.74.295-1.19.424-1.89.076-.335.175-.52.173-.865.028-.2.086-.323.124-.53.144-.736.272-1.263.333-1.892v-.174c.032-.133.08-.44.246-.763.17-.525.34-.803.633-1.27.438-.695.373-1.23.632-2.013.038-.06.23-.488.274-.823.04-.04.15-.28.194-.556.103-.115.53-1.92.83-2.647.016-.178.167-.404.25-.657.07-.24.497-1.328.694-1.994.168-.538.115-.883.336-1.396.238-.55.385-1.163.44-1.466.136-.337.268-.512.477-.812.302-.432.494-.712.983-.905.227-.09.382-.187.623-.187h-.002zm14.415 8.888c.535 0 1.083.36 1.06.9-.02.43-.153.514-.246.67-.146.24-.09.643-.91.723-.432 0-.966-.495-.966-1.053 0-.63.428-1.238 1.06-1.24zm5.33 1.84c.75.003 1.13.74 1.11 1.558-.003.076-.027.117-.027.195 0 .21.027.324.027.53 0 .195-.063.708-.063.708 0 .398-.12.618-.12 1.016 0 .113.033.178.033.29 0 .23-.035.357-.055.585-.047.56.333.596.46.853.27.125.402.358.71.358.143.003.572-.18.69-.22.56-.25.887-.38 1.428-.67.84-.44 1.186-.8 2-1.31.54-.345 1.043-.686 1.687-.685.53 0 1.03.397 1.18.764.07.177.174.405.174.64 0 .086.037.13.037.214 0 .123-.002.194-.015.317-.04.348-.03.56-.158.883-.13.334-.355.455-.654.653-.33.226-.603.334-1.01.334h-.212c-.283-.003-.41-.09-.694-.09-.448 0-.723.182-1.12.38-.478.236-1.02.544-1.185.625-.466.218-1.42.725-2.294 1.248-1.795 1.072-3.035 1.644-4.772 2.797-.673.448-.854.666-1.57 1.042-.437.236-.74.28-1.162.547-.716.446-1.1.762-1.68 1.376-.516.438-1.25 1.193-1.877 1.514-.578.295-1.24.842-1.653 1.342-.085.104-.49.36-.544.972l.133 1.674c0 .317-.146.528-.126.903l.018 1.185c.003.44.15.49.15.855l.015.474c0 .558.22.845.23 1.396-.057.6.007.862.02 1.435.02.557.1.892.234 1.43.1.402.063.62.24.99.255.55.366.856.64 1.4.183.36.294.66.294 1.065 0 .793-.633 1.288-1.483 1.377-.074.01-.726.01-.99-.165-.33-.228-.426-.657-.443-1.057-.024-.556-.012-.763-.104-1.328.01-.292-.067-.453-.145-.73-.17-.632-.287-.993-.302-1.647-.02-.84.05-1.312.05-2.15-.035-.556-.078-.87-.146-1.42-.07-.545-.177-.86-.24-1.404-.11-.918-.11-1.433-.162-2.354-.02-.23-.02-.347-.04-.57-.006-.277-.123-.41-.31-.412-.38 0-.54.274-.868.463-.46.257-.693.504-1.082.856-.782.573-1.108.903-1.74 1.592-.417.453-.613.758-1.075 1.164-.374.325-.616.485-.974.828-.294.28-.395.508-.617.85-.202.306-.396.43-.67.668-1.006.884-1.197.85-2.438 2.416-.362.46-.632.523-.724.677-.02.03-.43.366-.576.514-.204.203-.518.504-.695.645-.396.315-.538.6-.92.937-.43.38-.7.61-1.252.792-.256.083-.354.178-.63.178-.562 0-.946-.535-.947-1.1 0-.357.18-.49.392-.775.406-.554.684-.84 1.197-1.287.847-.74 1.145-1.37 2.082-1.994.327-.217 1.147-.67 1.368-.84.38-.295.716-.62 1.02-.994.13-.17.276-.213.403-.39.135-.186.18-.323.338-.493.355-.388.626-.544 1.06-.848.56-.394.88-.565 1.413-1.004.378-.31.542-.575.845-.955.6-.75 1.164-.948 1.943-1.517.36-.264.477-.518.76-.864.152-.19.67-.853 1.182-1.306.342-.305.552-.46.898-.76.597-.517.807-.33.792-1.12 0-.138.036-.325-.167-.31-.19.015-.24.175-.378.3-.294.26-.477.387-.866.38-.8-.014-1.307-.728-1.33-.774-.227-.446-.59-1.807-.605-2.227 0 0-.024-.562 0-.885.03-.402.135-1.136.386-1.573.138-.24.26-1.198.43-2.08.06-.32.24-.647.344-.96.147-.448.22-.72.49-1.11.48-.683.744-1.456 1.58-1.452.188 0 .27.046.44.127.106.058.23.078.293.178.06.09.005.173.092.24.154.122.228.372.228.62 0 .143 0 .227-.018.366-.062.563-.403.79-.758 1.234-.346.432-.43.573-.646 1.08-.176.415-.22.842-.306 1.284-.103.52-.19.985-.228 1.347-.013.112-.023.21-.023.33 0 .13.096.373.227.373.207 0 .396-.248.464-.444.167-.457.295-.682.41-1.154.17-.676.278-.974.54-1.547.33-.71.363-1.16.554-1.74.23-.7.43-1.344 1.166-1.34.236 0 .393 0 .597.12.462.26.575.697.575 1.226-.005.162-.01.257-.023.42-.17 1.58-.564 2.433-.695 4.026-.018.225 0 .356-.02.582-.033.397-.124.614-.122 1.018 0 .183.04.28.092.45.024.09.056.195.148.195.186 0 .263-.13.416-.23.3-.187.5-.25.793-.44.453-.3.746-.42 1.186-.738.445-.327.903-.83 1.366-1.13.455-.295.513-.22.998-.526.59-.373.945-.565 1.503-.984.333-.256.347-.436.83-.707.462-.263.73-.404 1.18-.688.242-.152.363-.27.62-.387.212-.1.424-.195.424-.43-.002-.236-.146-.374-.27-.574-.172-.29-.203-.447-.204-.783 0-.166-.007-.29.02-.455.106-.654.36-1 .358-1.66l.02-.216c-.03-.024-.047-.054-.09-.054-.09 0-.145.12-.202.19-.17.196-.267.318-.433.52-.223.26-.363.4-.514.707-.087.166-.07.285-.14.46-.153.38-.263.604-.39.995-.348 1.046-.32 2.43-1.428 2.428-.727 0-1.314-.578-1.315-1.303 0-.42.118-1.056.17-1.103.178-.15.035-.55.14-.643.088-.072.12-.44.12-.8 0-.166.047-.264.047-.43l.02-.268c0-.304.096-.46.14-.76.09-.6.246-.75.298-.92.026-.1.02-.146.057-.245.193-.546.147-.87.684-1.32.19-.192.31-.396.58-.396.626 0 .8.357.96.342.29-.03.392-.253.598-.458.62-.612 1.025-1.348 1.906-1.346zm-6.984 3.857c.596 0 1.186.22 1.17.982-.01.45-.244.67-.404 1.087-.133.345-.062.578-.155.936-.143.532-.364.477-.333 1.377.01.675.01 1.057-.016 1.732-.025.647-.56 1.104-1.212 1.114-.563.01-1.144-.66-1.142-1.226 0-.405.114-.623.14-1.027.02-.35-.008-.55.017-.9.035-.596.198-.915.386-1.484.093-.282.087-.465.193-.742.154-.404.2-.632.44-1.023.1-.44.433-.83.916-.827v.002zm-16.235 2.102c.36 0 .614.176.804.485.184.304.34.493.34.85 0 .062-.02.097-.02.16.003.61-.51 1.093-1.12 1.093-.608-.004-1.056-.628-1.054-1.162 0-.213.132-.35.154-.583.058-.55.41-.846.897-.843zm4.476 1.65c.627 0 .903.517 1.213 1.063.3.53.64.817.64 1.422 0 .608-.397.913-.866 1.3-.267.22-.497.174-.846.28-.16.05-.194.265-.215.458-.037.354-.062.553-.07.902-.015.586.006.918.01 1.502-.062.324-.01.543-.16.83-.242.46-.627.69-1.15.688-.603 0-1.124-.48-1.113-1.09.003-.18.08-.727.07-1.192-.018-.708-.073-1.11-.075-1.82-.002-.354.158-.542.158-.9v-.3c-.01-.26.244-.494.51-.705.38-.304.54-.643.72-1.097.29-.75.452-1.34 1.173-1.34zm-4.47 2.804c.307.006.516.115.692.356.288.393.47.684.47 1.17 0 .104-.007.162-.017.268-.047.396-.176.613-.39.95-.134.218-.138.386-.242.62-.2.43-.318.824-.335 1.165-.02.7-.03 1.1-.015 1.8.01.355.09.548.09.897.006.73-.425 1.472-1.153 1.472-.725.002-1.412-.955-1.376-1.964.016-.363.072-.562.14-.92.108-.557.195-1.19.298-1.432.14-.318.13-.435.154-.53l.084-.577c0-.236.092-.286.13-.518.08-.5.14-.774.298-1.255.1-.296.232-.433.334-.724.15-.42.392-.78.838-.78z"/><path fill="#52BC0F" d="M746.273 0c-3.815 0-7.453 1.436-9.596 3.724V1.166l-.37-.373h-7.774l-.373.373-.16 46.53.16.304 8.335-4.993.2-.335-.018-25.82c0-5.89 2.838-9.268 7.784-9.268 5.38 0 7.776 3.08 7.776 9.992v19.876l.376.373h7.773l.373-.373V17.284C760.764 5.977 755.754 0 746.273 0z"/><path fill="#E2E2E2" d="M807 38.434v.57c0 1.654-1.344 2.996-3.002 2.996h-27.996c-1.658 0-3.002-1.348-3.002-2.997v-.573c-1.076-.697-1.702-1.96-1.533-3.395L773 22h34l1.533 13.035c.17 1.443-.455 2.705-1.533 3.4zm0-32.863V5C807 3.348 805.656 2 803.998 2h-27.996C774.344 2 773 3.342 773 4.997v.57c-1.078.693-1.703 1.955-1.533 3.397L773 22h34l1.533-13.036c.17-1.432-.457-2.696-1.533-3.393z"/><path fill="#E2E2E2" d="M776 2h28c1.657 0 3 1.343 3 3v3c0 1.657-1.343 3-3 3h-28c-1.657 0-3-1.343-3-3V5c0-1.657 1.343-3 3-3z"/><path fill="#AAA9A8" d="M776 33h28c1.657 0 3 1.344 3 3v3c0 1.656-1.343 3-3 3h-28c-1.657 0-3-1.344-3-3v-3c0-1.656 1.343-3 3-3z"/><path fill="#0D7DC0" d="M771.467 8.964C771.21 6.774 772.782 5 774.995 5h30.01c2.206 0 3.785 1.787 3.528 3.964L807 22h-34l-1.533-13.036z" filter="url(#a)"/><g transform="translate(771 22)"><path fill="#0AABF4" d="M2 0h34l1.533 13.035C37.79 15.225 36.218 17 34.005 17H3.995C1.79 17 .21 15.213.467 13.035L2 0z" filter="url(#b)"/><mask maskUnits="userSpaceOnUse" x="2" y="0" width="37.025" height="17" id="d"><path fill="#FFF" d="M2 0h34l1.533 13.035C37.79 15.225 36.218 17 34.005 17H3.995C1.79 17 .21 15.213.467 13.035L2 0z" filter="url(#c)"/></mask><path mask="url(#d)" fill="#099DE1" d="M2 0l17 17h20.025V0H2z"/></g><path fill="#E8E8E8" d="M781 29c0-3 6-5 9-5s9 2 9 5v3h-18v-3zm9-9c2.21 0 4-1.79 4-4s-1.79-4-4-4-4 1.79-4 4 1.79 4 4 4z"/><g transform="translate(792 24)"><circle fill="#FD7461" cx="12" cy="12" r="12"/><path fill="#FFF" d="M17.657 17.657C19.14 16.177 20 14.157 20 12c0-4.418-3.582-8-8-8v2c3.312 0 6 2.688 6 6 0 1.62-.646 3.133-1.757 4.242L14 14v6h6l-2.343-2.343zm-9.9-9.9L10 10V4H4l2.343 2.343C4.86 7.823 4 9.843 4 12c0 4.418 3.582 8 8 8v-2c-3.312 0-6-2.688-6-6 0-1.62.646-3.132 1.757-4.243z"/></g><path fill="#0077B5" d="M820 0h40c2.21 0 4 1.79 4 4v40c0 2.21-1.79 4-4 4h-40c-2.21 0-4-1.79-4-4V4c0-2.21 1.79-4 4-4z"/><path fill="#FFF" d="M831.19 39.275V18.848h-6.79v20.427h6.79zm-3.393-23.216c2.367 0 3.84-1.57 3.84-3.53-.043-2.006-1.473-3.53-3.795-3.53S824 10.524 824 12.53c0 1.96 1.474 3.53 3.752 3.53h.045zm7.476 23.213h6.79V27.868c0-.61.044-1.22.224-1.657.49-1.217 1.605-2.48 3.48-2.48 2.457 0 3.44 1.874 3.44 4.62v10.93H856V27.562c0-6.274-3.35-9.194-7.817-9.194-3.663 0-5.27 2.047-6.164 3.442h.045v-2.962h-6.79c.087 1.917-.003 20.427-.003 20.427v-.002z"/><path fill="#264670" d="M912 24.874c0-5.644-2.033-10.822-5.418-14.874h-13.24l4.077 6.935h-5.394l6.352 10.793h5.38l5.125 8.724c1.98-3.42 3.115-7.368 3.115-11.578H912zm-29.333-14.862l.006-.012h-13.255C866.032 14.052 864 19.23 864 24.874c0 4.216 1.14 8.17 3.123 11.59l8.59-14.617L885.2 38h13.92l-16.453-27.988zm26.525 33.46c0 .696-.1 1.19-.294 1.472-.196.283-.498.427-.906.427s-.706-.143-.896-.428c-.188-.28-.28-.77-.28-1.47V39.2h-2.063v4.032c0 1.336.266 2.322.798 2.957.533.635 1.348.952 2.443.952 1.088 0 1.892-.317 2.412-.955.52-.636.777-1.62.777-2.957V39.2h-1.99v4.273zm-9 .408h2.544v-1.728h-2.544v-1.225h2.976V39.2h-5.04V47h5.16v-1.73h-3.096"/><g><path fill="#264670" d="M946.38 27.73h5.38l5.125 8.723c1.98-3.42 3.115-7.367 3.115-11.577 0-5.644-2.033-10.822-5.418-14.874h-13.24l4.077 6.935h-5.394l6.352 10.792h.002zm-15.713-17.718l.006-.012h-13.255C914.032 14.052 912 19.23 912 24.874c0 4.216 1.14 8.17 3.123 11.59l8.59-14.617L933.2 38h13.92l-16.453-27.988zm20.4 35.18c-.224.118-.483.176-.787.176-.504 0-.91-.196-1.22-.588-.31-.392-.463-.956-.463-1.692 0-.352.047-.668.14-.947.093-.278.217-.515.373-.706.153-.19.34-.34.552-.442.212-.104.434-.156.666-.156.256 0 .476.046.66.138.184.094.372.223.562.39l1.128-1.27c-.277-.28-.622-.52-1.023-.727-.404-.203-.854-.306-1.353-.306-.504 0-.983.093-1.444.275-.46.183-.865.45-1.22.798-.35.35-.63.776-.84 1.284s-.31 1.09-.31 1.746c0 .664.1 1.246.3 1.746s.47.915.813 1.247c.348.33.745.58 1.2.743.455.162.94.244 1.453.244.48 0 .938-.097 1.368-.29.434-.19.817-.478 1.153-.86l-1.128-1.25c-.164.184-.358.334-.578.45zm6.677-5.992h-2.496l-2.376 7.8h2.112l.384-1.656h2.184l.384 1.656h2.187l-2.38-7.8zm-2.004 4.548l.132-.54c.096-.376.19-.782.282-1.218s.182-.854.27-1.254h.048c.1.392.192.808.288 1.248.1.438.192.848.288 1.224l.132.54h-1.44z"/></g><g fill="#9DC51C"><path d="M977 26.5l-16.5 8 31 5.5-14.5-9m3.86-14.5c-.86 1 .64 3 .64 3L992 30v-8.5l-9-5.5s-1.28-.5-2.14.5z"/><path d="M990.5 34c.5-1.5-2.5-4-2.5-4l-8-7v7l8 4.5s2 1 2.5-.5zm6.5-12c0 2 2.5 3 8 3 1 0 2 .5 2 .5V18c0-.5-2-1.5-4-1s-6 3.5-6 5zm7 6.5c-1.5-.5-6.5-.5-7.5-1s-1.5-1-1.5-1V37s8.5-5 9.5-5.5 1-2.5-.5-3zm-2.33-15.946c.455-.304.438-.772-.05-1.042l-7.24-4.023c-.493-.275-1.27-.273-1.76 0l-7.24 4.02c-.493.273-.508.736-.05 1.042l7.34 4.893c.455.304 1.202.306 1.66 0l7.34-4.893v.002zm3.522 26.646v4.272c0 .693-.1 1.186-.294 1.47-.196.284-.498.426-.906.426s-.706-.142-.896-.427c-.188-.28-.28-.77-.28-1.468V39.2h-2.063v4.032c0 1.336.266 2.322.798 2.957.533.635 1.348.952 2.443.952 1.088 0 1.892-.317 2.412-.955.52-.636.777-1.62.777-2.957V39.2h-1.99zm-9 4.68h2.544v-1.728h-2.544v-1.225h2.976V39.2h-5.04V47h5.16v-1.73h-3.096"/></g><g fill="#9DC51C"><path d="M1045 22c0 2 2.5 3 8 3 1 0 2 .5 2 .5V18c0-.5-2-1.5-4-1s-6 3.5-6 5zm-6.5 12c.5-1.5-2.5-4-2.5-4l-8-7v7l8 4.5s2 1 2.5-.5z"/><path d="M1025 26.5l-16.5 8 31 5.5-14.5-9m27-2.5c-1.5-.5-6.5-.5-7.5-1s-1.5-1-1.5-1V37s8.5-5 9.5-5.5 1-2.5-.5-3zm-23.14-12c-.86 1 .64 3 .64 3L1040 30v-8.5l-9-5.5s-1.28-.5-2.14.5zm20.76-4.988l-7.24-4.023c-.493-.275-1.27-.273-1.76 0l-7.24 4.02c-.493.273-.508.736-.05 1.042l7.34 4.893c.455.304 1.202.306 1.66 0l7.34-4.893c.455-.304.436-.772-.05-1.042v.002zm4.124 27.688h-2.496l-2.376 7.8h2.112l.384-1.656h2.184l.386 1.656h2.185l-2.38-7.8zm-2.004 4.548l.132-.54c.096-.376.19-.782.282-1.218.092-.436.182-.854.27-1.254h.048c.1.392.192.808.288 1.248.096.438.192.848.288 1.224l.132.54h-1.44zm-4.674 1.445c-.223.117-.482.175-.786.175-.504 0-.91-.196-1.218-.588-.31-.392-.465-.956-.465-1.692 0-.352.05-.668.14-.947s.217-.515.373-.706c.153-.19.34-.34.552-.442.212-.104.434-.156.666-.156.256 0 .476.046.66.138.184.094.372.223.562.39l1.128-1.27c-.277-.28-.62-.52-1.023-.727-.404-.203-.854-.306-1.353-.306-.504 0-.983.093-1.443.275s-.867.45-1.222.798c-.352.35-.632.776-.84 1.284s-.312 1.09-.312 1.746c0 .664.1 1.246.3 1.746s.473.915.815 1.247c.347.33.744.58 1.2.743.456.162.94.244 1.452.244.48 0 .938-.097 1.368-.29.433-.19.814-.478 1.152-.86l-1.13-1.25c-.16.184-.355.334-.576.45z"/></g><g fill="#3E669C"><path d="M1101.192 43.473c0 .695-.1 1.188-.294 1.47-.196.284-.498.428-.906.428s-.706-.143-.896-.428c-.188-.28-.28-.77-.28-1.47V39.2h-2.063v4.032c0 1.336.266 2.322.798 2.957.533.635 1.35.952 2.443.952 1.088 0 1.892-.317 2.412-.955.52-.636.78-1.62.78-2.957V39.2h-1.992v4.273zm-9 .407h2.544v-1.728h-2.544v-1.225h2.976V39.2h-5.04V47h5.16v-1.73h-3.096M1056 10v28h48V10h-48zm12 26l-6.5-9.5-3.5 3.5v-7l10-11h7l-10 11 9.5 13h-6.5zm34 0h-24s-4-2-4-7h7c0 2 .5 4 6 4s5-3 5-3 0-1.5-4-2.5-7.5-2-9-2.5-4.5-2.5-4.5-6.5 3-6 4-6.5h23.5v24z"/><circle cx="1097" cy="18" r="3"/><path d="M1091 21v-2c0-1-.5-4-5-4s-4.017 2-4.017 2.5c0 2.5 9.017 3.5 9.017 3.5z"/></g><g fill="#3E669C"><path d="M1143.066 45.193c-.223.117-.482.175-.786.175-.504 0-.91-.196-1.218-.588-.31-.392-.465-.956-.465-1.692 0-.352.05-.668.14-.947s.217-.515.373-.706c.153-.19.34-.34.552-.442.212-.104.434-.156.666-.156.256 0 .476.046.66.138.184.094.372.223.562.39l1.128-1.27c-.277-.28-.62-.52-1.023-.727-.404-.203-.854-.306-1.353-.306-.504 0-.983.093-1.443.275s-.867.45-1.222.798c-.352.35-.632.776-.84 1.284s-.312 1.09-.312 1.746c0 .664.1 1.246.3 1.746s.473.915.815 1.247c.347.33.744.58 1.2.743.456.162.94.244 1.452.244.48 0 .938-.097 1.368-.29.433-.19.814-.478 1.152-.86l-1.13-1.25c-.16.184-.355.334-.576.45zm6.678-5.993h-2.496l-2.376 7.8h2.112l.384-1.656h2.184l.386 1.656h2.185l-2.38-7.8zm-2.004 4.548l.132-.54c.096-.376.19-.782.282-1.218.092-.436.182-.854.27-1.254h.048c.1.392.192.808.288 1.248.096.438.192.848.288 1.224l.132.54h-1.44zM1152 10h-48v28h48V10zm-36 26l-6.5-9.5-3.5 3.5v-7l10-11h7l-10 11 9.5 13h-6.5zm34 0h-24s-4-2-4-7h7c0 2 .5 4 6 4s5-3 5-3 0-1.5-4-2.5-7.5-2-9-2.5-4.5-2.5-4.5-6.5 3-6 4-6.5h23.5v24z"/><circle cx="1145" cy="18" r="3"/><path d="M1139 21v-2c0-1-.5-4-5-4s-4.017 2-4.017 2.5c0 2.5 9.017 3.5 9.017 3.5z"/></g><g fill="#855CEA"><path d="M1195.995 2H1191v-.997c0-.565-.447-1.003-1-1.003-.557 0-1 .45-1 1.003V2h-5v-.997c0-.565-.447-1.003-1-1.003-.557 0-1 .45-1 1.003V2h-5v-.997c0-.565-.447-1.003-1-1.003-.557 0-1 .45-1 1.003V2h-5v-.997c0-.565-.447-1.003-1-1.003-.557 0-1 .45-1 1.003V2h-5v-.997c0-.565-.447-1.003-1-1.003-.557 0-1 .45-1 1.003V2h-4.995c-1.105 0-2.005.897-2.005 2.005v39.99c0 1.106.896 2.005 2.005 2.005h39.99c1.104 0 2.005-.896 2.005-2.005V4.005c0-1.106-.896-2.005-2.005-2.005zm.005 40h-40V11h40v31zm0-33h-40V4h5v1.997c0 .565.447 1.003 1 1.003.557 0 1-.45 1-1.003V4h5v1.997c0 .565.447 1.003 1 1.003.557 0 1-.45 1-1.003V4h5v1.997c0 .565.447 1.003 1 1.003.557 0 1-.45 1-1.003V4h5v1.997c0 .565.447 1.003 1 1.003.557 0 1-.45 1-1.003V4h5v1.997c0 .565.447 1.003 1 1.003.557 0 1-.45 1-1.003V4h5v5z"/><path d="M1160 38h32c.545 0 1-.45 1-1.003V16.003c0-.564-.447-1.003-1-1.003h-32c-.545 0-1 .45-1 1.003v20.994c0 .564.447 1.003 1 1.003zm25-21h6v5h-6v-5zm0 7h6v5h-6v-5zm0 7h6v5h-6v-5zm-8-14h6v5h-6v-5zm0 7h6v5h-6v-5zm0 7h6v5h-6v-5zm-8-7h6v5h-6v-5zm0 7h6v5h-6v-5zm-8-14h6v5h-6v-5zm0 7h6v5h-6v-5zm0 7h6v5h-6v-5z"/></g><g><path fill="#FF5D47" d="M1243.995 28H1238v-9.994c0-1.11-.892-2.006-1.99-2.006H1233V9.222c.61-.55 1-1.337 1-2.222 0-1.657-2-7-3-7s-3 5.343-3 7c0 .885.39 1.672 1 2.222V16h-3V9.222c.61-.55 1-1.337 1-2.222 0-1.657-2-7-3-7s-3 5.343-3 7c0 .885.39 1.672 1 2.222V16h-3V9.222c.61-.55 1-1.337 1-2.222 0-1.657-2-7-3-7s-3 5.343-3 7c0 .885.39 1.672 1 2.222V16h-3.01c-1.09 0-1.99.898-1.99 2.006V28h-5.995c-1.104 0-2.005.89-2.005 1.99v16.02c0 1.092.896 1.99 2.005 1.99h39.99c1.104 0 2.005-.89 2.005-1.99V29.99c0-1.092-.896-1.99-2.005-1.99z"/><path fill="#FFF" d="M1243.995 30h-39.99c-.003 0-.005.002-.005 0v7.34c.002 0 .003.002.005.005.31.37.686.745 1.12 1.095 1.23.98 2.676 1.562 4.375 1.562s3.146-.58 4.376-1.562c.437-.35.812-.725 1.12-1.095.172-.208.275-.354.308-.405.828-1.322 2.786-1.23 3.485.166.017.04.095.17.228.363.25.35.56.703.935 1.035 1.057.94 2.375 1.494 4.046 1.494s2.99-.557 4.045-1.495c.373-.332.686-.688.933-1.037.137-.194.214-.325.23-.364.7-1.396 2.658-1.49 3.485-.166.032.054.137.197.31.405.312.37.685.745 1.12 1.095 1.228.98 2.676 1.562 4.375 1.562s3.146-.58 4.376-1.562c.437-.35.812-.725 1.12-1.095 0-.003.002-.004.004-.006V30c0-.003.003 0-.005 0h.002zm-31.975-8.53c.25.35.56.705.935 1.036 1.057.94 2.375 1.495 4.046 1.495s2.99-.553 4.047-1.493c.373-.33.686-.686.933-1.037.137-.194.215-.326.23-.364.738-1.474 2.842-1.474 3.58 0 .02.038.096.17.232.363.248.35.56.704.932 1.035 1.057.94 2.375 1.495 4.046 1.495s2.99-.554 4.046-1.494c.373-.33.686-.686.934-1.037l.02-.035v-3.438c0 .002-24.01.002-24.01.002.01 0 .01 2.334.01 3.435.01.012.013.02.02.033v.002zM1217 8c.553 0 1-.448 1-1 0-.475-.42-1.988-.98-3.37-.007-.02-.015-.034-.02-.052-.007.018-.015.033-.02.05-.56 1.384-.98 2.897-.98 3.372 0 .552.447 1 1 1zm14 0c.553 0 1-.448 1-1 0-.475-.42-1.988-.98-3.37-.007-.02-.015-.034-.02-.052-.007.018-.015.033-.02.05-.56 1.384-.98 2.897-.98 3.372 0 .552.447 1 1 1zm-7 0c.553 0 1-.448 1-1 0-.475-.42-1.988-.98-3.37-.007-.02-.015-.034-.02-.052-.007.018-.015.033-.02.05-.56 1.384-.98 2.897-.98 3.372 0 .552.447 1 1 1z"/></g><g><path fill="#E3373D" d="M1252 0h40c2.21 0 4 1.79 4 4v40c0 2.21-1.79 4-4 4h-40c-2.21 0-4-1.79-4-4V4c0-2.21 1.79-4 4-4z"/><path fill="#FFF" d="M1248 14h48v29h-48V14z"/><path d="M1267.174 32.438c-.24 0-.516.07-.78.145-.27.075-.55.146-.8.146-.066 0-.134-.02-.197-.03-.302-.06-.545-.25-.723-.522-.318-.482-.396-1.277-.11-2.244.464.127 1.046.146 1.683.146h.154c.162 0 .313.053.408.092.313-1.295.146-3.06-.104-4.076-.194-.042-.367-.112-.54-.174-.3-.104-.584-.21-.97-.21-.067 0-.14-.003-.205.005-1.23.168-2.062 1.918-2.25 3.562-.178 1.517.146 3.34 1.568 3.896.295.115.658.175 1.083.175.852 0 1.83-.24 2.476-.495-.154-.29-.376-.417-.692-.417zm-2.72-3.363c.1-.728.355-1.298.778-1.785.163.674.195 1.368.09 1.903l-.14.067-.058.015c-.114 0-.195-.033-.268-.062-.065-.03-.123-.05-.203-.05l-.215.01.016-.098zm-4.64-6.337c-.08.008-.158.083-.234.083-.236 0-.443.06-.648.025-.194-.035-.393.17-.624.17h-.063c-.062 0-.115-.24-.143-.256-1.066 1.472-1.437 3.46-1.918 5.477-.27-.48-.513-.967-.756-1.47-.43-.88-.87-1.784-1.374-2.51-.142-.014-.276-.015-.407-.015-.576 0-1.1.106-1.59.252l-.025 1.354c-.055 2.324-.103 4.33.475 6.226.106.02.216.028.323.028.688 0 1.3-.345 1.562-.48.043-.594-.03-1.06-.104-1.55-.04-.253-.08-.507.05-.837.4.527.752 1.107 1.103 1.688.226.366.446.73.618 1.047.114.014.225.018.327.018.27 0 .507-.033.744-.066.246-.033.49-.064.77-.064l.158.06c.316-.717.334-1.77.352-2.79.016-.936.03-1.898.438-2.62.445 2.09 1.055 4.12 1.854 6.205.28-.04.593-.14.88-.23.216-.065.41-.132.563-.132.08 0 .146.036.203.076-.477-1.336-.784-2.85-1.08-4.332-.384-1.905-.78-3.84-1.45-5.35l-.004-.006zm32.012 2.317c-.854-.51-1.6-.755-2.277-.755-.848 0-1.58.388-2.24 1.185-1.247 1.5-1.508 4.62-1.688 6.193-.075.032-.157.06-.24.082-.217.065-.42.127-.498.23.655.773.783 2.085.91 3.352.097.98.194 1.988.478 2.676.154.033.375.05.67.05.138 0 .28-.003.428-.003.243 0 .482.013.674.07-.454-1.166-.63-2.746-.49-5.054 1.85-.443 3.494-1.78 4.29-3.487.478-1.03.86-2.66-.018-4.536v-.002zm-1.69 3.613c-.42 1.186-1.392 2.262-2.536 2.576.36-1.99.855-4.227 2.23-5.543l.08-.074.054.1c.604 1.124.43 2.22.172 2.942zm-18.038 3.307c-.277.44-.715.688-1.23.688-.545 0-1.09-.283-1.413-.74-.312-.437-.388-.978-.113-1.59.443.093.875.177 1.277.177.334 0 .635-.055.89-.084-.08-.994.033-1.693.154-2.436.1-.618.204-1.258.226-2.027-.558-.43-1.15-.65-1.812-.71-1.633 1.272-2.394 3.224-2.32 5.946.225 1.198 1.78 1.946 3.1 1.946.804-.002 1.477-.27 1.875-.664-.082-.26-.303-.405-.632-.508h-.002zm-2.24-4.047c.092-.21.183-.42.256-.645l.09-.266.074.27c.175.625.118 1.79-.15 2.418l-.27.004c-.162 0-.323-.017-.443-.187.036-.645.243-1.128.443-1.595zm13.014-1.11h-.13c-.06 0-.11.158-.14.13l-.016.602c-.038 1.65-.092 3.94-1.644 4.49-.147-.993-.188-2.076-.227-3.045-.02-.517-.04-.985-.02-1.312-.15-.074-.29-.153-.43-.238-.387-.235-.75-.456-1.334-.534-.23 2.843.048 4.725.833 5.59.322.36.738.543 1.236.543.35 0 .745-.087 1.14-.23l.15-.232c.28-.438.463-.728.882-1.052.106-.192.22-.435.336-.62.515-.84.997-1.732.82-3.177-.392-.334-.89-.912-1.456-.912zm-6.17.514c-.103.002-.123.08-.135.314-.013.188-.025.48-.31.48h-.195l.01-.066c.067-.847.008-1.816-.06-2.896-.093-1.528-.19-2.958.077-4.25-.33-.404-.834-.617-1.81-.617h-.035c-.08 0-.154-.255-.176-.3-.503 1.574-.262 3.297-.023 5.18.137 1.075.265 2.077.107 3.05-.192 0-.39-.023-.578-.04-.168-.015-.335-.03-.483-.03-.277 0-.444.05-.547.164-.114.13-.146.355-.142.62.386.27 1.052.29 1.694.307l.406.094c.02.575.062 1.124.104 1.673.063.803.13 1.635.112 2.54.17-.024.324-.032.476-.042.288-.02.562-.036.87-.073-.01-.64-.033-1.252-.057-1.84-.03-.822-.06-1.603.01-2.445.285-.08.632-.1.966-.12.56-.03 1.14-.06 1.393-.277-.2-.166-.375-.36-.547-.56-.322-.373-.63-.724-1.13-.86v-.003z"/></g><path fill="#0062AE" d="M1342.205 17.303c1.39-2.315 1.69-2.354 1.792-3.322.08-.763-1.712-1.61-2.738-2.313-1.01-.725-2.275-.966-2.72-.986-.464-.02-1.068.08-.987-.16.628-1.866-.453-2.307-.886-2.4V7.116h-.182v-.182h-17.847c-.77-.175-2.364-.536-2.994-.503-.44 0-1.4.5-1.73.503h-.032c-.175 0-.705-.168-.896-.322-.28-.24-.544-.804-1.953-.54-.543.095-.963.425-1.225.864h-8.02v.182h-.183v9.947c-.492.046-.774.17-.847.242-.08.06-.52.222-.603.564-.28.24-.362.744-.183.925-.04.12-.182.745.362.926.544.847-.262 1.25-.262 1.25s-.624.06-2.336.926c-3.827 1.913-.265 2.84.38 2.9.948.08 1.148.16.848 1.127-.32.968 0 2.336 0 2.336-.766.02-.865.825-.847 1.39-.48 1.73 1.05 1.33 1.45.585 1.408.627 1.897-1.492 2.033-1.422v1.363c-.233.45-.48.823-.48.823-.666 1.45-.104.865-.145 1.49-.056.6.043.982.623 1.156v8.326h.184v.2h5.862c.102.063.204.13.317.183.665.302.727.32.906.04.047-.07.07-.147.08-.224h27.526v-.198h.184V31.074c1.312-.03.87-.328.966-1.55.08-1.286.302-3.02.302-2.878.162 1.23.625 3.344.443 3.604-.18.24-.14.423-.784.825-.664.403-.664.624-.646.665.02.04-.1.402.726.423s1.793-.563 1.873-.584c.3-.163.704-.083.865-.605 0 0 .1-.945 0-1.39.32-.887.424-3.624.343-4.106.705-1.713.584-5.562.562-5.78.653-1.11.955-1.33.896-2.398h.005zm-33.628 23.963c-.07-.086-.113-.186-.04-.322l.04-.076v.4-.002zm.364-1.027c.94-1.376 2.257-1.815 2.257-1.815.733-.243 3.154-1.065 4.23-1.317v4.7h-6.484l-.002-1.57zm26.64-21.408c-.225.928-.34 1.55-.402 1.993h-3.263c.78-.628 1.478-1.26 1.612-1.47.886-.302.504-.805.262-1.126-.263-.323-.887-.283-1.25-.06-1.087.04-.262.44-.422.642-.322.322-1.73.986-2.235 1.35-.07.05-.138.092-.2.126v-5.82c1.725.73 4.587.408 4.992.72.423.3 1.228 2.314.906 3.644zm-.462 3.443c-.2 2.51.585 4.41.72 5.638h-6.155v-5.6c.365-.11 1.064-.583 1.77-1.124h3.686c-.054.567.01.75-.022 1.085zm-31.23 3.142c-.06-1.128.263-1.752.423-1.894.144-.14 1.15-.705 1.73-.885 1.485-.438 2.317-1.01 2.54-1.193v4.538c-.102.024-.23-.022-.305-.022-.685-.1-.725.102-.685.243.02.062.062.1-.624.062-1.048-.04-.705.703-.222.904.543.24 1.827.302 1.83.302v.442h-4.23c-.124-1.506-.425-1.89-.456-2.497zm6.242-9.102c.12-.302-.183-.765.02-1.127.07-.158.487-.65.76-.987h3.03c.27.055.546.088.82.08.174-.002.33-.034.48-.08h.184v6.625h-5.725c.164-.117.3-.24.347-.362.16-.423.12-.826-.18-.846-.646.34-.305.06-.605.1-.16.114-.26.17-.322.2v-2.382c.55-.457 1.107-1.046 1.19-1.222v.002zm6.583-5.356c-.02-.203.223-.625.362-.907.122-.303.604-.866.625-1.168.02-.04.704.062.905.062.222-.02 1.008-.08 1.41-.1.422 0 1.206.28 1.53.26.153-.008.497-.016.863-.013v4.746h-6.506c.46-.38.74-.907.888-1.187.223-.485-.038-1.492-.08-1.693h.003zm12.603 3.336v6.122c-.164.022-.276-.014-.343-.036-.14-.06-.984-.423-1.105-.443-.143-.02-.103.1-1.107-.423-1.326-.705-1.61-.684-2.515-.563-.927.12-1.23.282-1.23-.1 0-.383.523-.665.523-.665.705-.243.4-.686.342-.807-.04-.14 0-.483-.182-.785.36-.324-.345-.646-.466-.827-.05-.092-.15-.602-.462-1.006V14.2h6.38l.168.095h-.002zm-20.375 6.95c.04-.02.077-.036.122-.057h6.36v1.616c-.846.578-1.288.994-2.233 1.583-1.05.665-2.78 1.37-3.647 1.63 0 0-.382.14-.543.02-.02-.024-.04-.036-.06-.056v-4.738zm6.848-.057h2.134c-.755.49-1.602 1.024-2.133 1.374l-.002-1.375zm6.624-6.757c-.297-.184-.704-.256-1.27-.07-2.014.644-2.295 1.43-2.615 1.67-.322.242-.523.444-.604.726-.06.28.303.522-.02 1.106-.343.583 0 .947.04 1.047.04.12.08.684.44.785 1.008.1.688.2 1.13.36-.1.124-.51.414-1.04.766h-2.686V14.2h6.623l.003.232zm-13.47 13.02c.11-.162.384-.355 1.23-.325 2.274.073 4.263-1.306 5.253-1.84v2.625h-6.48l-.003-.46zm6.847-2.346c.937-.44 2.994-1.562 3.422-1.423.423.12 1.59 2.175 1.47 2.557-.187.6-.785.99-1.062 1.67h-3.83v-2.803zm3.71 3.168c-.494 1.854.21 1.71.014 2.758-.06.344-1.69 1.37-2.857 2.658-.283.317-.574.548-.865.718v-6.133h3.707zm2.913 5.746v.798h-.887c.42-.32.704-.61.887-.797zm.365-.338c.357-.383.99-1.248 1.146-1.3.184-.04.505-.02 1.57.443 2.658 1.147 2.72.604 3.163 1.106.07.298.174.595.288.888h-6.168v-1.14h.002l-.002.004zm6.542-3.194c-.76-.494-2.22-1.547-3.105-2.213h3.105v2.213zm-3.58-2.576c-.105-.08-.184-.143-.228-.182-.08-.08.12-1.066.143-1.43.04-.36-.062-1.23.424-2.397.56-.362.422-1.168.583-1.57.355-.02 1.593.22 2.655.04v5.538h-3.578v.002zm.783-15.142c-.14-.02-.465.1-.384.202.36.443 1.327.242 1.63.403.154.082.466.27.78.462h-5.77V9.1c.358.013.692.037.82.09.305.12 1.595.825 1.772.724.183-.1-.18-.362-.14-.483.02-.12 1.128.124 1.27-.18.14-.3-.806-.704-1.128-.805s-1.107-.1-1.37-.16c-.17-.04-.71-.285-1.227-.46v-.528h6.543v5.575c-.94-.18-1.24-.416-1.41-.5-.2-.102-.664-.665-1.81-.665-.022 0-.767.06-.747.463.806.303 1.168.604 1.168.604l.003-.004zm-4.11-5.06c-.14-.038-.27-.067-.38-.075-.185-.02-1.29-.24-1.49-.282-.055-.005-.164-.028-.3-.06h2.17v.417zm-11.25 6.127c.076-.215.088-.707.197-.726.08-.01.66.39 1.444.726h-1.64zm-2.583-.932c-.06.312-.124.627-.19.93h-6.413V7.297h6.604v5.612-.005zm-.274 1.294c-.21.905-.414 1.63-.45 1.69-.037.08-.52.825-.702 1.107-.184.262-.423.342-.563.503-.16.14-.1.463.24.564.324.1.768-.303.888-.282.08 0 .02.323.24.323.14.01.368-.11.625-.29v2.373c-.084.194-.115.138-.403.253-.4.18-.946.283-1.934.323-.284.018-.58.04-.867.06h-2.44c-.052-.04-.09-.09-.097-.16.647-.746.322-.826.443-1.17.12-.36.02-.805.062-1.187.06-.362-.102-.745-.16-.786-.082-.02-.362-.18-.584-.2-.174-.018-.353-.203-.625-.26V14.2h6.326zm-5.342 19.23c.142-.28-.603-.947-.222-1.65.303-.563 1.69-1.752 1.672-2.478-.004-.39-.017-.726-.034-1.026h4.2v6.543h-6.604v-1.105c.653.078.858-.024.988-.285zm5.98-5.157h6.48v6.315c-.23.103-.465.173-.687.228h-5.794v-6.543zm4.28 6.91c-.848.376-2.112 1.578-3.854 2.535-.146.08-.283.147-.422.218v-2.754h4.276zm2.567 1.853l.02-.003c2.216-.203 2.017-.645 2.86-.867.988-.257 1.75-.62 2.333-.986h1.41v6.623h-6.623V37.036zm6.99-1.856h6.31c.073.164.15.318.23.477v6.146h-6.542V35.18zm6.906 1.134c.463.775.937 1.373 1.146 1.562.402.342 1.25 1.37 1.27 2.256.035.748-.482 1.33.832 1.673h-3.248v-5.49zm6.623 5.032c-.143-.13-.41-.285-.927-.486-1.128-.424-1.632-1.17-2.074-1.953-.313-.53-.94-2.217-1.39-3.727h4.39v6.166zm-4.494-6.53c-.164-.58-.296-1.12-.36-1.53-.246-1.466-.945-2.048-1.77-2.567v-2.446h6.19c.08.97-.108 1.41-1.4 2.177-1.43.824.265.725.265.725s.08-.11 1.568-.1v3.742h-4.492zm3.125-26.478c-.743.423-.44.947-.585 1.188-.14.22-.44.382-.44.664 0 .282.3.322.3.342.023.463.064.805.064.906 0 .363.44.322.382.423-.14.16-.825.363-1.35.706-.505.322-1.008.543-1.33.523-.343-.02-.562.08-2.014-.12-.104-.015-.188-.03-.28-.043v-5.63h6.624v.772c-.33-.036-.785-.035-1.37.273v-.005zm-25.39-.06c.12 1.027 1.006 1.63 1.41 1.67.42.062.4-.08.784-.16s.423.102.584.062c.14-.06.04-.14.22-.2.183-.082.647-.082.767-.304.063-.1.322-.402.322-.402-.422 1.69-.562 1.67-.562 1.67-1.953-.522-3.384-.422-3.728-.16-.206.138-.308.185-.4.484V7.296h.705c-.107.308-.15.644-.103.986v-.004zm-7.57 33.525V35.18h6.603v2.934c-1.382.646-2.256.812-2.256.812-1.007.362-.483 1.006-.202 1.127 0 .08.504 1.026.625 1.188.064.1.23.326.467.563h-5.24.002z"/><g><path fill="#31AADE" d="M1380.458 39.894c-5.79-.82-8.94-6.672-5.438-14.312.692-1.523 1.62-2.495 2.508-1.347l1.596 2.06c.542.76.448 1.86-.035 2.564-2.717 4.038-1.445 8.835 2.226 9.897 1.694.492 2.42 0 2.536.352.17.518-1.824 1.006-3.394.784z"/><path fill="#1794D1" d="M1376.72 43.323c-10.293-1.46-15.89-11.857-9.666-25.44 1.23-2.708 2.883-4.436 4.458-2.395l2.836 3.66c.964 1.35.8 3.306-.062 4.562-4.827 7.18-2.567 15.705 3.958 17.594 3.014.873 4.303 0 4.508.625.3.92-3.24 1.79-6.03 1.393z"/><path fill="#2276B9" d="M1370.415 47.61c-17.057-2.42-26.333-19.65-16.02-42.156 2.04-4.49 4.778-7.354 7.39-3.972l4.698 6.066c1.598 2.238 1.322 5.478-.104 7.558-8 11.896-4.255 26.027 6.558 29.158 4.992 1.445 7.13-.002 7.47 1.033.5 1.53-5.368 2.97-9.993 2.313z"/><path fill="#E92F7C" d="M1385.994 33.6c-.104 2.16-1.632 3.847-3.413 3.76-1.78-.083-3.14-1.905-3.037-4.07.104-2.16 1.632-3.845 3.413-3.76 1.782.084 3.143 1.907 3.038 4.07z"/></g></svg>