<svg xmlns="http://www.w3.org/2000/svg" width="1392" height="48" viewBox="0 0 1392 48"><filter height="17" width="37.025" id="c" x="2" y="0" filterUnits="userSpaceOnUse"><feColorMatrix values="1 0 0 0 0 0 1 0 0 0 0 0 1 0 0 0 0 0 1 0"/></filter><filter height="200%" width="200%" id="b" x="-50%" y="-50%" filterUnits="objectBoundingBox"><feOffset dy=".5" in="SourceAlpha" result="shadowOffsetOuter1"/><feGaussianBlur in="shadowOffsetOuter1" result="shadowBlurOuter1"/><feColorMatrix in="shadowBlurOuter1" result="shadowMatrixOuter1" values="0 0 0 0 0.105882353 0 0 0 0 0.533333333 0 0 0 0 0.725490196 0 0 0 0.7 0"/><feMerge><feMergeNode in="shadowMatrixOuter1"/><feMergeNode in="SourceGraphic"/></feMerge></filter><filter height="200%" width="200%" id="a" x="-50%" y="-50%" filterUnits="objectBoundingBox"><feOffset dy="-.5" in="SourceAlpha" result="shadowOffsetOuter1"/><feGaussianBlur in="shadowOffsetOuter1" result="shadowBlurOuter1"/><feColorMatrix in="shadowBlurOuter1" result="shadowMatrixOuter1" values="0 0 0 0 0.031372549 0 0 0 0 0.403921569 0 0 0 0 0.623529412 0 0 0 0.7 0"/><feMerge><feMergeNode in="shadowMatrixOuter1"/><feMergeNode in="SourceGraphic"/></feMerge></filter><title>konnectors-services-sprite</title><path d="M36.432 12.996c-.347-2.814-1.644-5.415-3.728-7.425C30.314 3.27 27.158 2 23.816 2c-3.342 0-6.5 1.267-8.888 3.572-2.093 2.018-3.393 4.633-3.732 7.463-2.87.333-5.523 1.616-7.57 3.677C1.286 19.066 0 22.178 0 25.472 0 32.383 5.7 38 12.71 38h1.41c.73 5.086 5.092 9 10.38 9v-2S16 45 16 36.5s8.5-8.5 8.5-8.5v-2c-5.288 0-9.65 3.914-10.38 9h-1.41C7.348 35 3 30.715 3 25.473c0-2.5.973-4.854 2.754-6.646 1.564-1.573 3.587-2.555 5.79-2.81l2.35-.274.282-2.35c.257-2.148 1.245-4.126 2.835-5.66C18.84 5.968 21.25 5 23.82 5c2.57 0 4.978.968 6.806 2.73 1.583 1.527 2.568 3.493 2.833 5.633l.297 2.407 2.416.213c4.98.44 8.83 4.57 8.83 9.492C45 30.713 40.65 35 35.29 35h-3.47c-.68-2.865-3.248-5-6.32-5-3.59 0-6.5 2.91-6.5 6.5s2.91 6.5 6.5 6.5c3.073 0 5.64-2.135 6.32-5h3.47C42.297 38 48 32.38 48 25.475c0-6.53-5.093-11.907-11.568-12.48zM25.5 41c-2.485 0-4.5-2.016-4.5-4.5s2.015-4.5 4.5-4.5 4.5 2.016 4.5 4.5-2.015 4.5-4.5 4.5z"/><path fill="#E21910" d="M624 15.143c0-.552.448-1 .995-1h1.048c.55 0 .995.447.995 1V31.98c0 .55-.448.998-.995.998h-1.048c-.55 0-.995-.446-.995-.998V15.143zm14.63-.26c-.903-.646-1.937-1.043-3.086-1.043-2.75 0-5.164 2.28-5.164 5.165 0 3.054 1.614 5.165 4.558 5.165 1.8 0 3.037.973 3.037 2.734 0 1.93-1.164 3.037-2.73 3.037-.528 0-1.1-.255-1.655-.716-.217-.178-.067-.06-.067-.06-.38-.396-1.053-.454-1.494-.136l-.855.61c-.445.314-.517.92-.145 1.324 0 0 .03.108.633.604 1.055.87 2.252 1.41 3.585 1.41 3.216 0 5.77-2.438 5.77-6.076 0-3.625-2.74-5.77-6.072-5.77-1.06 0-1.52-.6-1.52-2.127 0-1.167 1.02-2.126 2.125-2.126.448 0 .898.172 1.32.477.27.194 0 0 0 0 .296.26.884.192 1.31-.15l.82-.654c.43-.34.464-.943.06-1.322 0 0 .102.03-.425-.345h-.004zm4.813.26c0-.552.438-1 1.004-1h9.536c.555 0 1.004.446 1.004 1.005v1.01c0 .554-.457 1.004-1.01 1.004h-6.487c-.56 0-1.01.45-1.01 1v2.88c0 .552.457 1 1 1h5.293c.552 0 1 .447 1 .994v1.05c0 .548-.457.993-1 .993h-5.294c-.558 0-1 .443-1 1.005v2.85c0 .556.455 1.007 1.01 1.007h6.484c.56 0 1.01.447 1.01.994v1.05c0 .548-.44.993-1.003.993h-9.535c-.558 0-1.004-.45-1.004-1V15.14h.003zm14.582 0c0-.552.442-1 1.003-1h.425c.554 0 1.267.358 1.6.812l7.313 9.92c.33.448.598.374.598-.19v-9.538c0-.555.448-1.004.995-1.004h1.045c.55 0 .995.447.995 1V31.98c0 .55-.444.998-1.002.998h-.426c-.557 0-1.26-.363-1.574-.817l-7.363-10.545c-.312-.452-.57-.37-.57.18v10.19c0 .55-.446.993-.993.993h-1.048c-.55 0-.994-.444-.994-.998V15.143h-.006z"/><path fill="#0054A5" d="M576.02 15.62h4.61v1.232h-3.04v1.93h2.785v1.225h-2.786V22.2h3.06v1.23h-4.633l.003-7.81m5.656-.58h1.502v8.39h-1.504v-8.39h.002zm12.823 8.324c-.368.13-.9.2-1.507.205-1.895.006-2.847-1.29-2.847-3.05 0-1.666.985-2.98 2.785-2.99.655 0 1.005.05 1.432.15l-.13 1.13c-.38-.12-.692-.18-1.197-.16-.91.04-1.31.812-1.316 1.87-.01 1.062.5 1.842 1.557 1.884.518.016 1.047-.15 1.355-.33l-.132 1.288m4.644.067c-.266.066-.73.14-1.105.14-1.177 0-1.824-.728-1.824-1.875v-2.84h-1.14l.12-1.186h1.02v-1.63l1.498-.005v1.634h1.335l-.125 1.186h-1.213v2.595c0 .496.138.953.713.953.266 0 .69-.1.847-.2l-.128 1.226m12.147-2.89c0-.813.38-1.84 1.34-1.84.98 0 1.245 1.062 1.245 1.84 0 .79-.277 1.863-1.268 1.863-.994 0-1.316-1.05-1.316-1.864zm-1.51 2.89h1.45v-.703h.022c.438.615 1.13.84 1.77.84 1.772 0 2.41-1.456 2.41-3.03 0-1.594-.642-3.006-2.41-3.006-.785 0-1.31.33-1.728.877h-.02v-3.37h-1.498v8.392h.005zm12.593-8.39h1.494v8.39h-1.494v-8.39zm-36.91 4.95c.062-.78.493-1.356 1.33-1.356.843 0 1.17.626 1.22 1.354h-2.55zm3.75 1.8c-.604.436-1.376.68-2.104.68-.933 0-1.583-.524-1.647-1.455h3.983c0-2.013-.606-3.484-2.74-3.484-1.797 0-2.678 1.38-2.678 3.053 0 1.888 1.11 2.94 3.01 2.985.846.016 1.534-.233 2.034-.505l.14-1.272zm28.346-1.8c.062-.78.49-1.356 1.33-1.356.835 0 1.18.626 1.22 1.354h-2.55zm3.75 1.8c-.61.436-1.38.68-2.104.68-.926 0-1.582-.524-1.646-1.455h3.98c0-2.013-.606-3.484-2.745-3.484-1.79 0-2.675 1.38-2.675 3.053 0 1.888 1.11 2.94 3.012 2.985.85.016 1.532-.233 2.03-.505l.147-1.272zm-16.265-.023c0-.886.995-.997 1.662-.997h.65c0 .45-.065.864-.313 1.187-.234.314-.593.516-1.053.516-.536 0-.945-.212-.945-.706zm-.725-2.706c.507-.22 1.097-.402 1.728-.434.82-.042 1.305.32 1.305 1.247h-.824c-.63 0-1.37.06-1.94.335-.573.275-.984.784-.984 1.644 0 1.097.992 1.714 2.017 1.714.684 0 1.437-.36 1.78-1h.02c.014.18.014.562.07.86h1.312c-.023-.444-.048-.847-.06-1.28-.014-.43-.026-.868-.026-1.45v-.735c0-1.7-.764-2.447-2.42-2.454-.637 0-1.23.085-1.83.255l-.15 1.298v.003zm-4.208-1.39h1.333v1.305h.022c.176-.797.73-1.29 1.458-1.418.198-.036.514 0 .712.08 0 0-.144 1.2-.165 1.393-.288-.11-.854-.126-1.11.014-.656.36-.75 1.443-.75 2.277v2.11h-1.5v-5.76"/><path fill="#00ADEE" d="M590.884 28.027c-.34.054-.477.02-.505-.107-.028-.11.017-.232.402-.326 1.728-.416 6.23-.184 6.35 1.3.04.522-.695 1.003-2.766 1.343-.88.146-3.045.188-3.026-.522l.05-.978c.007-.11.11-.244.316-.236.154.004.3.076.31.34.016.326.042.617.042.617 0 .104.06.3.564.353 1.292.13 3.15-.312 3.157-.89.01-.947-2.928-1.087-4.896-.893m-.5.96c-.004-.09-.12-.224-.257-.242-.52-.073-1.537-.03-1.89-.01-.354.02-.324.383 0 .41.215.02 1.183.073 1.183.073.08 0 .148.043.148.115 0 .186-.47.5-1.57.5-.773 0-1.282-.37-1.282-.924 0-.772 1.045-1.187 2.468-.972.185.027.38-.103.373-.23-.015-.27-.88-.3-1.25-.3-1.62 0-2.51.61-2.51 1.505 0 .836.72 1.396 2.082 1.396 1.81.002 2.53-.75 2.503-1.322m11.98-1.342c-.015-.12-.168-.166-.34-.178-.68-.048-2.565-.168-3.533.282-.514.24-.737.582-.817.946-.104.47-.104 1.23.09 1.433.22.227.767.07.76-.148-.006-.168-.03-.428-.03-.428-.02-.474.83-.304 1.867-.423.3-.01.355-.437-.03-.425-.15.006-1.273.037-1.54.043-.038 0-.05-.03-.05-.048.06-.95 3.32-.85 3.403-.857.165-.014.23-.113.22-.2m6.924.03c-.04-.084-.11-.13-.22-.13-.178 0-.26.13-.26.25 0 .128.245.725.71 1.288.38.466 1.146 1.126 2.178 1.126 1.216 0 2.503-.77 3.82-2.265.058-.062.11-.128.11-.2 0-.11-.1-.198-.23-.198-.067 0-.117.035-.227.13-1.146 1.053-2.33 1.64-3.292 1.64-.982 0-1.987-.626-2.59-1.638M621.1 29.3l2.326-1.116c.12-.053.188-.186.188-.326 0-.184-.146-.348-.357-.348h-2.817c-.12 0-.193.1-.193.21 0 .13.074.202.184.214l1.555.188c.13.013.15.09.15.146 0 .03-.02.094-.087.127l-1.745.787c-.236.11-.355.264-.355.477 0 .263.227.52.494.52h3.29c.142 0 .233-.098.233-.215 0-.13-.095-.208-.204-.218l-2.626-.217c-.074-.01-.127-.043-.127-.107-.002-.052.02-.085.095-.12m-2.99.55c-.75 0-1.533-.25-1.533-1.022 0-.556.405-.927 1.023-.927.884 0 1.258.318 1.258.504 0 .074-.056.117-.116.117l-1.243.072c-.12.01-.203.094-.203.217 0 .11.085.194.204.194l1.297.058c.375.01.604-.26.604-.553 0-.734-.997-1.084-1.89-1.084-1.093 0-1.81.563-1.81 1.4 0 .895.854 1.504 2.152 1.504.856 0 1.416-.166 1.565-.25.053-.033.16-.076.16-.193 0-.12-.097-.2-.23-.2-.136 0-.643.166-1.24.166m-10.75-.314c-.298.08-1.024.084-1.257.084-1.092 0-1.79-.063-1.882-.063-.164 0-.24.108-.24.21 0 .145.154.193.323.23.157.03 1.348.202 2.824.202.604 0 1.133-.05 1.544-.13.18-.034.28-.147.304-.276.023-.137-.035-.255-.19-.38-.16-.135-1.46-.855-1.652-.978-.27-.164-.213-.438.02-.46.162-.014.847-.06 1.015-.074.14-.013.21-.104.21-.195 0-.14-.14-.185-.248-.192-.34-.04-.857-.073-1.202-.073-.427 0-.935.057-1.115.107-.138.04-.205.14-.21.23-.007.105.067.213.144.277.247.22 1.584.95 1.746 1.056.16.1.16.35-.124.43"/><path fill="#FFF" d="M585.78 31.633c5.405 1.443 11.995 2.293 19.104 2.293 7.11 0 13.7-.85 19.104-2.293H585.78"/><path fill="#FCFDFF" d="M585.81 31.633c5.397 1.44 11.98 2.287 19.076 2.287 7.1 0 13.677-.847 19.076-2.287H585.81"/><path fill="#FAFDFF" d="M585.837 31.633c5.392 1.438 11.96 2.28 19.05 2.28 7.086 0 13.654-.845 19.047-2.28h-38.097"/><path fill="#F9FCFF" d="M585.866 31.633c5.385 1.434 11.94 2.276 19.02 2.276 7.075 0 13.634-.846 19.02-2.278h-38.04"/><path fill="#F7FBFF" d="M585.894 31.633c5.38 1.43 11.93 2.27 18.992 2.27 7.062 0 13.612-.84 18.99-2.27h-37.982"/><path fill="#F6FBFD" d="M585.92 31.633c5.374 1.428 11.912 2.266 18.966 2.266 7.055 0 13.59-.84 18.963-2.268h-37.93"/><path fill="#F5FBFD" d="M585.95 31.633c5.366 1.424 11.896 2.26 18.938 2.26 7.04 0 13.57-.836 18.938-2.26H585.95"/><path fill="#F4FAFD" d="M585.98 31.633c5.356 1.42 11.875 2.254 18.904 2.254 7.03 0 13.547-.834 18.906-2.254h-37.81"/><path fill="#F3FAFD" d="M586.006 31.633c5.354 1.416 11.86 2.248 18.88 2.248s13.525-.83 18.878-2.245h-37.758"/><path fill="#F2F9FD" d="M586.035 31.633c5.346 1.412 11.844 2.242 18.85 2.242 7.007 0 13.505-.83 18.854-2.242h-37.705"/><path fill="#F1F9FD" d="M586.062 31.633c5.34 1.41 11.826 2.236 18.822 2.236 6.995 0 13.48-.83 18.822-2.24H586.06"/><path fill="#EFF8FD" d="M586.09 31.633c5.334 1.407 11.812 2.232 18.796 2.232s13.46-.825 18.794-2.23h-37.59"/><path fill="#EEF8FD" d="M586.12 31.633c5.325 1.402 11.793 2.227 18.766 2.227 6.974 0 13.438-.822 18.768-2.227H586.12"/><path fill="#EDF8FD" d="M586.148 31.633c5.32 1.398 11.774 2.22 18.736 2.22 6.96 0 13.417-.82 18.737-2.22H586.15"/><path fill="#ECF7FD" d="M586.176 31.633c5.312 1.396 11.76 2.215 18.71 2.215s13.396-.816 18.71-2.215h-37.42"/><path fill="#EBF7FD" d="M586.204 31.633c5.307 1.393 11.742 2.21 18.682 2.21 6.938 0 13.374-.817 18.68-2.21h-37.362"/><path fill="#EAF6FD" d="M586.232 31.633c5.302 1.39 11.73 2.203 18.652 2.203s13.354-.814 18.653-2.203H586.23"/><path fill="#E9F6FD" d="M586.26 31.633c5.294 1.387 11.71 2.197 18.626 2.197 6.915 0 13.33-.812 18.624-2.197h-37.25"/><path fill="#E8F6FD" d="M586.288 31.633c5.288 1.383 11.694 2.192 18.598 2.192 6.904 0 13.31-.81 18.6-2.19H586.29"/><path fill="#E7F5FD" d="M586.317 31.633c5.28 1.38 11.678 2.188 18.57 2.188 6.892 0 13.284-.804 18.565-2.185h-37.136"/><path fill="#E6F5FC" d="M586.345 31.633c5.274 1.375 11.66 2.182 18.54 2.182s13.27-.807 18.54-2.182h-37.08"/><path fill="#E5F5FC" d="M586.373 31.633c5.27 1.37 11.644 2.176 18.513 2.176 6.868 0 13.244-.808 18.514-2.18h-37.027"/><path fill="#E4F4FC" d="M586.402 31.633c5.262 1.37 11.627 2.17 18.482 2.17 6.856 0 13.225-.8 18.483-2.17H586.4"/><path fill="#E3F4FC" d="M586.43 31.633c5.255 1.366 11.61 2.164 18.456 2.164 6.848 0 13.2-.798 18.456-2.164H586.43"/><path fill="#E2F3FC" d="M586.458 31.633c5.25 1.36 11.593 2.158 18.428 2.158 6.833 0 13.18-.794 18.427-2.155H586.46"/><path fill="#E1F3FC" d="M586.487 31.633c5.24 1.357 11.575 2.152 18.4 2.152 6.82 0 13.154-.795 18.395-2.152h-36.795"/><path fill="#E0F3FC" d="M586.515 31.633c5.234 1.354 11.56 2.146 18.37 2.146 6.812 0 13.14-.796 18.372-2.15h-36.742"/><path fill="#DFF2FC" d="M586.543 31.633c5.23 1.352 11.543 2.143 18.343 2.143s13.113-.79 18.345-2.143h-36.687"/><path fill="#DEF2FC" d="M586.57 31.633c5.225 1.348 11.525 2.137 18.314 2.137 6.787 0 13.092-.79 18.313-2.137H586.57"/><path fill="#DDF1FC" d="M586.6 31.633c5.217 1.346 11.51 2.13 18.286 2.13 6.776 0 13.07-.784 18.286-2.13H586.6"/><path fill="#DCF1FC" d="M586.627 31.633c5.21 1.342 11.493 2.125 18.26 2.125 6.766 0 13.048-.783 18.258-2.125h-36.518"/><path fill="#DBF1FC" d="M586.656 31.633c5.202 1.338 11.478 2.12 18.23 2.12s13.024-.782 18.23-2.12h-36.46"/><path fill="#DAF0FC" d="M586.684 31.633c5.195 1.334 11.46 2.113 18.202 2.113 6.742 0 13.005-.78 18.2-2.113h-36.402"/><path fill="#D9F0FC" d="M586.71 31.633c5.19 1.33 11.443 2.11 18.176 2.11 6.73 0 12.983-.78 18.175-2.11h-36.35"/><path fill="#D8EFFC" d="M586.74 31.633c5.185 1.328 11.428 2.104 18.146 2.104 6.72 0 12.962-.773 18.146-2.104h-36.29"/><path fill="#D6EFFB" d="M586.768 31.633c5.18 1.324 11.41 2.098 18.118 2.098 6.707 0 12.94-.77 18.116-2.095h-36.234"/><path fill="#D5EFFB" d="M586.797 31.633c5.17 1.32 11.395 2.092 18.09 2.092 6.694 0 12.918-.77 18.088-2.092h-36.178"/><path fill="#D4EEFB" d="M586.825 31.633c5.164 1.32 11.376 2.086 18.06 2.086 6.686 0 12.898-.77 18.062-2.09h-36.122"/><path fill="#D3EEFB" d="M586.854 31.633c5.156 1.312 11.36 2.08 18.032 2.08s12.875-.768 18.032-2.08h-36.064"/><path fill="#D2EEFB" d="M586.88 31.633c5.15 1.31 11.344 2.074 18.006 2.074 6.66 0 12.854-.766 18.004-2.074h-36.01"/><path fill="#D1EDFB" d="M586.91 31.633c5.144 1.307 11.325 2.07 17.977 2.07 6.65 0 12.832-.766 17.978-2.07H586.91"/><path fill="#D0EDFB" d="M586.938 31.633c5.14 1.305 11.31 2.062 17.948 2.062 6.64 0 12.81-.76 17.947-2.062h-35.895"/><path fill="#CFECFB" d="M586.966 31.633c5.13 1.3 11.292 2.06 17.92 2.06 6.626 0 12.788-.76 17.92-2.06h-35.84"/><path fill="#CEECFB" d="M586.994 31.633c5.123 1.297 11.275 2.053 17.892 2.053 6.617 0 12.77-.756 17.894-2.053h-35.786"/><path fill="#CDECFB" d="M587.02 31.633c5.12 1.293 11.263 2.047 17.865 2.047 6.604 0 12.745-.754 17.862-2.047H587.02"/><path fill="#CCEBFB" d="M587.05 31.633c5.11 1.29 11.243 2.04 17.836 2.04 6.592 0 12.725-.75 17.835-2.04h-35.67"/><path fill="#CBEBFB" d="M587.078 31.633c5.104 1.287 11.227 2.037 17.808 2.037s12.702-.75 17.81-2.037h-35.618"/><path fill="#CAEBFB" d="M587.107 31.633c5.1 1.283 11.21 2.03 17.78 2.03 6.565 0 12.68-.747 17.775-2.03h-35.555"/><path fill="#C9EAFB" d="M587.135 31.633c5.092 1.28 11.192 2.026 17.75 2.026 6.56 0 12.66-.75 17.75-2.028h-35.5"/><path fill="#C8EAFB" d="M587.163 31.633c5.085 1.275 11.176 2.02 17.723 2.02 6.546 0 12.64-.74 17.724-2.02h-35.447"/><path fill="#C7E9FA" d="M587.192 31.633c5.077 1.27 11.16 2.014 17.692 2.014s12.615-.74 17.693-2.014H587.19"/><path fill="#C6E9FA" d="M587.22 31.633c5.07 1.27 11.144 2.01 17.666 2.01s12.593-.74 17.665-2.01h-35.33"/><path fill="#C6E9FA" d="M587.248 31.633c5.064 1.266 11.126 2.003 17.638 2.003 6.514 0 12.57-.737 17.64-2.003H587.25"/><path fill="#C5E9FA" d="M587.276 31.633c5.06 1.262 11.11 1.998 17.61 1.998s12.55-.73 17.606-1.995h-35.217"/><path fill="#C4E8FA" d="M587.304 31.633c5.055 1.26 11.095 1.992 17.582 1.992 6.488 0 12.528-.732 17.58-1.992h-35.162"/><path fill="#C2E8FA" d="M587.332 31.633c5.046 1.256 11.077 1.987 17.554 1.987 6.48 0 12.507-.73 17.555-1.986h-35.11"/><path fill="#C1E8FA" d="M587.36 31.633c5.04 1.252 11.062 1.98 17.524 1.98s12.485-.73 17.522-1.98H587.36"/><path fill="#C0E7FA" d="M587.39 31.633c5.032 1.248 11.042 1.977 17.496 1.977s12.464-.73 17.496-1.978H587.39"/><path fill="#BFE7FA" d="M587.417 31.633c5.025 1.244 11.024 1.97 17.47 1.97 6.44 0 12.44-.726 17.467-1.97h-34.937"/><path fill="#BEE7FA" d="M587.446 31.633c5.02 1.242 11.01 1.965 17.44 1.965 6.43 0 12.42-.723 17.437-1.965h-34.877"/><path fill="#BDE6FA" d="M587.474 31.633c5.015 1.238 10.992 1.957 17.412 1.957s12.397-.72 17.41-1.957h-34.822"/><path fill="#BCE6FA" d="M587.502 31.633c5.007 1.236 10.975 1.953 17.384 1.953 6.407 0 12.377-.72 17.383-1.953H587.5"/><path fill="#BBE5FA" d="M587.53 31.633c5 1.23 10.96 1.947 17.354 1.947 6.396 0 12.354-.717 17.354-1.947H587.53"/><path fill="#BAE5FA" d="M587.56 31.633c4.992 1.23 10.94 1.942 17.326 1.942s12.333-.714 17.327-1.94H587.56"/><path fill="#B9E5FA" d="M587.586 31.633c4.988 1.225 10.926 1.936 17.3 1.936 6.373 0 12.312-.712 17.3-1.94h-34.6"/><path fill="#B8E4FA" d="M587.615 31.633c4.98 1.223 10.908 1.93 17.27 1.93s12.29-.707 17.272-1.93h-34.542"/><path fill="#B7E4F9" d="M587.643 31.633c4.977 1.22 10.895 1.926 17.243 1.926 6.35 0 12.27-.708 17.242-1.928h-34.485"/><path fill="#B6E4F9" d="M587.67 31.633c4.968 1.215 10.877 1.92 17.216 1.92s12.246-.705 17.214-1.92h-34.43"/><path fill="#B4E3F9" d="M587.7 31.633c4.962 1.21 10.856 1.914 17.188 1.914 6.327 0 12.227-.703 17.188-1.914H587.7"/><path fill="#B3E3F9" d="M587.73 31.633c4.95 1.207 10.84 1.908 17.155 1.908 6.316 0 12.203-.7 17.157-1.905H587.73"/><path fill="#B2E2F9" d="M587.756 31.633c4.947 1.203 10.824 1.902 17.13 1.902s12.184-.7 17.13-1.902h-34.26"/><path fill="#B1E2F9" d="M587.784 31.633c4.94 1.2 10.808 1.897 17.102 1.897 6.292 0 12.16-.695 17.1-1.896h-34.202"/><path fill="#B0E2F9" d="M587.812 31.633c4.937 1.197 10.79 1.893 17.072 1.893 6.28 0 12.14-.693 17.072-1.893h-34.144"/><path fill="#AFE1F9" d="M587.84 31.633c4.93 1.193 10.774 1.887 17.046 1.887 6.27 0 12.116-.69 17.045-1.887h-34.09"/><path fill="#AEE1F9" d="M587.87 31.633c4.92 1.19 10.757 1.88 17.016 1.88 6.258 0 12.095-.69 17.02-1.88H587.87"/><path fill="#ADE1F9" d="M587.896 31.633c4.914 1.188 10.74 1.875 16.99 1.875 6.245 0 12.07-.688 16.985-1.875h-33.974"/><path fill="#ACE0F9" d="M587.925 31.633c4.908 1.184 10.728 1.87 16.96 1.87 6.234 0 12.053-.688 16.96-1.87h-33.92"/><path fill="#ABE0F9" d="M587.953 31.633c4.9 1.18 10.708 1.863 16.933 1.863s12.03-.686 16.934-1.863h-33.867"/><path fill="#A9E0F9" d="M587.982 31.633c4.895 1.176 10.69 1.858 16.902 1.858 6.212 0 12.008-.68 16.903-1.854H587.98"/><path fill="#A8DFF9" d="M588.01 31.633c4.89 1.174 10.675 1.854 16.876 1.854 6.2 0 11.986-.68 16.875-1.854h-33.75"/><path fill="#A7DFF8" d="M588.038 31.633c4.882 1.17 10.656 1.848 16.848 1.848 6.188 0 11.966-.675 16.85-1.846h-33.698"/><path fill="#A6DEF8" d="M588.067 31.633c4.876 1.166 10.64 1.842 16.82 1.842 6.177 0 11.94-.676 16.816-1.842h-33.636"/><path fill="#A5DEF8" d="M588.095 31.633c4.87 1.162 10.624 1.836 16.79 1.836 6.167 0 11.923-.677 16.79-1.84h-33.58"/><path fill="#A4DEF8" d="M588.122 31.633c4.86 1.158 10.606 1.83 16.764 1.83 6.154 0 11.9-.672 16.765-1.83h-33.53"/><path fill="#A3DDF8" d="M588.152 31.633c4.854 1.157 10.59 1.825 16.732 1.825 6.144 0 11.878-.668 16.734-1.824H588.15"/><path fill="#A2DDF8" d="M588.18 31.633c4.85 1.152 10.573 1.818 16.706 1.818 6.132 0 11.856-.663 16.706-1.815H588.18"/><path fill="#A0DDF8" d="M588.207 31.633c4.843 1.147 10.558 1.812 16.68 1.812 6.12 0 11.834-.665 16.678-1.812h-33.358"/><path fill="#9FDCF8" d="M588.236 31.633c4.836 1.146 10.54 1.81 16.65 1.81 6.106 0 11.81-.66 16.65-1.81h-33.3"/><path fill="#9EDCF8" d="M588.264 31.633c4.83 1.143 10.524 1.803 16.622 1.803 6.1 0 11.79-.66 16.62-1.803h-33.242"/><path fill="#9DDCF8" d="M588.292 31.633c4.822 1.14 10.507 1.797 16.594 1.797 6.085 0 11.77-.658 16.593-1.797h-33.19"/><path fill="#9CDBF8" d="M588.32 31.633c4.815 1.135 10.49 1.79 16.564 1.79s11.747-.655 16.565-1.79h-33.13"/><path fill="#9BDBF8" d="M588.348 31.633c4.81 1.133 10.477 1.785 16.538 1.785 6.062 0 11.73-.652 16.536-1.785h-33.074"/><path fill="#99DBF8" d="M588.376 31.633c4.804 1.13 10.458 1.78 16.51 1.78 6.05 0 11.704-.65 16.508-1.78h-33.018"/><path fill="#98DAF8" d="M588.405 31.633c4.797 1.125 10.44 1.774 16.48 1.774s11.684-.648 16.48-1.773h-32.96"/><path fill="#97DAF7" d="M588.433 31.633c4.79 1.12 10.426 1.77 16.453 1.77s11.66-.646 16.452-1.77h-32.905"/><path fill="#96D9F7" d="M588.46 31.633c4.785 1.117 10.407 1.764 16.426 1.764s11.64-.646 16.425-1.764h-32.85"/><path fill="#95D9F7" d="M588.49 31.633c4.775 1.116 10.39 1.758 16.396 1.758 6.005 0 11.618-.64 16.396-1.755H588.49"/><path fill="#94D9F7" d="M588.518 31.633c4.77 1.112 10.374 1.752 16.368 1.752 5.993 0 11.598-.64 16.367-1.752h-32.735"/><path fill="#93D8F7" d="M588.546 31.633c4.765 1.107 10.357 1.746 16.34 1.746 5.98 0 11.574-.64 16.34-1.75h-32.68"/><path fill="#91D8F7" d="M588.575 31.633c4.758 1.104 10.34 1.74 16.312 1.74 5.97 0 11.556-.637 16.31-1.74h-32.622"/><path fill="#90D8F7" d="M588.602 31.633c4.752 1.102 10.324 1.736 16.284 1.736s11.53-.64 16.282-1.74h-32.566"/><path fill="#8FD7F7" d="M588.63 31.633c4.745 1.098 10.308 1.73 16.256 1.73 5.947 0 11.51-.635 16.255-1.73h-32.51"/><path fill="#8ED7F7" d="M588.66 31.633c4.736 1.096 10.29 1.725 16.228 1.725s11.487-.63 16.23-1.725H588.66"/><path fill="#8DD7F7" d="M588.688 31.633c4.73 1.09 10.273 1.72 16.2 1.72 5.922 0 11.464-.63 16.196-1.72h-32.396"/><path fill="#8BD6F7" d="M588.73 31.633c4.72 1.086 10.246 1.71 16.154 1.71s11.436-.624 16.155-1.71h-32.31"/><path fill="#8AD6F7" d="M588.77 31.633c4.713 1.082 10.227 1.703 16.115 1.703 5.89 0 11.402-.62 16.112-1.703H588.77"/><path fill="#89D6F7" d="M588.816 31.633c4.7 1.076 10.193 1.696 16.07 1.696 5.872 0 11.37-.62 16.07-1.698h-32.14"/><path fill="#88D5F7" d="M588.858 31.633c4.688 1.072 10.17 1.688 16.026 1.688s11.338-.61 16.027-1.685h-32.054"/><path fill="#87D5F7" d="M588.9 31.633c4.68 1.068 10.146 1.682 15.984 1.682s11.308-.61 15.984-1.682H588.9"/><path fill="#85D5F6" d="M588.944 31.633c4.667 1.064 10.116 1.676 15.94 1.676 5.823 0 11.274-.614 15.942-1.68h-31.883"/><path fill="#84D4F6" d="M588.987 31.633c4.654 1.06 10.093 1.668 15.9 1.668s11.24-.604 15.895-1.665h-31.795"/><path fill="#83D4F6" d="M589.03 31.633c4.646 1.055 10.064 1.66 15.854 1.66s11.21-.605 15.856-1.66h-31.71"/><path fill="#82D4F6" d="M589.072 31.633c4.636 1.05 10.04 1.652 15.812 1.652s11.18-.604 15.813-1.652H589.07"/><path fill="#80D3F6" d="M589.115 31.633c4.624 1.045 10.014 1.646 15.77 1.646 5.757 0 11.147-.605 15.772-1.65h-31.542"/><path fill="#80D3F6" d="M589.16 31.633c4.61 1.04 9.986 1.64 15.728 1.64 5.742 0 11.114-.6 15.73-1.64H589.16"/><path fill="#7FD3F6" d="M589.2 31.633c4.604 1.035 9.964 1.63 15.687 1.63 5.724 0 11.083-.595 15.687-1.63H589.2"/><path fill="#7ED2F6" d="M589.242 31.633c4.592 1.03 9.938 1.623 15.644 1.623 5.705 0 11.05-.592 15.644-1.623h-31.29"/><path fill="#7CD2F6" d="M589.285 31.633c4.582 1.028 9.912 1.616 15.6 1.616 5.69 0 11.02-.59 15.6-1.618h-31.2"/><path fill="#7BD2F6" d="M589.328 31.633c4.57 1.022 9.886 1.61 15.558 1.61 5.67 0 10.986-.588 15.56-1.61h-31.118"/><path fill="#7AD1F6" d="M589.37 31.633c4.56 1.018 9.86 1.602 15.516 1.602 5.654 0 10.955-.584 15.516-1.602H589.37"/><path fill="#79D1F6" d="M589.414 31.633c4.55 1.014 9.833 1.596 15.472 1.596 5.64 0 10.923-.58 15.47-1.598h-30.942"/><path fill="#77D1F6" d="M589.457 31.633c4.535 1.01 9.807 1.588 15.43 1.588 5.62 0 10.89-.573 15.428-1.585h-30.857"/><path fill="#76D0F6" d="M589.5 31.633c4.524 1.004 9.78 1.58 15.386 1.58 5.604 0 10.86-.576 15.386-1.58H589.5"/><path fill="#75D0F6" d="M589.543 31.633c4.515 1 9.754 1.572 15.343 1.572 5.587 0 10.827-.572 15.344-1.572h-30.687"/><path fill="#73D0F5" d="M589.585 31.633c4.505.996 9.73 1.566 15.3 1.566s10.797-.57 15.3-1.568h-30.6"/><path fill="#72CFF5" d="M589.63 31.633c4.492.99 9.7 1.56 15.256 1.56s10.765-.565 15.256-1.56H589.63"/><path fill="#71CFF5" d="M589.67 31.633c4.482.986 9.678 1.55 15.216 1.55 5.537 0 10.73-.56 15.214-1.55h-30.43"/><path fill="#6FCFF5" d="M589.714 31.633c4.472.98 9.65 1.543 15.172 1.543 5.52 0 10.7-.562 15.17-1.543h-30.342"/><path fill="#6ECEF5" d="M589.757 31.633c4.46.977 9.625 1.535 15.13 1.535 5.502 0 10.666-.56 15.127-1.535h-30.257"/><path fill="#6DCEF5" d="M589.8 31.633c4.45.973 9.6 1.53 15.086 1.53 5.486 0 10.636-.56 15.085-1.53H589.8"/><path fill="#6BCEF5" d="M589.842 31.633c4.438.97 9.574 1.52 15.044 1.52s10.604-.553 15.042-1.52h-30.086"/><path fill="#6ACEF5" d="M589.885 31.633c4.43.963 9.547 1.514 15 1.514s10.572-.55 15-1.514h-30"/><path fill="#68CDF5" d="M589.928 31.633c4.418.96 9.52 1.508 14.958 1.508s10.54-.547 14.957-1.506h-29.915"/><path fill="#67CDF5" d="M589.97 31.633c4.407.955 9.496 1.5 14.916 1.5s10.508-.545 14.914-1.5h-29.83"/><path fill="#66CDF5" d="M590.014 31.633c4.396.95 9.47 1.492 14.872 1.492 5.4 0 10.478-.543 14.87-1.492h-29.742"/><path fill="#64CCF5" d="M590.056 31.633c4.388.946 9.444 1.485 14.83 1.485 5.387 0 10.443-.54 14.83-1.484h-29.66"/><path fill="#63CCF5" d="M590.1 31.633c4.373.94 9.417 1.48 14.786 1.48 5.368 0 10.41-.536 14.785-1.48H590.1"/><path fill="#61CCF5" d="M590.142 31.633c4.363.938 9.394 1.47 14.744 1.47 5.354 0 10.38-.532 14.743-1.47h-29.49"/><path fill="#60CBF5" d="M590.185 31.633c4.354.932 9.365 1.463 14.7 1.463 5.336 0 10.35-.53 14.7-1.463h-29.4"/><path fill="#5ECBF4" d="M590.23 31.633c4.34.928 9.34 1.455 14.655 1.455 5.316 0 10.315-.527 14.657-1.455H590.23"/><path fill="#5DCBF4" d="M590.27 31.633c4.332.922 9.314 1.447 14.616 1.447 5.3 0 10.284-.525 14.615-1.447h-29.227"/><path fill="#5BCAF4" d="M590.312 31.633c4.32.918 9.287 1.44 14.572 1.44 5.284 0 10.252-.522 14.57-1.44h-29.142"/><path fill="#59CAF4" d="M590.356 31.633c4.31.914 9.262 1.434 14.53 1.434 5.268 0 10.22-.52 14.53-1.434h-29.06"/><path fill="#58CAF4" d="M590.4 31.633c4.297.908 9.233 1.426 14.484 1.426 5.25 0 10.188-.52 14.485-1.43H590.4"/><path fill="#56CAF4" d="M590.44 31.633c4.29.904 9.21 1.42 14.444 1.42 5.233 0 10.156-.516 14.443-1.42H590.44"/><path fill="#55C9F4" d="M590.484 31.633c4.275.9 9.186 1.412 14.4 1.412s10.124-.513 14.4-1.412h-28.8"/><path fill="#53C9F4" d="M590.527 31.633c4.268.895 9.156 1.404 14.36 1.404 5.2 0 10.09-.51 14.353-1.404h-28.713"/><path fill="#51C9F4" d="M590.57 31.633c4.257.89 9.134 1.396 14.314 1.396 5.184 0 10.06-.51 14.315-1.4h-28.63"/><path fill="#4FC8F4" d="M590.613 31.633c4.244.887 9.104 1.39 14.27 1.39s10.028-.503 14.273-1.39h-28.543"/><path fill="#4EC8F4" d="M590.655 31.633c4.232.88 9.08 1.383 14.23 1.383s9.995-.502 14.23-1.383h-28.46"/><path fill="#4CC8F4" d="M590.698 31.633c4.225.877 9.057 1.375 14.188 1.375s9.964-.498 14.188-1.375h-28.376"/><path fill="#4AC7F4" d="M590.74 31.633c4.215.87 9.03 1.367 14.146 1.367 5.115 0 9.934-.496 14.146-1.367H590.74"/><path fill="#48C7F4" d="M590.784 31.633c4.2.867 9.004 1.36 14.104 1.36s9.9-.493 14.1-1.36h-28.204"/><path fill="#46C7F4" d="M590.826 31.633c4.19.863 8.977 1.354 14.06 1.354 5.082 0 9.868-.49 14.06-1.354h-28.12"/><path fill="#44C7F4" d="M590.87 31.633c4.178.858 8.95 1.346 14.016 1.346 5.063 0 9.836-.487 14.018-1.35H590.87"/><path fill="#42C6F3" d="M590.912 31.633c4.168.854 8.925 1.34 13.974 1.34s9.807-.483 13.974-1.34h-27.95"/><path fill="#40C6F3" d="M590.955 31.633c4.156.85 8.896 1.332 13.93 1.332 5.032 0 9.773-.482 13.93-1.332h-27.86"/><path fill="#3DC6F3" d="M590.997 31.633c4.146.846 8.873 1.324 13.89 1.324 5.016 0 9.74-.48 13.888-1.324h-27.778"/><path fill="#3BC5F3" d="M591.04 31.633c4.136.84 8.848 1.316 13.846 1.316s9.71-.48 13.845-1.318h-27.69"/><path fill="#38C5F3" d="M591.083 31.633c4.125.836 8.82 1.31 13.803 1.31 4.98 0 9.677-.474 13.8-1.31h-27.603"/><path fill="#36C5F3" d="M591.126 31.633c4.113.832 8.795 1.303 13.76 1.303 4.964 0 9.646-.47 13.76-1.303h-27.52"/><path fill="#33C5F3" d="M591.17 31.633c4.104.826 8.768 1.295 13.716 1.295 4.947 0 9.612-.47 13.716-1.295H591.17"/><path fill="#30C4F3" d="M591.212 31.633c4.093.822 8.743 1.287 13.674 1.287 4.933 0 9.58-.465 13.673-1.287h-27.35"/><path fill="#2DC4F3" d="M591.254 31.633c4.082.818 8.718 1.28 13.632 1.28s9.55-.462 13.63-1.28h-27.262"/><path fill="#2AC4F3" d="M591.297 31.633c4.07.812 8.69 1.272 13.59 1.272 4.896 0 9.518-.46 13.586-1.272h-27.176"/><path fill="#27C3F3" d="M591.34 31.633c4.06.81 8.665 1.266 13.546 1.266 4.88 0 9.485-.458 13.545-1.27h-27.09"/><path fill="#23C3F3" d="M591.383 31.633c4.05.805 8.64 1.26 13.503 1.26 4.863 0 9.453-.455 13.502-1.26h-27.005"/><path fill="#1FC3F3" d="M591.426 31.633c4.038.8 8.613 1.252 13.46 1.252 4.848 0 9.42-.45 13.46-1.252h-26.92"/><path fill="#1AC2F3" d="M591.47 31.633c4.026.795 8.585 1.244 13.416 1.244 4.83 0 9.39-.45 13.416-1.244H591.47"/><path fill="#14C2F3" d="M591.51 31.633c4.02.79 8.563 1.236 13.376 1.236 4.813 0 9.356-.448 13.373-1.24h-26.75"/><path fill="#0CC2F3" d="M591.554 31.633c4.006.785 8.535 1.23 13.332 1.23 4.796 0 9.325-.444 13.33-1.23h-26.662"/><path fill="#02C2F2" d="M591.597 31.633c3.995.78 8.51 1.223 13.29 1.223 4.777 0 9.292-.44 13.287-1.223h-26.577"/><path fill="#00C1F2" d="M591.64 31.633c3.984.777 8.483 1.215 13.246 1.215 4.764 0 9.264-.438 13.245-1.215h-26.49"/><path fill="#00C1F2" d="M591.682 31.633c3.977.77 8.458 1.207 13.204 1.207 4.745 0 9.23-.436 13.202-1.207h-26.406"/><path fill="#00C1F2" d="M591.725 31.633c3.963.768 8.434 1.2 13.16 1.2 4.73 0 9.198-.435 13.16-1.2h-26.32"/><path fill="#00C0F2" d="M591.768 31.633c3.952.764 8.406 1.193 13.118 1.193 4.71 0 9.165-.43 13.116-1.193h-26.234"/><path fill="#00C0F2" d="M591.81 31.633c3.942.76 8.38 1.186 13.076 1.186 4.694 0 9.134-.43 13.073-1.19h-26.15"/><path fill="#00C0F2" d="M591.854 31.633c3.93.754 8.354 1.178 13.032 1.178 4.68 0 9.104-.42 13.03-1.175h-26.062"/><path fill="#00C0F2" d="M591.896 31.633c3.92.75 8.33 1.17 12.99 1.17s9.07-.42 12.986-1.17h-25.976"/><path fill="#00BFF2" d="M591.94 31.633c3.906.744 8.3 1.164 12.944 1.164 4.646 0 9.037-.42 12.945-1.164h-25.89"/><path fill="#00BFF2" d="M591.982 31.633c3.896.74 8.274 1.156 12.902 1.156 4.627 0 9.006-.42 12.902-1.16H591.98"/><path fill="#00BFF2" d="M592.05 31.633c3.878.734 8.233 1.146 12.836 1.146 4.604 0 8.957-.414 12.835-1.15h-25.67"/><path fill="#00BFF2" d="M592.117 31.633c3.86.73 8.19 1.137 12.77 1.137s8.908-.408 12.77-1.137h-25.54"/><path fill="#00BEF2" d="M592.185 31.633c3.84.723 8.15 1.128 12.7 1.128s8.86-.4 12.7-1.125h-25.4"/><path fill="#00BEF2" d="M592.252 31.633c3.822.717 8.106 1.12 12.634 1.12 4.525 0 8.81-.403 12.632-1.12h-25.266"/><path fill="#00BEF2" d="M592.32 31.633c3.804.71 8.063 1.107 12.564 1.107 4.5 0 8.764-.396 12.563-1.107H592.32"/><path fill="#00BEF2" d="M592.387 31.633c3.785.705 8.023 1.1 12.5 1.1 4.476 0 8.713-.395 12.496-1.1h-24.996"/><path fill="#00BDF2" d="M592.454 31.633c3.767.7 7.98 1.09 12.432 1.09 4.45 0 8.664-.39 12.43-1.09h-24.862"/><path fill="#00BDF2" d="M592.523 31.633c3.744.693 7.938 1.08 12.36 1.08s8.616-.387 12.363-1.08h-24.723"/><path fill="#00BDF1" d="M592.59 31.633c3.73.688 7.896 1.07 12.296 1.07 4.397 0 8.566-.385 12.294-1.07h-24.59"/><path fill="#00BDF1" d="M592.66 31.633c3.708.68 7.853 1.062 12.228 1.062 4.373 0 8.52-.38 12.23-1.062H592.66"/><path fill="#00BCF1" d="M592.725 31.633c3.69.674 7.812 1.053 12.16 1.053 4.35 0 8.47-.38 12.16-1.053h-24.32"/><path fill="#00BCF1" d="M592.793 31.633c3.67.668 7.77 1.043 12.093 1.043s8.42-.375 12.094-1.043h-24.187"/><path fill="#00BCF1" d="M592.86 31.633c3.65.662 7.73 1.033 12.024 1.033s8.372-.37 12.024-1.033H592.86"/><path fill="#00BCF1" d="M592.928 31.633c3.634.656 7.688 1.023 11.958 1.023s8.324-.367 11.957-1.023h-23.915"/><path fill="#00BBF1" d="M592.995 31.633c3.613.65 7.644 1.016 11.89 1.016 4.247 0 8.276-.365 11.89-1.018h-23.78"/><path fill="#00BBF1" d="M593.064 31.633c3.597.645 7.602 1.006 11.82 1.006 4.222 0 8.23-.362 11.82-1.008h-23.64"/><path fill="#00BBF1" d="M593.13 31.633c3.577.64 7.56.996 11.756.996 4.196 0 8.177-.358 11.754-1h-23.51"/><path fill="#00BAF1" d="M593.2 31.633c3.558.633 7.517.986 11.687.986s8.13-.356 11.688-.99H593.2"/><path fill="#00BAF1" d="M593.266 31.633c3.54.627 7.477.977 11.62.977 4.146 0 8.08-.35 11.62-.977h-23.24"/><path fill="#00BAF1" d="M593.333 31.633c3.52.62 7.433.967 11.553.967s8.03-.348 11.55-.967h-23.103"/><path fill="#00BAF1" d="M593.4 31.633c3.502.613 7.393.957 11.484.957 4.094 0 7.98-.344 11.483-.957H593.4"/><path fill="#00B9F1" d="M593.47 31.633c3.48.607 7.35.947 11.416.947 4.068 0 7.937-.34 11.416-.947H593.47"/><path fill="#00B9F1" d="M593.536 31.633c3.463.604 7.306.938 11.35.938 4.043 0 7.886-.333 11.35-.935h-22.7"/><path fill="#00B9F1" d="M593.604 31.633c3.444.598 7.266.93 11.282.93 4.02 0 7.837-.332 11.28-.93h-22.562"/><path fill="#00B9F1" d="M593.67 31.633c3.427.59 7.223.92 11.216.92 3.992 0 7.788-.33 11.214-.92h-22.43"/><path fill="#00B8F1" d="M593.74 31.633c3.406.584 7.18.91 11.146.91s7.74-.326 11.146-.91H593.74"/><path fill="#00B8F1" d="M593.807 31.633c3.39.578 7.14.9 11.08.9 3.94 0 7.69-.322 11.077-.9h-22.157"/><path fill="#00B8F0" d="M593.874 31.633c3.368.572 7.095.893 11.012.893 3.916 0 7.644-.32 11.01-.893h-22.022"/><path fill="#00B8F0" d="M593.942 31.633c3.352.565 7.054.883 10.942.883 3.89 0 7.594-.314 10.942-.883h-21.884"/><path fill="#00B7F0" d="M594.01 31.633c3.33.56 7.01.87 10.876.87s7.545-.31 10.876-.87H594.01"/><path fill="#00B7F0" d="M594.076 31.633c3.312.555 6.97.863 10.81.863s7.496-.31 10.81-.863h-21.62"/><path fill="#00B7F0" d="M594.144 31.633c3.294.55 6.93.854 10.742.854 3.815 0 7.447-.305 10.74-.854h-21.482"/><path fill="#00B7F0" d="M594.212 31.633c3.273.543 6.884.844 10.674.844s7.397-.3 10.673-.844h-21.35"/><path fill="#00B6F0" d="M594.28 31.633c3.257.535 6.843.835 10.604.835 3.765 0 7.35-.3 10.604-.835H594.28"/><path fill="#00B6F0" d="M594.347 31.633c3.237.53 6.8.824 10.54.824 3.737 0 7.3-.295 10.537-.824h-21.077"/><path fill="#00B6F0" d="M594.414 31.633c3.218.524 6.758.816 10.472.816 3.713 0 7.253-.295 10.47-.818h-20.942"/><path fill="#00B5F0" d="M594.482 31.633c3.2.52 6.716.807 10.402.807 3.688 0 7.203-.29 10.402-.808h-20.804"/><path fill="#00B5F0" d="M594.55 31.633c3.18.512 6.673.797 10.336.797 3.662 0 7.155-.285 10.335-.797h-20.67"/><path fill="#00B5F0" d="M594.617 31.633c3.16.506 6.63.787 10.27.787 3.638 0 7.105-.28 10.27-.787h-20.54"/><path fill="#00B5F0" d="M594.686 31.633c3.145.5 6.59.777 10.2.777 3.612 0 7.06-.277 10.2-.777h-20.4"/><path fill="#00B5F0" d="M594.752 31.633c3.124.494 6.547.77 10.134.77s7.01-.273 10.132-.77h-20.266"/><path fill="#00B4F0" d="M594.82 31.633c3.104.488 6.505.76 10.064.76 3.56 0 6.96-.27 10.063-.76H594.82"/><path fill="#00B4F0" d="M594.888 31.633c3.085.48 6.462.748 9.998.748 3.535 0 6.912-.264 9.997-.745h-19.995"/><path fill="#00B4F0" d="M594.955 31.633c3.066.477 6.42.74 9.93.74s6.864-.266 9.93-.74h-19.86"/><path fill="#00B4F0" d="M595.023 31.633c3.048.47 6.378.73 9.86.73 3.485 0 6.814-.26 9.86-.73h-19.72"/><path fill="#00B3F0" d="M595.09 31.633c3.03.465 6.335.72 9.796.72 3.46 0 6.768-.255 9.794-.72h-19.59"/><path fill="#00B3F0" d="M595.16 31.633c3.01.46 6.292.712 9.728.712 3.437 0 6.72-.253 9.73-.712H595.16"/><path fill="#00B3EF" d="M595.226 31.633c2.99.45 6.25.7 9.66.7 3.408 0 6.67-.25 9.66-.7h-19.32"/><path fill="#00B3EF" d="M595.293 31.633c2.973.445 6.21.693 9.593.693 3.384 0 6.62-.248 9.594-.693h-19.187"/><path fill="#00B2EF" d="M595.36 31.633c2.955.44 6.168.684 9.524.684s6.57-.24 9.524-.684H595.36"/><path fill="#00B2EF" d="M595.428 31.633c2.937.434 6.124.674 9.458.674 3.332 0 6.52-.24 9.456-.674h-18.914"/><path fill="#00B2EF" d="M595.496 31.633c2.915.428 6.082.664 9.39.664 3.31 0 6.476-.236 9.39-.664h-18.78"/><path fill="#00B2EF" d="M595.564 31.633c2.896.422 6.04.654 9.32.654s6.426-.232 9.32-.654h-18.64"/><path fill="#00B2EF" d="M595.63 31.633c2.88.416 6 .645 9.256.645s6.376-.23 9.254-.645h-18.51"/><path fill="#00B1EF" d="M595.7 31.633c2.856.41 5.955.637 9.187.637 3.232 0 6.327-.228 9.188-.638H595.7"/><path fill="#00B1EF" d="M595.767 31.633c2.84.404 5.912.627 9.12.627 3.205 0 6.277-.223 9.118-.627h-18.238"/><path fill="#00B1EF" d="M595.834 31.633c2.82.397 5.87.617 9.052.617 3.184 0 6.23-.22 9.05-.617h-18.102"/><path fill="#00B1EF" d="M595.902 31.633c2.803.393 5.83.606 8.982.606 3.154 0 6.18-.22 8.983-.61H595.9"/><path fill="#00B0EF" d="M595.97 31.633c2.782.387 5.786.598 8.916.598s6.132-.206 8.915-.595h-17.83"/><path fill="#00B0EF" d="M596.036 31.633c2.765.38 5.743.588 8.85.588 3.104 0 6.084-.204 8.85-.585h-17.7"/><path fill="#00B0EF" d="M596.104 31.633c2.746.373 5.703.578 8.782.578 3.078 0 6.035-.202 8.78-.575h-17.562"/><path fill="#00B0EF" d="M596.17 31.633c2.73.367 5.66.568 8.716.568s5.985-.2 8.714-.565h-17.43"/><path fill="#00B0EF" d="M596.24 31.633c2.708.36 5.618.56 8.646.56 3.028 0 5.938-.194 8.646-.56H596.24"/><path fill="#00AFEF" d="M596.307 31.633c2.69.355 5.575.55 8.58.55 3.002 0 5.89-.19 8.577-.55h-17.157"/><path fill="#00AFEF" d="M596.374 31.633c2.67.35 5.532.54 8.512.54 2.98 0 5.84-.19 8.51-.54h-17.022"/><path fill="#00AFEF" d="M596.442 31.633c2.65.344 5.49.53 8.442.53s5.79-.187 8.442-.53h-16.884"/><path fill="#00AFEF" d="M596.51 31.633c2.632.338 5.45.52 8.376.52 2.927 0 5.742-.184 8.376-.52H596.51"/><path fill="#00AEEF" d="M596.577 31.633c2.612.332 5.406.514 8.31.514 2.9 0 5.693-.182 8.31-.514h-16.62"/><path fill="#00AEEF" d="M596.645 31.633c2.597.326 5.364.504 8.24.504 2.877 0 5.647-.178 8.24-.504h-16.48"/><path fill="#00AEEE" d="M596.712 31.633c2.576.32 5.323.494 8.174.494 2.853 0 5.6-.174 8.173-.494h-16.35"/><path fill="#00AEEE" d="M596.78 31.633c2.56.312 5.28.484 8.104.484 2.825 0 5.548-.17 8.104-.484H596.78"/><path fill="#00AEEE" d="M596.847 31.633c2.538.31 5.238.475 8.04.475 2.798 0 5.498-.166 8.036-.475h-16.076"/><path fill="#00ADEE" d="M596.915 31.633c2.52.303 5.194.467 7.97.467 2.773 0 5.45-.164 7.97-.468h-15.94"/><path fill="#00ADEE" d="M596.983 31.633c2.5.297 5.15.455 7.9.455s5.4-.16 7.903-.455h-15.803"/><path fill="#00ADEE" d="M597.05 31.633c2.48.29 5.11.447 7.836.447s5.354-.158 7.835-.447h-15.67"/><path fill="#00ADEE" d="M597.117 31.633c2.463.283 5.066.438 7.77.438 2.696 0 5.306-.146 7.77-.435h-15.54"/><path fill="#00ADEE" d="M597.185 31.633c2.444.277 5.027.428 7.7.428 2.674 0 5.257-.146 7.7-.425h-15.4"/><g transform="translate(48 4)"><path fill="#EA5B0F" d="M28.57 38.88c3.284 2.298 9.78-1.456 14.506-8.396 4.73-6.938 5.9-14.417 2.62-16.714-3.285-2.297-9.615 1.264-14.342 8.207-4.73 6.935-6.065 14.606-2.784 16.903z"/><path fill="#0055A4" d="M19.852 38.88c-3.283 2.298-9.778-1.456-14.505-8.396-4.73-6.938-5.902-14.42-2.62-16.714 3.285-2.297 9.615 1.264 14.343 8.205 4.73 6.937 6.063 14.608 2.782 16.905z"/><ellipse fill="#009DCC" cx="24.213" cy="7.754" rx="15.083" ry="7.309"/></g><path fill="#C70119" d="M131.005 15.58l-1.126 1.984h-10.22L104.003 47.13l-5.722.87-.282-.29 14.44-30.146h-8.436l1.03-1.983h8.25c3-5.37 5.438-9.384 14.064-13.256C129.88 1.164 133.82 0 137.382 0c1.875 0 3.844.388 3.844 1.55 0 .675-.938 2.322-2.626 2.322-1.78 0-3.75-.968-5.905-.968-5.72 0-7.41 3.29-8.722 6.048l-3.28 6.63h10.312"/><path fill="#161614" d="M167.998 0C154.748 0 144 10.745 144 24c0 10.605 6.876 19.6 16.413 22.77 1.2.226 1.638-.52 1.638-1.152 0-.57-.02-2.08-.03-4.08-6.675 1.447-8.083-3.22-8.083-3.22-1.092-2.77-2.665-3.51-2.665-3.51-2.18-1.49.166-1.46.166-1.46 2.41.17 3.676 2.473 3.676 2.473 2.142 3.67 5.62 2.61 6.986 1.997.218-1.55.838-2.607 1.523-3.207-5.33-.606-10.932-2.668-10.932-11.863 0-2.62.937-4.764 2.47-6.44-.246-.607-1.07-3.048.238-6.352 0 0 2.014-.646 6.6 2.46 1.913-.534 3.966-.8 6.007-.81 2.04.01 4.092.276 6.01.81 4.582-3.106 6.592-2.46 6.592-2.46 1.31 3.303.486 5.744.24 6.352 1.538 1.676 2.466 3.82 2.466 6.44 0 9.22-5.612 11.25-10.957 11.842.86.74 1.63 2.204 1.63 4.443 0 3.207-.03 5.796-.03 6.583 0 .642.433 1.39 1.65 1.154C185.13 43.59 192 34.6 192 24c0-13.255-10.747-24-24.002-24"/><path fill="#1A1918" d="M217.657 0h5.417v32.814c0 5.826-2.593 9.8-14.86 15.186L208 46.234c9.083-5.883 9.657-6.95 9.657-12.697V0z"/><path fill="#C23C2F" d="M285.244 13.16H274.84V2.754c0-1.522-1.234-2.755-2.756-2.755h-16.17c-1.52 0-2.755 1.23-2.755 2.753V13.16h-10.407c-1.522 0-2.755 1.233-2.755 2.755v16.17c0 1.52 1.233 2.755 2.754 2.755h10.404v10.404c0 1.52 1.233 2.755 2.755 2.755h16.17c1.52 0 2.756-1.234 2.756-2.758V34.84h10.404c1.52 0 2.756-1.234 2.756-2.756v-16.17c0-1.52-1.234-2.755-2.756-2.755h.004z"/><path fill="#FFF" d="M255.89 46c-.38 0-.69-.31-.69-.69V32.8h-12.51c-.38 0-.69-.31-.69-.692V15.89c0-.38.31-.69.69-.69h12.51V2.69c0-.38.31-.69.69-.69h16.22c.38 0 .69.31.69.69V15.2h12.51c.38 0 .69.31.69.69v16.22c0 .38-.31.69-.69.69H272.8v12.508c0 .38-.31.69-.69.69h-16.22V46z"/><path fill="#212828" d="M267.31 9.05l-3.54-5.275-3.543 5.274 2.19-.455V21.19c-.873.507-1.46 1.448-1.46 2.528 0 1.613 1.308 2.92 2.92 2.92 1.613 0 2.92-1.31 2.92-2.92 0-1.147-.66-2.136-1.623-2.614V8.61l2.136.44zm13.714 14.612l-4.057-2.725.277 1.345h-9.438v2.758h9.44l-.278 1.347 4.056-2.725z"/><path fill="#54ACEE" d="M336 8.7c-1.765.797-3.664 1.335-5.656 1.576 2.034-1.24 3.598-3.202 4.33-5.544-1.902 1.15-4.01 1.983-6.253 2.433C326.628 5.218 324.068 4 321.235 4c-5.438 0-9.85 4.486-9.85 10.02 0 .786.087 1.55.255 2.285-8.186-.42-15.44-4.408-20.3-10.47-.848 1.478-1.333 3.2-1.333 5.038 0 3.476 1.737 6.543 4.38 8.34-1.614-.052-3.133-.503-4.46-1.254-.002.04-.002.08-.002.124 0 4.854 3.395 8.902 7.9 9.825-.826.228-1.696.35-2.594.35-.634 0-1.25-.06-1.853-.18 1.254 3.98 4.89 6.88 9.2 6.96-3.37 2.69-7.616 4.29-12.23 4.29-.795 0-1.58-.05-2.35-.143 4.36 2.845 9.535 4.5 15.096 4.5 18.114 0 28.02-15.27 28.02-28.51 0-.434-.01-.867-.025-1.298 1.92-1.41 3.59-3.176 4.91-5.185L336 8.7z"/><path fill="#0D9EE3" d="M344.197 19.84c0-2.378-1.835-4.307-4.1-4.307-2.266 0-4.1 1.928-4.1 4.307 0 3.023 4.1 5.535 4.1 5.535s4.1-2.666 4.1-5.535zm3.917 5.535s-4.85 2.553-4.85 6.064c0 2.81 2.17 5.09 4.85 5.09 2.677 0 4.848-2.28 4.848-5.095 0-3.59-4.848-6.063-4.848-6.063v.003zm14.22-7.446c0-3.437-2.65-6.22-5.92-6.22s-5.916 2.783-5.916 6.22c0 4.24 5.917 7.443 5.917 7.443s5.918-3.203 5.918-7.446v.002zm3.916 7.443s-6.548 2.855-6.548 7.744c0 3.8 2.93 6.88 6.548 6.88s6.55-3.08 6.55-6.88c0-4.81-6.55-7.745-6.55-7.744zm17.75-9.3c0-4.46-3.44-8.074-7.684-8.074-4.242 0-7.687 3.613-7.687 8.072 0 5.485 7.687 9.302 7.687 9.302S384 21.71 384 16.074z"/><path fill="#8C979B" d="M419.876 27.15c.925.396 1.48 1.14 1.48 1.99 0 1.125-.866 1.795-2.315 1.795-1.536 0-2.25-1.355-2.437-1.77l-.225-.518h-5.555c-.73 1.216-2.196 2.336-3.903 2.336-3.08 0-4.62-2.407-4.813-4.784H414.7v-.52c0-.986-.105-1.913-.295-2.77.36 1.104 1.183 2.25 2.902 3.06.63.3 1.58.75 2.57 1.18zm-13.136-7.552c2.577 0 3.84 1.778 4.205 3.588h-8.577c.447-1.814 2.038-3.588 4.372-3.588zm25.27.052v-3.252h-2.678v-3.844h-3.287v3.844h-6.62c-3.056.002-5.27 2.057-5.27 4.89 0 .305.023.633.09.973-1.044-3.606-3.79-5.86-7.48-5.86-4.51 0-7.958 3.51-8.247 8.27V23.66c0-4.002-3.257-7.258-7.26-7.258S384 19.653 384 23.655V34.06h3.327V23.656c0-2.167 1.763-3.93 3.932-3.93 2.165 0 3.932 1.763 3.932 3.93V34.06h3.324v-8.097c.29 4.772 3.783 8.3 8.354 8.3 2.79 0 5.25-1.62 6.645-3.496 1.04 2.223 3.07 3.496 5.58 3.496 2.908 0 5.854-1.857 5.854-5.408 0-2.127-1.236-3.864-3.48-4.896-.287-.13-.52-.24-.738-.347l-.03-.016c-.25-.12-.492-.233-.793-.37-1.467-.658-2.165-1.14-2.165-2.1 0-.845.756-1.48 1.69-1.48h6.61v9.265c0 2.95 2.4 5.35 5.352 5.35v-3.287c-1.14 0-2.062-.926-2.062-2.062V19.65h2.674z"/><g fill="#60A6CF"><path d="M462.24 25.244h2.7v2.7h-2.7v-2.7zm5.786 9.456c3.905-.153 5.396-2.905 5.396-2.905s-1.23 1.44-5.297 1.8c-4.062.36-8.382-1.85-8.382-1.85.004.103 4.375 3.11 8.283 2.955zm-.104-9.723h2.7v2.697h-2.7v-2.697zm3.78-5.225h2.7v2.7h-2.7v-2.7zm-.848 8.08h2.81v2.81h-2.81v-2.81zm4.013-5.008h4.843v4.84h-4.843v-4.84zm-8.75-3.164h2.7v2.698h-2.7V19.66z"/><path d="M472.39 35.37c-6.995 1.737-12.755-2.12-21.805-4.956-5.955-1.867-10.908.72-13.6 2.705-1.4 1.028-2.19 1.9-2.19 1.9 0 .04.814-.456 2.19-1.036 2.853-1.2 8.128-2.78 13.577-.746 8.07 3.01 14.42 4.337 21.312 3.152 5.447-.938 7.354-4.496 7.917-5.95-.502 1.16-2.164 3.626-7.4 4.928v.002zm-11.58-20.925h4.846v4.84h-4.845v-4.84z"/><path d="M434.88 36.336c6.627-2.173 16.502-1.55 23.237 1.11-4.862-2.662-14.624-6.64-23.237-1.11zm44.91-5.89c.17-.392.21-.632.21-.632s-.06.246-.21.63zm-42.806 1.798c.5-.338 1.012-.657 1.48-.9-.23-.146-.443-.312-.64-.502-.36-.353-.634-.746-.844-1.152-.906-1.758-.596-3.752-.596-3.752s-1.537 3.522.597 5.62l.058.054c.09.09.184.164.28.238-.114-.055-.23-.113-.336-.176-1.417-.816-2.37-2.334-2.37-4.07s.953-3.254 2.37-4.07c.646-.372 1.394-.6 2.19-.63-.105-.6-.16-1.22-.16-1.85 0-.374.02-.746.06-1.11-.73.032-1.43.167-2.086.392-2.9.992-4.984 3.713-4.984 6.917 0 2.578 1.354 4.848 3.396 6.146.46-.356 1.018-.77 1.59-1.156h-.004zm19.45-14.472h3.636v3.63h-3.636v-3.63z"/><path d="M442.444 23.803c-.016-.047-.025-.093-.037-.14.026.098.048.152.048.152s-.466-4.068 2.433-6.1c2.9-2.033 7.188-.794 7.188-.794s-4.512-2.66-7.896-.244c-.082.06-.16.12-.234.18 1.43-1.713 3.596-2.805 6.02-2.805 2.464 0 4.66 1.13 6.09 2.893h3.238C457.7 13.44 454.138 11 450 11c-5.62 0-10.178 4.5-10.178 10.05 0 .62.058 1.228.167 1.818.914.09 1.76.423 2.454.935z"/></g><path opacity=".9" fill="#01A1AB" enable-background="new" d="M524.932 19.286l-.425.938-.43-.944-.245 1.248h.16l.137-.764.374.806.363-.81.144.767h.167l-.248-1.24h.002zm-1.56 1.243h.167v-1.065h.265v-.157h-.694v.156h.267l-.004 1.063v.002zm-2.958-.427c-2.008 0-2.994 1.54-2.994 1.54V17.76h-3.114v12.823h3.146v-5.876c0-.987.837-1.808 1.842-1.808 1.372 0 1.606.8 1.606 1.657v6.023h3.213v-7.06c0-1.94-1.657-3.415-3.7-3.417zm-11.568 3.114c0-.403.318-.62.82-.62.904 0 1.27.803 1.27.803l2.36-1.036c-.636-1.44-1.892-2.26-3.364-2.26-2.272 0-3.934 1.355-3.934 3.348 0 3.614 4.603 2.944 4.603 4.217 0 .485-.6.723-1.1.723-.92 0-1.44-.904-1.44-.904l-2.393 1.2c.803 1.51 2.075 2.145 3.8 2.145 2.176 0 4.116-1.188 4.116-3.414.002-3.517-4.734-3.05-4.734-4.203h-.004zm-8.948-3.115c-3.163 0-5.623 2.31-5.623 5.39 0 2.86 2.41 5.438 5.557 5.438 3.348 0 5.607-2.36 5.607-5.49 0-3.094-2.43-5.337-5.542-5.338zM490.715 23c-.335-.133-.987-.4-1.39-.552-.67-.25-1.456-.484-1.456-1.17 0-.67.466-1.122 1.286-1.122 1.24 0 2.578 1.02 2.578 1.02l1.305-2.51c-.92-.603-2.443-1.373-4.1-1.373-2.277 0-4.403 1.523-4.403 4.084 0 1.808.888 2.963 2.512 3.7.55.25 1.505.618 1.906.77 1.256.47 1.34.72 1.34 1.255 0 .688-.92 1.004-1.855 1.004-1.223 0-2.395-.686-3.014-1.235-.284.484-1.338 2.595-1.338 2.595 1.338.837 2.61 1.59 4.418 1.59 2.576 0 5.12-1.437 5.12-4.185 0-1.932-.987-3.1-2.91-3.87zM528 32.98l-46.487 3.35L480 15.35 526.487 12 528 32.98z"/><path fill="#FF6122" d="M528 0h48v48h-48V0z"/><path fill="#FFF" d="M533.928 38.505c-1.31 0-1.55 1.18-1.55 2.032 0 .854.24 2.035 1.55 2.035s1.55-1.182 1.55-2.035c0-.85-.24-2.032-1.55-2.032m0 5.548c-1.73 0-3.297-1.104-3.297-3.516 0-2.41 1.566-3.516 3.3-3.516 1.73 0 3.294 1.105 3.294 3.52s-1.562 3.517-3.294 3.517m4.494-6.858h1.668v.78c.318-.422 1.104-.92 1.836-.92.07 0 .155 0 .23.01v1.646h-.088c-.766 0-1.6.118-1.866.71v4.435h-1.78V37.2m5.933 4.676c0 .45.28.867.79.867.55 0 1.087-.23 1.623-.7v-1.58c-1.635.204-2.41.626-2.413 1.413m2.455 1.404c-.68.442-1.41.66-2.2.66-1.243 0-1.98-.827-1.98-1.94 0-1.49 1.37-2.275 4.196-2.598v-.37c0-.484-.366-.77-1.045-.77-.68 0-1.23.27-1.625.77l-1.186-.677c.62-.87 1.566-1.303 2.837-1.303 1.736 0 2.713.752 2.713 1.98v4.827h-1.554l-.154-.58m3.092-5.903l1.452-.2.16.79c.814-.6 1.468-.917 2.283-.917 1.37 0 2.08.726 2.08 2.165v4.64h-1.755V39.52c0-.812-.213-1.182-.847-1.182-.52 0-1.045.236-1.645.738v4.777h-1.732l.005-6.476m13.394-.2v6.306c0 1.11-.088 2.947-3.26 2.967-1.31.01-2.524-.518-2.767-1.66l1.73-.28c.07.33.27.655 1.252.655.907 0 1.345-.436 1.345-1.477v-.778l-.02-.023c-.28.5-.703.974-1.72.974-1.558 0-2.777-1.075-2.777-3.33 0-2.228 1.262-3.474 2.677-3.478 1.33-.003 1.82.604 1.938.924l-.023-.005.146-.793h1.48zm-3.127 5.25c1.33-.01 1.443-1.362 1.443-2.243 0-1.045-.51-1.89-1.457-1.89-.63 0-1.332.46-1.332 1.962 0 .82.06 2.183 1.347 2.172zm8.634-2.782c0-.89-.51-1.414-1.344-1.414-.792 0-1.287.52-1.354 1.42h2.696v-.005zm-1.317 4.335c-1.963 0-3.134-1.267-3.134-3.455 0-2.217 1.185-3.48 3.103-3.48s3.064 1.227 3.064 3.393c0 .114-.018.23-.018.345h-4.434c.012 1.265.537 1.9 1.567 1.9.66 0 1.103-.27 1.514-.855l1.283.71c-.56.946-1.577 1.442-2.946 1.442zm1.986-9.31v.293h.687v1.91h.364v-1.91h.69v-.292h-1.74zm4.05 0l-.645 1.672-.656-1.67h-.564v2.2h.364v-1.837h.01l.725 1.838h.232l.718-1.838h.01v1.838h.364V34.67h-.56z"/><path fill="#D72938" d="M689.984 2c.85.003 1.295.667 1.453.886.07.22.136.443.214.897.014.09.02.146.02.24 0 .37-.09.582-.228.926-.12.296-.17.483-.39.72-.32.345-.547.45-.64.576-.043.06-.37.363-.466.502-.098.14-.463.715-.612 1.03-.12.257-.11.686-.54 1.283-.177.246-.327.366-.422.653-.092.29-.09.48-.244.742-.283.476-.543.683-.777 1.183-.225.485-.23.798-.384 1.307-.16.532-.52.743-.58 1.292-.03.256.03.41 0 .67-.085.79-.632 1.07-1.02 1.764-.146.258-.146.448-.19.74-.063.41-.135.633-.265 1.028-.22.665-.2 1.08-.33 1.766-.087.45-.138.708-.21 1.16-.04.234-.18.35-.18.59l.003.23c0 .156-.1.23-.105.39-.026.353-.09.548-.14.898-.24 1.77-.568 2.72-.997 4.456-.154.625-.15.997-.296 1.622-.106.466-.208.726-.245 1.203-.03.38-.025.593-.05.97-.033.44.02.688.02 1.125 0 .252-.02.396-.053.646-.18 1.426-.49 2.47-.52 3.654v.78l-.12 1.13v.192c.004.603-.553 1.187-1.086 1.187-.724-.002-.955-.763-1.068-1.52-.074-.48-.15-.755-.22-1.232-.037-.27-.17-.396-.23-.658-.02-.092-.013-.147-.026-.23-.016-.08-.293-1.354-.51-2.212-.18-.708-.37-2.026-.4-2.06-.034-.04-.13-.55-.17-1.056-.022-.296-.135-.606-.154-.74-.022-.145.033-.228.01-.37-.064-.4-.09-.63-.18-1.023-.087-.378-.135-.576-.196-.976v-.156c-.05-.693-.27-1.51-.396-2.476-.058-.44-.032-.692-.07-1.13-.035-.352-.062-.822-.227-.887-.225-.087-.297.236-.38.405-.184.367-.29.57-.442.956-.218.55-.292.876-.54 1.41-.276.598-.377.952-.63 1.56-.195.48-.51.908-.968.92-.387.012-.78-.42-.798-.773-.02-.285.13-.92.322-1.438.204-.544.356-.975.478-1.416.125-.477.202-.604.333-1.11.165-.652.42-1.085.6-1.734.21-.766.42-1.116.67-1.87.117-.355.2-.61.297-.973.045-.17.225-.684.333-1.13.085-.35.15-.72.244-.885.185-.277.5-.348.84-.345.71 0 1.188.37 1.197 1.075.006.47-.063 1.026.02 1.5.008.326.055.198.105.515.192 1.245.28 1.404.38 2.384.125.567.213 1.586.213 1.586 0 .398.146 1.085.238 1.474.087.382-.002.53.14 1.13.104.46.17 1.045.186 1.2.015.2.06.586.1.79.022.145.055.46.15.95.107.334.07.613.228.97.038.102.096.202.2.202.09.002.172-.14.23-.258.207-.39.19-.638.34-1.054.19-.522.272-.87.355-1.38.138-.585.277-1.69.54-2.755.27-1.074.372-1.69.578-2.774.146-.74.296-1.19.425-1.89.076-.334.175-.52.173-.864.028-.2.086-.323.124-.53.145-.736.272-1.263.333-1.892v-.174c.032-.133.08-.44.246-.763.17-.525.34-.803.634-1.27.438-.695.373-1.23.632-2.013.038-.06.23-.488.274-.823.04-.04.15-.28.194-.555.103-.115.53-1.92.83-2.647.016-.178.167-.404.25-.657.07-.24.496-1.327.693-1.993.168-.538.115-.883.336-1.396.238-.55.385-1.162.44-1.465.136-.337.268-.512.477-.812.302-.432.494-.712.983-.905.227-.09.382-.187.623-.187h-.002zm14.415 8.888c.533 0 1.082.36 1.06.9-.02.43-.154.514-.247.67-.146.24-.09.643-.91.723-.432 0-.966-.494-.966-1.052 0-.63.428-1.238 1.06-1.24h.002zm5.33 1.84c.75.003 1.13.74 1.11 1.558-.004.076-.027.117-.027.195 0 .21.026.325.026.53 0 .196-.063.71-.063.71 0 .397-.12.617-.12 1.015 0 .113.033.178.033.29 0 .23-.035.357-.056.585-.047.56.333.596.46.853.27.125.402.358.71.358.144.004.572-.18.69-.22.56-.25.887-.38 1.428-.67.84-.44 1.187-.8 2-1.31.54-.344 1.043-.685 1.688-.684.53 0 1.03.397 1.18.764.07.177.174.405.174.64 0 .086.037.13.037.214 0 .123 0 .194-.014.317-.04.35-.03.56-.158.884-.13.334-.355.455-.654.653-.33.226-.603.334-1.01.334h-.212c-.283-.002-.41-.09-.694-.09-.448 0-.723.183-1.12.38-.478.237-1.02.545-1.185.626-.466.218-1.42.725-2.294 1.248-1.796 1.072-3.036 1.644-4.773 2.797-.673.448-.854.667-1.57 1.043-.437.235-.74.28-1.16.547-.717.446-1.102.762-1.68 1.376-.518.438-1.25 1.193-1.88 1.514-.576.295-1.238.842-1.65 1.342-.086.104-.49.36-.545.973l.133 1.674c0 .315-.146.526-.126.9l.017 1.187c.003.44.15.49.15.855l.015.474c0 .558.22.845.23 1.396-.058.6.007.862.02 1.436.02.557.1.893.234 1.43.1.402.062.62.24.99.255.55.365.855.64 1.4.183.36.294.66.294 1.064 0 .793-.633 1.288-1.482 1.377-.074.01-.727.01-.99-.165-.33-.23-.426-.658-.443-1.058-.023-.556-.012-.763-.104-1.328.01-.293-.066-.454-.145-.73-.17-.633-.287-.993-.302-1.647-.02-.84.05-1.312.05-2.15-.035-.556-.078-.87-.146-1.42-.07-.545-.178-.86-.24-1.403-.11-.918-.11-1.434-.162-2.354-.02-.23-.02-.347-.04-.57-.006-.276-.123-.41-.31-.41-.38 0-.54.272-.868.462-.46.257-.693.504-1.082.855-.782.573-1.108.903-1.74 1.592-.417.453-.613.758-1.075 1.164-.374.324-.615.484-.974.827-.294.28-.396.508-.617.85-.203.307-.397.43-.67.668-1.007.885-1.198.85-2.44 2.416-.36.462-.632.524-.724.68-.02.028-.43.364-.576.513-.204.203-.518.504-.694.646-.396.314-.538.6-.92.936-.43.38-.7.61-1.252.792-.257.083-.354.18-.63.18-.563 0-.946-.536-.947-1.102 0-.356.18-.49.392-.774.405-.555.684-.84 1.196-1.287.847-.74 1.145-1.37 2.082-1.994.327-.216 1.146-.67 1.368-.84.38-.294.716-.62 1.02-.993.13-.17.276-.213.403-.39.134-.187.18-.323.337-.493.354-.39.626-.545 1.06-.85.56-.393.88-.564 1.413-1.003.378-.31.542-.574.846-.954.6-.75 1.164-.948 1.942-1.517.36-.265.478-.52.76-.865.152-.19.67-.853 1.183-1.306.343-.306.553-.462.898-.76.598-.52.808-.33.792-1.122 0-.138.036-.324-.167-.31-.19.015-.24.175-.378.3-.294.26-.477.387-.865.38-.8-.014-1.308-.728-1.33-.773-.228-.446-.59-1.808-.605-2.228 0 0-.023-.562 0-.885.03-.402.135-1.136.386-1.573.14-.24.262-1.2.432-2.08.06-.32.24-.648.344-.96.146-.45.22-.72.49-1.11.48-.684.744-1.457 1.58-1.453.188 0 .27.046.44.127.105.058.23.078.292.178.06.09.005.173.092.24.154.122.23.372.23.62 0 .143 0 .227-.02.366-.062.562-.402.79-.758 1.234-.346.432-.43.573-.646 1.08-.176.415-.22.842-.307 1.284-.104.52-.19.985-.23 1.347-.012.112-.022.21-.022.33 0 .13.097.373.228.373.207 0 .396-.248.464-.443.167-.458.295-.683.41-1.154.17-.677.277-.975.54-1.548.33-.71.362-1.16.554-1.74.23-.7.43-1.344 1.166-1.34.236 0 .393 0 .597.12.462.26.575.697.575 1.226-.005.162-.01.257-.022.42-.17 1.58-.564 2.433-.695 4.026-.02.226 0 .356-.02.582-.033.397-.125.614-.123 1.02 0 .18.04.278.093.448.023.09.056.195.147.195.187 0 .263-.132.416-.23.3-.188.5-.25.793-.44.454-.3.747-.42 1.188-.738.444-.327.902-.83 1.365-1.13.455-.295.514-.22.998-.526.592-.373.946-.565 1.504-.984.333-.256.348-.436.83-.707.462-.263.73-.404 1.18-.688.242-.152.363-.27.62-.387.213-.1.425-.195.425-.43-.003-.236-.147-.374-.272-.574-.172-.29-.203-.447-.204-.783 0-.166-.007-.29.02-.455.106-.654.36-1 .358-1.66l.02-.216c-.03-.024-.046-.054-.09-.054-.09 0-.145.12-.2.19-.17.196-.27.318-.434.52-.224.26-.363.4-.515.707-.087.166-.07.285-.14.46-.153.38-.264.604-.39.995-.35 1.046-.32 2.43-1.43 2.428-.726 0-1.312-.578-1.313-1.303 0-.42.117-1.056.17-1.103.178-.15.035-.55.14-.643.088-.073.12-.44.12-.8 0-.167.047-.265.047-.43l.02-.27c0-.303.097-.46.14-.76.09-.6.247-.75.3-.92.025-.1.02-.145.056-.244.193-.546.147-.87.685-1.32.19-.192.31-.396.58-.396.626 0 .8.357.96.342.29-.03.392-.253.598-.458.62-.612 1.025-1.348 1.906-1.346h-.013zm-6.985 3.857c.596 0 1.186.22 1.17.982-.01.45-.244.67-.404 1.087-.132.345-.06.578-.154.936-.143.532-.363.477-.332 1.377.01.675.01 1.057-.017 1.732-.024.646-.56 1.103-1.212 1.113-.562.01-1.144-.66-1.142-1.226 0-.405.113-.623.14-1.027.02-.35-.008-.55.017-.9.035-.596.198-.915.387-1.484.093-.282.087-.465.192-.742.153-.404.2-.632.44-1.023.1-.44.432-.83.915-.825zm-16.235 2.102c.36 0 .614.176.805.485.184.304.34.493.34.85 0 .062-.02.097-.02.16.002.61-.51 1.093-1.12 1.093-.608-.004-1.057-.628-1.055-1.162 0-.213.132-.35.154-.583.058-.55.41-.846.896-.843zm4.476 1.65c.627 0 .902.517 1.213 1.063.3.53.64.817.64 1.422 0 .608-.397.913-.867 1.3-.267.22-.497.174-.846.28-.16.05-.194.265-.215.458-.037.354-.062.554-.07.902-.015.586.006.918.01 1.502-.062.324-.01.543-.16.83-.24.46-.626.69-1.15.688-.602 0-1.123-.48-1.112-1.09.003-.18.08-.728.07-1.192-.018-.708-.073-1.11-.075-1.82-.002-.354.158-.542.158-.9v-.3c-.01-.26.244-.493.51-.704.38-.304.54-.643.72-1.097.29-.752.45-1.342 1.173-1.343zm-4.47 2.804c.308.007.517.116.692.357.288.393.47.684.47 1.17 0 .104-.007.162-.017.27-.046.395-.175.61-.39.948-.134.22-.138.387-.24.62-.2.43-.32.824-.336 1.165-.02.7-.03 1.1-.016 1.8.01.355.09.548.09.897.007.73-.425 1.472-1.152 1.472-.726 0-1.412-.956-1.376-1.965.016-.363.072-.562.14-.92.108-.557.195-1.19.298-1.432.14-.318.13-.436.154-.53l.084-.577c0-.236.092-.286.13-.518.08-.5.14-.774.298-1.256.1-.295.232-.433.334-.724.15-.42.393-.78.838-.78v.003z"/><path fill="#52BC0F" d="M746.273 0c-3.815 0-7.453 1.436-9.597 3.724V1.166l-.37-.373h-7.773l-.373.373-.16 46.53.16.304 8.335-4.993.2-.335-.02-25.82c0-5.89 2.84-9.268 7.785-9.268 5.38 0 7.776 3.08 7.776 9.992v19.876l.376.373h7.772l.373-.373V17.284C760.764 5.977 755.754 0 746.273 0z"/><path fill="#E2E2E2" d="M807 38.434v.57c0 1.654-1.344 2.996-3.002 2.996h-27.996c-1.658 0-3.002-1.348-3.002-2.997v-.573c-1.076-.697-1.702-1.96-1.533-3.395L773 22h34l1.533 13.035c.17 1.443-.455 2.705-1.533 3.4zm0-32.863V5c0-1.652-1.344-3-3.002-3h-27.996C774.344 2 773 3.342 773 4.997v.57c-1.078.693-1.703 1.955-1.533 3.397L773 22h34l1.533-13.036c.17-1.432-.457-2.696-1.533-3.393z"/><path fill="#E2E2E2" d="M776 2h28c1.657 0 3 1.343 3 3v3c0 1.657-1.343 3-3 3h-28c-1.657 0-3-1.343-3-3V5c0-1.657 1.343-3 3-3z"/><path fill="#AAA9A8" d="M776 33h28c1.657 0 3 1.344 3 3v3c0 1.656-1.343 3-3 3h-28c-1.657 0-3-1.344-3-3v-3c0-1.656 1.343-3 3-3z"/><path fill="#0D7DC0" d="M771.467 8.964C771.21 6.774 772.782 5 774.995 5h30.01c2.206 0 3.785 1.787 3.528 3.964L807 22h-34l-1.533-13.036z" filter="url(#a)"/><g transform="translate(771 22)"><path fill="#0AABF4" d="M2 0h34l1.533 13.035C37.79 15.225 36.218 17 34.005 17H3.995C1.79 17 .21 15.213.467 13.035L2 0z" filter="url(#b)"/><mask maskUnits="userSpaceOnUse" x="2" y="0" width="37.025" height="17" id="d"><path fill="#FFF" d="M2 0h34l1.533 13.035C37.79 15.225 36.218 17 34.005 17H3.995C1.79 17 .21 15.213.467 13.035L2 0z" filter="url(#c)"/></mask><path mask="url(#d)" fill="#099DE1" d="M2 0l17 17h20.025V0H2z"/></g><path fill="#E8E8E8" d="M781 29c0-3 6-5 9-5s9 2 9 5v3h-18v-3zm9-9c2.21 0 4-1.79 4-4s-1.79-4-4-4-4 1.79-4 4 1.79 4 4 4z"/><g transform="translate(792 24)"><circle fill="#FD7461" cx="12" cy="12" r="12"/><path fill="#FFF" d="M17.657 17.657C19.14 16.177 20 14.157 20 12c0-4.418-3.582-8-8-8v2c3.312 0 6 2.688 6 6 0 1.62-.646 3.133-1.757 4.242L14 14v6h6l-2.343-2.343zm-9.9-9.9L10 10V4H4l2.343 2.343C4.86 7.823 4 9.843 4 12c0 4.418 3.582 8 8 8v-2c-3.312 0-6-2.688-6-6 0-1.62.646-3.132 1.757-4.243z"/></g><path fill="#0077B5" d="M820 0h40c2.21 0 4 1.79 4 4v40c0 2.21-1.79 4-4 4h-40c-2.21 0-4-1.79-4-4V4c0-2.21 1.79-4 4-4z"/><path fill="#FFF" d="M831.19 39.275V18.848h-6.79v20.427h6.79zm-3.393-23.216c2.367 0 3.84-1.57 3.84-3.53-.043-2.007-1.473-3.53-3.795-3.53-2.32 0-3.842 1.524-3.842 3.53 0 1.96 1.474 3.53 3.752 3.53h.045zm7.476 23.21h6.79V27.87c0-.61.044-1.22.224-1.657.49-1.216 1.604-2.48 3.48-2.48 2.456 0 3.44 1.876 3.44 4.622v10.93H856v-11.72c0-6.274-3.35-9.194-7.817-9.194-3.663 0-5.27 2.047-6.164 3.442h.045v-2.962h-6.79c.087 1.917-.003 20.427-.003 20.427v-.004z"/><path fill="#264670" d="M912 22.78c0 5.973-2.033 11.454-5.418 15.744h-13.24l4.077-7.343h-5.395l6.352-11.42h5.38l5.125-9.236c1.98 3.62 3.115 7.8 3.115 12.256H912zm-29.333 15.54l.006.013h-13.255C866.032 34.28 864 29.103 864 23.46c0-4.217 1.14-8.172 3.123-11.59l8.59 14.614 9.487-16.15h13.92L882.667 38.32zm26.525 5.153c0 .695-.1 1.19-.294 1.47-.196.284-.498.43-.906.43s-.706-.144-.896-.43c-.188-.28-.28-.77-.28-1.47V39.2h-2.062v4.032c0 1.336.266 2.322.798 2.957.533.634 1.35.95 2.443.95 1.088 0 1.892-.316 2.412-.955.52-.636.776-1.62.776-2.957V39.2h-1.99v4.273zm-9 .407h2.544v-1.728h-2.544v-1.226h2.976V39.2h-5.04V47h5.16v-1.73h-3.096M951.067 45.19c-.225.12-.483.178-.787.178-.504 0-.91-.196-1.22-.588-.31-.392-.464-.956-.464-1.692 0-.352.048-.668.14-.947.094-.276.218-.514.374-.704.152-.19.34-.34.552-.442.212-.104.434-.156.666-.156.256 0 .476.046.66.138.184.094.372.224.562.39l1.128-1.27c-.276-.28-.622-.52-1.022-.727-.404-.204-.854-.307-1.354-.307-.504 0-.982.092-1.443.274-.46.183-.866.45-1.222.798-.35.35-.63.776-.84 1.284s-.31 1.09-.31 1.745c0 .664.1 1.246.3 1.746s.47.916.812 1.248c.35.33.745.58 1.2.742s.94.244 1.453.244c.48 0 .938-.097 1.368-.29.435-.19.818-.478 1.154-.86l-1.128-1.25c-.164.186-.358.335-.578.45v-.003zm6.677-5.99h-2.496l-2.376 7.8h2.112l.384-1.656h2.184l.384 1.656h2.188l-2.38-7.8zm-2.004 4.548l.132-.54c.096-.376.19-.782.282-1.218s.182-.854.27-1.254h.048c.1.392.192.808.288 1.248.1.438.192.848.288 1.224l.132.54h-1.44zM960 22.62c0 5.974-2.033 11.454-5.418 15.744h-13.24l4.077-7.343h-5.395l6.352-11.42h5.38l5.125-9.236c1.98 3.62 3.115 7.8 3.115 12.256H960zm-29.333 15.54l.006.014h-13.255C914.032 34.122 912 28.944 912 23.3c0-4.216 1.14-8.17 3.123-11.59l8.59 14.615 9.487-16.15h13.92L930.667 38.16z"/><g fill="#9DC51C"><path d="M977 26.5l-16.5 8 31 5.5-14.5-9m3.86-14.5c-.86 1 .64 3 .64 3L992 30v-8.5l-9-5.5s-1.28-.5-2.14.5z"/><path d="M990.5 34c.5-1.5-2.5-4-2.5-4l-8-7v7l8 4.5s2 1 2.5-.5zm6.5-12c0 2 2.5 3 8 3 1 0 2 .5 2 .5V18c0-.5-2-1.5-4-1s-6 3.5-6 5zm7 6.5c-1.5-.5-6.5-.5-7.5-1s-1.5-1-1.5-1V37s8.5-5 9.5-5.5 1-2.5-.5-3zm-2.33-15.946c.455-.304.438-.772-.05-1.042l-7.24-4.023c-.493-.276-1.27-.274-1.76 0l-7.24 4.02c-.493.272-.508.735-.05 1.04l7.34 4.894c.455.304 1.202.306 1.66 0l7.34-4.893v.003zm3.522 26.646v4.272c0 .692-.1 1.186-.294 1.47-.196.284-.498.426-.906.426s-.706-.142-.896-.427c-.188-.28-.28-.77-.28-1.468V39.2h-2.062v4.032c0 1.336.266 2.322.798 2.957.533.634 1.348.95 2.443.95 1.088 0 1.892-.316 2.412-.955.52-.636.776-1.62.776-2.957V39.2h-1.99zm-9 4.68h2.544v-1.728h-2.544v-1.226h2.976V39.2h-5.04V47h5.16v-1.73h-3.096"/></g><g fill="#9DC51C"><path d="M1045 22c0 2 2.5 3 8 3 1 0 2 .5 2 .5V18c0-.5-2-1.5-4-1s-6 3.5-6 5zm-6.5 12c.5-1.5-2.5-4-2.5-4l-8-7v7l8 4.5s2 1 2.5-.5z"/><path d="M1025 26.5l-16.5 8 31 5.5-14.5-9m27-2.5c-1.5-.5-6.5-.5-7.5-1s-1.5-1-1.5-1V37s8.5-5 9.5-5.5 1-2.5-.5-3zm-23.14-12c-.86 1 .64 3 .64 3L1040 30v-8.5l-9-5.5s-1.28-.5-2.14.5zm20.76-4.988l-7.24-4.023c-.493-.276-1.27-.274-1.76 0l-7.24 4.02c-.493.272-.508.735-.05 1.04l7.34 4.894c.455.304 1.202.306 1.66 0l7.34-4.893c.455-.303.436-.77-.05-1.04v.002zm4.124 27.688h-2.496l-2.376 7.8h2.112l.384-1.656h2.184l.387 1.656h2.184l-2.38-7.8zm-2.004 4.548l.132-.54c.096-.376.19-.782.282-1.218.092-.436.182-.854.27-1.254h.048c.1.392.192.808.288 1.248.096.438.192.848.288 1.224l.132.54h-1.44zm-4.674 1.445c-.224.117-.482.175-.786.175-.504 0-.91-.196-1.218-.588-.31-.392-.466-.956-.466-1.692 0-.352.05-.668.14-.947s.218-.514.374-.704c.152-.19.34-.34.552-.442.212-.104.434-.156.666-.156.256 0 .476.046.66.138.184.094.372.224.562.39l1.128-1.27c-.276-.28-.62-.52-1.022-.727-.404-.204-.854-.307-1.353-.307-.505 0-.983.092-1.443.274s-.867.45-1.223.798c-.352.35-.632.776-.84 1.284s-.312 1.09-.312 1.745c0 .664.1 1.246.3 1.746s.473.916.815 1.248c.347.33.743.58 1.2.742s.94.244 1.45.244c.48 0 .94-.097 1.37-.29.432-.19.813-.478 1.15-.86l-1.13-1.25c-.16.186-.354.335-.575.45z"/></g><g fill="#3E669C"><path d="M1101.192 43.473c0 .695-.1 1.188-.294 1.47-.196.284-.498.43-.906.43s-.706-.144-.896-.43c-.188-.28-.28-.77-.28-1.47V39.2h-2.062v4.032c0 1.336.267 2.322.798 2.957.533.634 1.35.95 2.443.95 1.088 0 1.892-.316 2.412-.955.52-.636.78-1.62.78-2.957V39.2h-1.992v4.272h-.003zm-9 .407h2.544v-1.728h-2.544v-1.226h2.976V39.2h-5.04V47h5.16v-1.73h-3.096M1056 10v28h48V10h-48zm12 26l-6.5-9.5-3.5 3.5v-7l10-11h7l-10 11 9.5 13h-6.5zm34 0h-24s-4-2-4-7h7c0 2 .5 4 6 4s5-3 5-3 0-1.5-4-2.5-7.5-2-9-2.5-4.5-2.5-4.5-6.5 3-6 4-6.5h23.5v24z"/><circle cx="1097" cy="18" r="3"/><path d="M1091 21v-2c0-1-.5-4-5-4s-4.017 2-4.017 2.5c0 2.5 9.017 3.5 9.017 3.5z"/></g><g fill="#3E669C"><path d="M1143.066 45.193c-.224.117-.482.175-.786.175-.504 0-.91-.196-1.218-.588-.31-.392-.466-.956-.466-1.692 0-.352.05-.668.14-.947s.218-.514.374-.704c.152-.19.34-.34.552-.442.212-.104.434-.156.666-.156.256 0 .476.046.66.138.184.094.372.224.562.39l1.128-1.27c-.276-.28-.62-.52-1.022-.727-.404-.204-.854-.307-1.353-.307-.505 0-.983.092-1.443.274s-.867.45-1.223.798c-.352.35-.632.776-.84 1.284s-.312 1.09-.312 1.745c0 .664.1 1.246.3 1.746s.473.916.815 1.248c.347.33.743.58 1.2.742s.94.244 1.45.244c.48 0 .94-.097 1.37-.29.432-.19.813-.478 1.15-.86l-1.13-1.25c-.16.186-.354.335-.575.45zm6.678-5.993h-2.496l-2.376 7.8h2.112l.384-1.656h2.184l.387 1.656h2.184l-2.38-7.8zm-2.004 4.548l.132-.54c.096-.376.19-.782.282-1.218.092-.436.182-.854.27-1.254h.048c.1.392.192.808.288 1.248.096.438.192.848.288 1.224l.132.54h-1.44zM1152 10h-48v28h48V10zm-36 26l-6.5-9.5-3.5 3.5v-7l10-11h7l-10 11 9.5 13h-6.5zm34 0h-24s-4-2-4-7h7c0 2 .5 4 6 4s5-3 5-3 0-1.5-4-2.5-7.5-2-9-2.5-4.5-2.5-4.5-6.5 3-6 4-6.5h23.5v24z"/><circle cx="1145" cy="18" r="3"/><path d="M1139 21v-2c0-1-.5-4-5-4s-4.017 2-4.017 2.5c0 2.5 9.017 3.5 9.017 3.5z"/></g><g fill="#855CEA"><path d="M1195.995 2H1191v-.997c0-.565-.447-1.003-1-1.003-.557 0-1 .45-1 1.003V2h-5v-.997c0-.565-.447-1.003-1-1.003-.557 0-1 .45-1 1.003V2h-5v-.997c0-.565-.447-1.003-1-1.003-.557 0-1 .45-1 1.003V2h-5v-.997c0-.565-.447-1.003-1-1.003-.557 0-1 .45-1 1.003V2h-5v-.997c0-.565-.447-1.003-1-1.003-.557 0-1 .45-1 1.003V2h-4.995c-1.105 0-2.005.897-2.005 2.005v39.99c0 1.106.896 2.005 2.005 2.005h39.99c1.104 0 2.005-.896 2.005-2.005V4.005c0-1.106-.896-2.005-2.005-2.005zm.005 40h-40V11h40v31zm0-33h-40V4h5v1.997c0 .565.447 1.003 1 1.003.557 0 1-.45 1-1.003V4h5v1.997c0 .565.447 1.003 1 1.003.557 0 1-.45 1-1.003V4h5v1.997c0 .565.447 1.003 1 1.003.557 0 1-.45 1-1.003V4h5v1.997c0 .565.447 1.003 1 1.003.557 0 1-.45 1-1.003V4h5v1.997c0 .565.447 1.003 1 1.003.557 0 1-.45 1-1.003V4h5v5z"/><path d="M1160 38h32c.545 0 1-.45 1-1.003V16.003c0-.564-.447-1.003-1-1.003h-32c-.545 0-1 .45-1 1.003v20.994c0 .564.447 1.003 1 1.003zm25-21h6v5h-6v-5zm0 7h6v5h-6v-5zm0 7h6v5h-6v-5zm-8-14h6v5h-6v-5zm0 7h6v5h-6v-5zm0 7h6v5h-6v-5zm-8-7h6v5h-6v-5zm0 7h6v5h-6v-5zm-8-14h6v5h-6v-5zm0 7h6v5h-6v-5zm0 7h6v5h-6v-5z"/></g><path fill="#FF5D47" d="M1243.995 28H1238v-9.994c0-1.11-.892-2.006-1.99-2.006H1233V9.222c.61-.55 1-1.337 1-2.222 0-1.657-2-7-3-7s-3 5.343-3 7c0 .885.39 1.672 1 2.222V16h-3V9.222c.61-.55 1-1.337 1-2.222 0-1.657-2-7-3-7s-3 5.343-3 7c0 .885.39 1.672 1 2.222V16h-3V9.222c.61-.55 1-1.337 1-2.222 0-1.657-2-7-3-7s-3 5.343-3 7c0 .885.39 1.672 1 2.222V16h-3.01c-1.09 0-1.99.898-1.99 2.006V28h-5.995c-1.104 0-2.005.89-2.005 1.99v16.02c0 1.092.896 1.99 2.005 1.99h39.99c1.104 0 2.005-.89 2.005-1.99V29.99c0-1.092-.896-1.99-2.005-1.99z"/><path fill="#FFF" d="M1243.995 30h-39.99c-.003 0-.005.002-.005 0v7.34c.002 0 .003.002.005.005.31.37.687.745 1.12 1.095 1.23.98 2.676 1.562 4.375 1.562s3.146-.58 4.376-1.562c.437-.35.812-.725 1.12-1.095.172-.208.275-.354.308-.405.828-1.32 2.786-1.23 3.485.166.016.04.094.17.227.363.25.35.56.702.936 1.034 1.057.94 2.375 1.494 4.046 1.494s2.99-.557 4.044-1.495c.373-.332.687-.688.934-1.037.137-.194.214-.325.23-.364.7-1.396 2.657-1.49 3.484-.166.03.055.137.197.31.405.312.37.686.746 1.12 1.096 1.23.98 2.676 1.562 4.375 1.562s3.146-.58 4.376-1.562c.437-.35.812-.725 1.12-1.095 0-.002.002-.003.004-.005l-.002-7.335c0-.003.004 0-.004 0h.005zm-31.975-8.53c.25.35.56.705.936 1.036 1.057.94 2.375 1.495 4.046 1.495s2.99-.552 4.047-1.492c.372-.33.686-.686.933-1.037.137-.193.215-.325.23-.363.737-1.474 2.84-1.474 3.58 0 .02.038.095.17.23.363.25.35.56.704.933 1.035 1.057.94 2.375 1.495 4.046 1.495s2.99-.554 4.046-1.494c.373-.33.687-.686.935-1.037l.02-.036v-3.438c0 .002-24.01.002-24.01.002.01 0 .01 2.334.01 3.435.01.012.013.02.02.033v.002l-.003.002zM1217 8c.553 0 1-.448 1-1 0-.475-.42-1.988-.98-3.37-.007-.02-.015-.034-.02-.052-.007.018-.015.033-.02.05-.56 1.384-.98 2.897-.98 3.372 0 .552.447 1 1 1zm14 0c.553 0 1-.448 1-1 0-.475-.42-1.988-.98-3.37-.007-.02-.015-.034-.02-.052-.007.018-.015.033-.02.05-.56 1.384-.98 2.897-.98 3.372 0 .552.447 1 1 1zm-7 0c.553 0 1-.448 1-1 0-.475-.42-1.988-.98-3.37-.007-.02-.015-.034-.02-.052-.007.018-.015.033-.02.05-.56 1.384-.98 2.897-.98 3.372 0 .552.447 1 1 1z"/><path fill="#E3373D" d="M1252 0h40c2.21 0 4 1.79 4 4v40c0 2.21-1.79 4-4 4h-40c-2.21 0-4-1.79-4-4V4c0-2.21 1.79-4 4-4z"/><path fill="#FFF" d="M1248 14h48v29h-48V14z"/><path d="M1267.174 32.438c-.24 0-.516.07-.78.146-.27.075-.55.146-.8.146-.066 0-.134-.02-.197-.03-.302-.06-.545-.25-.723-.52-.318-.482-.396-1.277-.11-2.244.464.127 1.046.146 1.684.146h.153c.163 0 .314.053.41.092.312-1.295.145-3.06-.105-4.076-.194-.042-.367-.112-.54-.174-.3-.104-.584-.21-.97-.21-.067 0-.14-.003-.205.005-1.23.167-2.062 1.917-2.25 3.56-.18 1.52.146 3.342 1.567 3.897.295.115.658.176 1.083.176.853 0 1.83-.24 2.477-.496-.154-.293-.376-.42-.693-.42zm-2.72-3.363c.1-.728.354-1.298.778-1.785.162.674.194 1.368.09 1.903l-.14.066-.06.015c-.113 0-.194-.033-.268-.062-.064-.03-.123-.05-.202-.05l-.216.01.018-.098zm-4.64-6.337c-.08.008-.158.083-.234.083-.236 0-.443.06-.648.026-.193-.035-.393.17-.624.17h-.062c-.062 0-.115-.24-.144-.256-1.065 1.472-1.437 3.46-1.918 5.477-.27-.48-.513-.967-.756-1.47-.43-.88-.87-1.784-1.374-2.51-.142-.014-.275-.015-.406-.015-.576 0-1.1.106-1.59.252l-.025 1.354c-.056 2.324-.104 4.33.475 6.227.106.02.216.027.323.027.69 0 1.3-.345 1.563-.48.043-.594-.03-1.06-.104-1.55-.04-.253-.08-.507.05-.837.4.527.75 1.107 1.103 1.688.226.366.445.73.618 1.048.114.015.226.02.328.02.27 0 .507-.034.743-.067.247-.033.49-.064.772-.064l.158.06c.315-.717.334-1.77.352-2.79.016-.937.03-1.897.438-2.62.444 2.09 1.055 4.12 1.854 6.205.28-.04.593-.14.88-.23.216-.064.41-.13.563-.13.08 0 .146.034.203.074-.478-1.337-.784-2.85-1.08-4.332-.384-1.906-.78-3.84-1.45-5.35l-.004-.007v-.002zm32.012 2.317c-.854-.51-1.6-.755-2.277-.755-.85 0-1.58.388-2.24 1.185-1.247 1.5-1.51 4.62-1.69 6.193-.074.032-.156.06-.24.082-.216.065-.42.127-.497.23.655.773.783 2.085.91 3.352.097.98.194 1.988.48 2.676.152.033.374.05.67.05.137 0 .278-.003.427-.003.243 0 .482.014.674.07-.454-1.166-.63-2.746-.49-5.054 1.85-.44 3.494-1.78 4.29-3.486.48-1.03.86-2.66-.018-4.535v-.005zm-1.69 3.613c-.42 1.186-1.392 2.262-2.536 2.576.36-1.99.855-4.227 2.23-5.543l.08-.073.054.1c.604 1.125.43 2.22.172 2.94zm-18.038 3.307c-.276.44-.715.688-1.23.688-.544 0-1.09-.283-1.412-.74-.312-.437-.388-.978-.113-1.59.443.093.875.177 1.277.177.334 0 .635-.055.89-.084-.08-.994.033-1.693.154-2.436.1-.618.204-1.258.226-2.027-.558-.43-1.15-.65-1.812-.71-1.633 1.272-2.395 3.224-2.32 5.946.226 1.196 1.78 1.944 3.1 1.944.805-.002 1.478-.27 1.876-.664-.082-.26-.304-.404-.633-.508v.003zm-2.24-4.047c.092-.21.183-.42.256-.645l.09-.266.074.27c.175.625.118 1.79-.15 2.418l-.27.004c-.162 0-.323-.02-.443-.19.036-.643.243-1.125.443-1.592zm13.014-1.11h-.13c-.06 0-.11.158-.14.13l-.017.602c-.038 1.65-.092 3.94-1.644 4.49-.146-.993-.187-2.076-.227-3.045-.02-.517-.04-.985-.02-1.312-.15-.074-.29-.154-.43-.238-.388-.235-.75-.456-1.335-.534-.23 2.844.048 4.726.833 5.59.323.36.74.544 1.237.544.35 0 .745-.087 1.14-.23l.15-.23c.28-.44.463-.73.882-1.054.104-.19.22-.435.335-.62.516-.84.997-1.73.82-3.177-.393-.334-.89-.912-1.456-.912v-.002zm-6.17.514c-.104.002-.123.08-.135.314-.014.188-.025.48-.31.48h-.195l.01-.066c.066-.848.008-1.816-.06-2.896-.094-1.528-.19-2.958.076-4.25-.33-.404-.834-.617-1.81-.617h-.035c-.08 0-.154-.255-.176-.3-.504 1.574-.263 3.297-.023 5.18.137 1.075.265 2.077.107 3.05-.19 0-.39-.022-.577-.04-.168-.015-.335-.03-.483-.03-.276 0-.444.05-.547.164-.114.132-.146.356-.142.622.387.27 1.053.29 1.694.307l.406.093c.02.575.062 1.124.104 1.674.063.803.13 1.635.112 2.54.17-.024.324-.032.477-.042.288-.02.562-.037.87-.074-.01-.64-.033-1.25-.058-1.84-.03-.82-.06-1.602.01-2.444.285-.08.632-.1.966-.12.562-.03 1.142-.06 1.395-.276-.2-.166-.375-.36-.547-.56-.322-.373-.63-.724-1.13-.86v-.003l.004-.005z"/><path fill="#0062AE" d="M1342.205 17.303c1.39-2.315 1.69-2.354 1.792-3.322.08-.762-1.712-1.61-2.738-2.312-1.01-.725-2.275-.966-2.72-.986-.465-.02-1.07.08-.988-.16.628-1.866-.453-2.307-.886-2.4V7.116h-.182v-.182h-17.848c-.77-.175-2.364-.536-2.994-.503-.44 0-1.4.5-1.73.504h-.03c-.176 0-.706-.168-.897-.322-.28-.24-.543-.804-1.952-.54-.543.095-.964.425-1.226.864h-8.02v.182h-.184v9.947c-.49.046-.773.17-.847.242-.08.06-.52.222-.603.564-.28.24-.362.745-.184.926-.04.12-.183.745.36.926.545.847-.26 1.25-.26 1.25s-.625.06-2.338.926c-3.826 1.913-.265 2.84.38 2.9.948.08 1.148.16.85 1.127-.32.968 0 2.336 0 2.336-.767.022-.866.826-.848 1.39-.48 1.73 1.05 1.33 1.45.587 1.407.627 1.896-1.492 2.032-1.422v1.362c-.233.45-.48.823-.48.823-.665 1.45-.103.865-.145 1.49-.055.6.044.982.624 1.156v8.326h.185v.2h5.86c.103.06.204.13.317.183.665.302.727.32.906.04.047-.07.07-.147.08-.225h27.525v-.198h.185V31.074c1.312-.03.87-.328.966-1.55.078-1.286.3-3.02.3-2.878.163 1.23.626 3.344.444 3.604-.18.24-.14.423-.784.825-.664.403-.664.624-.646.665.02.04-.1.402.726.423.826.02 1.793-.563 1.873-.584.3-.164.704-.084.865-.605 0 0 .1-.945 0-1.39.32-.888.424-3.625.344-4.106.704-1.714.584-5.563.562-5.78.653-1.11.955-1.33.896-2.4h.006v.003zm-33.628 23.963c-.07-.086-.113-.186-.04-.322l.04-.075v.398-.002zm.364-1.027c.94-1.377 2.258-1.816 2.258-1.816.732-.242 3.153-1.064 4.23-1.316v4.7h-6.485l-.002-1.57zm26.64-21.41c-.225.93-.34 1.55-.4 1.994h-3.264c.78-.628 1.48-1.26 1.612-1.47.886-.302.504-.805.262-1.126-.263-.323-.887-.283-1.25-.06-1.087.04-.262.44-.422.642-.322.322-1.73.986-2.235 1.35-.07.05-.138.092-.2.126v-5.82c1.726.73 4.588.408 4.992.72.423.3 1.228 2.314.906 3.645zm-.46 3.444c-.2 2.51.584 4.41.72 5.638h-6.156v-5.6c.365-.11 1.064-.583 1.77-1.124h3.687c-.054.567.01.75-.02 1.086zm-31.23 3.142c-.06-1.128.263-1.752.422-1.894.145-.14 1.15-.705 1.73-.885 1.485-.438 2.317-1.01 2.54-1.193v4.54c-.103.022-.23-.023-.305-.023-.686-.1-.726.104-.686.244.02.062.063.1-.623.062-1.048-.04-.705.702-.222.903.543.24 1.826.3 1.83.3v.443h-4.23c-.123-1.506-.424-1.89-.456-2.497zm6.24-9.102c.12-.302-.182-.765.02-1.127.07-.158.488-.65.762-.987h3.03c.27.055.546.088.82.08.173-.002.33-.034.48-.08h.183v6.625h-5.725c.163-.117.3-.24.347-.362.16-.423.12-.826-.18-.846-.646.34-.306.06-.605.1-.16.114-.26.17-.322.2v-2.382c.55-.457 1.107-1.046 1.19-1.22zm6.584-5.356c-.02-.203.223-.625.362-.907.122-.302.604-.865.625-1.167.02-.04.705.062.905.062.223-.02 1.01-.08 1.41-.1.422 0 1.206.28 1.53.26.153-.008.497-.016.863-.013v4.746h-6.506c.46-.38.74-.907.888-1.187.223-.484-.038-1.49-.08-1.692h.004zm12.602 3.336v6.122c-.163.022-.275-.014-.343-.036-.14-.06-.983-.423-1.104-.443-.145-.02-.105.1-1.108-.423-1.326-.705-1.61-.684-2.515-.563-.927.12-1.23.283-1.23-.1 0-.382.523-.664.523-.664.705-.243.4-.686.342-.807-.04-.14 0-.484-.182-.786.36-.324-.346-.646-.466-.827-.05-.092-.15-.602-.463-1.006v-.56h6.382l.168.095h-.004zm-20.375 6.95l.123-.057h6.36v1.616c-.846.578-1.288.994-2.233 1.583-1.05.665-2.78 1.37-3.646 1.63 0 0-.382.14-.543.02-.02-.023-.04-.035-.06-.055v-4.737zm6.85-.057h2.134c-.755.49-1.602 1.024-2.133 1.374v-1.373zm6.624-6.757c-.297-.184-.704-.256-1.27-.07-2.015.644-2.296 1.43-2.615 1.67-.323.242-.524.444-.605.726-.06.28.303.522-.02 1.106-.344.583 0 .947.04 1.047.04.12.08.683.44.784 1.007.1.687.2 1.13.36-.1.124-.51.414-1.04.766h-2.687V14.2h6.623l.004.232v-.002zm-13.47 13.02c.11-.162.384-.355 1.23-.325 2.273.073 4.262-1.307 5.252-1.84v2.625h-6.48l-.002-.46zm6.847-2.346c.94-.44 2.995-1.562 3.423-1.422.423.12 1.59 2.174 1.47 2.557-.187.6-.784.99-1.062 1.67h-3.83V25.103zm3.71 3.167c-.493 1.855.21 1.712.015 2.76-.06.344-1.69 1.37-2.856 2.657-.284.317-.575.55-.866.72v-6.134h3.707v-.002zm2.914 5.748v.8h-.887c.42-.32.703-.61.887-.798v-.002zm.365-.338c.355-.383.988-1.248 1.145-1.3.185-.04.505-.02 1.57.443 2.657 1.146 2.72.604 3.163 1.106.07.296.174.593.287.886h-6.168v-1.14h.002l-.003.005h.002zm6.54-3.194c-.76-.494-2.22-1.547-3.104-2.213h3.105v2.213zm-3.58-2.576c-.104-.08-.184-.143-.228-.182-.08-.08.12-1.066.144-1.43.04-.36-.062-1.23.424-2.398.56-.362.422-1.168.583-1.57.354-.02 1.593.22 2.655.04v5.538l-3.577.002zm.783-15.142c-.14-.02-.465.1-.384.202.36.443 1.326.242 1.63.403.153.082.466.27.78.462h-5.77V9.1c.356.013.69.037.818.09.306.12 1.596.825 1.772.724.183-.1-.18-.362-.14-.483.02-.12 1.127.125 1.27-.18.14-.3-.807-.703-1.128-.804-.322-.1-1.107-.1-1.37-.16-.17-.04-.71-.285-1.228-.46v-.528h6.543v5.575c-.94-.18-1.24-.416-1.41-.5-.2-.102-.663-.665-1.81-.665-.02 0-.767.06-.747.463.806.304 1.168.605 1.168.605l.003-.004v-.002zm-4.11-5.06c-.14-.038-.27-.067-.38-.075-.185-.02-1.29-.24-1.49-.282-.054-.004-.163-.027-.3-.06h2.17v.418zm-11.25 6.127c.077-.215.09-.707.198-.726.08-.01.66.39 1.444.725h-1.64zm-2.582-.932c-.06.312-.123.627-.19.93h-6.41V7.297h6.603v5.612l-.002-.007zm-.273 1.294c-.21.905-.414 1.63-.45 1.69-.036.08-.52.825-.7 1.107-.186.262-.424.342-.564.503-.16.14-.1.463.24.564.324.1.768-.302.888-.28.08 0 .022.322.24.322.14.01.37-.11.626-.29v2.373c-.084.194-.115.138-.403.253-.4.18-.945.283-1.934.323l-.868.06h-2.44c-.052-.04-.09-.09-.097-.16.647-.745.322-.825.443-1.17.12-.36.02-.804.062-1.186.06-.362-.102-.745-.16-.786-.08-.02-.36-.18-.583-.2-.175-.018-.354-.203-.625-.26V14.2h6.325v-.003zm-5.342 19.23c.142-.28-.604-.946-.222-1.65.303-.562 1.69-1.75 1.672-2.478-.004-.39-.018-.727-.034-1.026h4.2v6.543h-6.603v-1.105c.653.077.858-.024.988-.285zm5.98-5.157h6.48v6.315c-.23.103-.466.173-.688.228h-5.795V28.27h.003zm4.28 6.91c-.848.377-2.11 1.578-3.854 2.535-.145.08-.282.146-.42.22V35.18h4.275zm2.567 1.853l.02-.004c2.216-.203 2.018-.646 2.86-.867.988-.257 1.75-.62 2.333-.986h1.41V41.8h-6.623v-4.767zm6.99-1.856h6.31c.073.164.15.318.23.478V41.8h-6.542v-6.62l.002-.003zm6.906 1.134c.463.776.938 1.374 1.146 1.563.402.342 1.25 1.37 1.27 2.256.035.747-.48 1.33.832 1.672h-3.248v-5.49zm6.623 5.033c-.142-.13-.41-.284-.926-.485-1.128-.424-1.632-1.17-2.074-1.953-.312-.53-.94-2.217-1.39-3.728h4.39v6.166zm-4.494-6.53c-.163-.58-.296-1.12-.36-1.53-.245-1.467-.944-2.05-1.77-2.567V28.27h6.19c.08.97-.108 1.41-1.4 2.178-1.43.824.266.725.266.725s.08-.11 1.567-.1v3.742h-4.492l-.002-.003zm3.125-26.478c-.74.423-.438.947-.583 1.188-.14.22-.44.382-.44.664 0 .282.3.322.3.342.023.462.064.804.064.905 0 .363.44.322.383.423-.14.16-.825.363-1.35.706-.506.322-1.01.543-1.33.523-.344-.02-.562.08-2.015-.12-.104-.015-.188-.03-.28-.043v-5.63h6.624v.772c-.33-.036-.784-.035-1.37.273v-.006zm-25.388-.06c.12 1.027 1.006 1.63 1.41 1.67.42.062.4-.08.784-.16s.423.102.584.062c.14-.06.04-.14.22-.2.183-.082.647-.082.767-.304.063-.1.322-.402.322-.402-.423 1.69-.563 1.67-.563 1.67-1.953-.52-3.384-.42-3.73-.16-.205.14-.307.186-.398.485v-3.64h.704c-.107.31-.15.645-.104.987v-.004l.002-.003zm-7.57 33.525v-6.62h6.603v2.935c-1.382.646-2.256.812-2.256.812-1.008.362-.484 1.006-.203 1.127 0 .08.504 1.026.625 1.188.064.1.23.325.467.563h-5.24l.002-.005z"/><g><path fill="#31AADE" d="M1380.458 39.895c-5.79-.82-8.94-6.672-5.438-14.312.692-1.523 1.62-2.495 2.51-1.347l1.595 2.06c.542.76.448 1.86-.035 2.564-2.717 4.037-1.444 8.834 2.226 9.896 1.694.492 2.42 0 2.536.352.17.52-1.823 1.007-3.394.785v.002z"/><path fill="#1794D1" d="M1376.72 43.323c-10.293-1.46-15.89-11.857-9.666-25.44 1.23-2.708 2.884-4.436 4.458-2.395l2.836 3.66c.965 1.35.8 3.306-.062 4.562-4.827 7.18-2.567 15.705 3.958 17.595 3.014.872 4.303 0 4.508.625.3.92-3.24 1.79-6.03 1.393h-.002z"/><path fill="#2276B9" d="M1370.415 47.61c-17.057-2.42-26.333-19.65-16.02-42.156 2.04-4.49 4.777-7.354 7.39-3.972l4.698 6.066c1.598 2.238 1.32 5.478-.104 7.558-8 11.896-4.256 26.027 6.558 29.158 4.99 1.445 7.13-.002 7.47 1.033.5 1.53-5.37 2.97-9.993 2.312z"/><path fill="#E92F7C" d="M1385.994 33.6c-.104 2.16-1.632 3.848-3.413 3.76-1.78-.082-3.14-1.904-3.036-4.07.104-2.16 1.632-3.844 3.413-3.76 1.782.084 3.143 1.908 3.037 4.07z"/></g></svg>