<svg xmlns:sketch="http://www.bohemiancoding.com/sketch/ns" xmlns="http://www.w3.org/2000/svg" width="528" height="48" viewBox="0 0 528 48"><title>konnectors-services-sprite</title><desc>Created with Sketch.</desc><g sketch:type="MSPage"><path sketch:type="MSShapeGroup" d="M31 38h4.289v-3h.001v3c7.007-.001 12.71-5.62 12.71-12.527 0-6.528-5.093-11.905-11.568-12.477-.348-2.814-1.644-5.415-3.728-7.425-2.389-2.305-5.546-3.571-8.888-3.571-3.343 0-6.499 1.267-8.888 3.572-2.092 2.018-3.393 4.634-3.732 7.463-2.87.334-5.523 1.616-7.572 3.677-2.338 2.355-3.625 5.466-3.625 8.761 0 6.908 5.7 12.527 12.71 12.527h2.29v-3h-2.29c-5.362 0-9.71-4.286-9.71-9.527 0-2.501.973-4.854 2.754-6.646 1.564-1.574 3.587-2.555 5.789-2.811l2.351-.273.282-2.35c.257-2.149 1.245-4.126 2.835-5.66 1.828-1.764 4.236-2.731 6.805-2.731 2.568 0 4.978.968 6.805 2.73 1.583 1.527 2.569 3.494 2.833 5.634l.297 2.407 2.416.213c4.98.44 8.832 4.568 8.832 9.49 0 5.239-4.35 9.526-9.711 9.526v3h.001v-3h-4.29v3l.002-.002z"/><g transform="translate(48 4)" sketch:type="MSLayerGroup"><path sketch:type="MSShapeGroup" fill="#EA5B0F" d="M28.571 38.881c3.283 2.297 9.778-1.457 14.505-8.396 4.729-6.938 5.901-14.418 2.619-16.715-3.284-2.297-9.614 1.264-14.341 8.204-4.729 6.937-6.064 14.608-2.783 16.907z"/><path sketch:type="MSShapeGroup" fill="#0055A4" d="M19.852 38.881c-3.283 2.297-9.778-1.457-14.505-8.396-4.729-6.938-5.901-14.418-2.619-16.715 3.284-2.297 9.614 1.264 14.342 8.204 4.73 6.937 6.063 14.608 2.782 16.907z"/><ellipse sketch:type="MSShapeGroup" fill="#009DCC" cx="24.213" cy="7.754" rx="15.083" ry="7.309"/></g><path sketch:type="MSShapeGroup" fill="#C70119" d="M131.005 15.581l-1.126 1.982h-10.219l-15.657 29.565-5.721.871-.282-.29 14.441-30.146h-8.437l1.029-1.982h8.252c3.001-5.371 5.437-9.387 14.064-13.259 2.531-1.16 6.472-2.322 10.034-2.322 1.875 0 3.844.388 3.844 1.549 0 .676-.938 2.323-2.626 2.323-1.781 0-3.749-.968-5.905-.968-5.721 0-7.41 3.291-8.722 6.048l-3.281 6.629h10.314"/><path sketch:type="MSShapeGroup" fill="#161614" d="M167.998 0c-13.251 0-23.998 10.745-23.998 24.001 0 10.604 6.876 19.599 16.413 22.772 1.201.221 1.638-.521 1.638-1.157 0-.569-.021-2.079-.032-4.081-6.676 1.449-8.084-3.219-8.084-3.219-1.092-2.772-2.665-3.51-2.665-3.51-2.179-1.488.165-1.459.165-1.459 2.409.168 3.676 2.473 3.676 2.473 2.141 3.668 5.618 2.609 6.985 1.994.218-1.551.838-2.608 1.523-3.207-5.329-.606-10.932-2.666-10.932-11.862 0-2.62.936-4.763 2.471-6.44-.248-.607-1.071-3.048.236-6.352 0 0 2.014-.645 6.599 2.46 1.914-.533 3.968-.799 6.008-.809 2.039.01 4.091.276 6.008.809 4.582-3.106 6.593-2.46 6.593-2.46 1.31 3.303.486 5.745.24 6.352 1.538 1.677 2.466 3.82 2.466 6.44 0 9.22-5.612 11.249-10.957 11.843.86.741 1.628 2.206 1.628 4.445 0 3.207-.029 5.796-.029 6.583 0 .642.433 1.389 1.65 1.155 9.53-3.182 16.4-12.17 16.4-22.771 0-13.255-10.747-24-24.002-24"/><path sketch:type="MSShapeGroup" fill="#1A1918" d="M217.657 0h5.418v32.814c0 5.828-2.593 9.799-14.86 15.186l-.215-1.766c9.083-5.883 9.657-6.949 9.657-12.698v-33.536z"/><g sketch:type="MSLayerGroup"><path sketch:type="MSShapeGroup" fill="#C23C2F" d="M285.244 13.159h-10.404v-10.404c0-1.522-1.234-2.755-2.756-2.755h-16.169c-1.522 0-2.756 1.233-2.756 2.755v10.404h-10.404c-1.522 0-2.755 1.233-2.755 2.756v16.169c0 1.521 1.234 2.756 2.755 2.756h10.404v10.404c0 1.521 1.234 2.755 2.756 2.755h16.169c1.521 0 2.756-1.233 2.756-2.755v-10.404h10.404c1.521 0 2.756-1.234 2.756-2.756v-16.169c0-1.523-1.234-2.756-2.756-2.756z"/><path sketch:type="MSShapeGroup" fill="#fff" d="M255.891 45.999c-.381 0-.691-.31-.691-.69v-12.509h-12.509c-.381 0-.691-.31-.691-.692v-16.217c0-.381.31-.691.691-.691h12.509v-12.509c0-.381.31-.691.691-.691h16.218c.382 0 .691.31.691.691v12.509h12.508c.381 0 .691.31.691.691v16.218c0 .381-.311.691-.691.691h-12.508v12.508c0 .381-.31.691-.691.691h-16.218z"/><path fill="#212828" d="M267.311 9.049l-3.542-5.274-3.541 5.274 2.19-.452v12.596c-.873.506-1.46 1.447-1.46 2.527 0 1.614 1.308 2.921 2.92 2.921 1.613 0 2.92-1.308 2.92-2.921 0-1.145-.661-2.135-1.622-2.613v-12.497l2.137.44-.002-.001zm13.714 14.613l-4.058-2.724.277 1.345h-9.44v2.759h9.44l-.277 1.347 4.058-2.727z" sketch:type="MSShapeGroup"/></g><path sketch:type="MSShapeGroup" fill="#54ACEE" d="M336 8.699c-1.765.798-3.664 1.336-5.656 1.577 2.034-1.239 3.594-3.202 4.33-5.544-1.903 1.149-4.01 1.983-6.253 2.433-1.796-1.947-4.355-3.165-7.188-3.165-5.438 0-9.848 4.486-9.848 10.021 0 .784.087 1.549.255 2.283-8.185-.418-15.441-4.407-20.299-10.47-.848 1.479-1.333 3.2-1.333 5.039 0 3.476 1.738 6.544 4.382 8.34-1.615-.053-3.134-.504-4.461-1.254l-.002.127c0 4.854 3.395 8.903 7.9 9.825-.826.228-1.696.351-2.596.351-.635 0-1.252-.062-1.853-.18 1.254 3.98 4.89 6.879 9.199 6.959-3.37 2.688-7.616 4.29-12.229 4.29-.795 0-1.578-.048-2.35-.142 4.359 2.846 9.535 4.502 15.096 4.502 18.114 0 28.02-15.269 28.02-28.51 0-.434-.009-.868-.027-1.298 1.924-1.41 3.594-3.176 4.913-5.184z"/><path sketch:type="MSShapeGroup" fill="#0D9EE3" d="M344.197 19.84c0-2.378-1.835-4.306-4.1-4.306-2.263 0-4.098 1.928-4.098 4.306 0 3.023 4.098 5.535 4.098 5.535s4.1-2.666 4.1-5.535zm3.917 5.535s-4.849 2.553-4.849 6.064c0 2.812 2.17 5.093 4.849 5.093 2.677 0 4.848-2.281 4.848-5.093 0-3.589-4.848-6.064-4.848-6.064zm14.219-7.446c0-3.434-2.65-6.218-5.918-6.218-3.269 0-5.917 2.784-5.917 6.218 0 4.243 5.917 7.446 5.917 7.446s5.918-3.203 5.918-7.446zm3.917 7.446s-6.549 2.859-6.549 7.745c0 3.8 2.931 6.88 6.549 6.88 3.617 0 6.55-3.081 6.55-6.88 0-4.809-6.55-7.745-6.55-7.745zm17.75-9.302c0-4.459-3.44-8.073-7.684-8.073s-7.685 3.614-7.685 8.073c0 5.485 7.685 9.302 7.685 9.302s7.684-3.663 7.684-9.302z"/><path sketch:type="MSShapeGroup" fill="#8C979B" d="M419.876 27.15c.926.396 1.479 1.141 1.479 1.99 0 1.123-.865 1.793-2.314 1.793-1.538 0-2.253-1.354-2.436-1.769l-.226-.513h-2.881l-.005-.002h-2.669c-.729 1.216-2.197 2.336-3.904 2.336-3.081 0-4.618-2.406-4.814-4.783h12.592v-.52c0-.985-.104-1.914-.294-2.774.36 1.105 1.182 2.25 2.904 3.061.63.301 1.579.748 2.568 1.181zm-13.135-7.553c2.577 0 3.839 1.778 4.205 3.588h-8.577c.448-1.814 2.038-3.588 4.372-3.588zm25.269.053v-3.252h-2.677v-3.844h-3.287v3.844h-6.619c-3.057.002-5.275 2.057-5.275 4.89 0 .304.026.633.088.973-1.041-3.609-3.787-5.863-7.475-5.863-4.51 0-7.958 3.512-8.247 8.269v-1.011c0-4.003-3.257-7.258-7.259-7.258s-7.259 3.255-7.259 7.258v10.404h3.327v-10.404c0-2.167 1.763-3.931 3.932-3.931 2.168 0 3.933 1.764 3.933 3.931v10.404h3.326v-8.096c.291 4.774 3.783 8.299 8.353 8.299 2.789 0 5.249-1.621 6.642-3.496 1.04 2.222 3.071 3.496 5.581 3.496 2.908 0 5.853-1.858 5.853-5.41 0-2.127-1.235-3.864-3.478-4.895l-.739-.345-.03-.015-.794-.369c-1.466-.658-2.163-1.139-2.163-2.1 0-.845.756-1.481 1.689-1.481h6.615v9.266c0 2.95 2.399 5.349 5.348 5.349v-3.287c-1.137 0-2.061-.926-2.061-2.062v-9.266l2.676.002z"/><path sketch:type="MSShapeGroup" fill="#60A6CF" d="M434.881 36.337c8.612-5.532 18.375-1.552 23.237 1.111-6.735-2.66-16.611-3.284-23.237-1.111zm2.104-3.217c-1.399 1.032-2.188 1.903-2.188 1.903 0 .037.814-.455 2.188-1.035v-.868zm0-3.431c-.908-1.758-.596-3.752-.596-3.752s-1.536 3.522.596 5.619v-1.867zm0-9.357v3.199c-1.419.815-2.372 2.333-2.372 4.07 0 1.738.953 3.256 2.372 4.071v.571c-.572.386-1.129.799-1.591 1.152-2.041-1.304-3.394-3.57-3.394-6.149.001-3.201 2.084-5.923 4.985-6.914zm0 3.199v-3.199c.657-.225 1.356-.361 2.085-.393-.037.365-.058.736-.058 1.112 0 .63.056 1.248.159 1.849-.794.034-1.539.259-2.186.631zm0 8.713c.501-.338 1.012-.657 1.479-.901-.229-.145-.442-.312-.636-.501-.359-.353-.635-.746-.844-1.152v1.867l.055.055.281.238-.336-.176v.57h.001zm0 1.745v-.869c2.691-1.987 7.645-4.572 13.6-2.706 9.05 2.836 14.81 6.693 21.804 4.958 6.994-1.736 7.611-5.556 7.611-5.556s-1.235 5.395-8.126 6.578c-6.891 1.185-13.238-.143-21.312-3.152-5.449-2.031-10.724-.456-13.577.747zm13.015-22.989c4.138 0 7.7 2.44 9.29 5.942h-3.238c-1.429-1.763-3.626-2.892-6.091-2.892-2.424 0-4.589 1.092-6.019 2.805l.236-.18c3.384-2.415 7.896.247 7.896.247s-4.287-1.239-7.188.793c-2.897 2.033-2.432 6.101-2.432 6.101l-.048-.152.038.14c-.695-.512-1.538-.846-2.455-.934-.109-.59-.167-1.198-.167-1.818 0-5.551 4.556-10.05 10.177-10.05v-.002zm9.747 20.744s4.32 2.211 8.382 1.851c4.062-.36 5.297-1.8 5.297-1.8s-1.491 2.751-5.398 2.905c-3.91.154-8.28-2.854-8.281-2.956zm-3.312-13.972h3.632v3.631h-3.632v-3.631zm14.42 10.06h2.808v2.809h-2.808v-2.809zm-10.044-13.387h4.843v4.841h-4.843v-4.841zm14.057 8.378h4.842v4.841h-4.842v-4.841zm-8.751-3.165h2.699v2.699h-2.699v-2.699zm1.805 5.317h2.699v2.699h-2.699v-2.699zm-5.682.269h2.7v2.699h-2.7v-2.699zm9.463-5.493h2.699v2.699h-2.699v-2.699z"/><path sketch:type="MSShapeGroup" opacity=".9" fill="#01A1AB" enable-background="new" d="M524.932 19.286l-.425.939-.431-.944-.244 1.248h.159l.139-.764.376.806.364-.81.145.767h.166l-.249-1.242zm-1.558 1.243h.166v-1.062h.267v-.157h-.696v.157h.264v1.062zm-2.959-.423c-2.008 0-2.995 1.54-2.995 1.54v-3.883h-3.114v12.821h3.147v-5.875c0-.987.837-1.808 1.841-1.808 1.372 0 1.607.804 1.607 1.658v6.025h3.213v-7.063c0-1.942-1.657-3.415-3.699-3.415zm-11.569 3.113c0-.402.318-.619.821-.619.904 0 1.272.803 1.272.803l2.359-1.038c-.636-1.439-1.892-2.26-3.365-2.26-2.274 0-3.933 1.356-3.933 3.348 0 3.615 4.604 2.945 4.604 4.217 0 .486-.603.721-1.104.721-.92 0-1.438-.904-1.438-.904l-2.394 1.207c.803 1.506 2.075 2.142 3.799 2.142 2.176 0 4.117-1.188 4.117-3.415 0-3.515-4.737-3.047-4.738-4.202zm-8.947-3.113c-3.163 0-5.624 2.31-5.624 5.39 0 2.861 2.41 5.439 5.557 5.439 3.348 0 5.607-2.359 5.607-5.49 0-3.095-2.427-5.338-5.54-5.339zm-9.184 2.896c-.335-.134-.988-.401-1.389-.553-.67-.25-1.456-.485-1.456-1.171 0-.669.469-1.121 1.289-1.121 1.239 0 2.578 1.021 2.578 1.021l1.305-2.511c-.92-.602-2.444-1.372-4.101-1.372-2.276 0-4.402 1.523-4.402 4.084 0 1.808.888 2.963 2.511 3.699.552.251 1.506.62 1.908.77 1.256.469 1.339.721 1.339 1.256 0 .687-.921 1.004-1.857 1.004-1.223 0-2.395-.686-3.014-1.238-.284.486-1.338 2.594-1.338 2.594 1.338.837 2.611 1.59 4.418 1.59 2.577 0 5.121-1.439 5.121-4.185 0-1.926-.988-3.097-2.912-3.867zm37.285 9.978l-46.487 3.351-1.513-20.98 46.487-3.35 1.513 20.979z"/></g><path d="M16 36.5c0-8.5 8.5-8.5 8.5-8.5v-2c-5.799 0-10.5 4.701-10.5 10.5s4.701 10.5 10.5 10.5v-2s-8.5 0-8.5-8.5zM25.5 30c-3.59 0-6.5 2.91-6.5 6.5s2.91 6.5 6.5 6.5 6.5-2.91 6.5-6.5-2.91-6.5-6.5-6.5zm0 11c-2.485 0-4.5-2.016-4.5-4.5s2.015-4.5 4.5-4.5 4.5 2.016 4.5 4.5-2.015 4.5-4.5 4.5z"/></svg>