<svg xmlns:sketch="http://www.bohemiancoding.com/sketch/ns" xmlns="http://www.w3.org/2000/svg" width="864" height="48" viewBox="0 0 864 48"><filter id="b" filterUnits="objectBoundingBox" height="200%" y="-50%" x="-50%" width="200%"><feOffset result="shadowOffsetOuter1" in="SourceAlpha" dy=".5"/><feGaussianBlur result="shadowBlurOuter1" in="shadowOffsetOuter1"/><feColorMatrix values="0 0 0 0 0.105882353 0 0 0 0 0.533333333 0 0 0 0 0.725490196 0 0 0 0.7 0" result="shadowMatrixOuter1" in="shadowBlurOuter1"/><feMerge><feMergeNode in="shadowMatrixOuter1"/><feMergeNode in="SourceGraphic"/></feMerge></filter><filter id="a" filterUnits="objectBoundingBox" height="200%" y="-50%" x="-50%" width="200%"><feOffset result="shadowOffsetOuter1" in="SourceAlpha" dy="-.5"/><feGaussianBlur result="shadowBlurOuter1" in="shadowOffsetOuter1"/><feColorMatrix values="0 0 0 0 0.031372549 0 0 0 0 0.403921569 0 0 0 0 0.623529412 0 0 0 0.7 0" result="shadowMatrixOuter1" in="shadowBlurOuter1"/><feMerge><feMergeNode in="shadowMatrixOuter1"/><feMergeNode in="SourceGraphic"/></feMerge></filter><title>konnectors-services-sprite</title><desc>Created with Sketch.</desc><g sketch:type="MSPage"><path sketch:type="MSShapeGroup" fill="#E21910" d="M624 15.143c0-.552.448-.999.995-.999h1.048c.549 0 .995.447.995.999v16.837c0 .552-.448.998-.995.998h-1.048c-.549 0-.995-.446-.995-.998v-16.837zm14.63-.261c-.903-.645-1.936-1.042-3.085-1.042-2.75 0-5.165 2.28-5.165 5.165 0 3.054 1.614 5.165 4.558 5.165 1.797 0 3.037.971 3.037 2.734 0 1.929-1.164 3.037-2.733 3.037-.527 0-1.097-.256-1.655-.717l-.069-.06c-.379-.394-1.051-.453-1.495-.135l-.854.608c-.447.319-.518.922-.148 1.328 0 0 .034.109.635.604 1.055.869 2.252 1.41 3.586 1.41 3.215 0 5.771-2.436 5.771-6.076 0-3.626-2.742-5.772-6.076-5.772-1.06 0-1.519-.6-1.519-2.127 0-1.166 1.017-2.127 2.127-2.127.446 0 .894.172 1.32.477.294.261.882.192 1.309-.149l.819-.655c.429-.343.464-.945.062-1.324-.001.001.1.033-.425-.344zm4.813.261c0-.552.438-.999 1.004-.999h9.536c.555 0 1.004.445 1.004 1.005v1.008c0 .555-.457 1.005-1.009 1.005h-6.488c-.557 0-1.009.45-1.009.999v2.881c0 .552.456.999.999.999h5.294c.551 0 .999.448.999.995v1.048c0 .549-.456.995-.999.995h-5.294c-.552 0-.999.448-.999 1.007v2.846c0 .557.457 1.008 1.009 1.008h6.488c.557 0 1.009.447 1.009.994v1.049c0 .549-.438.994-1.004.994h-9.536c-.556 0-1.004-.446-1.004-.998v-16.838.002zm14.582 0c0-.552.445-.999 1.003-.999h.425c.554 0 1.266.358 1.601.812l7.311 9.921c.33.448.598.373.598-.193v-9.536c0-.555.448-1.004.995-1.004h1.048c.549 0 .995.447.995.999v16.837c0 .552-.446.998-1.003.998h-.425c-.555 0-1.258-.364-1.574-.817l-7.364-10.548c-.315-.452-.571-.37-.571.179v10.19c0 .551-.447.996-.994.996h-1.049c-.549 0-.994-.446-.994-.998v-16.837h-.002z"/><g sketch:type="MSLayerGroup"><g sketch:type="MSShapeGroup" fill="#0054A5"><path d="M576.019 15.62h4.61v1.232h-3.04v1.93h2.785v1.225h-2.785v2.194h3.063v1.228h-4.634v-7.809"/><path d="M581.676 15.039h1.502v8.391h-1.502v-8.391z"/><path d="M594.501 23.364c-.368.129-.902.202-1.507.205-1.892.009-2.846-1.288-2.846-3.048 0-1.665.986-2.979 2.786-2.989.654 0 1.002.05 1.431.149l-.13 1.13c-.383-.119-.695-.18-1.199-.159-.91.039-1.309.814-1.317 1.87-.009 1.064.501 1.844 1.555 1.886.518.016 1.048-.15 1.358-.331l-.131 1.287m4.643.066c-.265.067-.731.139-1.107.139-1.175 0-1.823-.726-1.823-1.873v-2.84h-1.14l.12-1.186h1.02v-1.629l1.498-.006v1.635h1.336l-.124 1.186h-1.211v2.595c0 .495.137.952.713.952.266 0 .69-.1.847-.199l-.125 1.226"/><path d="M611.29 20.539c0-.811.381-1.84 1.341-1.84.977 0 1.243 1.064 1.243 1.84 0 .793-.277 1.865-1.269 1.865-.993 0-1.316-1.048-1.315-1.865zm-1.51 2.891h1.45v-.702h.024c.439.615 1.13.841 1.772.841 1.77 0 2.411-1.456 2.411-3.031 0-1.594-.642-3.007-2.411-3.007-.787 0-1.312.328-1.73.876h-.021v-3.37h-1.496v8.393h.001z"/><path d="M622.372 15.039h1.494v8.391h-1.494v-8.391z"/><path d="M585.463 19.989c.063-.777.492-1.355 1.329-1.355.843 0 1.171.627 1.22 1.355h-2.549zm3.749 1.803c-.605.435-1.376.68-2.104.68-.931 0-1.582-.525-1.645-1.456h3.984c0-2.013-.607-3.484-2.742-3.484-1.796 0-2.677 1.381-2.677 3.052 0 1.888 1.112 2.941 3.01 2.985.846.018 1.534-.232 2.035-.503l.139-1.274zm28.345-1.803c.064-.777.489-1.355 1.33-1.355.836 0 1.179.627 1.221 1.355h-2.551zm3.752 1.803c-.613.435-1.379.68-2.105.68-.926 0-1.582-.525-1.646-1.456h3.982c0-2.013-.605-3.484-2.744-3.484-1.789 0-2.675 1.381-2.675 3.052 0 1.888 1.111 2.941 3.011 2.985.85.018 1.532-.232 2.03-.503l.147-1.274zm-16.265-.024c0-.886.995-.997 1.662-.997h.65c0 .448-.064.862-.312 1.185-.235.315-.593.517-1.053.517-.538 0-.946-.213-.947-.705zm-.725-2.706c.509-.222 1.099-.404 1.732-.435.821-.043 1.305.318 1.305 1.247h-.826c-.63 0-1.367.059-1.935.336-.574.277-.987.786-.987 1.647 0 1.097.993 1.714 2.016 1.714.683 0 1.435-.36 1.78-.998h.021c.012.18.012.561.068.859h1.313c-.025-.444-.047-.847-.058-1.28-.014-.429-.027-.868-.027-1.449v-.736c0-1.701-.763-2.448-2.418-2.454-.638 0-1.235.085-1.832.254l-.151 1.296-.001-.001zm-4.207-1.392h1.334v1.306h.025c.175-.797.732-1.291 1.458-1.418.198-.036.512 0 .712.08l-.165 1.392c-.289-.111-.857-.128-1.113.012-.657.36-.75 1.444-.75 2.278v2.11h-1.5l-.001-5.76"/></g><g sketch:type="MSShapeGroup"><path fill="#00ADEE" d="M590.884 28.027c-.338.054-.478.02-.505-.107-.025-.111.018-.23.405-.325 1.726-.417 6.232-.185 6.347 1.302.04.521-.693 1-2.763 1.342-.88.146-3.045.186-3.026-.523l.05-.976c.008-.115.112-.248.315-.241.154.005.3.077.31.341l.042.617c0 .103.062.3.566.351 1.292.131 3.153-.312 3.158-.89.009-.945-2.929-1.083-4.899-.891m-.499.961c-.004-.092-.118-.225-.257-.244-.522-.071-1.537-.028-1.891-.01-.354.019-.325.384 0 .41.214.02 1.182.075 1.182.075.078 0 .147.044.147.117 0 .185-.469.5-1.57.5-.774 0-1.283-.37-1.283-.923 0-.775 1.045-1.186 2.468-.971.184.027.38-.102.373-.229-.013-.274-.878-.302-1.247-.302-1.621 0-2.51.609-2.51 1.503 0 .836.718 1.397 2.081 1.399 1.813.001 2.53-.752 2.507-1.325m11.978-1.342c-.012-.119-.167-.166-.338-.179-.681-.047-2.568-.166-3.535.284-.514.239-.74.582-.82.947-.103.469-.104 1.23.089 1.433.219.229.767.07.759-.151l-.03-.426c-.021-.473.833-.302 1.867-.422.299-.011.358-.439-.03-.426l-1.54.043-.05-.047c.062-.951 3.323-.852 3.405-.858.167-.015.231-.114.223-.2m6.926.03c-.04-.084-.111-.131-.22-.131-.175 0-.261.131-.261.252 0 .127.248.725.711 1.287.382.465 1.148 1.126 2.178 1.126 1.215 0 2.502-.767 3.822-2.265.056-.063.109-.127.109-.202 0-.11-.096-.199-.227-.199-.069 0-.118.036-.226.131-1.147 1.052-2.332 1.638-3.293 1.638-.987 0-1.992-.627-2.593-1.637m11.812 1.626l2.325-1.116c.12-.052.188-.186.188-.324 0-.185-.146-.349-.358-.349h-2.817c-.119 0-.194.101-.194.21 0 .129.075.202.184.215l1.553.186c.13.011.15.087.15.143 0 .031-.021.094-.086.127l-1.743.789c-.237.11-.357.262-.357.475 0 .264.226.521.495.521h3.291c.141 0 .234-.097.234-.214 0-.131-.095-.209-.204-.219l-2.628-.217c-.073-.01-.127-.041-.127-.106 0-.053.021-.087.098-.119m-2.995.55c-.75 0-1.534-.25-1.534-1.025 0-.553.407-.924 1.027-.924.882 0 1.256.314 1.256.5 0 .074-.055.117-.117.117l-1.244.075c-.119.009-.204.091-.204.214 0 .112.085.197.204.197l1.297.055c.375.012.604-.26.604-.553 0-.734-.998-1.083-1.89-1.083-1.093 0-1.812.564-1.812 1.4 0 .893.856 1.504 2.155 1.504.857 0 1.416-.166 1.566-.251.052-.032.16-.075.16-.193 0-.117-.096-.197-.227-.197-.137 0-.643.166-1.242.166m-10.754-.315c-.297.08-1.025.085-1.255.085-1.093 0-1.791-.065-1.883-.065-.164 0-.239.107-.239.207 0 .143.154.194.322.227.155.033 1.344.203 2.821.203.604 0 1.133-.047 1.544-.129.179-.034.281-.149.304-.278.023-.136-.036-.255-.192-.381-.162-.132-1.461-.854-1.654-.974-.268-.164-.213-.438.019-.459l1.014-.076c.14-.012.208-.105.208-.197 0-.137-.139-.182-.249-.193-.337-.042-.856-.074-1.201-.074-.426 0-.933.055-1.116.107-.138.039-.205.139-.211.23-.006.109.069.215.142.279.247.221 1.584.95 1.746 1.055.163.104.165.353-.121.431"/><path fill="#fff" d="M585.781 31.633c5.404 1.444 11.994 2.294 19.104 2.294s13.699-.849 19.104-2.294h-38.208"/><path fill="#FCFDFF" d="M585.809 31.633c5.399 1.441 11.979 2.288 19.077 2.288 7.1 0 13.678-.847 19.076-2.288h-38.153"/><path fill="#FAFDFF" d="M585.838 31.633c5.393 1.438 11.96 2.282 19.048 2.282 7.087 0 13.656-.845 19.048-2.282h-38.096"/><path fill="#F9FCFF" d="M585.865 31.633c5.386 1.434 11.943 2.277 19.021 2.277 7.076 0 13.634-.842 19.021-2.277h-38.042"/><path fill="#F7FBFF" d="M585.894 31.633c5.38 1.432 11.929 2.271 18.992 2.271 7.065 0 13.612-.84 18.992-2.271h-37.984"/><path fill="#F6FBFD" d="M585.921 31.633c5.373 1.428 11.911 2.266 18.964 2.266s13.591-.838 18.963-2.266h-37.927"/><path fill="#F5FBFD" d="M585.95 31.633c5.366 1.424 11.894 2.26 18.936 2.26 7.041 0 13.569-.836 18.936-2.26h-37.872"/><path fill="#F4FAFD" d="M585.979 31.633c5.358 1.422 11.877 2.254 18.906 2.254 7.03 0 13.547-.832 18.907-2.254h-37.813"/><path fill="#F3FAFD" d="M586.007 31.633c5.354 1.417 11.861 2.249 18.879 2.249 7.019 0 13.526-.832 18.879-2.249h-37.758"/><path fill="#F2F9FD" d="M586.035 31.633c5.346 1.414 11.844 2.244 18.851 2.244 7.006 0 13.504-.83 18.852-2.244h-37.703"/><path fill="#F1F9FD" d="M586.062 31.633c5.341 1.411 11.827 2.237 18.823 2.237 6.995 0 13.482-.827 18.822-2.237h-37.645"/><path fill="#EFF8FD" d="M586.091 31.633c5.333 1.407 11.811 2.232 18.795 2.232s13.461-.825 18.795-2.232h-37.59"/><path fill="#EEF8FD" d="M586.12 31.633c5.327 1.403 11.794 2.227 18.766 2.227 6.973 0 13.439-.822 18.767-2.227h-37.533"/><path fill="#EDF8FD" d="M586.146 31.633c5.321 1.4 11.777 2.221 18.738 2.221s13.418-.82 18.738-2.221h-37.476"/><path fill="#ECF7FD" d="M586.176 31.633c5.314 1.397 11.76 2.215 18.71 2.215 6.949 0 13.396-.817 18.709-2.215h-37.419"/><path fill="#EBF7FD" d="M586.204 31.633c5.307 1.395 11.744 2.21 18.682 2.21 6.938 0 13.374-.817 18.682-2.21h-37.364"/><path fill="#EAF6FD" d="M586.232 31.633c5.301 1.391 11.727 2.204 18.653 2.204s13.353-.813 18.653-2.204h-37.306"/><path fill="#E9F6FD" d="M586.26 31.633c5.294 1.387 11.71 2.198 18.625 2.198s13.331-.812 18.625-2.198h-37.25"/><path fill="#E8F6FD" d="M586.289 31.633c5.288 1.383 11.694 2.193 18.597 2.193 6.903 0 13.31-.811 18.598-2.193h-37.195"/><path fill="#E7F5FD" d="M586.317 31.633c5.28 1.381 11.676 2.188 18.568 2.188s13.287-.807 18.569-2.188h-37.137"/><path fill="#E6F5FC" d="M586.345 31.633c5.275 1.376 11.66 2.182 18.541 2.182 6.88 0 13.267-.805 18.54-2.182h-37.081"/><path fill="#E5F5FC" d="M586.373 31.633c5.268 1.372 11.643 2.176 18.512 2.176s13.244-.804 18.513-2.176h-37.025"/><path fill="#E4F4FC" d="M586.402 31.633c5.261 1.369 11.626 2.172 18.483 2.172s13.224-.803 18.484-2.172h-36.967"/><path fill="#E3F4FC" d="M586.43 31.633c5.255 1.366 11.61 2.165 18.456 2.165 6.847 0 13.2-.799 18.456-2.165h-36.912"/><path fill="#E2F3FC" d="M586.458 31.633c5.249 1.363 11.593 2.159 18.428 2.159 6.834 0 13.18-.797 18.427-2.159h-36.855"/><path fill="#E1F3FC" d="M586.486 31.633c5.242 1.359 11.576 2.154 18.399 2.154 6.822 0 13.157-.795 18.399-2.154h-36.798"/><path fill="#E0F3FC" d="M586.515 31.633c5.235 1.355 11.561 2.148 18.371 2.148 6.812 0 13.136-.793 18.371-2.148h-36.742"/><path fill="#DFF2FC" d="M586.543 31.633c5.229 1.352 11.543 2.143 18.343 2.143s13.114-.791 18.344-2.143h-36.687"/><path fill="#DEF2FC" d="M586.571 31.633c5.223 1.35 11.526 2.137 18.314 2.137s13.092-.787 18.315-2.137h-36.629"/><path fill="#DDF1FC" d="M586.599 31.633c5.217 1.346 11.511 2.131 18.287 2.131s13.07-.785 18.286-2.131h-36.573"/><path fill="#DCF1FC" d="M586.627 31.633c5.21 1.342 11.494 2.126 18.259 2.126 6.766 0 13.049-.784 18.258-2.126h-36.517"/><path fill="#DBF1FC" d="M586.655 31.633c5.203 1.338 11.477 2.121 18.229 2.121 6.754 0 13.027-.781 18.23-2.121h-36.459"/><path fill="#DAF0FC" d="M586.684 31.633c5.195 1.335 11.461 2.115 18.202 2.115 6.742 0 13.006-.78 18.201-2.115h-36.403"/><path fill="#D9F0FC" d="M586.712 31.633c5.19 1.331 11.443 2.109 18.174 2.109s12.984-.778 18.174-2.109h-36.348"/><path fill="#D8EFFC" d="M586.74 31.633c5.183 1.328 11.426 2.104 18.146 2.104s12.962-.775 18.146-2.104h-36.292"/><path fill="#D6EFFB" d="M586.768 31.633c5.177 1.325 11.41 2.098 18.118 2.098 6.707 0 12.941-.773 18.117-2.098h-36.235"/><path fill="#D5EFFB" d="M586.797 31.633c5.169 1.321 11.394 2.092 18.089 2.092 6.696 0 12.919-.771 18.089-2.092h-36.178"/><path fill="#D4EEFB" d="M586.825 31.633c5.163 1.318 11.376 2.087 18.061 2.087s12.897-.769 18.062-2.087h-36.123"/><path fill="#D3EEFB" d="M586.854 31.633c5.156 1.314 11.359 2.082 18.032 2.082s12.876-.768 18.032-2.082h-36.064"/><path fill="#D2EEFB" d="M586.882 31.633c5.15 1.311 11.343 2.076 18.004 2.076s12.854-.766 18.004-2.076h-36.008"/><path fill="#D1EDFB" d="M586.909 31.633c5.144 1.307 11.327 2.071 17.977 2.071s12.833-.763 17.977-2.071h-35.954"/><path fill="#D0EDFB" d="M586.938 31.633c5.138 1.305 11.311 2.065 17.948 2.065 6.639 0 12.811-.761 17.948-2.065h-35.896"/><path fill="#CFECFB" d="M586.966 31.633c5.131 1.301 11.292 2.059 17.92 2.059 6.626 0 12.788-.758 17.919-2.059h-35.839"/><path fill="#CEECFB" d="M586.994 31.633c5.124 1.297 11.275 2.055 17.892 2.055 6.615 0 12.768-.756 17.893-2.055h-35.785"/><path fill="#CDECFB" d="M587.021 31.633c5.117 1.294 11.26 2.049 17.864 2.049s12.746-.755 17.863-2.049h-35.726"/><path fill="#CCEBFB" d="M587.05 31.633c5.111 1.29 11.243 2.042 17.835 2.042s12.724-.752 17.835-2.042h-35.67"/><path fill="#CBEBFB" d="M587.079 31.633c5.104 1.287 11.226 2.037 17.807 2.037s12.702-.75 17.808-2.037h-35.615"/><path fill="#CAEBFB" d="M587.107 31.633c5.098 1.283 11.209 2.031 17.778 2.031s12.682-.748 17.778-2.031h-35.556"/><path fill="#C9EAFB" d="M587.135 31.633c5.092 1.28 11.192 2.025 17.751 2.025s12.659-.745 17.75-2.025h-35.501"/><path fill="#C8EAFB" d="M587.163 31.633c5.085 1.277 11.175 2.02 17.722 2.02 6.546 0 12.638-.742 17.723-2.02h-35.445"/><path fill="#C7E9FA" d="M587.192 31.633c5.079 1.273 11.158 2.016 17.693 2.016 6.534 0 12.615-.741 17.694-2.016h-35.387"/><path fill="#C6E9FA" d="M587.22 31.633c5.072 1.27 11.143 2.01 17.666 2.01s12.595-.74 17.665-2.01h-35.331m.028 0c5.064 1.266 11.126 2.004 17.638 2.004 6.513 0 12.572-.736 17.639-2.004h-35.277"/><path fill="#C5E9FA" d="M587.276 31.633c5.059 1.264 11.109 1.998 17.609 1.998s12.552-.734 17.609-1.998h-35.218"/><path fill="#C4E8FA" d="M587.304 31.633c5.053 1.26 11.093 1.992 17.581 1.992 6.489 0 12.528-.732 17.581-1.992h-35.162"/><path fill="#C2E8FA" d="M587.332 31.633c5.046 1.256 11.076 1.987 17.553 1.987 6.478 0 12.507-.729 17.553-1.987h-35.106"/><path fill="#C1E8FA" d="M587.361 31.633c5.039 1.253 11.059 1.981 17.524 1.981s12.485-.729 17.524-1.981h-35.048"/><path fill="#C0E7FA" d="M587.389 31.633c5.033 1.249 11.042 1.977 17.497 1.977 6.454 0 12.464-.728 17.496-1.977h-34.993"/><path fill="#BFE7FA" d="M587.417 31.633c5.026 1.245 11.026 1.971 17.469 1.971 6.443 0 12.442-.726 17.468-1.971h-34.937"/><path fill="#BEE7FA" d="M587.446 31.633c5.019 1.242 11.008 1.965 17.439 1.965s12.42-.723 17.44-1.965h-34.879"/><path fill="#BDE6FA" d="M587.474 31.633c5.014 1.239 10.992 1.959 17.412 1.959s12.399-.72 17.411-1.959h-34.823"/><path fill="#BCE6FA" d="M587.502 31.633c5.007 1.236 10.975 1.953 17.384 1.953 6.408 0 12.377-.717 17.383-1.953h-34.767"/><path fill="#BBE5FA" d="M587.53 31.633c5 1.232 10.958 1.948 17.354 1.948s12.355-.716 17.355-1.948h-34.709"/><path fill="#BAE5FA" d="M587.558 31.633c4.993 1.229 10.942 1.942 17.327 1.942s12.333-.714 17.327-1.942h-34.654"/><path fill="#B9E5FA" d="M587.587 31.633c4.987 1.225 10.926 1.936 17.299 1.936s12.312-.711 17.299-1.936h-34.598"/><path fill="#B8E4FA" d="M587.615 31.633c4.979 1.223 10.908 1.932 17.271 1.932s12.29-.709 17.271-1.932h-34.542"/><path fill="#B7E4F9" d="M587.643 31.633c4.974 1.219 10.893 1.926 17.243 1.926 6.352 0 12.27-.707 17.243-1.926h-34.486"/><path fill="#B6E4F9" d="M587.671 31.633c4.967 1.215 10.876 1.92 17.215 1.92s12.247-.705 17.214-1.92h-34.429"/><path fill="#B4E3F9" d="M587.699 31.633c4.961 1.212 10.858 1.914 17.187 1.914 6.327 0 12.226-.703 17.187-1.914h-34.374"/><path fill="#B3E3F9" d="M587.729 31.633c4.953 1.208 10.842 1.909 17.157 1.909 6.316 0 12.204-.701 17.158-1.909h-34.315"/><path fill="#B2E2F9" d="M587.756 31.633c4.948 1.205 10.825 1.904 17.13 1.904s12.183-.699 17.129-1.904h-34.259"/><path fill="#B1E2F9" d="M587.784 31.633c4.94 1.201 10.809 1.897 17.102 1.897s12.16-.696 17.102-1.897h-34.204"/><path fill="#B0E2F9" d="M587.812 31.633c4.935 1.198 10.791 1.893 17.072 1.893s12.139-.694 17.073-1.893h-34.145"/><path fill="#AFE1F9" d="M587.841 31.633c4.928 1.194 10.775 1.887 17.045 1.887 6.271 0 12.117-.691 17.045-1.887h-34.09"/><path fill="#AEE1F9" d="M587.869 31.633c4.921 1.191 10.758 1.881 17.017 1.881s12.096-.689 17.018-1.881h-34.035"/><path fill="#ADE1F9" d="M587.896 31.633c4.915 1.188 10.742 1.875 16.989 1.875s12.073-.688 16.988-1.875h-33.977"/><path fill="#ACE0F9" d="M587.925 31.633c4.908 1.186 10.726 1.87 16.961 1.87s12.052-.687 16.961-1.87h-33.922"/><path fill="#ABE0F9" d="M587.953 31.633c4.902 1.18 10.708 1.864 16.932 1.864s12.03-.685 16.933-1.864h-33.865"/><path fill="#A9E0F9" d="M587.981 31.633c4.895 1.178 10.691 1.858 16.903 1.858s12.008-.681 16.904-1.858h-33.807"/><path fill="#A8DFF9" d="M588.01 31.633c4.89 1.174 10.675 1.854 16.876 1.854s11.986-.68 16.876-1.854h-33.752"/><path fill="#A7DFF8" d="M588.038 31.633c4.882 1.17 10.658 1.848 16.848 1.848s11.966-.678 16.848-1.848h-33.696"/><path fill="#A6DEF8" d="M588.066 31.633c4.876 1.167 10.641 1.842 16.819 1.842s11.943-.675 16.819-1.842h-33.638"/><path fill="#A5DEF8" d="M588.095 31.633c4.869 1.164 10.624 1.836 16.791 1.836 6.166 0 11.922-.673 16.791-1.836h-33.582"/><path fill="#A4DEF8" d="M588.123 31.633c4.863 1.16 10.607 1.831 16.763 1.831s11.9-.671 16.764-1.831h-33.527"/><path fill="#A3DDF8" d="M588.151 31.633c4.855 1.156 10.591 1.825 16.734 1.825s11.878-.669 16.735-1.825h-33.469"/><path fill="#A2DDF8" d="M588.179 31.633c4.851 1.153 10.575 1.82 16.707 1.82s11.857-.667 16.706-1.82h-33.413"/><path fill="#A0DDF8" d="M588.207 31.633c4.843 1.15 10.557 1.814 16.678 1.814s11.835-.664 16.678-1.814h-33.356"/><path fill="#9FDCF8" d="M588.235 31.633c4.836 1.146 10.541 1.809 16.649 1.809 6.109 0 11.814-.662 16.65-1.809h-33.299"/><path fill="#9EDCF8" d="M588.264 31.633c4.83 1.143 10.524 1.803 16.622 1.803s11.792-.66 16.622-1.803h-33.244"/><path fill="#9DDCF8" d="M588.292 31.633c4.824 1.139 10.508 1.797 16.594 1.797s11.77-.658 16.593-1.797h-33.187"/><path fill="#9CDBF8" d="M588.32 31.633c4.816 1.137 10.49 1.792 16.565 1.792 6.074 0 11.748-.655 16.565-1.792h-33.13"/><path fill="#9BDBF8" d="M588.348 31.633c4.811 1.133 10.475 1.786 16.538 1.786 6.062 0 11.727-.653 16.537-1.786h-33.075"/><path fill="#99DBF8" d="M588.377 31.633c4.804 1.129 10.458 1.781 16.509 1.781s11.705-.652 16.508-1.781h-33.017"/><path fill="#98DAF8" d="M588.405 31.633c4.797 1.126 10.44 1.775 16.48 1.775s11.684-.649 16.48-1.775h-32.96"/><path fill="#97DAF7" d="M588.433 31.633c4.791 1.122 10.425 1.77 16.453 1.77s11.662-.647 16.452-1.77h-32.905"/><path fill="#96D9F7" d="M588.461 31.633c4.784 1.119 10.408 1.764 16.425 1.764 6.018 0 11.641-.645 16.424-1.764h-32.849"/><path fill="#95D9F7" d="M588.49 31.633c4.777 1.115 10.391 1.758 16.396 1.758s11.619-.643 16.396-1.758h-32.792"/><path fill="#94D9F7" d="M588.518 31.633c4.771 1.112 10.374 1.752 16.368 1.752 5.993 0 11.597-.64 16.368-1.752h-32.736"/><path fill="#93D8F7" d="M588.546 31.633c4.765 1.108 10.357 1.747 16.34 1.747s11.575-.639 16.339-1.747h-32.679"/><path fill="#91D8F7" d="M588.574 31.633c4.758 1.105 10.341 1.742 16.312 1.742 5.97 0 11.555-.637 16.312-1.742h-32.624"/><path fill="#90D8F7" d="M588.602 31.633c4.751 1.102 10.324 1.736 16.284 1.736 5.959 0 11.532-.635 16.283-1.736h-32.565"/><path fill="#8FD7F7" d="M588.631 31.633c4.745 1.1 10.307 1.731 16.255 1.731 5.947 0 11.511-.632 16.255-1.731h-32.51"/><path fill="#8ED7F7" d="M588.659 31.633c4.737 1.096 10.291 1.725 16.227 1.725 5.937 0 11.488-.629 16.227-1.725h-32.454"/><path fill="#8DD7F7" d="M588.688 31.633c4.731 1.092 10.273 1.719 16.198 1.719 5.924 0 11.466-.627 16.199-1.719h-32.397"/><path fill="#8BD6F7" d="M588.73 31.633c4.721 1.087 10.247 1.712 16.155 1.712s11.435-.625 16.155-1.712h-32.31"/><path fill="#8AD6F7" d="M588.771 31.633c4.711 1.082 10.223 1.704 16.113 1.704 5.892 0 11.402-.622 16.113-1.704h-32.226"/><path fill="#89D6F7" d="M588.815 31.633c4.698 1.078 10.195 1.697 16.069 1.697s11.37-.619 16.07-1.697h-32.139"/><path fill="#88D5F7" d="M588.858 31.633c4.688 1.073 10.171 1.689 16.027 1.689 5.857 0 11.339-.616 16.028-1.689h-32.055"/><path fill="#87D5F7" d="M588.901 31.633c4.678 1.069 10.144 1.684 15.984 1.684s11.307-.614 15.985-1.684h-31.969"/><path fill="#85D5F6" d="M588.944 31.633c4.667 1.064 10.117 1.676 15.941 1.676s11.275-.61 15.942-1.676h-31.883"/><path fill="#84D4F6" d="M588.986 31.633c4.655 1.061 10.092 1.668 15.898 1.668 5.808 0 11.243-.607 15.899-1.668h-31.797"/><path fill="#83D4F6" d="M589.029 31.633c4.645 1.055 10.065 1.661 15.855 1.661s11.211-.606 15.856-1.661h-31.711"/><path fill="#82D4F6" d="M589.072 31.633c4.634 1.051 10.041 1.653 15.813 1.653 5.773 0 11.18-.603 15.813-1.653h-31.626"/><path fill="#80D3F6" d="M589.115 31.633c4.624 1.047 10.015 1.646 15.771 1.646s11.147-.6 15.771-1.646h-31.542m.043 0c4.613 1.042 9.989 1.639 15.728 1.639 5.739 0 11.115-.598 15.729-1.639h-31.457"/><path fill="#7FD3F6" d="M589.2 31.633c4.602 1.036 9.963 1.633 15.686 1.633s11.083-.596 15.685-1.633h-31.371"/><path fill="#7ED2F6" d="M589.243 31.633c4.591 1.032 9.937 1.625 15.642 1.625s11.051-.592 15.643-1.625h-31.285"/><path fill="#7CD2F6" d="M589.286 31.633c4.58 1.028 9.911 1.617 15.6 1.617s11.02-.589 15.6-1.617h-31.2"/><path fill="#7BD2F6" d="M589.329 31.633c4.57 1.023 9.885 1.61 15.557 1.61s10.987-.586 15.558-1.61h-31.115"/><path fill="#7AD1F6" d="M589.372 31.633c4.559 1.018 9.859 1.602 15.514 1.602 5.655 0 10.955-.584 15.515-1.602h-31.029"/><path fill="#79D1F6" d="M589.415 31.633c4.548 1.014 9.832 1.596 15.471 1.596s10.923-.582 15.472-1.596h-30.943"/><path fill="#77D1F6" d="M589.457 31.633c4.537 1.01 9.806 1.588 15.429 1.588 5.621 0 10.892-.578 15.429-1.588h-30.858"/><path fill="#76D0F6" d="M589.5 31.633c4.526 1.006 9.781 1.581 15.386 1.581s10.859-.575 15.386-1.581h-30.772"/><path fill="#75D0F6" d="M589.543 31.633c4.515 1 9.755 1.574 15.343 1.574 5.587 0 10.827-.573 15.343-1.574h-30.686"/><path fill="#73D0F5" d="M589.585 31.633c4.505.996 9.729 1.566 15.3 1.566 5.571 0 10.796-.57 15.3-1.566h-30.6"/><path fill="#72CFF5" d="M589.629 31.633c4.493.991 9.703 1.559 15.257 1.559 5.555 0 10.764-.566 15.257-1.559h-30.514"/><path fill="#71CFF5" d="M589.671 31.633c4.483.987 9.677 1.551 15.215 1.551 5.537 0 10.731-.563 15.214-1.551h-30.429"/><path fill="#6FCFF5" d="M589.714 31.633c4.471.982 9.651 1.544 15.172 1.544s10.699-.562 15.171-1.544h-30.343"/><path fill="#6ECEF5" d="M589.757 31.633c4.461.979 9.625 1.537 15.129 1.537 5.503 0 10.667-.559 15.128-1.537h-30.257"/><path fill="#6DCEF5" d="M589.799 31.633c4.451.973 9.601 1.529 15.087 1.529s10.636-.557 15.086-1.529h-30.173"/><path fill="#6BCEF5" d="M589.842 31.633c4.439.969 9.573 1.522 15.043 1.522 5.471 0 10.604-.554 15.043-1.522h-30.086"/><path fill="#6ACEF5" d="M589.885 31.633c4.43.965 9.547 1.514 15 1.514s10.572-.551 15-1.514h-30"/><path fill="#68CDF5" d="M589.928 31.633c4.418.959 9.521 1.508 14.958 1.508s10.539-.549 14.957-1.508h-29.915"/><path fill="#67CDF5" d="M589.971 31.633c4.407.955 9.495 1.5 14.915 1.5 5.419 0 10.508-.545 14.915-1.5h-29.83"/><path fill="#66CDF5" d="M590.014 31.633c4.396.95 9.471 1.493 14.872 1.493 5.402 0 10.477-.542 14.872-1.493h-29.744"/><path fill="#64CCF5" d="M590.056 31.633c4.386.946 9.444 1.485 14.83 1.485s10.444-.54 14.829-1.485h-29.659"/><path fill="#63CCF5" d="M590.099 31.633c4.374.942 9.418 1.479 14.787 1.479s10.412-.536 14.786-1.479h-29.573"/><path fill="#61CCF5" d="M590.142 31.633c4.363.938 9.392 1.471 14.744 1.471s10.38-.533 14.743-1.471h-29.487"/><path fill="#60CBF5" d="M590.185 31.633c4.354.932 9.366 1.465 14.701 1.465s10.349-.533 14.7-1.465h-29.401"/><path fill="#5ECBF4" d="M590.229 31.633c4.342.928 9.34 1.456 14.657 1.456 5.318 0 10.316-.528 14.658-1.456h-29.315"/><path fill="#5DCBF4" d="M590.27 31.633c4.332.924 9.314 1.449 14.616 1.449s10.284-.525 14.615-1.449h-29.231"/><path fill="#5BCAF4" d="M590.312 31.633c4.32.919 9.288 1.442 14.573 1.442 5.284 0 10.252-.523 14.572-1.442h-29.144"/><path fill="#59CAF4" d="M590.356 31.633c4.309.914 9.262 1.434 14.529 1.434 5.269 0 10.221-.52 14.53-1.434h-29.059"/><path fill="#58CAF4" d="M590.399 31.633c4.298.909 9.235 1.428 14.486 1.428s10.188-.519 14.486-1.428h-28.972"/><path fill="#56CAF4" d="M590.441 31.633c4.287.905 9.21 1.42 14.444 1.42s10.156-.514 14.444-1.42h-28.888"/><path fill="#55C9F4" d="M590.484 31.633c4.276.901 9.184 1.412 14.401 1.412 5.217 0 10.124-.512 14.401-1.412h-28.802"/><path fill="#53C9F4" d="M590.527 31.633c4.266.896 9.157 1.405 14.358 1.405 5.2 0 10.093-.509 14.358-1.405h-28.716"/><path fill="#51C9F4" d="M590.569 31.633c4.256.891 9.133 1.398 14.315 1.398 5.184 0 10.061-.508 14.316-1.398h-28.631"/><path fill="#4FC8F4" d="M590.613 31.633c4.244.887 9.105 1.391 14.272 1.391s10.028-.504 14.272-1.391h-28.544"/><path fill="#4EC8F4" d="M590.655 31.633c4.233.883 9.08 1.383 14.23 1.383s9.997-.5 14.23-1.383h-28.46"/><path fill="#4CC8F4" d="M590.698 31.633c4.223.877 9.055 1.376 14.188 1.376s9.965-.499 14.188-1.376h-28.376"/><path fill="#4AC7F4" d="M590.741 31.633c4.212.873 9.028 1.368 14.145 1.368s9.933-.496 14.145-1.368h-28.29"/><path fill="#48C7F4" d="M590.784 31.633c4.202.869 9.003 1.362 14.102 1.362 5.1 0 9.9-.493 14.102-1.362h-28.204"/><path fill="#46C7F4" d="M590.827 31.633c4.189.864 8.977 1.354 14.059 1.354 5.083 0 9.869-.489 14.059-1.354h-28.118"/><path fill="#44C7F4" d="M590.87 31.633c4.179.859 8.95 1.348 14.016 1.348s9.837-.488 14.017-1.348h-28.033"/><path fill="#42C6F3" d="M590.913 31.633c4.168.855 8.925 1.34 13.973 1.34 5.05 0 9.806-.484 13.973-1.34h-27.946"/><path fill="#40C6F3" d="M590.955 31.633c4.158.852 8.898 1.332 13.931 1.332s9.773-.482 13.931-1.332h-27.862"/><path fill="#3DC6F3" d="M590.998 31.633c4.146.846 8.873 1.325 13.888 1.325 5.016 0 9.741-.479 13.888-1.325h-27.776"/><path fill="#3BC5F3" d="M591.041 31.633c4.136.842 8.847 1.317 13.845 1.317s9.709-.476 13.845-1.317h-27.69"/><path fill="#38C5F3" d="M591.083 31.633c4.125.837 8.821 1.311 13.802 1.311s9.678-.475 13.803-1.311h-27.605"/><path fill="#36C5F3" d="M591.126 31.633c4.114.833 8.795 1.303 13.76 1.303 4.964 0 9.646-.47 13.759-1.303h-27.519"/><path fill="#33C5F3" d="M591.169 31.633c4.104.828 8.769 1.297 13.717 1.297s9.613-.469 13.716-1.297h-27.433"/><path fill="#30C4F3" d="M591.212 31.633c4.092.823 8.743 1.289 13.674 1.289 4.932 0 9.581-.466 13.673-1.289h-27.347"/><path fill="#2DC4F3" d="M591.255 31.633c4.082.819 8.717 1.281 13.631 1.281s9.549-.463 13.631-1.281h-27.262"/><path fill="#2AC4F3" d="M591.297 31.633c4.071.814 8.692 1.274 13.589 1.274s9.518-.46 13.588-1.274h-27.177"/><path fill="#27C3F3" d="M591.34 31.633c4.061.809 8.665 1.266 13.546 1.266 4.88 0 9.485-.457 13.545-1.266h-27.091"/><path fill="#23C3F3" d="M591.383 31.633c4.049.805 8.639 1.26 13.503 1.26 4.863 0 9.453-.455 13.502-1.26h-27.005"/><path fill="#1FC3F3" d="M591.426 31.633c4.039.801 8.614 1.252 13.46 1.252 4.847 0 9.421-.451 13.459-1.252h-26.919"/><path fill="#1AC2F3" d="M591.469 31.633c4.028.797 8.587 1.244 13.417 1.244 4.829 0 9.39-.447 13.417-1.244h-26.834"/><path fill="#14C2F3" d="M591.511 31.633c4.018.791 8.562 1.237 13.375 1.237s9.357-.446 13.373-1.237h-26.748"/><path fill="#0CC2F3" d="M591.554 31.633c4.006.787 8.535 1.23 13.332 1.23 4.796 0 9.325-.443 13.331-1.23h-26.663"/><path fill="#02C2F2" d="M591.597 31.633c3.996.782 8.511 1.223 13.289 1.223s9.293-.44 13.288-1.223h-26.577"/><path fill="#00C1F2" d="M591.64 31.633c3.984.777 8.484 1.215 13.246 1.215 4.763 0 9.263-.437 13.245-1.215h-26.491m.042 0c3.975.773 8.458 1.208 13.203 1.208 4.746 0 9.23-.435 13.202-1.208h-26.405m.043 0c3.962.77 8.433 1.201 13.161 1.201 4.729 0 9.197-.432 13.159-1.201h-26.32"/><path fill="#00C0F2" d="M591.768 31.633c3.952.764 8.406 1.194 13.118 1.194 4.711 0 9.165-.431 13.117-1.194h-26.235m.043 0c3.941.76 8.381 1.186 13.075 1.186 4.695 0 9.134-.426 13.074-1.186h-26.149m.043 0c3.931.756 8.354 1.18 13.032 1.18 4.679 0 9.102-.424 13.031-1.18h-26.063m.042 0c3.92.75 8.327 1.172 12.989 1.172 4.661 0 9.07-.422 12.989-1.172h-25.978"/><path fill="#00BFF2" d="M591.939 31.633c3.907.746 8.302 1.165 12.946 1.165s9.038-.419 12.946-1.165h-25.892m.043 0c3.897.741 8.275 1.157 12.903 1.157 4.627 0 9.006-.416 12.903-1.157h-25.806m.068 0c3.879.735 8.234 1.148 12.836 1.148 4.603 0 8.957-.413 12.835-1.148h-25.671m.067 0c3.859.729 8.191 1.139 12.769 1.139s8.908-.41 12.769-1.139h-25.538"/><path fill="#00BEF2" d="M592.185 31.633c3.842.723 8.149 1.129 12.701 1.129s8.859-.404 12.7-1.129h-25.401m.068 0c3.821.717 8.107 1.119 12.633 1.119s8.812-.402 12.632-1.119h-25.265m.067 0c3.803.711 8.064 1.109 12.565 1.109 4.5 0 8.763-.398 12.564-1.109h-25.129m.067 0c3.785.705 8.023 1.1 12.499 1.1s8.714-.395 12.498-1.1h-24.997"/><path fill="#00BDF2" d="M592.455 31.633c3.766.699 7.98 1.092 12.431 1.092s8.665-.392 12.431-1.092h-24.862m.066 0c3.747.693 7.938 1.081 12.363 1.081 4.424 0 8.616-.388 12.362-1.081h-24.725"/><path fill="#00BDF1" d="M592.59 31.633c3.728.688 7.896 1.072 12.295 1.072s8.567-.385 12.294-1.072h-24.589m.068 0c3.709.682 7.854 1.062 12.228 1.062s8.52-.381 12.228-1.062h-24.456"/><path fill="#00BCF1" d="M592.725 31.633c3.69.676 7.812 1.053 12.161 1.053s8.47-.377 12.159-1.053h-24.32m.068 0c3.671.669 7.771 1.043 12.093 1.043 4.323 0 8.421-.375 12.093-1.043h-24.186m.067 0c3.651.663 7.727 1.034 12.024 1.034 4.297 0 8.373-.371 12.024-1.034h-24.048m.068 0c3.634.657 7.686 1.025 11.958 1.025s8.324-.367 11.957-1.025h-23.915"/><path fill="#00BBF1" d="M592.996 31.633c3.614.651 7.643 1.016 11.89 1.016 4.246 0 8.275-.365 11.89-1.016h-23.78m.066 0c3.597.645 7.602 1.006 11.822 1.006 4.222 0 8.228-.361 11.822-1.006h-23.644m.069 0c3.577.639 7.56.996 11.755.996s8.177-.357 11.754-.996h-23.509"/><path fill="#00BAF1" d="M593.198 31.633c3.558.633 7.517.987 11.688.987 4.17 0 8.129-.354 11.688-.987h-23.376m.068 0c3.539.627 7.475.977 11.62.977s8.081-.35 11.619-.977h-23.239m.067 0c3.521.621 7.432.969 11.552.969s8.032-.348 11.551-.969h-23.103m.068 0c3.501.615 7.39.958 11.484.958s7.983-.344 11.484-.958h-22.968"/><path fill="#00B9F1" d="M593.469 31.633c3.482.609 7.348.948 11.417.948s7.936-.34 11.416-.948h-22.833m.067 0c3.463.604 7.305.939 11.349.939s7.887-.336 11.35-.939h-22.699m.068 0c3.445.598 7.265.93 11.282.93 4.019 0 7.837-.332 11.281-.93h-22.563m.067 0c3.426.592 7.222.922 11.215.922s7.788-.33 11.214-.922h-22.429"/><path fill="#00B8F1" d="M593.739 31.633c3.407.585 7.179.911 11.146.911 3.967 0 7.739-.326 11.146-.911h-22.292m.068 0c3.388.579 7.138.901 11.079.901 3.942 0 7.691-.323 11.079-.901h-22.158"/><path fill="#00B8F0" d="M593.874 31.633c3.369.573 7.095.893 11.012.893s7.643-.319 11.012-.893h-22.024m.067 0c3.351.567 7.053.883 10.943.883 3.892 0 7.594-.315 10.943-.883h-21.886"/><path fill="#00B7F0" d="M594.009 31.633c3.331.561 7.011.873 10.877.873s7.545-.312 10.876-.873h-21.753m.068 0c3.312.555 6.968.864 10.809.864s7.497-.31 10.809-.864h-21.618m.067 0c3.294.549 6.927.854 10.742.854s7.447-.305 10.741-.854h-21.483m.068 0c3.275.543 6.884.846 10.674.846s7.399-.303 10.673-.846h-21.347"/><path fill="#00B6F0" d="M594.28 31.633c3.255.537 6.842.836 10.605.836 3.765 0 7.351-.299 10.605-.836h-21.21m.067 0c3.237.531 6.8.825 10.539.825 3.738 0 7.302-.295 10.538-.825h-21.077m.068 0c3.218.525 6.757.816 10.471.816s7.253-.292 10.47-.816h-20.941"/><path fill="#00B5F0" d="M594.482 31.633c3.198.52 6.715.807 10.403.807 3.689 0 7.204-.287 10.403-.807h-20.806m.068 0c3.181.514 6.673.797 10.336.797s7.155-.285 10.335-.797h-20.671m.068 0c3.161.508 6.631.788 10.268.788 3.638 0 7.107-.28 10.269-.788h-20.537m.067 0c3.143.501 6.589.779 10.2.779 3.612 0 7.059-.278 10.2-.779h-20.4m.067 0c3.124.495 6.547.77 10.133.77 3.587 0 7.009-.274 10.132-.77h-20.265"/><path fill="#00B4F0" d="M594.82 31.633c3.104.489 6.504.76 10.065.76s6.96-.271 10.065-.76h-20.13m.068 0c3.085.483 6.462.75 9.998.75s6.912-.267 9.997-.75h-19.995m.067 0c3.067.477 6.42.741 9.93.741s6.863-.265 9.931-.741h-19.861m.068 0c3.048.471 6.377.731 9.862.731s6.814-.261 9.862-.731h-19.724"/><path fill="#00B3F0" d="M595.091 31.633c3.029.465 6.335.721 9.795.721s6.767-.256 9.795-.721h-19.59m.067 0c3.011.459 6.293.712 9.728.712s6.719-.254 9.728-.712h-19.456"/><path fill="#00B3EF" d="M595.226 31.633c2.991.453 6.251.703 9.66.703s6.669-.25 9.659-.703h-19.319m.068 0c2.972.447 6.208.693 9.592.693 3.383 0 6.62-.246 9.592-.693h-19.184"/><path fill="#00B2EF" d="M595.361 31.633c2.954.441 6.166.684 9.524.684s6.571-.242 9.524-.684h-19.048m.067 0c2.936.436 6.124.674 9.457.674s6.522-.24 9.457-.674h-18.914m.068 0c2.915.43 6.082.665 9.389.665 3.308 0 6.475-.235 9.389-.665h-18.778m.066 0c2.897.424 6.04.656 9.322.656s6.425-.232 9.321-.656h-18.643m.069 0c2.878.417 5.998.646 9.255.646 3.256 0 6.376-.229 9.254-.646h-18.509"/><path fill="#00B1EF" d="M595.699 31.633c2.858.411 5.955.637 9.187.637s6.327-.226 9.187-.637h-18.374m.067 0c2.841.404 5.913.627 9.119.627s6.279-.223 9.119-.627h-18.238m.068 0c2.821.399 5.871.618 9.052.618s6.23-.219 9.052-.618h-18.104m.067 0c2.802.393 5.829.608 8.983.608 3.155 0 6.182-.216 8.984-.608h-17.967"/><path fill="#00B0EF" d="M595.969 31.633c2.784.387 5.787.598 8.917.598s6.132-.211 8.916-.598h-17.833m.067 0c2.764.381 5.745.59 8.849.59 3.105 0 6.084-.209 8.849-.59h-17.698m.068 0c2.746.375 5.702.58 8.781.58s6.035-.205 8.781-.58h-17.562m.068 0c2.728.368 5.66.57 8.714.57 3.055 0 5.986-.202 8.714-.57h-17.428m.067 0c2.708.363 5.618.561 8.646.561 3.028 0 5.938-.197 8.646-.561h-17.292"/><path fill="#00AFEF" d="M596.307 31.633c2.689.357 5.576.551 8.579.551s5.89-.193 8.578-.551h-17.157m.067 0c2.671.352 5.534.542 8.511.542 2.978 0 5.841-.19 8.51-.542h-17.021m.068 0c2.65.346 5.49.533 8.443.533 2.952 0 5.792-.188 8.443-.533h-16.886m.067 0c2.632.34 5.449.523 8.376.523 2.926 0 5.743-.184 8.376-.523h-16.752"/><path fill="#00AEEF" d="M596.577 31.633c2.613.333 5.407.514 8.308.514s5.694-.181 8.309-.514h-16.617m.068 0c2.596.327 5.365.504 8.241.504s5.646-.177 8.24-.504h-16.481"/><path fill="#00AEEE" d="M596.713 31.633c2.576.321 5.323.495 8.173.495 2.852 0 5.598-.174 8.173-.495h-16.346m.067 0c2.558.315 5.28.485 8.105.485s5.548-.17 8.105-.485h-16.21m.067 0c2.538.309 5.238.475 8.038.475 2.799 0 5.5-.166 8.037-.475h-16.075"/><path fill="#00ADEE" d="M596.915 31.633c2.519.303 5.196.467 7.971.467s5.451-.164 7.97-.467h-15.941m.068 0c2.5.297 5.152.457 7.902.457 2.749 0 5.402-.16 7.902-.457h-15.804m.067 0c2.482.29 5.112.447 7.836.447s5.354-.157 7.835-.447h-15.671m.068 0c2.462.285 5.068.438 7.768.438 2.698 0 5.306-.152 7.768-.438h-15.536m.067 0c2.444.279 5.027.43 7.7.43s5.256-.15 7.699-.43h-15.399"/></g></g><g sketch:type="MSLayerGroup"><path sketch:type="MSShapeGroup" d="M15 38h-2.29c-7.01 0-12.71-5.62-12.71-12.527 0-3.293 1.287-6.406 3.625-8.761 2.048-2.061 4.701-3.343 7.572-3.677.339-2.829 1.639-5.445 3.732-7.463 2.389-2.305 5.545-3.572 8.888-3.572 3.342 0 6.499 1.267 8.888 3.571 2.084 2.01 3.38 4.611 3.728 7.425 6.475.572 11.568 5.949 11.568 12.477 0 6.907-5.703 12.526-12.71 12.527v-3h-.001v1.5-1.5c5.36 0 9.711-4.287 9.711-9.527 0-4.921-3.853-9.049-8.832-9.489l-2.416-.213-.297-2.407c-.264-2.14-1.25-4.107-2.833-5.634-1.827-1.763-4.237-2.73-6.805-2.73-2.569 0-4.978.968-6.805 2.731-1.591 1.534-2.578 3.512-2.835 5.66l-.282 2.35-2.351.273c-2.202.256-4.225 1.237-5.789 2.811-1.781 1.793-2.754 4.145-2.754 6.647 0 5.241 4.348 9.526 9.71 9.526h2.29v3l-.002.002zm16 0h4.289v-1.5 1.5h.001v-3h-4.29v3z"/><path d="M16 36.5c0-8.5 8.5-8.5 8.5-8.5v-2c-5.799 0-10.5 4.701-10.5 10.5s4.701 10.5 10.5 10.5v-2s-8.5 0-8.5-8.5zM25.5 30c-3.59 0-6.5 2.91-6.5 6.5s2.91 6.5 6.5 6.5 6.5-2.91 6.5-6.5-2.91-6.5-6.5-6.5zm0 11c-2.485 0-4.5-2.016-4.5-4.5s2.015-4.5 4.5-4.5 4.5 2.016 4.5 4.5-2.015 4.5-4.5 4.5z"/></g><g transform="translate(48 4)" sketch:type="MSLayerGroup"><path sketch:type="MSShapeGroup" fill="#EA5B0F" d="M28.571 38.881c3.283 2.297 9.778-1.457 14.505-8.396 4.729-6.938 5.901-14.418 2.619-16.715-3.284-2.297-9.614 1.264-14.341 8.204-4.729 6.937-6.064 14.608-2.783 16.907z"/><path sketch:type="MSShapeGroup" fill="#0055A4" d="M19.852 38.881c-3.283 2.297-9.778-1.457-14.505-8.396-4.729-6.938-5.901-14.418-2.619-16.715 3.284-2.297 9.614 1.264 14.342 8.204 4.73 6.937 6.063 14.608 2.782 16.907z"/><ellipse sketch:type="MSShapeGroup" fill="#009DCC" cx="24.213" cy="7.754" rx="15.083" ry="7.309"/></g><path sketch:type="MSShapeGroup" fill="#C70119" d="M131.005 15.581l-1.126 1.982h-10.219l-15.657 29.565-5.721.871-.282-.29 14.441-30.146h-8.437l1.029-1.982h8.252c3.001-5.371 5.437-9.387 14.064-13.259 2.531-1.16 6.472-2.322 10.034-2.322 1.875 0 3.844.388 3.844 1.549 0 .676-.938 2.323-2.626 2.323-1.781 0-3.749-.968-5.905-.968-5.721 0-7.41 3.291-8.722 6.048l-3.281 6.629h10.314"/><path sketch:type="MSShapeGroup" fill="#161614" d="M167.998 0c-13.251 0-23.998 10.745-23.998 24.001 0 10.604 6.876 19.599 16.413 22.772 1.201.221 1.638-.521 1.638-1.157 0-.569-.021-2.079-.032-4.081-6.676 1.449-8.084-3.219-8.084-3.219-1.092-2.772-2.665-3.51-2.665-3.51-2.179-1.488.165-1.459.165-1.459 2.409.168 3.676 2.473 3.676 2.473 2.141 3.668 5.618 2.609 6.985 1.994.218-1.551.838-2.608 1.523-3.207-5.329-.606-10.932-2.666-10.932-11.862 0-2.62.936-4.763 2.471-6.44-.248-.607-1.071-3.048.236-6.352 0 0 2.014-.645 6.599 2.46 1.914-.533 3.968-.799 6.008-.809 2.039.01 4.091.276 6.008.809 4.582-3.106 6.593-2.46 6.593-2.46 1.31 3.303.486 5.745.24 6.352 1.538 1.677 2.466 3.82 2.466 6.44 0 9.22-5.612 11.249-10.957 11.843.86.741 1.628 2.206 1.628 4.445 0 3.207-.029 5.796-.029 6.583 0 .642.433 1.389 1.65 1.155 9.53-3.182 16.4-12.17 16.4-22.771 0-13.255-10.747-24-24.002-24"/><path sketch:type="MSShapeGroup" fill="#1A1918" d="M217.657 0h5.418v32.814c0 5.828-2.593 9.799-14.86 15.186l-.215-1.766c9.083-5.883 9.657-6.949 9.657-12.698v-33.536z"/><g sketch:type="MSLayerGroup"><path sketch:type="MSShapeGroup" fill="#C23C2F" d="M285.244 13.159h-10.404v-10.404c0-1.522-1.234-2.755-2.756-2.755h-16.169c-1.522 0-2.756 1.233-2.756 2.755v10.404h-10.404c-1.522 0-2.755 1.233-2.755 2.756v16.169c0 1.521 1.234 2.756 2.755 2.756h10.404v10.404c0 1.521 1.234 2.755 2.756 2.755h16.169c1.522 0 2.756-1.233 2.756-2.755v-10.404h10.404c1.522 0 2.756-1.234 2.756-2.756v-16.169c0-1.523-1.234-2.756-2.756-2.756z"/><path sketch:type="MSShapeGroup" fill="#fff" d="M255.891 45.999c-.381 0-.691-.31-.691-.69v-12.509h-12.509c-.381 0-.691-.31-.691-.692v-16.217c0-.381.31-.691.691-.691h12.509v-12.509c0-.381.31-.691.691-.691h16.219c.381 0 .691.31.691.691v12.509h12.508c.381 0 .691.31.691.691v16.218c0 .381-.31.691-.691.691h-12.508v12.508c0 .381-.31.691-.691.691h-16.219z"/><path fill="#212828" d="M267.311 9.049l-3.542-5.274-3.541 5.274 2.19-.452v12.596c-.873.506-1.46 1.447-1.46 2.527 0 1.614 1.308 2.921 2.92 2.921 1.613 0 2.92-1.308 2.92-2.921 0-1.145-.661-2.135-1.622-2.613v-12.497l2.135.439zm13.714 14.613l-4.057-2.724.277 1.345h-9.44v2.759h9.44l-.277 1.347 4.057-2.727z" sketch:type="MSShapeGroup"/></g><path sketch:type="MSShapeGroup" fill="#54ACEE" d="M336 8.699c-1.765.798-3.664 1.336-5.656 1.577 2.034-1.239 3.594-3.202 4.33-5.544-1.903 1.149-4.01 1.983-6.253 2.433-1.796-1.947-4.355-3.165-7.188-3.165-5.438 0-9.848 4.486-9.848 10.021 0 .784.087 1.549.255 2.283-8.185-.418-15.441-4.407-20.299-10.47-.848 1.479-1.333 3.2-1.333 5.039 0 3.476 1.738 6.544 4.381 8.34-1.614-.053-3.133-.504-4.461-1.254l-.001.127c0 4.854 3.395 8.903 7.9 9.825-.826.228-1.696.351-2.595.351-.635 0-1.252-.062-1.853-.18 1.254 3.98 4.89 6.879 9.199 6.959-3.37 2.688-7.616 4.29-12.23 4.29-.794 0-1.578-.048-2.349-.142 4.359 2.846 9.535 4.502 15.096 4.502 18.114 0 28.02-15.269 28.02-28.51 0-.434-.009-.868-.027-1.298 1.923-1.41 3.593-3.176 4.912-5.184z"/><path sketch:type="MSShapeGroup" fill="#0D9EE3" d="M344.197 19.84c0-2.378-1.835-4.306-4.1-4.306-2.263 0-4.098 1.928-4.098 4.306 0 3.023 4.098 5.535 4.098 5.535s4.1-2.666 4.1-5.535zm3.917 5.535s-4.849 2.553-4.849 6.064c0 2.812 2.17 5.093 4.849 5.093 2.677 0 4.848-2.281 4.848-5.093 0-3.589-4.848-6.064-4.848-6.064zm14.219-7.446c0-3.434-2.65-6.218-5.918-6.218-3.269 0-5.917 2.784-5.917 6.218 0 4.243 5.917 7.446 5.917 7.446s5.918-3.203 5.918-7.446zm3.917 7.446s-6.549 2.859-6.549 7.745c0 3.8 2.931 6.88 6.549 6.88 3.617 0 6.55-3.081 6.55-6.88 0-4.809-6.55-7.745-6.55-7.745zm17.75-9.302c0-4.459-3.44-8.073-7.684-8.073s-7.685 3.614-7.685 8.073c0 5.485 7.685 9.302 7.685 9.302s7.684-3.663 7.684-9.302z"/><path sketch:type="MSShapeGroup" fill="#8C979B" d="M419.876 27.15c.926.396 1.479 1.141 1.479 1.99 0 1.123-.865 1.793-2.314 1.793-1.538 0-2.253-1.354-2.436-1.769l-.226-.513h-2.881l-.005-.002h-2.669c-.729 1.216-2.197 2.336-3.904 2.336-3.081 0-4.618-2.406-4.814-4.783h12.592v-.52c0-.985-.104-1.914-.294-2.774.36 1.105 1.182 2.25 2.904 3.061.63.301 1.579.748 2.568 1.181zm-13.135-7.553c2.577 0 3.839 1.778 4.205 3.588h-8.577c.448-1.814 2.038-3.588 4.372-3.588zm25.269.053v-3.252h-2.677v-3.844h-3.287v3.844h-6.619c-3.057.002-5.275 2.057-5.275 4.89 0 .304.026.633.088.973-1.041-3.609-3.787-5.863-7.475-5.863-4.51 0-7.958 3.512-8.247 8.269v-1.011c0-4.003-3.257-7.258-7.259-7.258s-7.259 3.255-7.259 7.258v10.404h3.327v-10.404c0-2.167 1.763-3.931 3.932-3.931 2.168 0 3.933 1.764 3.933 3.931v10.404h3.326v-8.096c.291 4.774 3.783 8.299 8.353 8.299 2.789 0 5.249-1.621 6.642-3.496 1.04 2.222 3.071 3.496 5.581 3.496 2.908 0 5.853-1.858 5.853-5.41 0-2.127-1.235-3.864-3.478-4.895l-.739-.345-.03-.015-.794-.369c-1.466-.658-2.163-1.139-2.163-2.1 0-.845.756-1.481 1.689-1.481h6.615v9.266c0 2.95 2.399 5.349 5.348 5.349v-3.287c-1.137 0-2.061-.926-2.061-2.062v-9.266l2.676.002z"/><path sketch:type="MSShapeGroup" fill="#60A6CF" d="M434.881 36.337c8.612-5.532 18.375-1.552 23.237 1.111-6.735-2.66-16.611-3.284-23.237-1.111zm2.104-3.217c-1.399 1.032-2.188 1.903-2.188 1.903 0 .037.814-.455 2.188-1.035v-.868zm0-3.431c-.908-1.758-.596-3.752-.596-3.752s-1.536 3.522.596 5.619v-1.867zm0-9.357v3.199c-1.419.815-2.372 2.333-2.372 4.07 0 1.738.953 3.256 2.372 4.071v.571c-.572.386-1.129.799-1.591 1.152-2.041-1.304-3.394-3.57-3.394-6.149.001-3.201 2.084-5.923 4.985-6.914zm0 3.199v-3.199c.657-.225 1.356-.361 2.085-.393-.037.365-.058.736-.058 1.112 0 .63.056 1.248.159 1.849-.794.034-1.539.259-2.186.631zm0 8.713c.501-.338 1.012-.657 1.479-.901-.229-.145-.442-.312-.636-.501-.359-.353-.635-.746-.844-1.152v1.867l.055.055.281.238-.336-.176v.57h.001zm0 1.745v-.869c2.691-1.987 7.645-4.572 13.6-2.706 9.05 2.836 14.81 6.693 21.804 4.958 6.994-1.736 7.611-5.556 7.611-5.556s-1.235 5.395-8.126 6.578c-6.891 1.185-13.238-.143-21.312-3.152-5.449-2.031-10.724-.456-13.577.747zm13.015-22.989c4.138 0 7.7 2.44 9.29 5.942h-3.238c-1.429-1.763-3.626-2.892-6.091-2.892-2.424 0-4.589 1.092-6.019 2.805l.236-.18c3.384-2.415 7.896.247 7.896.247s-4.287-1.239-7.188.793c-2.897 2.033-2.432 6.101-2.432 6.101l-.048-.152.038.14c-.695-.512-1.538-.846-2.455-.934-.109-.59-.167-1.198-.167-1.818 0-5.551 4.556-10.05 10.177-10.05v-.002zm9.747 20.744s4.32 2.211 8.382 1.851c4.062-.36 5.297-1.8 5.297-1.8s-1.491 2.751-5.398 2.905c-3.91.154-8.28-2.854-8.281-2.956zm-3.312-13.972h3.632v3.631h-3.632v-3.631zm14.42 10.06h2.808v2.809h-2.808v-2.809zm-10.044-13.387h4.843v4.841h-4.843v-4.841zm14.057 8.378h4.842v4.841h-4.842v-4.841zm-8.751-3.165h2.699v2.699h-2.699v-2.699zm1.805 5.317h2.699v2.699h-2.699v-2.699zm-5.682.269h2.7v2.699h-2.7v-2.699zm9.463-5.493h2.699v2.699h-2.699v-2.699z"/><path sketch:type="MSShapeGroup" opacity=".9" fill="#01A1AB" enable-background="new" d="M524.932 19.286l-.425.939-.431-.944-.244 1.248h.159l.139-.764.376.806.364-.81.145.767h.166l-.249-1.242zm-1.558 1.243h.166v-1.062h.267v-.157h-.696v.157h.264v1.062zm-2.959-.423c-2.008 0-2.995 1.54-2.995 1.54v-3.883h-3.114v12.821h3.147v-5.875c0-.987.837-1.808 1.841-1.808 1.372 0 1.607.804 1.607 1.658v6.025h3.213v-7.063c0-1.942-1.657-3.415-3.699-3.415zm-11.569 3.113c0-.402.318-.619.821-.619.904 0 1.272.803 1.272.803l2.359-1.038c-.636-1.439-1.892-2.26-3.365-2.26-2.274 0-3.933 1.356-3.933 3.348 0 3.615 4.604 2.945 4.604 4.217 0 .486-.603.721-1.104.721-.92 0-1.439-.904-1.439-.904l-2.393 1.207c.803 1.506 2.075 2.142 3.799 2.142 2.176 0 4.117-1.188 4.117-3.415 0-3.515-4.737-3.047-4.738-4.202zm-8.947-3.113c-3.163 0-5.624 2.31-5.624 5.39 0 2.861 2.41 5.439 5.557 5.439 3.348 0 5.607-2.359 5.607-5.49 0-3.095-2.427-5.338-5.54-5.339zm-9.184 2.896c-.335-.134-.988-.401-1.389-.553-.67-.25-1.456-.485-1.456-1.171 0-.669.469-1.121 1.289-1.121 1.239 0 2.578 1.021 2.578 1.021l1.305-2.511c-.92-.602-2.444-1.372-4.101-1.372-2.276 0-4.402 1.523-4.402 4.084 0 1.808.888 2.963 2.511 3.699.552.251 1.506.62 1.908.77 1.256.469 1.339.721 1.339 1.256 0 .687-.921 1.004-1.857 1.004-1.223 0-2.395-.686-3.014-1.238-.284.486-1.338 2.594-1.338 2.594 1.338.837 2.611 1.59 4.418 1.59 2.577 0 5.121-1.439 5.121-4.185 0-1.926-.988-3.097-2.912-3.867zm37.285 9.978l-46.487 3.351-1.513-20.98 46.487-3.35 1.513 20.979z"/><g sketch:type="MSLayerGroup"><path sketch:type="MSShapeGroup" fill="#FF6122" d="M528 0h48v48h-48v-48z"/><path sketch:type="MSShapeGroup" fill="#fff" d="M533.927 38.505c-1.31 0-1.55 1.181-1.55 2.033s.239 2.035 1.55 2.035 1.55-1.183 1.55-2.035-.239-2.033-1.55-2.033m0 5.548c-1.732 0-3.297-1.104-3.297-3.515 0-2.412 1.563-3.515 3.297-3.515s3.294 1.103 3.294 3.515-1.561 3.515-3.294 3.515M538.424 37.198h1.668v.782c.318-.422 1.102-.92 1.835-.92l.229.01v1.646h-.086c-.763 0-1.597.119-1.866.711v4.43h-1.78v-6.659M544.357 41.876c0 .448.28.867.789.867.552 0 1.088-.228 1.625-.702v-1.577c-1.638.202-2.414.625-2.414 1.412m2.455 1.403c-.678.445-1.412.662-2.201.662-1.243 0-1.979-.827-1.979-1.938 0-1.492 1.371-2.279 4.196-2.598v-.371c0-.484-.367-.768-1.045-.768s-1.229.271-1.626.768l-1.183-.674c.62-.869 1.566-1.303 2.837-1.303 1.738 0 2.715.752 2.715 1.977 0 0-.003 4.816 0 4.828h-1.555l-.155-.583M549.908 37.376l1.452-.2.159.79c.818-.599 1.469-.917 2.286-.917 1.371 0 2.079.727 2.079 2.168v4.637h-1.754v-4.332c0-.816-.211-1.184-.846-1.184-.523 0-1.045.237-1.644.739v4.776h-1.734l.002-6.477"/><path sketch:type="MSShapeGroup" fill="#fff" d="M563.303 37.175v6.308c0 1.11-.088 2.947-3.259 2.965-1.31.009-2.525-.516-2.767-1.659l1.729-.279c.072.327.274.653 1.255.653.908 0 1.345-.434 1.345-1.475v-.776l-.022-.022c-.279.5-.702.971-1.719.971-1.555 0-2.776-1.078-2.776-3.329 0-2.229 1.261-3.476 2.676-3.479 1.331-.002 1.822.604 1.938.923l-.023-.002.146-.798h1.479-.002zm-3.127 5.253c1.329-.009 1.443-1.363 1.443-2.244 0-1.045-.509-1.889-1.454-1.889-.63 0-1.334.46-1.334 1.961 0 .82.058 2.183 1.345 2.172zM568.81 39.645c0-.89-.511-1.414-1.343-1.414-.792 0-1.287.513-1.356 1.414h2.699zm-1.315 4.335c-1.963 0-3.134-1.265-3.134-3.455 0-2.217 1.185-3.479 3.105-3.479s3.064 1.225 3.064 3.389l-.014.345h-4.436c.011 1.264.537 1.899 1.568 1.899.662 0 1.101-.267 1.512-.853l1.282.711c-.565.946-1.582 1.44-2.951 1.44l.004.003zM569.479 34.671v.293h.688v1.91h.365v-1.91h.689v-.293h-1.742zm4.053 0l-.646 1.67-.656-1.67h-.562v2.203h.365v-1.838h.009l.723 1.838h.232l.718-1.838h.011v1.838h.362v-2.203h-.556z"/></g><path sketch:type="MSShapeGroup" fill="#D72938" d="M689.984 2c.849.004 1.295.667 1.453.886.074.221.137.443.214.897l.016.24c0 .371-.09.582-.227.927-.119.298-.172.486-.391.723-.318.345-.545.449-.638.575-.042.059-.37.363-.465.502-.096.141-.464.716-.612 1.03-.122.258-.109.686-.541 1.283-.176.245-.326.365-.42.652-.095.289-.093.48-.247.742-.283.476-.543.683-.777 1.183-.224.484-.232.797-.384 1.305-.159.532-.523.743-.58 1.292v.671c-.085.789-.632 1.072-1.023 1.765-.144.257-.144.447-.191.74-.064.409-.133.632-.263 1.027-.221.664-.202 1.079-.332 1.765-.086.45-.137.708-.211 1.158-.037.235-.177.35-.177.592l.002.23-.106.389c-.028.354-.091.549-.139.899-.241 1.768-.569 2.722-.998 4.454-.155.626-.152.999-.296 1.624-.108.467-.21.725-.246 1.204l-.05.972c-.032.436.019.684.019 1.121.002.252-.02.395-.051.646-.181 1.426-.491 2.47-.522 3.655v.779l-.121 1.131v.192c.005.601-.55 1.185-1.084 1.185-.725-.002-.957-.762-1.072-1.522l-.22-1.233c-.036-.271-.167-.393-.228-.658l-.026-.229c-.015-.08-.293-1.354-.508-2.212-.18-.708-.373-2.028-.401-2.061-.037-.037-.131-.549-.171-1.053-.023-.297-.134-.609-.155-.742l.011-.373c-.067-.4-.089-.631-.178-1.023-.089-.378-.136-.576-.198-.973v-.16c-.05-.693-.271-1.506-.393-2.475-.056-.436-.033-.691-.072-1.129-.033-.348-.06-.82-.223-.884-.224-.087-.297.235-.38.404-.183.367-.291.572-.444.955-.218.549-.293.875-.541 1.414-.276.595-.377.949-.629 1.557-.196.479-.511.906-.967.918-.386.009-.778-.42-.797-.775-.019-.283.13-.92.323-1.438.204-.543.358-.972.476-1.414l.332-1.109c.165-.653.419-1.086.6-1.736.211-.766.419-1.116.67-1.87.117-.354.2-.608.296-.972.046-.17.224-.684.334-1.131.085-.348.151-.719.245-.884.183-.278.5-.349.838-.346.711 0 1.189.37 1.198 1.075.006.469-.063 1.025.023 1.501.006.325.054.197.103.514.194 1.245.281 1.404.382 2.384.124.565.211 1.585.211 1.585 0 .398.147 1.085.239 1.473.085.383-.004.534.137 1.131.105.459.172 1.043.186 1.201.016.202.065.588.101.787.023.146.054.461.147.951.113.335.076.615.232.973.039.096.096.198.2.198.089.003.172-.137.232-.257.208-.391.189-.636.34-1.053.189-.523.271-.87.353-1.381.137-.584.278-1.692.541-2.754.267-1.074.371-1.691.576-2.774.143-.742.295-1.19.423-1.892.076-.334.174-.519.172-.864l.124-.53c.141-.736.269-1.263.332-1.892v-.174c.033-.132.082-.438.246-.762.172-.525.339-.803.634-1.27.438-.695.373-1.231.632-2.013.037-.059.232-.488.274-.823.041-.042.149-.28.195-.557.101-.115.529-1.919.829-2.647.016-.178.167-.404.249-.656.073-.239.499-1.327.697-1.993.167-.538.115-.883.336-1.396.237-.549.382-1.163.439-1.466.136-.337.267-.512.477-.812.3-.432.493-.712.982-.905.228-.087.384-.183.625-.183l-.001-.001zm14.415 8.888c.538.002 1.084.361 1.063.899-.019.43-.154.516-.247.671-.146.241-.09.643-.91.723-.432-.002-.966-.497-.966-1.055 0-.63.428-1.238 1.06-1.238zm5.33 1.841c.752.002 1.132.74 1.111 1.557l-.027.195.029.53c0 .193-.066.706-.066.706l-.121 1.016.033.291c0 .228-.033.356-.053.584-.046.56.334.597.46.855.27.124.403.358.71.358.142.002.573-.181.69-.221.562-.248.888-.382 1.429-.669.838-.442 1.184-.799 2.001-1.311.54-.345 1.042-.686 1.685-.684.531 0 1.031.397 1.181.764.07.178.172.406.172.642l.037.214-.017.317c-.039.347-.031.56-.157.882-.131.334-.356.455-.654.653-.332.226-.603.334-1.009.334h-.213l-.695-.089c-.447 0-.723.181-1.122.381-.476.236-1.018.544-1.183.624-.467.218-1.42.725-2.295 1.248-1.795 1.072-3.035 1.644-4.773 2.797-.673.449-.855.666-1.569 1.042-.439.235-.743.282-1.164.547-.713.449-1.099.765-1.68 1.378-.514.436-1.25 1.195-1.875 1.514-.579.295-1.241.842-1.654 1.34-.085.104-.489.361-.543.973l.132 1.674c.002.319-.147.529-.126.905l.018 1.181c.002.443.15.489.15.858l.013.471c0 .558.221.845.23 1.397-.055.6.008.862.021 1.434.018.557.1.893.234 1.43.099.402.064.621.241.99.254.551.366.857.639 1.4.182.363.293.662.293 1.068.002.793-.632 1.287-1.483 1.377-.075.008-.727.01-.991-.166-.332-.228-.426-.658-.445-1.057-.024-.554-.011-.762-.104-1.327.006-.293-.07-.454-.146-.731-.169-.633-.287-.993-.302-1.646-.017-.838.05-1.311.05-2.15-.035-.555-.078-.869-.146-1.418l-.241-1.405c-.11-.917-.11-1.433-.162-2.354l-.04-.57c-.005-.278-.123-.412-.307-.414-.38 0-.541.279-.871.467-.458.256-.693.502-1.081.857-.782.573-1.108.903-1.74 1.592-.416.451-.613.758-1.075 1.164-.373.326-.615.485-.972.828-.293.28-.393.506-.617.85-.202.304-.396.426-.671.667-1.003.883-1.196.849-2.435 2.416-.364.461-.632.524-.723.676l-.576.515c-.204.203-.518.504-.696.645-.395.316-.538.601-.917.936-.432.379-.703.61-1.254.792-.256.085-.355.177-.629.177-.562 0-.948-.535-.949-1.098 0-.357.178-.492.39-.777.407-.553.684-.84 1.199-1.287.846-.742 1.145-1.369 2.082-1.994.326-.217 1.146-.67 1.368-.84.38-.295.716-.619 1.018-.993l.405-.388c.134-.188.179-.324.336-.496.356-.385.626-.543 1.059-.844.562-.394.881-.568 1.413-1.004.378-.308.543-.574.845-.955.601-.748 1.164-.949 1.943-1.516.36-.264.476-.518.758-.864.153-.19.669-.853 1.183-1.305l.899-.759c.596-.516.806-.329.792-1.119 0-.137.037-.326-.167-.311-.189.017-.239.176-.378.299-.293.261-.475.389-.866.383-.799-.016-1.306-.729-1.329-.777-.227-.447-.592-1.807-.607-2.225 0 0-.025-.564 0-.885.03-.402.134-1.138.385-1.575.137-.241.261-1.198.43-2.08.061-.321.239-.648.343-.959.148-.449.22-.722.491-1.111.479-.684.744-1.457 1.58-1.453.187 0 .272.046.44.128.107.058.229.078.294.178.057.091.004.172.091.239.157.123.229.373.229.621l-.016.365c-.063.564-.404.792-.758 1.235-.344.432-.428.573-.644 1.081-.176.413-.219.841-.306 1.283-.103.521-.191.984-.228 1.345l-.025.33c0 .131.098.373.229.373.208 0 .394-.248.464-.444.167-.456.295-.681.41-1.154.169-.675.278-.973.541-1.546.328-.708.361-1.159.552-1.739.23-.699.429-1.344 1.166-1.34.235 0 .39.001.594.12.462.258.576.697.576 1.226l-.026.419c-.171 1.581-.564 2.434-.694 4.027l-.02.583c-.033.399-.124.615-.123 1.019 0 .18.039.279.091.448.026.091.056.196.15.196.184 0 .262-.131.416-.23l.794-.442c.454-.3.747-.419 1.185-.738.447-.327.904-.831 1.368-1.131l.998-.525c.589-.373.945-.565 1.502-.985.334-.256.346-.437.829-.706.464-.263.731-.404 1.183-.688.241-.152.361-.269.617-.387.214-.1.425-.196.425-.432-.002-.235-.147-.373-.269-.573-.172-.289-.204-.447-.206-.782 0-.167-.006-.293.021-.456.106-.654.359-.999.358-1.661l.02-.215-.089-.054c-.092 0-.146.119-.204.189l-.432.519c-.221.261-.363.402-.512.706-.087.166-.072.285-.142.46-.151.38-.261.606-.387.995-.347 1.046-.323 2.431-1.427 2.429-.726-.002-1.315-.578-1.317-1.303 0-.419.119-1.056.17-1.103.178-.15.035-.55.139-.643.088-.072.12-.44.12-.799l.046-.43.02-.269c0-.302.095-.46.139-.757.089-.602.246-.749.297-.921l.057-.245c.194-.547.149-.871.684-1.322.191-.191.312-.395.582-.395.625.002.797.358.959.343.293-.03.389-.254.597-.458.628-.605 1.032-1.341 1.915-1.339l-.005-.009zm-6.982 3.856c.595 0 1.185.221 1.168.982-.008.451-.243.669-.403 1.087-.133.345-.064.578-.156.936-.143.532-.365.476-.334 1.377.011.675.009 1.057-.014 1.732-.025.649-.56 1.107-1.211 1.116-.564.011-1.144-.66-1.142-1.226 0-.404.114-.621.139-1.025l.016-.901c.035-.597.198-.916.385-1.485.093-.282.087-.465.194-.742.154-.404.199-.632.438-1.023.104-.442.436-.831.92-.828zm-16.235 2.101c.358 0 .613.176.802.485.183.305.339.493.339.849l-.019.159c.004.612-.508 1.094-1.12 1.094-.609-.004-1.055-.629-1.053-1.163l.154-.583c.058-.55.41-.845.897-.843v.002zm4.475 1.65c.627.002.904.518 1.212 1.064.302.53.64.818.64 1.422 0 .608-.396.912-.866 1.3-.266.221-.497.175-.846.28-.16.049-.193.265-.213.458-.037.354-.063.552-.071.902-.015.586.006.918.008 1.502-.061.324-.008.543-.158.83-.243.461-.628.69-1.149.688-.607 0-1.126-.48-1.115-1.088.002-.18.078-.728.069-1.194-.018-.708-.073-1.11-.074-1.819l.158-.902v-.299c-.009-.26.245-.495.51-.706.38-.304.539-.643.717-1.097.294-.75.457-1.34 1.178-1.341zm-4.47 2.805c.306.004.514.113.692.354.289.393.469.684.471 1.17l-.017.267c-.048.398-.176.614-.389.953-.134.215-.138.383-.243.617-.2.428-.318.825-.335 1.166-.021.703-.03 1.1-.014 1.802l.09.894c.004.729-.426 1.472-1.155 1.472-.724.002-1.413-.955-1.376-1.964.016-.363.074-.562.141-.919.108-.558.195-1.19.297-1.433.14-.318.13-.433.155-.531l.084-.577c0-.236.092-.286.131-.519.08-.496.137-.772.297-1.252l.334-.724c.15-.42.394-.779.838-.779l-.001.003z"/><path sketch:type="MSShapeGroup" fill="#52BC0F" d="M746.274 0c-3.816 0-7.453 1.435-9.595 3.724v-2.558l-.371-.373h-7.775l-.373.373-.16 46.529.16.305 8.336-4.993.199-.335-.015-25.82c0-5.889 2.839-9.268 7.784-9.268 5.378 0 7.776 3.081 7.776 9.992v19.877l.376.373h7.775l.373-.373v-20.169c.002-11.307-5.008-17.283-14.49-17.284z"/><g sketch:type="MSLayerGroup"><path sketch:type="MSShapeGroup" fill="#E2E2E2" d="M807 38.434v.569c0 1.655-1.343 2.997-3.002 2.997h-27.995c-1.658 0-3.002-1.348-3.002-2.997v-.573c-1.076-.697-1.702-1.962-1.534-3.394l1.534-13.036h34l1.534 13.036c.17 1.443-.455 2.705-1.535 3.398zm0-32.863v-.574c0-1.649-1.344-2.997-3.002-2.997h-27.995c-1.659 0-3.002 1.342-3.002 2.997v.569c-1.079.694-1.703 1.956-1.534 3.398l1.534 13.036h34l1.534-13.036c.169-1.433-.457-2.696-1.535-3.393z"/><path sketch:type="MSShapeGroup" fill="#E2E2E2" d="M776 2h28c1.657 0 3 1.343 3 3v3c0 1.657-1.343 3-3 3h-28c-1.657 0-3-1.343-3-3v-3c0-1.657 1.343-3 3-3z"/><path sketch:type="MSShapeGroup" fill="#AAA9A8" d="M776 33h28c1.657 0 3 1.344 3 3v3c0 1.656-1.343 3-3 3h-28c-1.657 0-3-1.344-3-3v-3c0-1.656 1.343-3 3-3z"/><path fill="#0D7DC0" d="M771.466 8.964c-.258-2.189 1.315-3.964 3.528-3.964h30.01c2.206 0 3.785 1.787 3.528 3.964l-1.534 13.036h-34l-1.534-13.036h.002z" sketch:type="MSShapeGroup" filter="url(#a)"/><g transform="translate(771 2) translate(0 20)"><path fill="#0AABF4" d="M2 0h34l1.534 13.036c.258 2.189-1.315 3.964-3.528 3.964h-30.01c-2.206 0-3.785-1.787-3.528-3.964l1.534-13.036h-.002z" sketch:type="MSShapeGroup" filter="url(#b)"/><defs><filter id="c" filterUnits="userSpaceOnUse" x="2" y="0" width="37.025" height="17"><feColorMatrix values="1 0 0 0 0 0 1 0 0 0 0 0 1 0 0 0 0 0 1 0"/></filter></defs><mask maskUnits="userSpaceOnUse" x="2" y="0" width="37.025" height="17" id="d"><path d="M2 0h34l1.534 13.036c.258 2.189-1.315 3.964-3.528 3.964h-30.01c-2.206 0-3.785-1.787-3.528-3.964l1.534-13.036h-.002z" fill="none" filter="url(#c)"/></mask><path sketch:type="MSShapeGroup" mask="url(#d)" fill="#099DE1" d="M2 0l17 17h20.025v-17h-37.025z"/></g><path sketch:type="MSShapeGroup" fill="#E8E8E8" d="M781 29c0-3 6-5 9-5s9 2 9 5v3h-18v-3zm9-9c2.209 0 4-1.791 4-4s-1.791-4-4-4-4 1.791-4 4 1.791 4 4 4z"/><g transform="translate(771 2) translate(21 22)" sketch:type="MSShapeGroup"><circle fill="#FD7461" cx="12" cy="12" r="12"/><path fill="#fff" d="M17.657 17.657c1.481-1.48 2.343-3.498 2.343-5.657 0-4.418-3.582-8-8-8v2c3.314 0 6 2.686 6 6 0 1.62-.645 3.132-1.757 4.243l-2.243-2.243v6h6l-2.343-2.343zm-9.9-9.9l2.243 2.243v-6h-6l2.343 2.343c-1.481 1.48-2.343 3.498-2.343 5.657 0 4.418 3.582 8 8 8v-2c-3.314 0-6-2.686-6-6 0-1.62.645-3.132 1.757-4.243z"/></g></g><g sketch:type="MSLayerGroup"><path sketch:type="MSShapeGroup" fill="#0077B5" d="M820 0h40c2.209 0 4 1.791 4 4v40c0 2.209-1.791 4-4 4h-40c-2.209 0-4-1.791-4-4v-40c0-2.209 1.791-4 4-4z"/><path sketch:type="MSShapeGroup" fill="#fff" d="M831.191 39.275v-20.428h-6.79v20.428h6.79zm-3.395-23.217c2.368 0 3.842-1.569 3.842-3.529-.044-2.005-1.474-3.53-3.797-3.53s-3.841 1.525-3.841 3.53c0 1.96 1.473 3.529 3.752 3.529h.044zm7.477 23.217h6.789v-11.407c0-.611.045-1.22.224-1.657.491-1.22 1.607-2.483 3.483-2.483 2.457 0 3.44 1.874 3.44 4.62v10.93h6.789v-11.714c0-6.275-3.35-9.194-7.817-9.194-3.663 0-5.271 2.047-6.165 3.442h.046v-2.963h-6.791c.09 1.917 0 20.428 0 20.428l.002-.002z"/></g></g></svg>