<svg width="306" height="296" viewBox="0 0 306 296" xmlns="http://www.w3.org/2000/svg" xmlns:sketch="http://www.bohemiancoding.com/sketch/ns"><title>illustrations-konnectors</title><desc>Created with Sketch.</desc><defs><filter x="-50%" y="-50%" width="200%" height="200%" filterUnits="objectBoundingBox" id="a"><feOffset dy="1" in="SourceAlpha" result="shadowOffsetOuter1"/><feGaussianBlur stdDeviation="1.5" in="shadowOffsetOuter1" result="shadowBlurOuter1"/><feColorMatrix values="0 0 0 0 0.278349163 0 0 0 0 0.332669457 0 0 0 0 0.431308461 0 0 0 0.084 0" in="shadowBlurOuter1" result="shadowMatrixOuter1"/><feOffset dy="3" in="SourceAlpha" result="shadowOffsetOuter2"/><feGaussianBlur stdDeviation="5" in="shadowOffsetOuter2" result="shadowBlurOuter2"/><feColorMatrix values="0 0 0 0 0.396078431 0 0 0 0 0.466666667 0 0 0 0 0.588235294 0 0 0 0.084 0" in="shadowBlurOuter2" result="shadowMatrixOuter2"/><feMerge><feMergeNode in="shadowMatrixOuter1"/><feMergeNode in="shadowMatrixOuter2"/><feMergeNode in="SourceGraphic"/></feMerge></filter><linearGradient x1="50%" y1="0%" x2="50%" y2="100%" id="b"><stop stop-color="#20A8F1" offset="0%"/><stop stop-color="#62C6ED" offset="100%"/></linearGradient><filter x="-50%" y="-50%" width="200%" height="200%" filterUnits="objectBoundingBox" id="c"><feOffset dy="1" in="SourceAlpha" result="shadowOffsetOuter1"/><feGaussianBlur stdDeviation="1.5" in="shadowOffsetOuter1" result="shadowBlurOuter1"/><feColorMatrix values="0 0 0 0 0 0 0 0 0 0 0 0 0 0 0 0 0 0 0.084 0" in="shadowBlurOuter1" result="shadowMatrixOuter1"/><feMerge><feMergeNode in="shadowMatrixOuter1"/><feMergeNode in="SourceGraphic"/></feMerge></filter><filter x="-50%" y="-50%" width="200%" height="200%" filterUnits="objectBoundingBox" id="d"><feOffset dy="1" in="SourceAlpha" result="shadowOffsetOuter1"/><feGaussianBlur stdDeviation="1.5" in="shadowOffsetOuter1" result="shadowBlurOuter1"/><feColorMatrix values="0 0 0 0 0 0 0 0 0 0 0 0 0 0 0 0 0 0 0.084 0" in="shadowBlurOuter1" result="shadowMatrixOuter1"/><feMerge><feMergeNode in="shadowMatrixOuter1"/><feMergeNode in="SourceGraphic"/></feMerge></filter><filter x="-50%" y="-50%" width="200%" height="200%" filterUnits="objectBoundingBox" id="e"><feOffset dy="1" in="SourceAlpha" result="shadowOffsetOuter1"/><feGaussianBlur stdDeviation="1.5" in="shadowOffsetOuter1" result="shadowBlurOuter1"/><feColorMatrix values="0 0 0 0 0 0 0 0 0 0 0 0 0 0 0 0 0 0 0.084 0" in="shadowBlurOuter1" result="shadowMatrixOuter1"/><feMerge><feMergeNode in="shadowMatrixOuter1"/><feMergeNode in="SourceGraphic"/></feMerge></filter><filter x="-50%" y="-50%" width="200%" height="200%" filterUnits="objectBoundingBox" id="f"><feOffset dy="1" in="SourceAlpha" result="shadowOffsetOuter1"/><feGaussianBlur stdDeviation="1.5" in="shadowOffsetOuter1" result="shadowBlurOuter1"/><feColorMatrix values="0 0 0 0 0 0 0 0 0 0 0 0 0 0 0 0 0 0 0.084 0" in="shadowBlurOuter1" result="shadowMatrixOuter1"/><feMerge><feMergeNode in="shadowMatrixOuter1"/><feMergeNode in="SourceGraphic"/></feMerge></filter><filter x="-50%" y="-50%" width="200%" height="200%" filterUnits="objectBoundingBox" id="g"><feOffset dy="1" in="SourceAlpha" result="shadowOffsetOuter1"/><feGaussianBlur stdDeviation="1.5" in="shadowOffsetOuter1" result="shadowBlurOuter1"/><feColorMatrix values="0 0 0 0 0 0 0 0 0 0 0 0 0 0 0 0 0 0 0.084 0" in="shadowBlurOuter1" result="shadowMatrixOuter1"/><feMerge><feMergeNode in="shadowMatrixOuter1"/><feMergeNode in="SourceGraphic"/></feMerge></filter><filter x="-50%" y="-50%" width="200%" height="200%" filterUnits="objectBoundingBox" id="h"><feOffset dy="1" in="SourceAlpha" result="shadowOffsetOuter1"/><feGaussianBlur stdDeviation="1.5" in="shadowOffsetOuter1" result="shadowBlurOuter1"/><feColorMatrix values="0 0 0 0 0 0 0 0 0 0 0 0 0 0 0 0 0 0 0.084 0" in="shadowBlurOuter1" result="shadowMatrixOuter1"/><feMerge><feMergeNode in="shadowMatrixOuter1"/><feMergeNode in="SourceGraphic"/></feMerge></filter><filter x="-50%" y="-50%" width="200%" height="200%" filterUnits="objectBoundingBox" id="i"><feOffset dy="1" in="SourceAlpha" result="shadowOffsetOuter1"/><feGaussianBlur stdDeviation="1.5" in="shadowOffsetOuter1" result="shadowBlurOuter1"/><feColorMatrix values="0 0 0 0 0 0 0 0 0 0 0 0 0 0 0 0 0 0 0.084 0" in="shadowBlurOuter1" result="shadowMatrixOuter1"/><feMerge><feMergeNode in="shadowMatrixOuter1"/><feMergeNode in="SourceGraphic"/></feMerge></filter></defs><g sketch:type="MSPage" fill="none"><circle id="Oval-10" opacity=".498" fill="#E9F1F8" sketch:type="MSShapeGroup" cx="153" cy="141" r="109"/><circle id="Oval-10" opacity=".752" fill="#E4F1FC" sketch:type="MSShapeGroup" cx="153" cy="141" r="82"/><circle fill="#DEEEFC" sketch:type="MSShapeGroup" cx="153" cy="141" r="66"/><g sketch:type="MSLayerGroup"><g transform="translate(4 3) translate(94 83)" sketch:type="MSShapeGroup"><circle fill="#fff" filter="url(#a)" cx="55" cy="55" r="55"/><path d="M69.113 76h-28.225c-8.762 0-15.887-7.181-15.887-16.007 0-4.209 1.608-8.185 4.531-11.194 2.56-2.633 5.877-4.272 9.464-4.698.424-3.615 2.049-6.957 4.664-9.536 2.986-2.946 6.932-4.564 11.11-4.564 4.177 0 8.124 1.618 11.11 4.563 2.605 2.568 4.225 5.892 4.66 9.487 8.094.731 14.46 7.602 14.46 15.943 0 8.826-7.13 16.006-15.889 16.006h.001zm.054-3.001h.122c7.01 0 12.712-5.777 12.712-12.879 0-7.1-5.702-12.878-12.712-12.878h-.128c-.915 0-1.665-.738-1.686-1.667-.158-6.936-5.858-12.575-12.707-12.575-6.849 0-12.551 5.642-12.708 12.577-.021.912-.746 1.648-1.648 1.669-6.844.16-12.413 5.935-12.413 12.875 0 7.102 5.702 12.879 12.712 12.879h.103l.04-.002.109.002h28.199l.004-.001zm-6.249-13.965c-1.002-.658-1.051-1.867-1.054-1.92-.007-.329-.274-.587-.6-.582-.326.006-.586.278-.58.604.002.043.019.611.288 1.28-3.567 3.401-9.173 3.406-12.747.021.276-.679.294-1.256.294-1.3.006-.326-.252-.595-.576-.604-.32-.01-.593.254-.604.58 0 .048-.048 1.262-1.053 1.92-.274.181-.35.55-.172.824.113.174.3.269.495.269.11 0 .222-.031.322-.097.258-.169.474-.362.655-.568 1.985 1.8 4.494 2.699 7.003 2.699 2.515 0 5.029-.903 7.018-2.712.182.208.401.406.666.58.098.065.211.097.322.097.192 0 .38-.097.495-.271.178-.275.101-.645-.172-.824v.002z" fill="url(#b)"/></g><g transform="translate(4 3) translate(61)" sketch:type="MSShapeGroup"><circle id="Oval-25-Copy" fill="#F3F3F3" filter="url(#c)" cx="36" cy="36" r="36"/><g transform="translate(12 16)"><path d="M28.571 38.881c3.283 2.297 9.778-1.457 14.505-8.396 4.729-6.939 5.901-14.419 2.619-16.716-3.284-2.297-9.614 1.264-14.341 8.204-4.729 6.938-6.064 14.609-2.782 16.907z" id="Shape" fill="#EA5B0F"/><path d="M19.852 38.881c-3.283 2.297-9.778-1.457-14.505-8.396-4.729-6.939-5.901-14.419-2.619-16.716 3.284-2.297 9.614 1.264 14.342 8.204 4.73 6.938 6.063 14.609 2.781 16.907z" id="Shape" fill="#0055A4"/><ellipse fill="#009DCC" cx="24.213" cy="7.754" rx="15.083" ry="7.309"/></g></g><g transform="translate(4 3) translate(167)" sketch:type="MSShapeGroup"><circle id="Oval-25-Copy" fill="#C70119" filter="url(#d)" cx="36" cy="36" r="36"/><path d="M22.778 32.741l-.436.767h-3.956l-6.061 11.446-2.215.337-.109-.112 5.591-11.671h-3.266l.398-.767h3.195c1.162-2.079 2.105-3.634 5.445-5.133.98-.449 2.505-.899 3.885-.899.726 0 1.488.15 1.488.6 0 .262-.363.899-1.017.899-.689 0-1.451-.375-2.286-.375-2.215 0-2.869 1.274-3.376 2.342l-1.27 2.566h3.993zm.428 1.303c.907-.694 3.703-2.511 5.481-2.511.907 0 1.489.207 1.489.713 0 .206-.146.561-.364.974l-1.38 2.566h.073c.98-.955 4.392-4.253 6.679-4.253.762 0 1.125.225 1.125.638 0 .431-.399 1.386-1.524 1.386l-1.343-.075c-2.505 0-5.082 3.635-6.28 5.545l-.654 1.199c-.073.131-.653.149-1.307.149-.472 0-1.161-.169-1.161-.337l.072-.168 2.868-5.17c.182-.3.436-.824.436-1.105 0-.206-.218-.487-.69-.487-.981 0-2.468.88-3.049 1.255l-.472-.318zm23.681 3.654c-2.396 1.367-5.047 2.435-8.24 2.435-3.34 0-4.466-1.273-4.466-2.528 0-2.998 5.191-6.313 10.454-6.313 1.634 0 3.558.3 3.558 1.33 0 2.548-6.933 3.428-10.818 3.615-.218.487-.29.955-.29 1.443 0 .937 1.27 1.443 2.975 1.443 2.106 0 4.249-.712 6.317-1.742l.508.318zm-1.597-5.002c0-.487-.545-.806-1.489-.806-2.795 0-5.662 2.623-6.244 3.859 3.34-.113 7.733-1.011 7.733-3.053zm15.405 5.002c-2.396 1.367-5.045 2.435-8.241 2.435-3.339 0-4.465-1.273-4.465-2.528 0-2.998 5.192-6.313 10.455-6.313 1.633 0 3.556.3 3.556 1.33 0 2.548-6.932 3.428-10.816 3.615-.218.487-.292.955-.292 1.443 0 .937 1.271 1.443 2.977 1.443 2.104 0 4.247-.712 6.316-1.742l.508.318zm-1.598-5.002c0-.487-.544-.806-1.488-.806-2.795 0-5.663 2.623-6.243 3.859 3.339-.113 7.731-1.011 7.731-3.053" id="Shape" fill="#fff"/></g><g transform="translate(4 3) translate(0 79)" sketch:type="MSShapeGroup"><circle id="Oval-25-Copy" fill="#fff" filter="url(#e)" cx="36" cy="36" r="36"/><path d="M35.997 0c-19.877 0-35.997 16.118-35.997 36.001 0 15.905 10.314 29.398 24.62 34.158 1.801.332 2.458-.78 2.458-1.735 0-.853-.031-3.118-.049-6.122-10.014 2.175-12.126-4.827-12.126-4.827-1.638-4.159-3.998-5.266-3.998-5.266-3.269-2.232.248-2.188.248-2.188 3.613.254 5.514 3.711 5.514 3.711 3.211 5.501 8.427 3.912 10.478 2.99.327-2.325 1.257-3.912 2.285-4.811-7.994-.908-16.398-3.998-16.398-17.793 0-3.929 1.403-7.145 3.706-9.66-.371-.911-1.607-4.573.354-9.527 0 0 3.021-.968 9.899 3.691 2.871-.8 5.952-1.198 9.012-1.213 3.059.015 6.137.413 9.012 1.213 6.873-4.659 9.89-3.691 9.89-3.691 1.965 4.955.729 8.617.36 9.527 2.307 2.515 3.7 5.731 3.7 9.66 0 13.83-8.418 16.873-16.436 17.764 1.291 1.112 2.442 3.308 2.442 6.668 0 4.811-.044 8.694-.044 9.874 0 .964.65 2.084 2.475 1.733 14.294-4.771 24.6-18.255 24.6-34.156 0-19.883-16.12-36.001-36.003-36.001" fill="#161614"/></g><g transform="translate(4 3) translate(203 172)" sketch:type="MSShapeGroup"><circle id="Oval-25-Copy" fill="#1A1919" filter="url(#f)" cx="36" cy="36" r="36"/><path d="M37.657 12h5.418v32.814c0 5.828-2.593 9.799-14.86 15.186l-.215-1.765c9.083-5.883 9.657-6.95 9.657-12.699v-33.536z" fill="#fff"/></g><g transform="translate(4 3) translate(113 217)" sketch:type="MSShapeGroup"><circle id="Oval-25-Copy" fill="#C23C2F" filter="url(#g)" cx="36" cy="36" r="36"/><path d="M57.244 25.159h-10.404v-10.404c0-1.522-1.234-2.755-2.756-2.755h-16.169c-1.522 0-2.756 1.233-2.756 2.755v10.404h-10.404c-1.522 0-2.755 1.233-2.755 2.756v16.169c0 1.522 1.234 2.756 2.755 2.756h10.404v10.404c0 1.522 1.234 2.755 2.756 2.755h16.169c1.522 0 2.756-1.234 2.756-2.755v-10.404h10.404c1.522 0 2.756-1.234 2.756-2.756v-16.169c0-1.523-1.234-2.756-2.756-2.756zm-29.353 32.84c-.381 0-.691-.31-.691-.691v-12.508h-12.509c-.381 0-.691-.31-.691-.692v-16.217c0-.381.31-.691.691-.691h12.509v-12.509c0-.381.31-.691.691-.691h16.219c.381 0 .691.31.691.691v12.509h12.508c.381 0 .691.31.691.691v16.218c0 .381-.31.692-.691.692h-12.508v12.508c0 .381-.31.691-.691.691h-16.219v-.001zm11.42-36.95l-3.542-5.274-3.541 5.274 2.19-.452v12.596c-.873.506-1.46 1.447-1.46 2.527 0 1.614 1.308 2.921 2.92 2.921 1.613 0 2.92-1.308 2.92-2.921 0-1.145-.661-2.135-1.622-2.613v-12.497l2.136.44zm13.714 14.613l-4.057-2.724.277 1.345h-9.44v2.759h9.44l-.277 1.346 4.057-2.725z" fill="#fff"/></g><g transform="translate(4 3) translate(23 172)" sketch:type="MSShapeGroup"><circle id="Oval-25-Copy" fill="#54ACEE" filter="url(#h)" cx="36" cy="36" r="36"/><path d="M57 23.111c-1.544.698-3.206 1.169-4.949 1.38 1.78-1.084 3.145-2.802 3.789-4.851-1.665 1.005-3.508 1.735-5.472 2.129-1.571-1.704-3.811-2.769-6.289-2.769-4.758 0-8.616 3.926-8.616 8.768 0 .686.076 1.355.223 1.998-7.162-.366-13.511-3.856-17.762-9.161-.742 1.294-1.166 2.8-1.166 4.409 0 3.042 1.521 5.726 3.833 7.298-1.412-.046-2.741-.441-3.903-1.097l-.001.111c0 4.247 2.97 7.79 6.913 8.597-.723.2-1.484.307-2.27.307-.556 0-1.096-.055-1.622-.158 1.097 3.483 4.279 6.019 8.049 6.089-2.949 2.352-6.664 3.754-10.701 3.754-.695 0-1.381-.042-2.056-.123 3.814 2.489 8.343 3.939 13.209 3.939 15.85 0 24.516-13.36 24.516-24.947 0-.38-.008-.759-.024-1.136 1.683-1.234 3.144-2.779 4.299-4.537z" fill="#fff"/></g><g transform="translate(4 3) translate(226 79)" sketch:type="MSShapeGroup"><circle fill="#0D9EE3" filter="url(#i)" cx="36" cy="36" r="36"/><path d="M20.197 31.84c0-2.378-1.835-4.306-4.099-4.306-2.263 0-4.098 1.928-4.098 4.306 0 3.023 4.098 5.535 4.098 5.535s4.099-2.666 4.099-5.535zm3.917 5.535s-4.848 2.553-4.848 6.064c0 2.813 2.17 5.093 4.848 5.093 2.677 0 4.848-2.281 4.848-5.093 0-3.59-4.848-6.064-4.848-6.064zm14.219-7.446c0-3.434-2.65-6.218-5.918-6.218-3.268 0-5.917 2.784-5.917 6.218 0 4.243 5.917 7.446 5.917 7.446s5.918-3.203 5.918-7.446zm3.917 7.446s-6.549 2.859-6.549 7.745c0 3.8 2.931 6.88 6.549 6.88 3.617 0 6.55-3.081 6.55-6.88 0-4.809-6.55-7.745-6.55-7.745zm17.75-9.302c0-4.459-3.44-8.073-7.684-8.073-4.243 0-7.684 3.614-7.684 8.073 0 5.485 7.684 9.302 7.684 9.302s7.684-3.663 7.684-9.302z" fill="#fff"/></g></g></g></svg>