<svg width="1824" height="48" viewBox="0 0 1824 48" xmlns="http://www.w3.org/2000/svg" xmlns:xlink="http://www.w3.org/1999/xlink"><title>konnectors-services-sprite</title><defs><path d="M36 36.434v.57C36 38.657 34.657 40 32.998 40H5.002C3.344 40 2 38.653 2 37.003v-.574C.924 35.73.298 34.467.466 33.035L2 20h34l1.534 13.036c.17 1.442-.455 2.704-1.534 3.398zM36 3.57v-.573C36 1.347 34.656 0 32.998 0H5.002C3.342 0 2 1.342 2 2.997v.57C.92 4.26.297 5.52.466 6.963L2 20h34l1.534-13.036c.168-1.432-.458-2.696-1.534-3.393z" id="b"/><filter x="-50%" y="-50%" width="200%" height="200%" filterUnits="objectBoundingBox" id="a"><feOffset dy="1" in="SourceAlpha" result="shadowOffsetOuter1"/><feGaussianBlur stdDeviation="1" in="shadowOffsetOuter1" result="shadowBlurOuter1"/><feColorMatrix values="0 0 0 0 0 0 0 0 0 0 0 0 0 0 0 0 0 0 0.281051857 0" in="shadowBlurOuter1"/></filter><path d="M.466 6.964C.21 4.774 1.782 3 3.996 3h30.01c2.205 0 3.784 1.787 3.528 3.964L36 20H2L.466 6.964z" id="d"/><filter x="-50%" y="-50%" width="200%" height="200%" filterUnits="objectBoundingBox" id="c"><feOffset dy="-.5" in="SourceAlpha" result="shadowOffsetOuter1"/><feColorMatrix values="0 0 0 0 0.031372549 0 0 0 0 0.403921569 0 0 0 0 0.623529412 0 0 0 1 0" in="shadowOffsetOuter1"/></filter><path d="M2 0h34l1.534 13.036c.257 2.19-1.316 3.964-3.53 3.964H3.995C1.79 17 .21 15.213.467 13.036L2 0z" id="e"/><filter x="-50%" y="-50%" width="200%" height="200%" filterUnits="objectBoundingBox" id="f"><feOffset dy=".5" in="SourceAlpha" result="shadowOffsetOuter1"/><feColorMatrix values="0 0 0 0 0.105882353 0 0 0 0 0.533333333 0 0 0 0 0.725490196 0 0 0 1 0" in="shadowOffsetOuter1"/></filter><path d="M17.657 17.657C19.137 16.177 20 14.16 20 12c0-4.418-3.582-8-8-8v2c3.314 0 6 2.686 6 6 0 1.62-.645 3.132-1.757 4.243L14 14v6h6l-2.343-2.343zm-9.9-9.9L10 10V4H4l2.343 2.343C4.863 7.823 4 9.84 4 12c0 4.418 3.582 8 8 8v-2c-3.314 0-6-2.686-6-6 0-1.62.645-3.132 1.757-4.243z" id="i"/><filter x="-50%" y="-50%" width="200%" height="200%" filterUnits="objectBoundingBox" id="h"><feOffset dy="1" in="SourceAlpha" result="shadowOffsetOuter1"/><feGaussianBlur stdDeviation="1" in="shadowOffsetOuter1" result="shadowBlurOuter1"/><feColorMatrix values="0 0 0 0 0.983710672 0 0 0 0 0.219089168 0 0 0 0 0.11304677 0 0 0 1 0" in="shadowBlurOuter1"/></filter><linearGradient x1="0%" y1="59.986%" y2="59.986%" id="j"><stop stop-color="#961D71" offset="0%"/><stop stop-color="#B10169" offset="19.448%"/><stop stop-color="#BF0251" offset="45.366%"/><stop stop-color="#CA013E" offset="72.559%"/><stop stop-color="#F1001D" offset="100%"/></linearGradient><linearGradient x1="50%" y1="0%" x2="50%" y2="100%" id="k"><stop stop-color="#FFE900" offset="0%"/><stop stop-color="#FFD600" offset="100%"/></linearGradient><radialGradient cx="67.07%" cy="33.787%" fx="67.07%" fy="33.787%" r="87.974%" id="l"><stop stop-color="#F10001" offset="0%"/><stop stop-color="#E00000" offset="42.483%"/><stop stop-color="#9E0017" offset="100%"/></radialGradient></defs><g fill="none" fill-rule="evenodd"><path d="M624 15.143c0-.552.448-1 .995-1h1.048c.55 0 .995.448.995 1V31.98c0 .552-.448 1-.995 1h-1.048c-.55 0-.995-.448-.995-1V15.143zm14.63-.26c-.903-.645-1.937-1.043-3.086-1.043-2.75 0-5.164 2.28-5.164 5.165 0 3.053 1.614 5.164 4.557 5.164 1.796 0 3.038.97 3.038 2.733 0 1.93-1.165 3.038-2.734 3.038-.527 0-1.095-.256-1.654-.716-.216-.177-.07-.06-.07-.06-.378-.394-1.05-.453-1.494-.135l-.854.608c-.447.32-.518.922-.147 1.328 0 0 .035.11.635.603 1.055.87 2.252 1.41 3.586 1.41 3.216 0 5.773-2.436 5.773-6.077 0-3.626-2.742-5.772-6.076-5.772-1.06 0-1.52-.6-1.52-2.125 0-1.167 1.017-2.127 2.127-2.127.446 0 .894.172 1.32.477.272.194 0 0 0 0 .294.26.882.192 1.31-.15l.818-.655c.43-.343.464-.944.062-1.324 0 0 .1.032-.424-.344zm4.813.26c0-.552.438-1 1.004-1h9.536c.555 0 1.004.446 1.004 1.006v1.008c0 .555-.457 1.005-1.01 1.005h-6.487c-.557 0-1.01.45-1.01 1v2.88c0 .552.457 1 1 1h5.294c.55 0 .998.448.998.994v1.05c0 .548-.456.993-.998.993h-5.294c-.552 0-1 .45-1 1.008v2.846c0 .556.458 1.007 1.01 1.007h6.488c.558 0 1.01.45 1.01.996v1.048c0 .55-.44.995-1.005.995h-9.536c-.554 0-1.004-.448-1.004-1V15.143zm14.582 0c0-.552.446-1 1.003-1h.425c.554 0 1.267.36 1.6.813l7.31 9.92c.33.45.6.374.6-.192v-9.536c0-.555.447-1.004.994-1.004h1.048c.55 0 .995.447.995 1V31.98c0 .552-.446 1-1.003 1h-.425c-.554 0-1.257-.365-1.574-.82l-7.363-10.547c-.316-.452-.572-.37-.572.18v10.19c0 .55-.448.996-.994.996h-1.05c-.55 0-.995-.448-.995-1V15.143z" fill="#E21910"/><g fill="#0054A5"><path d="M576.02 15.62h4.61v1.232h-3.04v1.93h2.785v1.225h-2.786v2.195h3.062v1.228h-4.633v-7.81M581.676 15.04h1.502v8.39h-1.502zM594.5 23.364c-.367.13-.9.202-1.506.205-1.89.008-2.846-1.29-2.846-3.05 0-1.663.987-2.977 2.788-2.988.654 0 1 .05 1.43.15l-.13 1.13c-.382-.12-.695-.18-1.2-.16-.91.038-1.307.813-1.316 1.87-.01 1.063.5 1.844 1.555 1.885.517.017 1.046-.15 1.358-.33l-.132 1.287M599.144 23.43c-.266.067-.733.14-1.11.14-1.174 0-1.822-.727-1.822-1.873v-2.84h-1.14l.12-1.187h1.02v-1.628l1.498-.006v1.634h1.335l-.124 1.187h-1.21v2.594c0 .497.137.953.712.953.266 0 .69-.1.847-.2l-.126 1.227M611.29 20.54c0-.812.38-1.84 1.34-1.84.977 0 1.244 1.063 1.244 1.84 0 .79-.277 1.863-1.267 1.863-.994 0-1.317-1.047-1.317-1.864zm-1.51 2.89h1.45v-.702h.025c.44.615 1.13.84 1.772.84 1.77 0 2.412-1.455 2.412-3.03 0-1.593-.643-3.006-2.413-3.006-.787 0-1.31.328-1.73.876h-.022v-3.37h-1.495v8.392zM622.372 15.04h1.494v8.39h-1.494zM585.463 19.99c.063-.778.492-1.356 1.328-1.356.844 0 1.172.627 1.22 1.355h-2.547zm3.75 1.802c-.608.435-1.377.68-2.106.68-.93 0-1.58-.525-1.644-1.456h3.984c0-2.013-.608-3.484-2.742-3.484-1.796 0-2.677 1.38-2.677 3.052 0 1.888 1.113 2.94 3.01 2.985.845.017 1.534-.232 2.034-.504l.14-1.274zM617.557 19.99c.064-.778.49-1.356 1.33-1.356.837 0 1.178.627 1.22 1.355h-2.55zm3.752 1.802c-.615.435-1.38.68-2.107.68-.926 0-1.582-.525-1.646-1.456h3.982c0-2.013-.606-3.484-2.745-3.484-1.79 0-2.675 1.38-2.675 3.052 0 1.888 1.11 2.94 3.01 2.985.85.017 1.533-.232 2.03-.504l.15-1.274zM605.044 21.768c0-.886.995-.997 1.662-.997h.65c0 .45-.065.863-.312 1.185-.235.315-.593.517-1.053.517-.537 0-.946-.212-.946-.704zm-.725-2.706c.51-.223 1.098-.404 1.732-.435.82-.043 1.304.318 1.304 1.246h-.827c-.63 0-1.368.06-1.935.336-.575.276-.988.785-.988 1.646 0 1.097.995 1.713 2.016 1.713.683 0 1.435-.36 1.78-1h.022c.01.18.01.562.068.86h1.313c-.026-.444-.047-.847-.058-1.28-.014-.43-.027-.868-.027-1.45v-.735c0-1.7-.762-2.447-2.417-2.454-.638 0-1.236.086-1.832.255l-.15 1.297zM600.112 17.67h1.334v1.307h.025c.176-.797.733-1.292 1.46-1.418.198-.038.51 0 .71.08 0 0-.142 1.2-.163 1.39-.29-.11-.858-.127-1.115.013-.656.36-.75 1.443-.75 2.277v2.11h-1.5v-5.76"/></g><path d="M590.884 28.027c-.34.053-.478.02-.505-.108-.026-.112.017-.232.404-.326 1.726-.417 6.232-.184 6.347 1.3.04.522-.694 1.002-2.763 1.343-.88.146-3.044.186-3.025-.523l.05-.976c.006-.115.11-.248.315-.24.154.004.3.077.31.34.013.327.04.618.04.618 0 .103.063.3.567.35 1.292.13 3.154-.312 3.16-.89.007-.943-2.93-1.08-4.9-.89M590.384 28.987c-.003-.09-.118-.224-.256-.243-.523-.07-1.538-.028-1.89-.01-.354.018-.325.384 0 .41.214.02 1.18.076 1.18.076.08 0 .148.044.148.117 0 .185-.468.5-1.57.5-.774 0-1.283-.37-1.283-.924 0-.775 1.045-1.185 2.468-.97.184.027.38-.1.374-.23-.013-.275-.878-.302-1.247-.302-1.62 0-2.51.61-2.51 1.503 0 .837.717 1.398 2.08 1.4 1.814 0 2.53-.754 2.507-1.326M602.362 27.646c-.01-.12-.167-.166-.337-.178-.68-.046-2.568-.166-3.535.284-.513.24-.74.583-.82.947-.103.468-.104 1.23.088 1.432.22.23.766.07.76-.15-.005-.168-.032-.427-.032-.427-.02-.473.833-.302 1.87-.42.297-.012.357-.44-.032-.427l-1.54.043c-.037.002-.05-.03-.05-.046.063-.95 3.324-.85 3.406-.858.167-.015.23-.114.222-.2M609.288 27.674c-.04-.084-.11-.13-.22-.13-.174 0-.26.13-.26.25 0 .128.25.724.712 1.288.38.465 1.148 1.126 2.177 1.126 1.215 0 2.502-.768 3.823-2.264.055-.064.108-.128.108-.203 0-.11-.096-.197-.227-.197-.068 0-.117.036-.224.13-1.148 1.052-2.332 1.637-3.292 1.637-.99 0-1.994-.627-2.596-1.636M621.1 29.3l2.326-1.117c.12-.052.188-.185.188-.325 0-.184-.146-.348-.36-.348h-2.817c-.12 0-.195.1-.195.21 0 .13.076.202.184.214l1.552.186c.13.01.15.087.15.143 0 .03-.02.094-.085.127l-1.743.788c-.238.11-.358.262-.358.475 0 .264.226.522.495.522h3.29c.14 0 .236-.097.236-.215 0-.13-.095-.21-.204-.22l-2.63-.214c-.073-.01-.126-.043-.126-.107 0-.054.02-.088.097-.12M618.11 29.852c-.75 0-1.534-.252-1.534-1.027 0-.553.407-.924 1.028-.924.88 0 1.255.316 1.255.5 0 .075-.055.118-.118.118l-1.244.075c-.12.01-.204.09-.204.213 0 .114.085.2.204.2l1.296.054c.375.01.604-.26.604-.553 0-.734-1-1.082-1.89-1.082-1.092 0-1.812.563-1.812 1.4 0 .893.857 1.504 2.155 1.504.86 0 1.417-.167 1.568-.252.053-.033.16-.075.16-.194 0-.118-.095-.198-.225-.198-.137 0-.644.166-1.243.166M607.355 29.538c-.296.08-1.025.085-1.254.085-1.093 0-1.79-.064-1.882-.064-.164 0-.24.106-.24.206 0 .142.154.195.322.226.155.033 1.345.204 2.822.204.605 0 1.133-.047 1.544-.128.18-.035.28-.15.304-.28.023-.134-.036-.253-.193-.38-.162-.132-1.46-.854-1.654-.973-.268-.164-.213-.44.02-.46.16-.013.844-.06 1.012-.074.14-.01.21-.106.21-.197 0-.137-.14-.182-.25-.193-.337-.042-.856-.075-1.2-.075-.426 0-.934.055-1.116.108-.14.04-.206.138-.212.23-.006.11.07.214.142.28.248.22 1.584.95 1.746 1.054.163.104.165.353-.12.43" fill="#00ADEE"/><path d="M585.78 31.632c5.406 1.445 11.995 2.294 19.105 2.294 7.11 0 13.7-.85 19.105-2.294h-38.21" fill="#FFF"/><path d="M585.81 31.632c5.397 1.44 11.976 2.288 19.075 2.288 7.1 0 13.678-.847 19.077-2.288H585.81" fill="#FCFDFF"/><path d="M585.837 31.632c5.392 1.438 11.96 2.282 19.048 2.282 7.088 0 13.656-.844 19.05-2.282h-38.098" fill="#FAFDFF"/><path d="M585.865 31.632c5.386 1.435 11.944 2.277 19.02 2.277 7.076 0 13.635-.843 19.02-2.278h-38.04" fill="#F9FCFF"/><path d="M585.893 31.632c5.38 1.43 11.928 2.27 18.992 2.27 7.065 0 13.613-.84 18.992-2.27h-37.984" fill="#F7FBFF"/><path d="M585.92 31.632c5.374 1.428 11.912 2.266 18.965 2.266 7.054 0 13.59-.838 18.963-2.266H585.92" fill="#F6FBFD"/><path d="M585.95 31.632c5.366 1.424 11.894 2.26 18.935 2.26 7.042 0 13.57-.836 18.936-2.26h-37.87" fill="#F5FBFD"/><path d="M585.978 31.632c5.36 1.42 11.877 2.254 18.907 2.254 7.03 0 13.548-.833 18.907-2.254h-37.814" fill="#F4FAFD"/><path d="M586.006 31.632c5.353 1.418 11.86 2.25 18.88 2.25 7.018 0 13.525-.832 18.878-2.25h-37.758" fill="#F3FAFD"/><path d="M586.035 31.632c5.346 1.414 11.843 2.244 18.85 2.244 7.007 0 13.505-.83 18.85-2.244h-37.7" fill="#F2F9FD"/><path d="M586.062 31.632c5.34 1.41 11.828 2.238 18.823 2.238 6.995 0 13.483-.827 18.823-2.238h-37.646" fill="#F1F9FD"/><path d="M586.09 31.632c5.334 1.407 11.81 2.232 18.795 2.232 6.984 0 13.46-.825 18.795-2.232h-37.59" fill="#EFF8FD"/><path d="M586.12 31.632c5.326 1.404 11.793 2.227 18.765 2.227 6.972 0 13.44-.824 18.766-2.228h-37.53" fill="#EEF8FD"/><path d="M586.147 31.632c5.32 1.4 11.777 2.22 18.738 2.22 6.96 0 13.418-.82 18.738-2.22h-37.476" fill="#EDF8FD"/><path d="M586.176 31.632c5.313 1.397 11.76 2.215 18.71 2.215 6.95 0 13.395-.818 18.71-2.215h-37.42" fill="#ECF7FD"/><path d="M586.204 31.632c5.307 1.394 11.743 2.21 18.68 2.21 6.94 0 13.376-.816 18.683-2.21h-37.363" fill="#EBF7FD"/><path d="M586.232 31.632c5.3 1.39 11.727 2.205 18.653 2.205 6.927 0 13.353-.815 18.654-2.205H586.23" fill="#EAF6FD"/><path d="M586.26 31.632c5.294 1.386 11.71 2.198 18.625 2.198 6.915 0 13.33-.812 18.625-2.198h-37.25" fill="#E9F6FD"/><path d="M586.288 31.632c5.288 1.383 11.694 2.193 18.597 2.193 6.904 0 13.31-.81 18.598-2.193h-37.195" fill="#E8F6FD"/><path d="M586.317 31.632c5.28 1.38 11.676 2.188 18.568 2.188 6.892 0 13.288-.808 18.57-2.188h-37.138" fill="#E7F5FD"/><path d="M586.345 31.632c5.274 1.376 11.66 2.182 18.54 2.182 6.88 0 13.266-.806 18.54-2.182h-37.08" fill="#E6F5FC"/><path d="M586.373 31.632c5.268 1.373 11.644 2.176 18.512 2.176 6.87 0 13.245-.803 18.512-2.176h-37.024" fill="#E5F5FC"/><path d="M586.4 31.632c5.263 1.37 11.628 2.17 18.485 2.17 6.857 0 13.223-.8 18.484-2.17H586.4" fill="#E4F4FC"/><path d="M586.43 31.632c5.254 1.366 11.61 2.165 18.455 2.165 6.846 0 13.2-.8 18.456-2.165h-36.91" fill="#E3F4FC"/><path d="M586.458 31.632c5.25 1.363 11.593 2.16 18.427 2.16s13.18-.797 18.428-2.16h-36.855" fill="#E2F3FC"/><path d="M586.486 31.632c5.242 1.36 11.576 2.154 18.4 2.154 6.822 0 13.157-.795 18.398-2.154h-36.798" fill="#E1F3FC"/><path d="M586.514 31.632c5.235 1.356 11.56 2.148 18.37 2.148 6.813 0 13.137-.792 18.373-2.148h-36.743" fill="#E0F3FC"/><path d="M586.543 31.632c5.228 1.352 11.543 2.143 18.342 2.143 6.8 0 13.114-.79 18.343-2.143h-36.685" fill="#DFF2FC"/><path d="M586.57 31.632c5.223 1.35 11.527 2.138 18.315 2.138 6.788 0 13.093-.79 18.315-2.138h-36.63" fill="#DEF2FC"/><path d="M586.6 31.632c5.214 1.345 11.51 2.132 18.285 2.132 6.777 0 13.07-.787 18.287-2.132H586.6" fill="#DDF1FC"/><path d="M586.627 31.632c5.21 1.342 11.493 2.127 18.258 2.127 6.765 0 13.05-.786 18.258-2.128h-36.516" fill="#DCF1FC"/><path d="M586.655 31.632c5.203 1.338 11.477 2.12 18.23 2.12 6.754 0 13.028-.782 18.23-2.12h-36.46" fill="#DBF1FC"/><path d="M586.684 31.632c5.195 1.335 11.46 2.115 18.2 2.115 6.744 0 13.007-.78 18.203-2.115h-36.403" fill="#DAF0FC"/><path d="M586.71 31.632c5.19 1.332 11.444 2.11 18.175 2.11 6.73 0 12.984-.778 18.174-2.11h-36.35" fill="#D9F0FC"/><path d="M586.74 31.632c5.183 1.328 11.426 2.104 18.145 2.104 6.72 0 12.962-.776 18.146-2.104h-36.29" fill="#D8EFFC"/><path d="M586.768 31.632c5.176 1.325 11.41 2.1 18.117 2.1 6.708 0 12.94-.775 18.117-2.1h-36.234" fill="#D6EFFB"/><path d="M586.796 31.632c5.17 1.32 11.393 2.092 18.09 2.092 6.695 0 12.918-.77 18.088-2.092h-36.178" fill="#D5EFFB"/><path d="M586.824 31.632c5.164 1.318 11.377 2.087 18.06 2.087 6.686 0 12.9-.77 18.062-2.088h-36.122" fill="#D4EEFB"/><path d="M586.853 31.632c5.157 1.314 11.36 2.082 18.032 2.082 6.673 0 12.876-.768 18.033-2.082h-36.065" fill="#D3EEFB"/><path d="M586.88 31.632c5.15 1.31 11.344 2.076 18.005 2.076 6.662 0 12.854-.765 18.005-2.076h-36.01" fill="#D2EEFB"/><path d="M586.91 31.632c5.143 1.308 11.325 2.07 17.975 2.07 6.65 0 12.833-.762 17.976-2.07h-35.95" fill="#D1EDFB"/><path d="M586.937 31.632c5.137 1.305 11.31 2.065 17.948 2.065 6.64 0 12.81-.76 17.948-2.065h-35.896" fill="#D0EDFB"/><path d="M586.966 31.632c5.13 1.3 11.292 2.06 17.92 2.06 6.626 0 12.788-.76 17.92-2.06h-35.84" fill="#CFECFB"/><path d="M586.994 31.632c5.124 1.297 11.276 2.054 17.89 2.054 6.617 0 12.77-.757 17.893-2.054h-35.783" fill="#CEECFB"/><path d="M587.022 31.632c5.117 1.294 11.26 2.048 17.863 2.048 6.604 0 12.746-.754 17.863-2.048h-35.726" fill="#CDECFB"/><path d="M587.05 31.632c5.11 1.29 11.243 2.042 17.835 2.042 6.593 0 12.724-.75 17.836-2.042h-35.67" fill="#CCEBFB"/><path d="M587.08 31.632c5.103 1.287 11.224 2.037 17.805 2.037 6.58 0 12.703-.75 17.807-2.038H587.08" fill="#CBEBFB"/><path d="M587.107 31.632c5.098 1.283 11.21 2.032 17.778 2.032 6.57 0 12.68-.75 17.78-2.032h-35.558" fill="#CAEBFB"/><path d="M587.135 31.632c5.09 1.28 11.192 2.026 17.75 2.026s12.66-.746 17.75-2.026h-35.5" fill="#C9EAFB"/><path d="M587.163 31.632c5.085 1.277 11.176 2.02 17.722 2.02 6.547 0 12.637-.743 17.722-2.02h-35.444" fill="#C8EAFB"/><path d="M587.19 31.632c5.08 1.274 11.16 2.015 17.695 2.015s12.616-.74 17.694-2.015h-35.39" fill="#C7E9FA"/><path d="M587.22 31.632c5.07 1.27 11.142 2.01 17.665 2.01 6.524 0 12.594-.74 17.666-2.01h-35.33" fill="#C6E9FA"/><path d="M587.248 31.632c5.065 1.266 11.126 2.004 17.637 2.004 6.512 0 12.572-.738 17.638-2.004h-35.275" fill="#C6E9FA"/><path d="M587.276 31.632c5.058 1.263 11.11 1.998 17.61 1.998s12.55-.735 17.608-1.998h-35.218" fill="#C5E9FA"/><path d="M587.304 31.632c5.052 1.26 11.092 1.993 17.58 1.993 6.49 0 12.53-.733 17.583-1.993h-35.163" fill="#C4E8FA"/><path d="M587.332 31.632c5.046 1.257 11.076 1.987 17.553 1.987 6.478 0 12.507-.73 17.553-1.988h-35.106" fill="#C2E8FA"/><path d="M587.36 31.632c5.04 1.253 11.06 1.982 17.525 1.982 6.466 0 12.486-.73 17.525-1.982h-35.05" fill="#C1E8FA"/><path d="M587.39 31.632c5.032 1.25 11.04 1.976 17.495 1.976 6.455 0 12.464-.726 17.497-1.976H587.39" fill="#C0E7FA"/><path d="M587.417 31.632c5.026 1.246 11.026 1.97 17.468 1.97 6.443 0 12.442-.724 17.468-1.97h-34.936" fill="#BFE7FA"/><path d="M587.445 31.632c5.02 1.242 11.01 1.965 17.44 1.965 6.43 0 12.42-.722 17.44-1.965h-34.88" fill="#BEE7FA"/><path d="M587.473 31.632c5.013 1.24 10.992 1.96 17.412 1.96 6.42 0 12.4-.72 17.412-1.96h-34.824" fill="#BDE6FA"/><path d="M587.502 31.632c5.006 1.236 10.975 1.953 17.383 1.953 6.408 0 12.378-.717 17.384-1.953H587.5" fill="#BCE6FA"/><path d="M587.53 31.632c5 1.232 10.958 1.948 17.355 1.948s12.356-.716 17.355-1.948h-34.71" fill="#BBE5FA"/><path d="M587.558 31.632c4.993 1.23 10.942 1.943 17.327 1.943 6.386 0 12.334-.714 17.328-1.943h-34.655" fill="#BAE5FA"/><path d="M587.586 31.632c4.987 1.226 10.926 1.936 17.3 1.936 6.373 0 12.31-.71 17.298-1.936h-34.598" fill="#B9E5FA"/><path d="M587.614 31.632c4.98 1.222 10.91 1.932 17.272 1.932 6.36 0 12.29-.71 17.27-1.932h-34.542" fill="#B8E4FA"/><path d="M587.643 31.632c4.973 1.22 10.89 1.926 17.242 1.926 6.35 0 12.27-.707 17.243-1.926h-34.485" fill="#B7E4F9"/><path d="M587.67 31.632c4.968 1.215 10.876 1.92 17.215 1.92 6.34 0 12.247-.705 17.214-1.92h-34.43" fill="#B6E4F9"/><path d="M587.7 31.632c4.96 1.212 10.858 1.915 17.185 1.915 6.328 0 12.225-.703 17.187-1.915H587.7" fill="#B4E3F9"/><path d="M587.727 31.632c4.955 1.208 10.842 1.91 17.158 1.91 6.316 0 12.204-.702 17.158-1.91h-34.316" fill="#B3E3F9"/><path d="M587.756 31.632c4.947 1.205 10.825 1.904 17.13 1.904 6.304 0 12.182-.7 17.13-1.904h-34.26" fill="#B2E2F9"/><path d="M587.784 31.632c4.94 1.202 10.808 1.898 17.1 1.898 6.294 0 12.16-.696 17.103-1.898h-34.203" fill="#B1E2F9"/><path d="M587.812 31.632c4.935 1.198 10.79 1.892 17.073 1.892 6.282 0 12.14-.694 17.073-1.892h-34.146" fill="#B0E2F9"/><path d="M587.84 31.632c4.928 1.194 10.775 1.887 17.045 1.887 6.27 0 12.117-.693 17.045-1.888h-34.09" fill="#AFE1F9"/><path d="M587.87 31.632c4.92 1.19 10.757 1.88 17.015 1.88 6.26 0 12.096-.69 17.017-1.88H587.87" fill="#AEE1F9"/><path d="M587.896 31.632c4.915 1.188 10.742 1.875 16.99 1.875 6.246 0 12.073-.687 16.987-1.875h-33.977" fill="#ADE1F9"/><path d="M587.925 31.632c4.908 1.185 10.725 1.87 16.96 1.87 6.236 0 12.052-.685 16.96-1.87h-33.92" fill="#ACE0F9"/><path d="M587.953 31.632c4.902 1.18 10.708 1.864 16.932 1.864 6.224 0 12.03-.683 16.932-1.864h-33.864" fill="#ABE0F9"/><path d="M587.98 31.632c4.897 1.177 10.693 1.86 16.905 1.86 6.213 0 12.01-.683 16.904-1.86h-33.81" fill="#A9E0F9"/><path d="M588.01 31.632c4.888 1.174 10.674 1.853 16.875 1.853 6.2 0 11.987-.68 16.876-1.853h-33.75" fill="#A8DFF9"/><path d="M588.038 31.632c4.882 1.17 10.658 1.848 16.847 1.848 6.19 0 11.965-.677 16.847-1.848h-33.694" fill="#A7DFF8"/><path d="M588.066 31.632c4.876 1.167 10.64 1.842 16.82 1.842 6.177 0 11.943-.675 16.82-1.842h-33.64" fill="#A6DEF8"/><path d="M588.094 31.632c4.87 1.164 10.625 1.836 16.79 1.836 6.168 0 11.923-.672 16.792-1.836h-33.582" fill="#A5DEF8"/><path d="M588.122 31.632c4.863 1.16 10.608 1.83 16.763 1.83 6.155 0 11.9-.67 16.764-1.83H588.12" fill="#A4DEF8"/><path d="M588.15 31.632c4.857 1.157 10.592 1.825 16.735 1.825 6.144 0 11.88-.67 16.735-1.825h-33.47" fill="#A3DDF8"/><path d="M588.178 31.632c4.85 1.153 10.575 1.82 16.707 1.82 6.132 0 11.857-.667 16.707-1.82h-33.414" fill="#A2DDF8"/><path d="M588.207 31.632c4.843 1.15 10.557 1.814 16.678 1.814 6.12 0 11.835-.664 16.68-1.814h-33.358" fill="#A0DDF8"/><path d="M588.235 31.632c4.837 1.147 10.54 1.81 16.65 1.81 6.11 0 11.814-.663 16.65-1.81h-33.3" fill="#9FDCF8"/><path d="M588.263 31.632c4.83 1.143 10.525 1.804 16.622 1.804 6.097 0 11.792-.66 16.622-1.804h-33.244" fill="#9EDCF8"/><path d="M588.292 31.632c4.823 1.14 10.507 1.797 16.593 1.797s11.77-.658 16.594-1.798H588.29" fill="#9DDCF8"/><path d="M588.32 31.632c4.817 1.136 10.49 1.792 16.565 1.792 6.075 0 11.748-.656 16.566-1.792h-33.13" fill="#9CDBF8"/><path d="M588.348 31.632c4.81 1.133 10.474 1.787 16.537 1.787 6.063 0 11.727-.655 16.537-1.788h-33.074" fill="#9BDBF8"/><path d="M588.376 31.632c4.804 1.13 10.458 1.78 16.51 1.78 6.05 0 11.704-.65 16.508-1.78h-33.018" fill="#99DBF8"/><path d="M588.404 31.632c4.798 1.126 10.44 1.775 16.48 1.775 6.04 0 11.685-.65 16.482-1.775h-32.962" fill="#98DAF8"/><path d="M588.432 31.632c4.792 1.122 10.425 1.77 16.453 1.77 6.028 0 11.662-.648 16.453-1.77h-32.906" fill="#97DAF7"/><path d="M588.46 31.632c4.785 1.12 10.41 1.764 16.425 1.764 6.017 0 11.64-.645 16.424-1.764h-32.85" fill="#96D9F7"/><path d="M588.49 31.632c4.777 1.116 10.39 1.758 16.395 1.758 6.006 0 11.62-.642 16.396-1.758h-32.79" fill="#95D9F7"/><path d="M588.517 31.632c4.772 1.112 10.374 1.753 16.368 1.753 5.994 0 11.597-.64 16.368-1.753h-32.736" fill="#94D9F7"/><path d="M588.546 31.632c4.764 1.11 10.357 1.748 16.34 1.748 5.98 0 11.574-.64 16.34-1.748h-32.68" fill="#93D8F7"/><path d="M588.574 31.632c4.758 1.105 10.34 1.742 16.31 1.742 5.972 0 11.555-.637 16.313-1.742h-32.623" fill="#91D8F7"/><path d="M588.602 31.632c4.75 1.102 10.324 1.736 16.283 1.736 5.96 0 11.532-.634 16.283-1.736h-32.566" fill="#90D8F7"/><path d="M588.63 31.632c4.745 1.1 10.308 1.73 16.255 1.73 5.948 0 11.51-.63 16.256-1.73h-32.51" fill="#8FD7F7"/><path d="M588.66 31.632c4.737 1.095 10.29 1.725 16.225 1.725 5.936 0 11.488-.63 16.227-1.725H588.66" fill="#8ED7F7"/><path d="M588.687 31.632c4.732 1.09 10.274 1.72 16.198 1.72 5.925 0 11.467-.63 16.2-1.72h-32.398" fill="#8DD7F7"/><path d="M588.73 31.632c4.72 1.087 10.247 1.712 16.155 1.712 5.91 0 11.435-.625 16.156-1.712h-32.31" fill="#8BD6F7"/><path d="M588.772 31.632c4.71 1.082 10.222 1.705 16.113 1.705 5.89 0 11.403-.623 16.113-1.705h-32.226" fill="#8AD6F7"/><path d="M588.815 31.632c4.7 1.078 10.196 1.697 16.07 1.697 5.874 0 11.37-.62 16.07-1.698h-32.14" fill="#89D6F7"/><path d="M588.857 31.632c4.69 1.074 10.17 1.69 16.028 1.69 5.858 0 11.34-.616 16.028-1.69h-32.056" fill="#88D5F7"/><path d="M588.9 31.632c4.678 1.07 10.145 1.683 15.985 1.683s11.307-.614 15.985-1.683H588.9" fill="#87D5F7"/><path d="M588.944 31.632c4.666 1.065 10.118 1.676 15.94 1.676 5.825 0 11.276-.61 15.944-1.676h-31.884" fill="#85D5F6"/><path d="M588.986 31.632c4.656 1.06 10.092 1.668 15.9 1.668 5.806 0 11.242-.608 15.898-1.668h-31.798" fill="#84D4F6"/><path d="M589.03 31.632c4.644 1.055 10.065 1.66 15.855 1.66 5.79 0 11.21-.605 15.856-1.66h-31.71" fill="#83D4F6"/><path d="M589.07 31.632c4.636 1.05 10.042 1.654 15.815 1.654 5.774 0 11.18-.603 15.814-1.654h-31.63" fill="#82D4F6"/><path d="M589.114 31.632c4.624 1.046 10.015 1.647 15.77 1.647 5.758 0 11.148-.602 15.772-1.648h-31.542" fill="#80D3F6"/><path d="M589.157 31.632c4.613 1.042 9.99 1.64 15.728 1.64 5.74 0 11.115-.598 15.728-1.64h-31.456" fill="#80D3F6"/><path d="M589.2 31.632c4.602 1.037 9.963 1.632 15.685 1.632 5.723 0 11.084-.595 15.685-1.632H589.2" fill="#7FD3F6"/><path d="M589.243 31.632c4.59 1.033 9.937 1.625 15.642 1.625 5.706 0 11.05-.592 15.642-1.625h-31.284" fill="#7ED2F6"/><path d="M589.286 31.632c4.58 1.028 9.91 1.617 15.6 1.617 5.688 0 11.02-.59 15.598-1.618h-31.198" fill="#7CD2F6"/><path d="M589.33 31.632c4.568 1.024 9.883 1.61 15.555 1.61 5.672 0 10.988-.586 15.557-1.61H589.33" fill="#7BD2F6"/><path d="M589.37 31.632c4.56 1.02 9.86 1.603 15.515 1.603 5.655 0 10.956-.584 15.514-1.603h-31.03" fill="#7AD1F6"/><path d="M589.414 31.632c4.548 1.014 9.833 1.596 15.47 1.596 5.64 0 10.924-.58 15.472-1.596h-30.942" fill="#79D1F6"/><path d="M589.457 31.632c4.536 1.01 9.806 1.588 15.428 1.588 5.622 0 10.892-.578 15.428-1.588h-30.856" fill="#77D1F6"/><path d="M589.5 31.632c4.526 1.005 9.78 1.58 15.385 1.58s10.86-.575 15.385-1.58H589.5" fill="#76D0F6"/><path d="M589.543 31.632c4.515 1 9.754 1.574 15.342 1.574 5.588 0 10.828-.574 15.343-1.574h-30.685" fill="#75D0F6"/><path d="M589.585 31.632c4.505.996 9.73 1.566 15.3 1.566s10.796-.57 15.3-1.566h-30.6" fill="#73D0F5"/><path d="M589.628 31.632c4.494.992 9.703 1.56 15.257 1.56 5.555 0 10.764-.568 15.257-1.56h-30.514" fill="#72CFF5"/><path d="M589.67 31.632c4.483.987 9.678 1.55 15.215 1.55 5.538 0 10.73-.563 15.215-1.55h-30.43" fill="#71CFF5"/><path d="M589.714 31.632c4.47.982 9.65 1.544 15.172 1.544 5.52 0 10.7-.562 15.17-1.544h-30.342" fill="#6FCFF5"/><path d="M589.756 31.632c4.462.978 9.625 1.537 15.13 1.537 5.503 0 10.667-.56 15.128-1.538h-30.258" fill="#6ECEF5"/><path d="M589.8 31.632c4.45.974 9.598 1.53 15.085 1.53s10.636-.556 15.086-1.53H589.8" fill="#6DCEF5"/><path d="M589.842 31.632c4.44.97 9.573 1.522 15.043 1.522 5.47 0 10.604-.553 15.043-1.522h-30.086" fill="#6BCEF5"/><path d="M589.885 31.632c4.43.964 9.547 1.515 15 1.515 5.453 0 10.572-.55 15-1.515h-30" fill="#6ACEF5"/><path d="M589.928 31.632c4.418.96 9.52 1.508 14.957 1.508 5.437 0 10.54-.55 14.958-1.508h-29.915" fill="#68CDF5"/><path d="M589.97 31.632c4.407.955 9.496 1.5 14.915 1.5 5.42 0 10.508-.545 14.915-1.5h-29.83" fill="#67CDF5"/><path d="M590.013 31.632c4.396.95 9.47 1.493 14.872 1.493 5.403 0 10.476-.543 14.872-1.493h-29.744" fill="#66CDF5"/><path d="M590.056 31.632c4.385.946 9.444 1.486 14.83 1.486 5.385 0 10.443-.54 14.828-1.486h-29.658" fill="#64CCF5"/><path d="M590.1 31.632c4.373.942 9.417 1.478 14.785 1.478 5.37 0 10.412-.536 14.786-1.478H590.1" fill="#63CCF5"/><path d="M590.142 31.632c4.363.937 9.39 1.47 14.743 1.47 5.352 0 10.38-.533 14.744-1.47H590.14" fill="#61CCF5"/><path d="M590.184 31.632c4.353.932 9.366 1.464 14.7 1.464 5.336 0 10.35-.532 14.702-1.464h-29.402" fill="#60CBF5"/><path d="M590.227 31.632c4.342.928 9.34 1.456 14.658 1.456s10.316-.53 14.658-1.456h-29.316" fill="#5ECBF4"/><path d="M590.27 31.632c4.33.923 9.314 1.45 14.615 1.45 5.302 0 10.284-.527 14.616-1.45h-29.23" fill="#5DCBF4"/><path d="M590.313 31.632c4.32.92 9.288 1.442 14.572 1.442 5.285 0 10.252-.523 14.572-1.442h-29.144" fill="#5BCAF4"/><path d="M590.355 31.632c4.31.914 9.262 1.435 14.53 1.435 5.268 0 10.22-.52 14.53-1.435h-29.06" fill="#59CAF4"/><path d="M590.398 31.632c4.3.91 9.236 1.427 14.487 1.427 5.25 0 10.19-.52 14.487-1.428h-28.974" fill="#58CAF4"/><path d="M590.44 31.632c4.29.906 9.21 1.42 14.445 1.42 5.234 0 10.157-.515 14.444-1.42h-28.89" fill="#56CAF4"/><path d="M590.484 31.632c4.277.9 9.184 1.413 14.4 1.413 5.218 0 10.126-.512 14.403-1.413h-28.803" fill="#55C9F4"/><path d="M590.527 31.632c4.266.896 9.158 1.405 14.358 1.405 5.2 0 10.093-.51 14.358-1.405h-28.716" fill="#53C9F4"/><path d="M590.57 31.632c4.255.89 9.132 1.398 14.315 1.398 5.184 0 10.06-.507 14.316-1.398h-28.63" fill="#51C9F4"/><path d="M590.613 31.632c4.244.887 9.106 1.39 14.272 1.39 5.167 0 10.028-.503 14.273-1.39h-28.545" fill="#4FC8F4"/><path d="M590.655 31.632c4.234.882 9.08 1.383 14.23 1.383s9.997-.5 14.23-1.383h-28.46" fill="#4EC8F4"/><path d="M590.698 31.632c4.223.878 9.054 1.376 14.187 1.376 5.133 0 9.965-.498 14.187-1.376h-28.374" fill="#4CC8F4"/><path d="M590.74 31.632c4.213.873 9.03 1.37 14.145 1.37 5.116 0 9.933-.497 14.145-1.37h-28.29" fill="#4AC7F4"/><path d="M590.783 31.632c4.202.87 9.003 1.362 14.102 1.362 5.1 0 9.9-.493 14.102-1.362h-28.204" fill="#48C7F4"/><path d="M590.826 31.632c4.19.865 8.977 1.355 14.06 1.355 5.082 0 9.868-.49 14.058-1.355h-28.118" fill="#46C7F4"/><path d="M590.87 31.632c4.178.86 8.95 1.347 14.015 1.347 5.066 0 9.837-.49 14.016-1.348h-28.03" fill="#44C7F4"/><path d="M590.912 31.632c4.168.855 8.925 1.34 13.973 1.34 5.05 0 9.805-.485 13.973-1.34h-27.946" fill="#42C6F3"/><path d="M590.955 31.632c4.158.85 8.898 1.332 13.93 1.332s9.773-.48 13.93-1.332h-27.86" fill="#40C6F3"/><path d="M590.997 31.632c4.147.845 8.873 1.326 13.888 1.326 5.015 0 9.74-.48 13.887-1.326h-27.775" fill="#3DC6F3"/><path d="M591.04 31.632c4.136.842 8.847 1.318 13.845 1.318 5 0 9.71-.476 13.845-1.318h-27.69" fill="#3BC5F3"/><path d="M591.083 31.632c4.125.837 8.82 1.31 13.802 1.31 4.98 0 9.677-.473 13.802-1.31h-27.604" fill="#38C5F3"/><path d="M591.126 31.632c4.114.833 8.795 1.303 13.76 1.303 4.964 0 9.645-.47 13.758-1.303h-27.518" fill="#36C5F3"/><path d="M591.17 31.632c4.102.828 8.768 1.296 13.715 1.296 4.948 0 9.613-.468 13.716-1.296h-27.43" fill="#33C5F3"/><path d="M591.212 31.632c4.092.823 8.743 1.29 13.673 1.29s9.582-.467 13.674-1.29H591.21" fill="#30C4F3"/><path d="M591.254 31.632c4.082.82 8.717 1.282 13.63 1.282 4.915 0 9.55-.463 13.632-1.282h-27.262" fill="#2DC4F3"/><path d="M591.297 31.632c4.07.814 8.69 1.274 13.588 1.274 4.897 0 9.517-.46 13.588-1.274h-27.176" fill="#2AC4F3"/><path d="M591.34 31.632c4.06.81 8.665 1.266 13.545 1.266 4.88 0 9.486-.457 13.545-1.266h-27.09" fill="#27C3F3"/><path d="M591.383 31.632c4.05.805 8.64 1.26 13.502 1.26 4.863 0 9.454-.455 13.503-1.26h-27.005" fill="#23C3F3"/><path d="M591.425 31.632c4.04.8 8.614 1.252 13.46 1.252 4.847 0 9.422-.45 13.46-1.252h-26.92" fill="#1FC3F3"/><path d="M591.468 31.632c4.028.796 8.587 1.245 13.417 1.245s9.39-.45 13.417-1.245h-26.834" fill="#1AC2F3"/><path d="M591.51 31.632c4.018.79 8.562 1.238 13.375 1.238 4.813 0 9.358-.447 13.374-1.238h-26.75" fill="#14C2F3"/><path d="M591.554 31.632c4.005.787 8.535 1.23 13.33 1.23 4.797 0 9.327-.443 13.332-1.23h-26.662" fill="#0CC2F3"/><path d="M591.596 31.632c3.996.782 8.51 1.223 13.29 1.223 4.778 0 9.293-.44 13.287-1.223h-26.577" fill="#02C2F2"/><path d="M591.64 31.632c3.984.778 8.483 1.215 13.245 1.215 4.763 0 9.262-.437 13.246-1.215h-26.49" fill="#00C1F2"/><path d="M591.682 31.632c3.974.773 8.458 1.208 13.203 1.208 4.746 0 9.23-.435 13.203-1.208h-26.406" fill="#00C1F2"/><path d="M591.725 31.632c3.962.77 8.43 1.2 13.16 1.2s9.198-.43 13.16-1.2h-26.32" fill="#00C1F2"/><path d="M591.768 31.632c3.95.764 8.405 1.194 13.118 1.194 4.71 0 9.165-.43 13.116-1.194h-26.234" fill="#00C0F2"/><path d="M591.81 31.632c3.942.76 8.38 1.186 13.075 1.186 4.695 0 9.134-.426 13.074-1.186h-26.15" fill="#00C0F2"/><path d="M591.853 31.632c3.93.755 8.354 1.18 13.032 1.18 4.678 0 9.102-.425 13.032-1.18h-26.064" fill="#00C0F2"/><path d="M591.896 31.632c3.92.75 8.328 1.172 12.99 1.172 4.66 0 9.07-.42 12.988-1.172h-25.978" fill="#00C0F2"/><path d="M591.94 31.632c3.907.746 8.3 1.165 12.946 1.165 4.644 0 9.037-.42 12.945-1.165h-25.89" fill="#00BFF2"/><path d="M591.982 31.632c3.897.74 8.276 1.157 12.904 1.157 4.627 0 9.005-.417 12.902-1.158h-25.806" fill="#00BFF2"/><path d="M592.05 31.632c3.878.735 8.233 1.148 12.835 1.148s8.958-.413 12.836-1.148h-25.67" fill="#00BFF2"/><path d="M592.117 31.632c3.86.73 8.192 1.138 12.768 1.138 4.577 0 8.91-.41 12.768-1.138h-25.536" fill="#00BFF2"/><path d="M592.185 31.632c3.84.724 8.15 1.13 12.7 1.13 4.552 0 8.86-.406 12.7-1.13h-25.4" fill="#00BEF2"/><path d="M592.252 31.632c3.822.717 8.107 1.12 12.633 1.12s8.81-.403 12.633-1.12h-25.266" fill="#00BEF2"/><path d="M592.32 31.632c3.802.71 8.065 1.11 12.565 1.11s8.762-.4 12.565-1.11h-25.13" fill="#00BEF2"/><path d="M592.387 31.632c3.785.705 8.023 1.1 12.498 1.1 4.476 0 8.714-.395 12.498-1.1h-24.996" fill="#00BEF2"/><path d="M592.454 31.632c3.766.7 7.982 1.09 12.43 1.09 4.45 0 8.666-.39 12.43-1.09h-24.86" fill="#00BDF2"/><path d="M592.522 31.632c3.747.694 7.94 1.08 12.363 1.08 4.425 0 8.616-.386 12.363-1.08h-24.726" fill="#00BDF2"/><path d="M592.59 31.632c3.728.688 7.896 1.072 12.295 1.072 4.4 0 8.567-.384 12.295-1.072h-24.59" fill="#00BDF1"/><path d="M592.657 31.632c3.71.682 7.854 1.062 12.228 1.062s8.52-.38 12.228-1.062h-24.456" fill="#00BDF1"/><path d="M592.725 31.632c3.69.675 7.812 1.053 12.16 1.053 4.35 0 8.47-.378 12.16-1.053h-24.32" fill="#00BCF1"/><path d="M592.792 31.632c3.67.67 7.77 1.043 12.093 1.043s8.422-.374 12.093-1.043h-24.186" fill="#00BCF1"/><path d="M592.86 31.632c3.652.663 7.727 1.035 12.025 1.035s8.373-.372 12.025-1.035h-24.05" fill="#00BCF1"/><path d="M592.927 31.632c3.634.658 7.686 1.025 11.958 1.025s8.325-.367 11.958-1.025h-23.916" fill="#00BCF1"/><path d="M592.995 31.632c3.615.65 7.644 1.015 11.89 1.015 4.247 0 8.276-.364 11.89-1.015h-23.78" fill="#00BBF1"/><path d="M593.063 31.632c3.596.645 7.6 1.006 11.822 1.006 4.22 0 8.227-.36 11.822-1.006h-23.644" fill="#00BBF1"/><path d="M593.13 31.632c3.577.64 7.56.996 11.755.996 4.196 0 8.178-.357 11.754-.996h-23.51" fill="#00BBF1"/><path d="M593.198 31.632c3.558.633 7.517.987 11.687.987 4.17 0 8.13-.355 11.687-.988h-23.374" fill="#00BAF1"/><path d="M593.266 31.632c3.538.627 7.474.977 11.62.977 4.145 0 8.08-.35 11.62-.978h-23.24" fill="#00BAF1"/><path d="M593.333 31.632c3.52.62 7.432.968 11.552.968 4.12 0 8.032-.347 11.552-.968h-23.104" fill="#00BAF1"/><path d="M593.4 31.632c3.502.615 7.39.96 11.485.96s7.983-.345 11.484-.96H593.4" fill="#00BAF1"/><path d="M593.47 31.632c3.48.61 7.346.95 11.415.95 4.07 0 7.935-.34 11.417-.95H593.47" fill="#00B9F1"/><path d="M593.536 31.632c3.463.603 7.305.94 11.35.94 4.043 0 7.885-.337 11.348-.94h-22.698" fill="#00B9F1"/><path d="M593.603 31.632c3.445.597 7.264.93 11.282.93s7.838-.333 11.28-.93h-22.562" fill="#00B9F1"/><path d="M593.67 31.632c3.427.59 7.223.92 11.215.92 3.993 0 7.79-.33 11.214-.92h-22.43" fill="#00B9F1"/><path d="M593.74 31.632c3.405.585 7.178.91 11.145.91 3.968 0 7.74-.325 11.147-.91H593.74" fill="#00B8F1"/><path d="M593.806 31.632c3.388.58 7.137.902 11.08.902 3.94 0 7.69-.323 11.078-.902h-22.158" fill="#00B8F1"/><path d="M593.874 31.632c3.37.573 7.094.892 11.01.892 3.918 0 7.644-.32 11.012-.892h-22.022" fill="#00B8F0"/><path d="M593.94 31.632c3.352.567 7.054.883 10.945.883 3.892 0 7.594-.316 10.943-.883H593.94" fill="#00B8F0"/><path d="M594.01 31.632c3.33.56 7.01.873 10.875.873 3.866 0 7.545-.312 10.876-.873h-21.75" fill="#00B7F0"/><path d="M594.076 31.632c3.313.555 6.97.864 10.81.864 3.84 0 7.496-.31 10.808-.864h-21.618" fill="#00B7F0"/><path d="M594.144 31.632c3.294.55 6.926.855 10.74.855 3.817 0 7.45-.306 10.742-.855h-21.482" fill="#00B7F0"/><path d="M594.212 31.632c3.275.543 6.883.845 10.673.845s7.4-.302 10.673-.845h-21.346" fill="#00B7F0"/><path d="M594.28 31.632c3.255.537 6.84.836 10.605.836 3.765 0 7.35-.3 10.606-.836h-21.21" fill="#00B6F0"/><path d="M594.347 31.632c3.237.53 6.8.826 10.54.826 3.737 0 7.3-.295 10.536-.826h-21.076" fill="#00B6F0"/><path d="M594.415 31.632c3.217.525 6.756.817 10.47.817 3.714 0 7.253-.293 10.47-.818h-20.94" fill="#00B6F0"/><path d="M594.482 31.632c3.2.52 6.715.807 10.403.807 3.69 0 7.204-.29 10.403-.808h-20.806" fill="#00B5F0"/><path d="M594.55 31.632c3.18.513 6.673.798 10.335.798 3.663 0 7.156-.285 10.336-.798h-20.67" fill="#00B5F0"/><path d="M594.617 31.632c3.16.507 6.63.788 10.268.788 3.638 0 7.107-.28 10.268-.788h-20.536" fill="#00B5F0"/><path d="M594.685 31.632c3.142.502 6.588.78 10.2.78 3.613 0 7.058-.278 10.2-.78h-20.4" fill="#00B5F0"/><path d="M594.752 31.632c3.124.495 6.547.77 10.133.77 3.587 0 7.01-.275 10.133-.77h-20.266" fill="#00B5F0"/><path d="M594.82 31.632c3.104.49 6.504.76 10.065.76 3.562 0 6.96-.27 10.065-.76h-20.13" fill="#00B4F0"/><path d="M594.888 31.632c3.085.483 6.46.75 9.997.75 3.536 0 6.912-.267 9.998-.75h-19.995" fill="#00B4F0"/><path d="M594.955 31.632c3.067.477 6.42.74 9.93.74s6.864-.263 9.93-.74h-19.86" fill="#00B4F0"/><path d="M595.023 31.632c3.048.47 6.377.73 9.862.73 3.485 0 6.815-.26 9.862-.73h-19.724" fill="#00B4F0"/><path d="M595.09 31.632c3.03.465 6.335.722 9.795.722s6.766-.257 9.795-.722h-19.59" fill="#00B3F0"/><path d="M595.157 31.632c3.01.46 6.293.713 9.728.713 3.435 0 6.718-.254 9.727-.713h-19.455" fill="#00B3F0"/><path d="M595.225 31.632c2.99.453 6.25.703 9.66.703s6.67-.25 9.66-.703h-19.32" fill="#00B3EF"/><path d="M595.293 31.632c2.973.447 6.21.694 9.592.694 3.384 0 6.62-.247 9.592-.694h-19.184" fill="#00B3EF"/><path d="M595.36 31.632c2.954.44 6.167.684 9.525.684 3.358 0 6.57-.243 9.525-.684h-19.05" fill="#00B2EF"/><path d="M595.428 31.632c2.935.435 6.124.675 9.457.675 3.333 0 6.523-.24 9.457-.675h-18.914" fill="#00B2EF"/><path d="M595.496 31.632c2.915.43 6.082.665 9.39.665 3.307 0 6.473-.236 9.388-.665h-18.778" fill="#00B2EF"/><path d="M595.563 31.632c2.898.423 6.04.656 9.322.656 3.283 0 6.425-.233 9.322-.656h-18.644" fill="#00B2EF"/><path d="M595.63 31.632c2.88.417 6 .646 9.256.646 3.256 0 6.376-.23 9.253-.646h-18.51" fill="#00B2EF"/><path d="M595.698 31.632c2.86.41 5.956.636 9.187.636 3.232 0 6.328-.225 9.187-.636h-18.374" fill="#00B1EF"/><path d="M595.766 31.632c2.84.405 5.913.627 9.12.627 3.205 0 6.278-.223 9.12-.628h-18.24" fill="#00B1EF"/><path d="M595.834 31.632c2.82.4 5.87.618 9.05.618 3.182 0 6.232-.22 9.052-.618h-18.102" fill="#00B1EF"/><path d="M595.9 31.632c2.804.393 5.83.608 8.985.608 3.155 0 6.182-.215 8.984-.608H595.9" fill="#00B1EF"/><path d="M595.968 31.632c2.784.387 5.787.598 8.917.598s6.133-.21 8.916-.598H595.97" fill="#00B0EF"/><path d="M596.036 31.632c2.765.38 5.745.59 8.85.59 3.104 0 6.084-.21 8.848-.59h-17.698" fill="#00B0EF"/><path d="M596.104 31.632c2.746.375 5.702.58 8.78.58 3.08 0 6.037-.205 8.782-.58h-17.562" fill="#00B0EF"/><path d="M596.17 31.632c2.73.37 5.66.57 8.715.57 3.054 0 5.987-.2 8.714-.57h-17.43" fill="#00B0EF"/><path d="M596.24 31.632c2.707.363 5.617.56 8.645.56 3.03 0 5.938-.197 8.646-.56h-17.29" fill="#00B0EF"/><path d="M596.307 31.632c2.69.357 5.575.552 8.578.552 3.003 0 5.89-.195 8.578-.552h-17.156" fill="#00AFEF"/><path d="M596.374 31.632c2.67.35 5.534.542 8.51.542 2.98 0 5.842-.19 8.512-.542h-17.022" fill="#00AFEF"/><path d="M596.442 31.632c2.65.345 5.49.533 8.443.533 2.953 0 5.792-.188 8.444-.533H596.44" fill="#00AFEF"/><path d="M596.51 31.632c2.63.34 5.45.523 8.375.523 2.927 0 5.743-.184 8.376-.523h-16.75" fill="#00AFEF"/><path d="M596.577 31.632c2.613.333 5.407.514 8.308.514 2.902 0 5.695-.18 8.308-.514h-16.616" fill="#00AEEF"/><path d="M596.645 31.632c2.595.327 5.364.504 8.24.504 2.876 0 5.647-.177 8.24-.504h-16.48" fill="#00AEEF"/><g fill="#000"><path d="M31 38h4.29C42.297 38 48 32.38 48 25.473c0-6.527-5.093-11.905-11.568-12.477-.348-2.814-1.644-5.415-3.728-7.425C30.314 3.268 27.158 2 23.816 2c-3.343 0-6.5 1.267-8.888 3.572-2.092 2.018-3.393 4.634-3.73 7.463-2.872.334-5.525 1.616-7.573 3.677C1.287 19.067 0 22.178 0 25.472 0 32.38 5.7 38 12.71 38H15v-3h-2.29C7.348 35 3 30.714 3 25.473c0-2.502.973-4.854 2.754-6.647 1.564-1.574 3.587-2.555 5.79-2.81l2.35-.274.28-2.35c.26-2.15 1.246-4.126 2.837-5.66C18.84 5.967 21.248 5 23.817 5c2.57 0 4.978.968 6.805 2.73 1.585 1.527 2.57 3.494 2.835 5.634l.297 2.407 2.416.215c4.98.44 8.832 4.568 8.832 9.488C45 30.713 40.65 35 35.29 35v3-3H31v3z"/><path d="M24.5 47v-2S16 45 16 36.5s8.5-8.5 8.5-8.5v-2C18.7 26 14 30.7 14 36.5S18.7 47 24.5 47zm1-4c3.59 0 6.5-2.91 6.5-6.5S29.09 30 25.5 30 19 32.91 19 36.5s2.91 6.5 6.5 6.5zm0-2c2.485 0 4.5-2.015 4.5-4.5S27.985 32 25.5 32 21 34.015 21 36.5s2.015 4.5 4.5 4.5z"/></g><g transform="translate(48 4)"><path d="M28.57 38.88c3.283 2.298 9.778-1.456 14.506-8.395 4.728-6.938 5.9-14.418 2.618-16.715-3.283-2.297-9.614 1.264-14.34 8.204-4.73 6.938-6.065 14.61-2.783 16.907z" fill="#EA5B0F"/><path d="M19.852 38.88c-3.283 2.298-9.778-1.456-14.505-8.395-4.73-6.938-5.902-14.418-2.62-16.715 3.285-2.297 9.615 1.264 14.343 8.204 4.73 6.938 6.063 14.61 2.782 16.907z" fill="#0055A4"/><ellipse fill="#009DCC" cx="24.213" cy="7.754" rx="15.083" ry="7.309"/></g><path d="M131.005 15.58l-1.126 1.984h-10.22L104.003 47.13l-5.72.87-.283-.29 14.44-30.146h-8.437l1.03-1.983h8.25c3.002-5.37 5.438-9.386 14.065-13.258 2.53-1.16 6.47-2.322 10.034-2.322 1.875 0 3.844.388 3.844 1.55 0 .675-.938 2.322-2.626 2.322-1.78 0-3.75-.968-5.906-.968-5.72 0-7.41 3.29-8.72 6.048l-3.282 6.63h10.313" fill="#C70119"/><path d="M167.998 0C154.748 0 144 10.745 144 24c0 10.604 6.876 19.6 16.413 22.773 1.2.22 1.638-.52 1.638-1.157 0-.57-.02-2.08-.03-4.08-6.677 1.45-8.085-3.22-8.085-3.22-1.092-2.772-2.666-3.51-2.666-3.51-2.18-1.488.164-1.458.164-1.458 2.41.17 3.676 2.473 3.676 2.473 2.14 3.67 5.618 2.61 6.986 1.995.218-1.55.838-2.608 1.523-3.208-5.33-.605-10.933-2.665-10.933-11.862 0-2.62.935-4.763 2.47-6.44-.247-.607-1.07-3.048.236-6.35 0 0 2.014-.646 6.6 2.46 1.913-.534 3.967-.8 6.008-.81 2.04.01 4.092.276 6.01.81 4.58-3.106 6.592-2.46 6.592-2.46 1.31 3.302.486 5.743.24 6.35 1.54 1.677 2.467 3.82 2.467 6.44 0 9.22-5.613 11.25-10.958 11.843.86.74 1.628 2.206 1.628 4.445 0 3.208-.03 5.796-.03 6.583 0 .643.433 1.39 1.65 1.155C185.13 43.59 192 34.6 192 24c0-13.255-10.747-24-24.002-24" fill="#161614"/><path d="M217.657 0h5.417v32.814c0 5.828-2.593 9.8-14.86 15.186L208 46.235c9.083-5.883 9.657-6.95 9.657-12.7V0z" fill="#1A1918"/><g><path d="M285.244 13.16H274.84V2.754c0-1.522-1.234-2.755-2.756-2.755h-16.17c-1.52 0-2.755 1.233-2.755 2.755V13.16h-10.405c-1.522 0-2.755 1.232-2.755 2.755v16.17c0 1.52 1.234 2.755 2.755 2.755h10.404v10.404c0 1.522 1.233 2.755 2.755 2.755h16.17c1.52 0 2.755-1.235 2.755-2.756V34.84h10.404c1.522 0 2.756-1.234 2.756-2.756v-16.17c0-1.522-1.234-2.755-2.756-2.755z" fill="#C23C2F"/><path d="M255.89 46c-.38 0-.69-.31-.69-.692V32.8h-12.51c-.38 0-.69-.31-.69-.692V15.89c0-.38.31-.69.69-.69h12.51V2.69c0-.38.31-.69.69-.69h16.22c.38 0 .69.31.69.69V15.2h12.51c.38 0 .69.31.69.69v16.22c0 .38-.31.69-.69.69H272.8v12.51c0 .38-.31.69-.69.69h-16.22z" fill="#FFF"/><g fill="#212828"><path d="M267.31 9.05l-3.54-5.275-3.543 5.274 2.19-.453v12.596c-.873.506-1.46 1.447-1.46 2.527 0 1.613 1.308 2.92 2.92 2.92 1.613 0 2.92-1.308 2.92-2.92 0-1.146-.66-2.135-1.622-2.613V8.61l2.136.44zM281.025 23.662l-4.057-2.724.277 1.345h-9.44v2.76h9.44l-.277 1.345"/></g></g><g fill="#54ACEE"><path d="M336 8.7c-1.765.797-3.664 1.335-5.656 1.576 2.034-1.24 3.594-3.202 4.33-5.544-1.903 1.15-4.01 1.983-6.254 2.433C326.625 5.218 324.065 4 321.233 4c-5.438 0-9.847 4.486-9.847 10.02 0 .785.086 1.55.255 2.284-8.184-.418-15.44-4.407-20.298-10.47-.848 1.48-1.333 3.2-1.333 5.04 0 3.475 1.737 6.543 4.38 8.34-1.614-.054-3.133-.505-4.46-1.255-.002.04-.002.083-.002.126 0 4.854 3.395 8.903 7.9 9.825-.826.23-1.696.352-2.594.352-.636 0-1.252-.062-1.854-.18 1.254 3.98 4.89 6.878 9.2 6.96-3.37 2.687-7.616 4.29-12.23 4.29-.795 0-1.58-.05-2.35-.142 4.36 2.845 9.535 4.502 15.096 4.502 18.114 0 28.02-15.268 28.02-28.51 0-.435-.01-.868-.03-1.298 1.925-1.41 3.595-3.176 4.914-5.185z"/></g><path d="M344.197 19.84c0-2.38-1.835-4.307-4.1-4.307-2.262 0-4.097 1.928-4.097 4.307 0 3.023 4.098 5.535 4.098 5.535s4.1-2.666 4.1-5.535zm3.917 5.535s-4.848 2.552-4.848 6.064c0 2.812 2.17 5.093 4.848 5.093 2.677 0 4.848-2.28 4.848-5.094 0-3.59-4.848-6.065-4.848-6.065zm14.22-7.446c0-3.435-2.65-6.22-5.92-6.22-3.267 0-5.916 2.785-5.916 6.22 0 4.242 5.917 7.445 5.917 7.445s5.918-3.203 5.918-7.446zm3.916 7.445s-6.548 2.86-6.548 7.745c0 3.8 2.93 6.88 6.548 6.88 3.617 0 6.55-3.08 6.55-6.88 0-4.81-6.55-7.745-6.55-7.745zM384 16.073c0-4.46-3.44-8.073-7.684-8.073-4.242 0-7.683 3.614-7.683 8.073 0 5.485 7.683 9.302 7.683 9.302S384 21.71 384 16.073z" fill="#0D9EE3"/><path d="M419.876 27.15c.925.396 1.478 1.14 1.478 1.99 0 1.125-.865 1.795-2.314 1.795-1.54 0-2.253-1.354-2.436-1.77l-.225-.51h-2.882l-.004-.004h-2.67c-.728 1.217-2.196 2.338-3.903 2.338-3.08 0-4.618-2.407-4.814-4.784h12.59v-.52c0-.986-.1-1.914-.293-2.775.36 1.104 1.183 2.25 2.905 3.06.63.3 1.578.748 2.568 1.18zm-13.136-7.552c2.577 0 3.84 1.778 4.205 3.588h-8.577c.448-1.814 2.038-3.588 4.372-3.588zm25.27.053V16.4h-2.678v-3.845h-3.287V16.4h-6.62c-3.056 0-5.274 2.056-5.274 4.888 0 .305.027.633.09.973-1.043-3.608-3.788-5.86-7.475-5.86-4.51 0-7.96 3.51-8.248 8.267v-1.01c0-4.003-3.256-7.258-7.258-7.258-4.003 0-7.26 3.254-7.26 7.256v10.406h3.327V23.656c0-2.166 1.763-3.93 3.932-3.93 2.166 0 3.93 1.764 3.93 3.93v10.406h3.327v-8.096c.29 4.775 3.783 8.3 8.352 8.3 2.788 0 5.248-1.622 6.642-3.497 1.04 2.22 3.07 3.495 5.58 3.495 2.908 0 5.852-1.858 5.852-5.41 0-2.126-1.234-3.864-3.477-4.894-.287-.13-.518-.24-.74-.344l-.03-.015c-.25-.117-.493-.23-.793-.368-1.466-.658-2.163-1.14-2.163-2.1 0-.845.756-1.48 1.69-1.48h6.615v9.265c0 2.95 2.4 5.348 5.348 5.348v-3.287c-1.136 0-2.06-.925-2.06-2.06V19.65h2.676z" fill="#8C979B"/><path d="M434.88 36.337c8.613-5.532 18.375-1.553 23.238 1.11-6.736-2.66-16.61-3.284-23.237-1.11zm2.105-3.217c-1.4 1.033-2.188 1.904-2.188 1.904 0 .038.813-.456 2.188-1.035v-.87zm0-3.43c-.908-1.758-.595-3.752-.595-3.752s-1.536 3.522.595 5.62v-1.87zm0-9.358v3.2c-1.42.815-2.372 2.332-2.372 4.07 0 1.738.953 3.256 2.372 4.07v.572c-.572.387-1.13.8-1.59 1.153-2.043-1.303-3.395-3.57-3.395-6.15 0-3.202 2.083-5.923 4.985-6.915zm0 3.2v-3.2c.658-.225 1.357-.36 2.085-.393-.038.364-.057.735-.057 1.11 0 .63.055 1.248.16 1.85-.796.033-1.54.26-2.188.63zm0 8.712c.5-.338 1.012-.657 1.48-.9-.23-.146-.443-.312-.636-.502-.36-.353-.636-.746-.845-1.153v1.867l.055.055c.09.085.184.164.28.238-.114-.055-.226-.114-.335-.177v.57zm0 1.745v-.87c2.69-1.987 7.645-4.573 13.6-2.706 9.05 2.835 14.81 6.694 21.804 4.957 6.993-1.735 7.61-5.555 7.61-5.555s-1.235 5.395-8.126 6.58c-6.89 1.183-13.238-.144-21.312-3.154-5.45-2.03-10.723-.455-13.577.75zM450 11c4.138 0 7.7 2.44 9.29 5.942h-3.238c-1.428-1.763-3.626-2.893-6.09-2.893-2.424 0-4.59 1.09-6.02 2.804.077-.06.155-.122.238-.18 3.383-2.415 7.895.246 7.895.246s-4.288-1.24-7.187.793c-2.898 2.033-2.433 6.102-2.433 6.102s-.02-.054-.048-.152l.038.14c-.695-.512-1.538-.846-2.456-.934-.11-.592-.168-1.2-.168-1.82C439.822 15.5 444.38 11 450 11zm9.747 20.744s4.32 2.21 8.382 1.85c4.06-.36 5.296-1.8 5.296-1.8s-1.492 2.753-5.4 2.907c-3.908.155-8.28-2.853-8.28-2.956zm-3.312-13.972h3.63v3.63h-3.63v-3.63zm14.42 10.06h2.808v2.808h-2.808v-2.808zM460.81 14.445h4.842v4.842h-4.842v-4.842zm14.057 8.38h4.843v4.84h-4.843v-4.84zm-8.75-3.166h2.7v2.698h-2.7v-2.7zm1.805 5.316h2.7v2.698h-2.7v-2.698zm-5.682.27h2.7v2.698h-2.7v-2.7zm9.462-5.494h2.7v2.7h-2.7v-2.7z" fill="#60A6CF"/><path d="M524.932 19.286l-.425.94-.43-.945-.245 1.25h.16l.137-.765.376.806.363-.81.144.77h.166l-.248-1.244zm-1.56 1.243h.167v-1.063h.267v-.157h-.697v.157h.263v1.062zm-2.957-.425c-2.008 0-2.995 1.54-2.995 1.54v-3.883h-3.114v12.82h3.146V24.71c0-.987.837-1.807 1.842-1.807 1.372 0 1.607.804 1.607 1.658v6.025h3.213V23.52c0-1.94-1.657-3.415-3.698-3.415zm-11.57 3.114c0-.403.32-.62.82-.62.905 0 1.273.803 1.273.803l2.36-1.038c-.636-1.44-1.89-2.26-3.365-2.26-2.275 0-3.933 1.356-3.933 3.348 0 3.615 4.603 2.946 4.603 4.217 0 .486-.602.72-1.104.72-.922 0-1.44-.904-1.44-.904l-2.394 1.206c.803 1.506 2.075 2.142 3.8 2.142 2.175 0 4.116-1.188 4.116-3.414 0-3.515-4.736-3.047-4.736-4.2zm-8.946-3.115c-3.164 0-5.625 2.31-5.625 5.39 0 2.862 2.41 5.44 5.557 5.44 3.348 0 5.607-2.36 5.607-5.49 0-3.097-2.428-5.34-5.54-5.34zM490.714 23c-.335-.133-.988-.4-1.39-.552-.67-.25-1.456-.484-1.456-1.17 0-.67.468-1.122 1.288-1.122 1.24 0 2.578 1.02 2.578 1.02l1.305-2.51c-.92-.602-2.443-1.372-4.1-1.372-2.276 0-4.402 1.523-4.402 4.083 0 1.808.888 2.963 2.512 3.7.55.25 1.505.62 1.907.77 1.256.468 1.34.72 1.34 1.254 0 .688-.92 1.006-1.858 1.006-1.224 0-2.395-.686-3.014-1.24-.285.487-1.34 2.596-1.34 2.596 1.34.836 2.612 1.59 4.42 1.59 2.577 0 5.12-1.44 5.12-4.185 0-1.924-.987-3.096-2.91-3.866zM528 32.98l-46.487 3.35L480 15.35 526.487 12 528 32.98z" fill="#01A1AB" opacity=".9"/><g><path d="M528 4.01c0-2.215 1.794-4.01 4.01-4.01h39.98c2.215 0 4.01 1.794 4.01 4.01v39.98c0 2.215-1.794 4.01-4.01 4.01h-39.98c-2.215 0-4.01-1.794-4.01-4.01V4.01z" fill="#FF6122"/><path d="M533.927 38.505c-1.31 0-1.55 1.18-1.55 2.033 0 .852.24 2.035 1.55 2.035s1.55-1.183 1.55-2.035c0-.853-.24-2.033-1.55-2.033m0 5.548c-1.733 0-3.296-1.104-3.296-3.515 0-2.412 1.564-3.515 3.297-3.515s3.295 1.103 3.295 3.515c0 2.41-1.562 3.515-3.295 3.515M538.424 37.198h1.668v.783c.318-.422 1.1-.92 1.835-.92.07 0 .156 0 .228.01v1.648h-.086c-.763 0-1.597.118-1.867.71v4.43h-1.78V37.2M544.357 41.876c0 .448.28.866.79.866.55 0 1.087-.227 1.624-.7v-1.58c-1.637.203-2.413.626-2.413 1.414m2.456 1.403c-.68.445-1.413.66-2.203.66-1.242 0-1.98-.826-1.98-1.936 0-1.492 1.372-2.28 4.197-2.598v-.37c0-.485-.367-.768-1.046-.768-.677 0-1.228.27-1.625.767l-1.183-.674c.62-.868 1.566-1.303 2.837-1.303 1.737 0 2.713.753 2.713 1.978 0 0-.003 4.816 0 4.827h-1.555l-.155-.583M549.908 37.376l1.452-.2.16.79c.818-.6 1.47-.918 2.286-.918 1.37 0 2.08.727 2.08 2.168v4.637h-1.754V39.52c0-.815-.212-1.182-.846-1.182-.523 0-1.045.236-1.643.738v4.777h-1.735v-6.477M563.303 37.175v6.307c0 1.11-.088 2.948-3.26 2.964-1.31.01-2.525-.515-2.766-1.658l1.728-.28c.072.328.274.654 1.255.654.908 0 1.345-.435 1.345-1.475v-.776l-.023-.023c-.28.5-.702.972-1.72.972-1.554 0-2.776-1.08-2.776-3.33 0-2.23 1.262-3.476 2.676-3.48 1.332 0 1.822.605 1.938.924l-.023-.003.146-.795h1.48zm-3.127 5.252c1.33-.01 1.443-1.363 1.443-2.244 0-1.045-.51-1.89-1.455-1.89-.63 0-1.334.46-1.334 1.962 0 .82.06 2.184 1.346 2.172zM568.81 39.645c0-.89-.51-1.415-1.343-1.415-.792 0-1.287.514-1.357 1.415h2.7zm-1.315 4.335c-1.964 0-3.134-1.264-3.134-3.454 0-2.217 1.186-3.478 3.107-3.478 1.92 0 3.064 1.224 3.064 3.39 0 .116-.013.23-.013.343h-4.435c.012 1.265.537 1.902 1.568 1.902.662 0 1.102-.267 1.513-.853l1.282.71c-.565.945-1.582 1.44-2.95 1.44zM569.478 34.67v.294h.688v1.91h.365v-1.91h.69v-.293h-1.742zm4.054 0l-.646 1.67-.657-1.67h-.563v2.203h.364v-1.838h.01l.723 1.838h.233l.718-1.838h.01v1.838h.364V34.67h-.556z" fill="#FFF"/></g><path d="M689.984 2c.85.004 1.295.667 1.454.886.074.22.136.443.213.897.012.09.017.147.017.24 0 .37-.09.582-.227.926-.12.298-.17.486-.39.723-.318.344-.544.448-.638.575-.042.06-.37.363-.465.502-.094.14-.463.716-.612 1.03-.122.26-.11.687-.54 1.284-.177.244-.327.365-.42.652-.096.29-.094.48-.248.742-.284.476-.543.682-.777 1.183-.225.485-.234.798-.384 1.306-.16.532-.524.743-.58 1.292-.03.258.03.41 0 .672-.085.79-.632 1.07-1.024 1.764-.142.258-.142.447-.19.74-.065.41-.134.633-.264 1.027-.22.665-.202 1.08-.332 1.767-.085.45-.137.707-.21 1.158-.038.235-.177.35-.177.592v.23c0 .155-.096.23-.105.39-.028.353-.09.548-.14.898-.24 1.77-.568 2.722-.997 4.454-.155.625-.152.998-.296 1.623-.108.465-.21.724-.247 1.203-.028.38-.024.59-.05.97-.032.437.02.686.02 1.123 0 .25-.022.394-.052.644-.18 1.426-.49 2.47-.522 3.656v.78l-.12 1.13v.193c.004.6-.55 1.185-1.084 1.185-.725-.002-.957-.762-1.074-1.523-.073-.478-.15-.752-.22-1.233-.036-.272-.165-.393-.227-.658-.018-.092-.013-.148-.026-.23-.016-.08-.294-1.355-.51-2.212-.178-.708-.37-2.028-.4-2.06-.038-.037-.13-.548-.17-1.052-.026-.297-.135-.61-.157-.742-.02-.145.035-.228.01-.372-.066-.4-.088-.63-.177-1.024-.09-.378-.136-.577-.2-.974v-.16c-.05-.692-.27-1.506-.392-2.474-.055-.436-.033-.692-.072-1.13-.033-.347-.06-.82-.222-.883-.225-.087-.297.236-.38.405-.184.367-.29.57-.445.955-.217.548-.294.875-.542 1.412-.276.595-.376.95-.628 1.557-.197.478-.51.906-.966.918-.387.008-.78-.42-.798-.776-.02-.283.13-.92.322-1.438.204-.543.358-.972.476-1.415.125-.474.203-.607.333-1.11.165-.653.42-1.086.598-1.735.213-.766.42-1.116.67-1.87.118-.355.2-.608.297-.972.047-.17.224-.685.334-1.13.086-.35.153-.72.246-.886.183-.278.5-.348.838-.346.71 0 1.19.37 1.197 1.076.007.47-.062 1.026.025 1.5.006.326.054.198.102.515.195 1.246.282 1.405.382 2.386.124.565.21 1.585.21 1.585 0 .4.15 1.085.24 1.473.085.382-.004.534.137 1.13.106.46.172 1.045.186 1.202.014.203.064.588.1.788.024.146.054.462.148.952.114.335.077.615.233.973.04.095.096.198.2.198.09.002.173-.137.233-.257.208-.39.19-.637.34-1.055.19-.523.27-.87.352-1.38.137-.583.278-1.692.542-2.754.266-1.073.37-1.69.576-2.773.143-.742.295-1.19.423-1.892.075-.334.173-.52.17-.864.03-.198.087-.322.125-.53.14-.736.27-1.263.333-1.89v-.175c.033-.132.08-.438.246-.762.173-.525.34-.803.634-1.27.438-.696.373-1.23.632-2.014.038-.06.232-.49.275-.824.04-.042.15-.28.196-.556.102-.115.53-1.92.83-2.648.015-.178.167-.404.248-.656.073-.24.5-1.327.697-1.993.168-.537.115-.883.336-1.396.238-.55.383-1.163.44-1.467.136-.337.268-.51.477-.812.3-.432.493-.712.982-.905.227-.087.383-.183.624-.183zm14.416 8.888c.537.002 1.084.362 1.064.9-.02.43-.154.515-.247.67-.146.242-.09.644-.91.724-.433-.003-.966-.497-.966-1.056 0-.63.427-1.238 1.06-1.238zm5.33 1.84c.75.003 1.13.74 1.11 1.558 0 .077-.028.118-.028.195 0 .21.03.324.03.53 0 .195-.066.708-.066.708 0 .398-.12.617-.12 1.016 0 .113.032.178.032.29 0 .23-.033.357-.052.585-.046.56.334.596.46.854.27.124.403.357.71.357.14.003.573-.18.69-.22.56-.247.888-.38 1.43-.668.838-.442 1.182-.8 2-1.31.54-.346 1.042-.687 1.683-.686.532 0 1.03.397 1.18.764.07.178.173.407.173.642 0 .085.037.13.037.213 0 .123-.004.195-.017.317-.04.347-.03.56-.157.882-.132.334-.356.455-.655.653-.33.226-.602.334-1.007.334h-.214c-.285 0-.41-.088-.696-.088-.448 0-.723.182-1.122.382-.476.235-1.017.543-1.183.623-.468.218-1.42.725-2.296 1.248-1.794 1.07-3.035 1.644-4.772 2.797-.673.45-.856.666-1.57 1.042-.44.236-.744.282-1.165.547-.713.45-1.098.765-1.68 1.38-.513.434-1.25 1.195-1.874 1.512-.58.294-1.242.84-1.655 1.34-.086.104-.49.362-.544.972l.132 1.674c.002.32-.146.53-.126.905l.018 1.18c.002.444.15.49.15.86l.014.47c0 .556.22.845.23 1.398-.054.6.007.863.02 1.434.018.557.1.892.235 1.43.1.402.065.62.24.99.255.55.368.856.64 1.4.183.363.294.66.294 1.068.003.793-.63 1.288-1.482 1.377-.076.008-.727.01-.993-.166-.33-.228-.424-.658-.444-1.057-.023-.554-.01-.762-.103-1.327.006-.293-.07-.455-.147-.733-.168-.632-.287-.993-.302-1.646-.016-.837.05-1.31.05-2.15-.035-.554-.078-.867-.144-1.418-.07-.545-.177-.863-.24-1.405-.113-.918-.113-1.432-.165-2.355-.017-.226-.017-.347-.04-.57-.005-.28-.124-.413-.307-.415-.38 0-.54.278-.87.466-.46.256-.695.502-1.082.857-.782.574-1.108.904-1.74 1.592-.417.452-.614.758-1.076 1.164-.373.326-.615.486-.97.83-.294.28-.394.505-.62.848-.2.304-.393.426-.67.668-1.003.882-1.196.85-2.434 2.416-.364.46-.632.524-.723.676-.018.03-.428.367-.577.514-.204.204-.517.504-.695.645-.395.317-.538.6-.918.936-.432.377-.702.61-1.253.79-.256.085-.356.177-.63.177-.562 0-.946-.534-.948-1.097 0-.358.178-.492.39-.777.407-.553.684-.84 1.2-1.287.844-.743 1.143-1.37 2.08-1.995.328-.216 1.147-.668 1.37-.84.38-.294.715-.618 1.016-.992.13-.17.28-.214.405-.388.134-.187.178-.325.336-.495.356-.385.627-.543 1.06-.845.56-.393.88-.568 1.41-1.004.38-.308.545-.575.847-.955.6-.748 1.164-.948 1.943-1.515.36-.263.476-.518.758-.864.155-.19.67-.852 1.184-1.304.343-.302.553-.458.9-.76.596-.514.806-.33.79-1.12 0-.136.038-.325-.166-.31-.19.017-.24.176-.378.3-.293.26-.475.388-.866.382-.8-.014-1.305-.728-1.33-.776-.226-.447-.59-1.806-.606-2.225 0 0-.025-.564 0-.885.03-.402.134-1.136.384-1.573.138-.243.262-1.2.43-2.082.06-.32.24-.647.343-.958.15-.45.22-.722.49-1.11.48-.685.745-1.458 1.58-1.454.188 0 .274.046.442.127.108.058.23.078.293.178.058.092.004.174.09.24.16.123.23.373.23.622 0 .142 0 .226-.016.365-.062.563-.403.79-.758 1.234-.343.433-.426.574-.643 1.083-.176.413-.22.84-.306 1.283-.102.52-.19.984-.226 1.344-.012.114-.025.21-.025.33 0 .13.098.374.23.374.207 0 .393-.248.463-.444.167-.457.295-.68.41-1.154.17-.675.278-.974.54-1.546.33-.708.363-1.16.554-1.74.23-.698.428-1.344 1.166-1.34.235 0 .39.002.593.12.463.258.578.697.578 1.226-.005.162-.01.258-.026.42-.17 1.58-.564 2.434-.694 4.026-.018.225 0 .358-.02.582-.033.4-.124.616-.122 1.018 0 .18.04.28.09.45.027.09.057.195.15.195.185 0 .262-.13.416-.23.3-.187.5-.25.794-.442.454-.3.747-.42 1.185-.738.447-.327.905-.83 1.37-1.13.453-.295.51-.22.996-.526.59-.372.945-.564 1.502-.984.334-.256.346-.435.83-.706.462-.263.73-.404 1.18-.688.242-.152.363-.27.62-.387.212-.1.424-.197.424-.432-.003-.236-.15-.373-.27-.573-.172-.29-.204-.447-.205-.783 0-.166-.006-.293.02-.456.106-.653.36-.998.358-1.66l.02-.215c-.03-.024-.048-.054-.09-.054-.09 0-.145.12-.202.19-.17.197-.267.32-.433.52-.22.26-.363.402-.51.706-.088.167-.073.285-.142.46-.152.38-.26.606-.388.995-.346 1.047-.322 2.432-1.427 2.43-.725-.002-1.315-.578-1.316-1.304 0-.418.118-1.056.17-1.103.178-.15.035-.55.14-.643.086-.072.12-.44.12-.8 0-.166.046-.264.046-.43l.02-.268c0-.302.093-.46.137-.756.09-.603.247-.75.297-.922.028-.1.02-.146.056-.245.194-.547.15-.872.684-1.323.19-.19.312-.394.582-.394.624 0 .796.358.958.343.292-.03.39-.254.597-.458.628-.605 1.032-1.34 1.915-1.34zm-6.983 3.857c.596 0 1.185.22 1.17.983-.01.45-.244.67-.404 1.087-.133.344-.065.578-.157.936-.142.533-.365.477-.334 1.378.01.676.01 1.057-.013 1.732-.027.65-.56 1.107-1.212 1.116-.565.01-1.143-.66-1.142-1.225 0-.404.115-.62.14-1.025.018-.352-.008-.55.016-.9.035-.598.198-.917.384-1.486.092-.282.087-.466.194-.742.154-.405.2-.633.438-1.024.104-.44.436-.83.92-.83zm-16.235 2.1c.358 0 .613.177.8.487.184.304.34.493.34.85 0 .062-.018.097-.018.158.003.612-.51 1.095-1.12 1.095-.61-.005-1.055-.63-1.054-1.163 0-.213.132-.35.154-.582.058-.55.41-.846.898-.844zm4.475 1.65c.627.003.905.52 1.213 1.065.302.53.64.818.64 1.422 0 .608-.397.913-.866 1.3-.266.22-.497.175-.846.28-.16.05-.192.265-.213.458-.037.353-.063.55-.07.9-.015.587.005.92.007 1.503-.06.325-.007.543-.16.83-.242.462-.626.69-1.15.688-.605 0-1.124-.48-1.113-1.087 0-.18.077-.727.067-1.194-.016-.71-.072-1.112-.074-1.82-.002-.356.158-.545.158-.903v-.298c-.008-.26.245-.496.51-.708.38-.304.54-.643.718-1.097.295-.75.458-1.34 1.18-1.34zm-4.47 2.806c.305.005.513.114.692.355.288.394.468.685.47 1.17 0 .106-.008.163-.017.267-.048.4-.176.614-.39.953-.133.215-.136.382-.243.618-.2.428-.318.825-.334 1.166-.02.702-.03 1.1-.014 1.8.008.352.09.546.09.894.003.73-.425 1.473-1.156 1.473-.723.002-1.412-.955-1.375-1.964.017-.363.075-.563.14-.92.11-.557.196-1.19.298-1.43.14-.32.13-.434.156-.532l.084-.576c0-.236.092-.286.13-.518.08-.496.138-.773.298-1.253.096-.297.232-.432.334-.723.15-.42.393-.78.837-.78z" fill="#D72938"/><path d="M746.274 0c-3.816 0-7.453 1.435-9.594 3.724V1.166l-.372-.373h-7.775l-.373.373-.16 46.53.16.304 8.335-4.993.2-.335-.015-25.82c0-5.89 2.838-9.268 7.783-9.268 5.38 0 7.776 3.08 7.776 9.992v19.876l.375.373h7.776l.374-.373v-20.17c0-11.305-5.01-17.282-14.49-17.282z" fill="#52BC0F"/><g transform="translate(771 2)"><use fill="#000" filter="url(#a)" xlink:href="#b"/><use fill="#E2E2E2" xlink:href="#b"/><rect fill="#E2E2E2" x="2" width="34" height="9" rx="3"/><rect fill="#AAA9A8" x="2" y="31" width="34" height="9" rx="3"/><use fill="#000" filter="url(#c)" xlink:href="#d"/><use fill="#0D7DC0" xlink:href="#d"/><g transform="translate(0 20)"><mask id="g" fill="#fff"><use xlink:href="#e"/></mask><use fill="#000" filter="url(#f)" xlink:href="#e"/><use fill="#0AABF4" xlink:href="#e"/><path fill="#099DE1" mask="url(#g)" d="M2 0l17 17h20.025V0"/></g><path d="M10 27c0-3 6-5 9-5s9 2 9 5v3H10v-3zm9-9c2.21 0 4-1.79 4-4s-1.79-4-4-4-4 1.79-4 4 1.79 4 4 4z" fill="#E8E8E8"/><g transform="translate(21 22)"><circle fill="#FD7461" cx="12" cy="12" r="12"/><use fill="#000" filter="url(#h)" xlink:href="#i"/><use fill="#FFF" xlink:href="#i"/></g></g><g transform="translate(816)"><rect fill="#0077B5" width="48" height="48" rx="4"/><path d="M15.19 39.277v-20.43H8.4v20.43h6.79zM11.797 16.06c2.368 0 3.842-1.57 3.842-3.53C15.594 10.525 14.164 9 11.84 9 9.52 9 8 10.525 8 12.53c0 1.96 1.473 3.53 3.752 3.53h.044zm7.477 23.217h6.79v-11.41c0-.61.044-1.22.224-1.656.49-1.218 1.608-2.482 3.484-2.482 2.458 0 3.44 1.873 3.44 4.62v10.93H40V27.562c0-6.275-3.35-9.194-7.817-9.194-3.663 0-5.27 2.046-6.165 3.44h.046V18.85h-6.79c.09 1.917 0 20.43 0 20.43z" fill="#FFF"/></g><g fill="#264670"><path d="M908.885 11.55l-5.124 8.72h-5.38l-6.352 10.796h5.39L893.342 38h13.242c3.385-4.052 5.418-9.23 5.418-14.874 0-4.21-1.136-8.158-3.115-11.577zM882.66 38h.013l-.006-.012L899.12 10H885.2l-9.488 16.153-8.59-14.617C865.14 14.956 864 18.91 864 23.126c0 5.644 2.032 10.822 5.418 14.874h13.242zM898.128 39.2h5.04v1.728h-2.976v1.224h2.544v1.728h-2.544v1.392h3.096V47h-5.16v-7.8zm6.624 0h2.064v4.272c0 .696.094 1.186.282 1.47.188.284.486.426.894.426.408 0 .71-.142.906-.426.196-.284.294-.774.294-1.47V39.2h1.992v4.032c0 1.336-.26 2.322-.78 2.958-.52.636-1.324.954-2.412.954-1.096 0-1.91-.318-2.442-.954-.532-.636-.798-1.622-.798-2.958V39.2z"/></g><g fill="#264670"><path d="M956.885 11.55l-5.124 8.72h-5.38l-6.352 10.796h5.39L941.342 38h13.242c3.385-4.052 5.418-9.23 5.418-14.874 0-4.21-1.136-8.158-3.115-11.577zM930.66 38h.013l-.006-.012L947.12 10H933.2l-9.488 16.153-8.59-14.617C913.14 14.956 912 18.91 912 23.126c0 5.644 2.032 10.822 5.418 14.874h13.242zM946.488 43.16c0-.656.104-1.238.312-1.746.208-.508.488-.936.84-1.284s.758-.614 1.218-.798c.46-.184.942-.276 1.446-.276.496 0 .946.102 1.35.306.404.204.746.446 1.026.726l-1.128 1.272c-.192-.168-.38-.298-.564-.39-.184-.092-.404-.138-.66-.138-.232 0-.454.052-.666.156-.212.104-.396.252-.552.444-.156.192-.28.428-.372.708-.092.28-.138.596-.138.948 0 .736.154 1.3.462 1.692.308.392.714.588 1.218.588.304 0 .566-.058.786-.174.22-.116.414-.266.582-.45l1.128 1.248c-.336.384-.72.672-1.152.864-.432.192-.888.288-1.368.288-.512 0-.996-.082-1.452-.246-.456-.164-.856-.412-1.2-.744s-.616-.748-.816-1.248c-.2-.5-.3-1.082-.3-1.746zm10.692.588l-.132-.54c-.096-.376-.192-.784-.288-1.224-.096-.44-.192-.856-.288-1.248h-.048c-.088.4-.178.818-.27 1.254-.092.436-.186.842-.282 1.218l-.132.54h1.44zm.372 1.596h-2.184L954.984 47h-2.112l2.376-7.8h2.496l2.376 7.8h-2.184l-.384-1.656z"/></g><g fill="#3E669C"><path d="M1056 10h48v28h-48V10zm2 13l10-11h7l-10 11 9.5 13h-6.5l-6.5-9.5-3.5 3.5v-7zm20.5-11h23.5v24h-24s-4-2-4-7h7c0 2 .5 4 6 4s5-3 5-3 0-1.5-4-2.5-7.5-2-9-2.5-4.5-2.5-4.5-6.5 3-6 4-6.5zm18.5 9c1.657 0 3-1.343 3-3s-1.343-3-3-3-3 1.343-3 3 1.343 3 3 3zm-6 0v-2c0-1-.5-4-5-4s-4.016 2-4.017 2.5c0 2.5 9.017 3.5 9.017 3.5zM1090.128 39.2h5.04v1.728h-2.976v1.224h2.544v1.728h-2.544v1.392h3.096V47h-5.16v-7.8zm6.624 0h2.064v4.272c0 .696.094 1.186.282 1.47.188.284.486.426.894.426.408 0 .71-.142.906-.426.196-.284.294-.774.294-1.47V39.2h1.992v4.032c0 1.336-.26 2.322-.78 2.958-.52.636-1.324.954-2.412.954-1.096 0-1.91-.318-2.442-.954-.532-.636-.798-1.622-.798-2.958V39.2z"/></g><g fill="#3E669C"><path d="M1104 10h48v28h-48V10zm2 13l10-11h7l-10 11 9.5 13h-6.5l-6.5-9.5-3.5 3.5v-7zm20.5-11h23.5v24h-24s-4-2-4-7h7c0 2 .5 4 6 4s5-3 5-3 0-1.5-4-2.5-7.5-2-9-2.5-4.5-2.5-4.5-6.5 3-6 4-6.5zm18.5 9c1.657 0 3-1.343 3-3s-1.343-3-3-3-3 1.343-3 3 1.343 3 3 3zm-6 0v-2c0-1-.5-4-5-4s-4.016 2-4.017 2.5c0 2.5 9.017 3.5 9.017 3.5zM1138.488 43.16c0-.656.104-1.238.312-1.746.208-.508.488-.936.84-1.284s.758-.614 1.218-.798c.46-.184.942-.276 1.446-.276.496 0 .946.102 1.35.306.404.204.746.446 1.026.726l-1.128 1.272c-.192-.168-.38-.298-.564-.39-.184-.092-.404-.138-.66-.138-.232 0-.454.052-.666.156-.212.104-.396.252-.552.444-.156.192-.28.428-.372.708-.092.28-.138.596-.138.948 0 .736.154 1.3.462 1.692.308.392.714.588 1.218.588.304 0 .566-.058.786-.174.22-.116.414-.266.582-.45l1.128 1.248c-.336.384-.72.672-1.152.864-.432.192-.888.288-1.368.288-.512 0-.996-.082-1.452-.246-.456-.164-.856-.412-1.2-.744s-.616-.748-.816-1.248c-.2-.5-.3-1.082-.3-1.746zm10.692.588l-.132-.54c-.096-.376-.192-.784-.288-1.224-.096-.44-.192-.856-.288-1.248h-.048c-.088.4-.178.818-.27 1.254-.092.436-.186.842-.282 1.218l-.132.54h1.44zm.372 1.596h-2.184l-.384 1.656h-2.112l2.376-7.8h2.496l2.376 7.8h-2.184l-.384-1.656z"/></g><g transform="translate(1154)"><rect fill="#FFF" y="2" width="44" height="44" rx="2"/><path d="M42 42V11H2v31h40zM37 4h5v5H2V4h5v1.997C7 6.562 7.448 7 8 7c.556 0 1-.45 1-1.003V4h5v1.997C14 6.562 14.448 7 15 7c.556 0 1-.45 1-1.003V4h5v1.997C21 6.562 21.448 7 22 7c.556 0 1-.45 1-1.003V4h5v1.997C28 6.562 28.448 7 29 7c.556 0 1-.45 1-1.003V4h5v1.997C35 6.562 35.448 7 36 7c.556 0 1-.45 1-1.003V4zm-2-2h-5v-.997C30 .438 29.552 0 29 0c-.556 0-1 .45-1 1.003V2h-5v-.997C23 .438 22.552 0 22 0c-.556 0-1 .45-1 1.003V2h-5v-.997C16 .438 15.552 0 15 0c-.556 0-1 .45-1 1.003V2H9v-.997C9 .438 8.552 0 8 0c-.556 0-1 .45-1 1.003V2H2.005C.9 2 0 2.898 0 4.005v39.99C0 45.1.898 46 2.005 46h39.99C43.1 46 44 45.102 44 43.995V4.005C44 2.9 43.102 2 41.995 2H37v-.997C37 .438 36.552 0 36 0c-.556 0-1 .45-1 1.003V2z" fill="#855CEA"/><path d="M5 16.003C5 15.45 5.455 15 6 15h32c.553 0 1 .44 1 1.003v20.994C39 37.55 38.545 38 38 38H6c-.553 0-1-.44-1-1.003V16.003zM7 17h6v5H7v-5zm16 0h6v5h-6v-5zm8 0h6v5h-6v-5zM7 24h6v5H7v-5zm8 0h6v5h-6v-5zm8 0h6v5h-6v-5zm8 0h6v5h-6v-5zM7 31h6v5H7v-5zm8 0h6v5h-6v-5zm8 0h6v5h-6v-5zm8 0h6v5h-6v-5z" fill="#855CEA"/></g><g><path d="M1210 18.006c0-1.108.9-2.006 1.99-2.006h24.02c1.098 0 1.99.897 1.99 2.006v9.988c0 1.108-.9 2.006-1.99 2.006h-24.02c-1.098 0-1.99-.897-1.99-2.006v-9.988z" fill="#FF5D47"/><path d="M1224.59 21.894c-.403-.52-.59-.894-.59-.894s-.187.375-.59.894c0 0-.48.576-.717.808C1221.59 23.792 1219.75 25 1217 25c-5 0-7-4-7-4v-3.002c0-1.104.9-1.998 1.99-1.998h24.02c1.098 0 1.99.898 1.99 1.998V21s-2 4-7 4c-2.75 0-4.59-1.21-5.693-2.298l-.717-.808z" fill="#FFF"/><path d="M1212 22l-.21-.894c.018.037.095.17.233.363.248.35.558.704.93 1.035 1.058.94 2.377 1.495 4.047 1.495s2.99-.555 4.046-1.495c.373-.33.683-.686.93-1.036.14-.195.216-.327.235-.364.738-1.475 2.842-1.475 3.58 0 .018.037.095.17.233.363.248.35.558.704.93 1.035 1.058.94 2.377 1.495 4.047 1.495s2.99-.555 4.046-1.495c.373-.33.683-.686.93-1.036.14-.195.216-.327.235-.364L1236 22v-4.002l-24.01.002c.012 0 .01 4 .01 4zm12.59.894c-.403-.52-.59-.894-.59-.894s-.187.375-.59.894c0 0-.48.576-.717.808C1221.59 24.792 1219.75 26 1217 26c-5 0-7-4-7-4v-4.002c0-1.104.9-1.998 1.99-1.998h24.02c1.098 0 1.99.898 1.99 1.998V22s-2 4-7 4c-2.75 0-4.59-1.21-5.693-2.298l-.717-.808zM1202 29.99c0-1.1.9-1.99 2.005-1.99h39.99c1.107 0 2.005.898 2.005 1.99v16.02c0 1.1-.9 1.99-2.005 1.99h-39.99c-1.107 0-2.005-.898-2.005-1.99V29.99z" fill="#FF5D47"/><path d="M1217.683 38.012c-.467-.58-.683-1.012-.683-1.012s-.25.398-.747.944c0 0-.417.397-.64.64C1214.387 39.7 1212.35 41 1209.5 41c-5 0-7.5-4-7.5-4v-7c0-1.105.9-2 2.005-2h39.99c1.107 0 2.005.887 2.005 2v7s-2.5 4-7.5 4c-2.85 0-4.887-1.3-6.113-2.417-.218-.225-.64-.64-.64-.64C1231.25 37.4 1231 37 1231 37s-.216.432-.683 1.012c0 0-.372.433-.588.654-1.098 1.098-2.95 2.334-5.73 2.334-2.78 0-4.632-1.236-5.73-2.334l-.587-.654z" fill="#FFF"/><path d="M1204 30v8l-.304-1.06c.032.05.136.197.31.405.308.37.682.744 1.118 1.093 1.23.983 2.676 1.562 4.376 1.562 1.7 0 3.147-.58 4.376-1.562.436-.35.81-.723 1.12-1.093.172-.208.276-.354.308-.405.828-1.324 2.786-1.23 3.485.166.018.037.095.17.233.363.248.35.558.704.93 1.035 1.058.94 2.377 1.495 4.047 1.495s2.99-.555 4.046-1.495c.373-.33.683-.686.93-1.036.14-.195.216-.327.235-.364.7-1.397 2.658-1.49 3.486-.166.032.05.136.197.31.405.308.37.682.744 1.118 1.093 1.23.983 2.676 1.562 4.376 1.562 1.7 0 3.147-.58 4.376-1.562.436-.35.81-.723 1.12-1.093.172-.208.276-.354.308-.405L1244 38v-8c0-.003.003 0-.005 0h-39.99c-.003 0-.005.002-.005 0zm13.683 9.012c-.467-.58-.683-1.012-.683-1.012s-.25.398-.747.944c0 0-.417.397-.64.64C1214.387 40.7 1212.35 42 1209.5 42c-5 0-7.5-4-7.5-4v-8c0-1.105.9-2 2.005-2h39.99c1.107 0 2.005.887 2.005 2v8s-2.5 4-7.5 4c-2.85 0-4.887-1.3-6.113-2.417-.218-.225-.64-.64-.64-.64C1231.25 38.4 1231 38 1231 38s-.216.432-.683 1.012c0 0-.372.433-.588.654-1.098 1.098-2.95 2.334-5.73 2.334-2.78 0-4.632-1.236-5.73-2.334l-.587-.654zM1215 8h4v9h-4V8zm7 0h4v9h-4V8zm7 0h4v9h-4V8z" fill="#FF5D47"/><path d="M1217 8c.552 0 1-.448 1-1 0-.475-.42-1.99-.98-3.37-.285-.708-.58-1.315-.827-1.712-.093-.15-.165-.245-.186-.266.184.183.475.348.993.348s.81-.165.993-.348c-.02.02-.093.116-.186.266-.247.397-.542 1.004-.828 1.712-.56 1.38-.98 2.895-.98 3.37 0 .552.448 1 1 1zm0 2c-1.657 0-3-1.343-3-3s2-7 3-7 3 5.343 3 7-1.343 3-3 3zm7-2c.552 0 1-.448 1-1 0-.475-.42-1.99-.98-3.37-.285-.708-.58-1.315-.827-1.712-.093-.15-.165-.245-.186-.266.184.183.475.348.993.348s.81-.165.993-.348c-.02.02-.093.116-.186.266-.247.397-.542 1.004-.828 1.712-.56 1.38-.98 2.895-.98 3.37 0 .552.448 1 1 1zm0 2c-1.657 0-3-1.343-3-3s2-7 3-7 3 5.343 3 7-1.343 3-3 3zm7-2c.552 0 1-.448 1-1 0-.475-.42-1.99-.98-3.37-.285-.708-.58-1.315-.827-1.712-.093-.15-.165-.245-.186-.266.184.183.475.348.993.348s.81-.165.993-.348c-.02.02-.093.116-.186.266-.247.397-.542 1.004-.828 1.712-.56 1.38-.98 2.895-.98 3.37 0 .552.448 1 1 1zm0 2c-1.657 0-3-1.343-3-3s2-7 3-7 3 5.343 3 7-1.343 3-3 3z" fill="#FF5D47"/></g><g transform="translate(1248)"><rect fill="#E3373D" width="48" height="48" rx="4"/><path fill="#FFF" d="M0 14h48v29H0z"/><path d="M14.343 32.415c-.476-1.335-.784-2.85-1.08-4.33-.383-1.904-.778-3.838-1.45-5.347-.078.008-.157.083-.233.083-.236 0-.443.058-.65.024-.194-.035-.39.17-.622.17h-.066c-.06 0-.115-.238-.14-.256-1.07 1.473-1.437 3.46-1.92 5.477-.268-.477-.513-.967-.755-1.47-.43-.88-.872-1.785-1.375-2.51-.14-.012-.278-.013-.41-.013-.574 0-1.096.105-1.587.25l-.025 1.354c-.054 2.323-.1 4.33.475 6.224.107.018.216.027.323.027.69 0 1.3-.343 1.564-.48.042-.595-.03-1.058-.106-1.55-.04-.253-.08-.507.05-.837.4.528.752 1.107 1.102 1.686.223.366.446.732.616 1.047.116.012.224.016.328.016.27 0 .508-.035.745-.067.247-.034.49-.066.77-.066l.16.06c.316-.717.333-1.77.35-2.79.014-.936.03-1.902.44-2.62.444 2.09 1.05 4.12 1.85 6.203.282-.04.593-.137.88-.228.216-.068.41-.132.564-.132.08 0 .148.035.203.075zm5.52.438c-.153-.284-.374-.416-.69-.416-.24 0-.515.07-.78.144-.27.075-.548.146-.8.146-.068 0-.133-.017-.197-.03-.3-.06-.545-.25-.722-.518-.32-.485-.398-1.28-.11-2.248.46.128 1.043.147 1.68.147h.157c.164 0 .313.053.41.094.313-1.295.144-3.06-.107-4.077-.194-.04-.367-.113-.54-.174-.3-.107-.584-.21-.97-.21-.067 0-.136-.003-.205.005-1.225.167-2.058 1.918-2.248 3.562-.176 1.518.145 3.34 1.57 3.9.293.115.658.172 1.083.172.847 0 1.83-.243 2.47-.497zm4.863-.37c-.077-.26-.3-.404-.628-.508-.28.44-.715.686-1.23.686-.546 0-1.09-.282-1.415-.74-.312-.435-.388-.98-.113-1.588.442.092.874.176 1.277.176.334 0 .635-.054.888-.084-.078-.997.035-1.696.156-2.436.1-.618.205-1.255.227-2.027-.558-.43-1.15-.648-1.813-.708-1.634 1.272-2.392 3.222-2.32 5.945.223 1.204 1.78 1.95 3.097 1.95.804-.002 1.478-.267 1.876-.664zm5.66-3.734c-.204-.166-.376-.36-.548-.558-.326-.372-.634-.723-1.134-.86-.104.002-.125.08-.136.315-.01.19-.026.48-.31.48l-.194.002.008-.07c.07-.844.01-1.816-.058-2.894-.092-1.528-.188-2.957.078-4.25-.33-.403-.833-.617-1.808-.617h-.036c-.08 0-.154-.255-.176-.3-.502 1.573-.258 3.296-.022 5.18.136 1.073.263 2.076.107 3.048-.193 0-.388-.024-.578-.04-.17-.014-.336-.032-.484-.032-.28 0-.447.05-.548.165-.113.13-.147.353-.14.622.385.27 1.05.288 1.696.305l.405.093c.017.575.06 1.122.104 1.67.066.805.13 1.636.115 2.54.17-.022.323-.03.472-.04.288-.02.56-.037.87-.074-.01-.64-.032-1.252-.055-1.84-.03-.823-.06-1.603.01-2.446.286-.083.632-.102.966-.12.56-.032 1.138-.064 1.392-.28zm5.95-1.02c-.4-.335-.898-.912-1.464-.912h-.128c-.06 0-.113.158-.14.13l-.015.602c-.04 1.65-.093 3.94-1.644 4.49-.148-.993-.188-2.076-.225-3.045-.02-.517-.038-.985-.02-1.312-.152-.074-.29-.154-.427-.238-.386-.236-.75-.456-1.335-.534-.233 2.84.047 4.722.832 5.59.323.358.74.54 1.238.54.35 0 .746-.086 1.14-.228l.15-.236c.28-.436.464-.726.882-1.05.107-.195.22-.435.336-.62.513-.84.997-1.734.82-3.177zm7.49-2.675c-.855-.51-1.6-.755-2.278-.755-.844 0-1.577.386-2.24 1.184-1.246 1.5-1.506 4.62-1.685 6.193-.075.033-.157.06-.24.082-.217.065-.42.127-.5.23.657.773.785 2.085.91 3.35.098.98.196 1.99.478 2.677.157.034.376.052.67.052.138 0 .284-.006.428-.006.244 0 .484.01.674.07-.454-1.165-.63-2.745-.49-5.053 1.85-.444 3.494-1.78 4.29-3.488.48-1.03.86-2.662-.016-4.537zm-21.97 4.654c-.16 0-.322-.014-.442-.185.037-.647.244-1.13.446-1.597.09-.21.18-.42.254-.645l.09-.265.074.27c.175.624.12 1.79-.15 2.416l-.272.005zm20.05-4.085l-.08.077c-1.37 1.316-1.868 3.552-2.226 5.542 1.144-.315 2.116-1.39 2.536-2.575.256-.724.433-1.823-.175-2.947l-.053-.098zM16.86 29.212c.07.03.153.063.266.063l.058-.012.138-.07c.108-.535.074-1.23-.09-1.903-.422.488-.68 1.057-.777 1.785l-.013.1.215-.012c.08 0 .137.02.202.05z" fill="#000"/></g><path d="M1342.205 17.303c1.39-2.315 1.692-2.356 1.792-3.322.08-.764-1.71-1.61-2.738-2.314-1.008-.725-2.277-.966-2.72-.986-.463-.02-1.067.08-.986-.162.628-1.865-.454-2.307-.886-2.398V7.115h-.182v-.182h-17.844c-.77-.175-2.367-.536-2.996-.503-.442 0-1.402.5-1.727.503h-.035c-.175 0-.706-.168-.897-.322-.28-.24-.543-.804-1.953-.542-.543.096-.963.426-1.222.865h-8.02v.182h-.182v9.947c-.49.046-.774.172-.844.242-.08.06-.524.22-.605.564-.28.24-.36.745-.18.926-.04.12-.18.745.363.926.543.846-.262 1.25-.262 1.25s-.623.06-2.335.925c-3.826 1.913-.262 2.84.382 2.9.947.08 1.148.16.846 1.127-.322.967 0 2.336 0 2.336-.765.02-.866.826-.846 1.39-.483 1.73 1.048 1.328 1.45.583 1.408.63 1.9-1.49 2.033-1.42v1.364c-.234.448-.482.823-.482.823-.665 1.45-.102.866-.142 1.49-.054.6.043.984.624 1.158v8.325h.182v.202h5.864c.1.067.204.13.317.18.665.303.725.323.906.04.045-.07.07-.145.078-.22h27.528v-.202h.18V31.074c1.315-.03.872-.33.968-1.547.08-1.29.302-3.02.302-2.88.16 1.228.624 3.343.443 3.604-.182.242-.142.424-.786.826-.665.403-.665.624-.645.665.02.04-.1.404.724.424.826.02 1.793-.565 1.873-.585.302-.16.705-.08.866-.604 0 0 .1-.947 0-1.39.322-.886.423-3.624.342-4.107.705-1.713.584-5.558.564-5.78.643-1.11.945-1.33.885-2.397zm-33.627 23.963c-.073-.087-.114-.186-.04-.324.012-.026.026-.05.04-.077v.4zm.363-1.027c.942-1.375 2.256-1.814 2.256-1.814.735-.245 3.157-1.068 4.228-1.32v4.7h-6.482V40.24zm26.64-21.407c-.225.928-.342 1.55-.403 1.993h-3.263c.78-.628 1.476-1.26 1.612-1.47.887-.302.504-.805.262-1.127-.262-.323-.886-.282-1.248-.06-1.088.04-.262.44-.423.643-.322.322-1.73.986-2.235 1.35-.072.05-.138.092-.2.125V14.47c1.722.73 4.585.408 4.992.72.423.3 1.228 2.315.907 3.643zm-.463 3.444c-.2 2.51.585 4.41.72 5.637h-6.156v-5.6c.367-.11 1.066-.582 1.772-1.124h3.683c-.05.568.016.75-.018 1.087zm-31.23 3.14c-.06-1.127.262-1.75.423-1.892.14-.14 1.148-.705 1.732-.886 1.484-.437 2.315-1.01 2.536-1.193v4.538c-.1.025-.226-.024-.302-.024-.684-.1-.725.1-.684.243.02.06.06.1-.624.06-1.048-.04-.705.705-.222.906.543.24 1.83.3 1.832.3v.444h-4.23c-.13-1.504-.43-1.887-.46-2.496zm6.242-9.1c.12-.302-.183-.765.02-1.128.07-.158.487-.65.758-.987h3.03c.27.054.546.087.82.08.175-.003.332-.035.48-.08h.186v6.624h-5.725c.166-.117.302-.24.348-.362.16-.423.12-.826-.18-.846-.646.34-.304.06-.606.1-.16.113-.258.17-.32.2v-2.383c.547-.456 1.105-1.045 1.187-1.22zm6.583-5.357c-.02-.202.222-.624.362-.906.122-.302.605-.866.625-1.168.02-.04.705.06.906.06.22-.02 1.007-.08 1.41-.1.422 0 1.207.28 1.53.26.155-.007.5-.015.865-.013v4.746h-6.504c.46-.38.742-.91.888-1.19.22-.482-.04-1.49-.08-1.69zm12.605 3.338v6.12c-.166.024-.278-.012-.342-.034-.14-.06-.987-.423-1.108-.443-.14-.02-.1.102-1.107-.422-1.328-.705-1.61-.684-2.516-.564-.926.12-1.228.282-1.228-.1 0-.383.523-.665.523-.665.704-.242.402-.685.34-.806-.04-.14 0-.483-.18-.785.362-.323-.343-.645-.463-.827-.05-.092-.15-.603-.463-1.007v-.563h6.378l.166.095zm-20.377 6.95l.122-.058h6.362v1.617c-.846.578-1.288.994-2.235 1.583-1.048.665-2.78 1.37-3.646 1.63 0 0-.382.142-.543.02-.02-.023-.04-.034-.06-.053v-4.74zm6.847-.058h2.134c-.755.49-1.602 1.025-2.133 1.375V21.19zm6.624-6.756c-.297-.184-.704-.256-1.267-.07-2.014.644-2.296 1.43-2.618 1.67-.322.242-.523.444-.604.726-.06.28.303.523-.02 1.107-.34.584 0 .947.04 1.047.042.12.082.685.444.785 1.007.1.684.2 1.128.362-.1.122-.51.413-1.038.765h-2.687v-6.624h6.624v.23zm-13.47 13.02c.11-.162.384-.357 1.23-.325 2.275.073 4.263-1.306 5.254-1.842v2.627h-6.483v-.46zm6.847-2.345c.94-.442 2.995-1.56 3.423-1.424.423.12 1.59 2.175 1.47 2.557-.187.598-.785.99-1.064 1.67h-3.83V25.11zm3.71 3.168c-.493 1.853.21 1.708.015 2.758-.06.342-1.692 1.37-2.86 2.658-.283.317-.574.546-.865.716v-6.132h3.71zm2.914 5.747v.795h-.886c.42-.32.703-.61.887-.795zm.365-.343c.36-.382.993-1.246 1.147-1.298.18-.04.503-.02 1.57.443 2.658 1.15 2.72.604 3.162 1.107.07.297.174.594.288.886h-6.167v-1.138zm6.543-3.19c-.76-.496-2.218-1.55-3.106-2.214h3.106v2.213zm-3.582-2.578c-.103-.08-.18-.143-.224-.18-.08-.082.12-1.068.14-1.43.04-.363-.06-1.228.424-2.396.564-.363.423-1.168.584-1.57.357-.02 1.593.22 2.657.038v5.54h-3.58v-.002zm.783-15.142c-.142-.02-.464.1-.383.202.362.443 1.328.242 1.63.403.155.082.465.27.782.462h-5.775V9.1c.363.012.695.037.825.088.302.122 1.59.826 1.772.725.18-.1-.182-.36-.14-.483.02-.12 1.126.122 1.268-.18.14-.303-.806-.706-1.128-.807-.322-.1-1.107-.1-1.37-.16-.17-.04-.71-.284-1.226-.46v-.527h6.542v5.575c-.94-.18-1.24-.416-1.41-.5-.2-.1-.663-.665-1.81-.665-.02 0-.766.06-.746.463.805.303 1.167.604 1.167.604zm-4.11-5.06c-.138-.038-.27-.067-.38-.075-.182-.02-1.29-.24-1.49-.282-.055-.005-.164-.028-.3-.06h2.17v.416zm-11.25 6.127c.077-.215.088-.707.197-.725.08-.012.663.39 1.447.724h-1.643zm-2.582-.932c-.06.312-.125.628-.193.93h-6.41V7.297h6.603v5.612zm-.275 1.294c-.21.907-.415 1.632-.45 1.69-.04.082-.523.827-.705 1.11-.18.26-.423.34-.563.503-.162.14-.1.463.24.563.323.1.766-.302.887-.282.08 0 .02.323.24.323.14.01.37-.11.625-.29v2.372c-.083.193-.114.138-.403.253-.403.18-.946.282-1.932.322-.285.017-.58.04-.868.06h-2.44c-.05-.04-.088-.09-.095-.16.643-.746.32-.826.44-1.17.122-.36.02-.804.062-1.187.06-.362-.1-.745-.16-.785-.082-.02-.364-.182-.585-.202-.172-.017-.35-.202-.624-.257v-2.863h6.33zm-5.342 19.23c.14-.282-.604-.947-.22-1.65.3-.566 1.69-1.754 1.67-2.48-.003-.386-.015-.723-.034-1.024h4.202v6.542h-6.604v-1.105c.65.08.856-.022.987-.283zm5.98-5.154h6.484v6.315c-.235.102-.466.174-.69.227h-5.793v-6.542zm4.28 6.906c-.848.376-2.112 1.58-3.856 2.537-.148.08-.284.147-.423.217v-2.753h4.28zm2.567 1.856c.006 0 .014-.003.02-.004 2.215-.2 2.013-.644 2.86-.866.988-.257 1.75-.62 2.332-.986h1.41v6.623h-6.623V37.04zm6.988-1.856h6.314c.07.163.15.318.228.474v6.15h-6.543v-6.624zm6.906 1.135c.464.775.936 1.37 1.15 1.562.402.342 1.247 1.37 1.267 2.255.035.75-.483 1.332.832 1.67h-3.248V36.32zm6.624 5.028c-.14-.13-.41-.283-.925-.486-1.13-.423-1.632-1.168-2.075-1.953-.314-.533-.94-2.218-1.388-3.726h4.388v6.164zm-4.492-6.528c-.165-.58-.295-1.12-.36-1.53-.247-1.465-.946-2.048-1.77-2.568v-2.444h6.19c.08.97-.107 1.41-1.4 2.174-1.43.826.263.724.263.724s.08-.114 1.57-.1v3.744h-4.493zm3.124-26.478c-.745.423-.443.947-.584 1.188-.14.222-.442.382-.442.665 0 .28.3.32.3.34.02.465.062.807.062.908 0 .362.443.32.382.423-.14.16-.825.362-1.35.705-.502.323-1.006.544-1.328.524-.342-.02-.564.08-2.014-.12-.103-.013-.19-.028-.28-.042V7.296h6.623v.772c-.327-.035-.782-.034-1.37.274zm-25.39-.06c.12 1.027 1.006 1.63 1.41 1.67.42.062.4-.08.784-.16.383-.08.423.1.584.06.14-.06.04-.14.22-.2.183-.08.646-.08.766-.302.06-.1.322-.403.322-.403-.422 1.692-.564 1.67-.564 1.67-1.953-.522-3.382-.422-3.725-.16-.206.138-.308.185-.402.484V7.297h.706c-.106.308-.148.644-.1.986zm-7.572 33.525v-6.623h6.604v2.93c-1.38.65-2.255.815-2.255.815-1.006.362-.483 1.006-.2 1.126 0 .08.502 1.027.623 1.188.065.098.228.327.467.563h-5.24z" fill="#0062AE"/><g fill="#9DC51C"><path d="M985.33 12.554c-.458-.306-.443-.77.05-1.043l7.24-4.02c.486-.27 1.267-.275 1.76 0l7.24 4.02c.486.27.505.74.05 1.044l-7.34 4.892c-.458.306-1.205.304-1.66 0l-7.34-4.892zM992 21.5V30l-10.5-10.5s-1.5-2-.64-3S983 16 983 16l9 5.5zm3 15.5s8.5-5 9.5-5.5 1-2.5-.5-3-6.5-.5-7.5-1-1.5-1-1.5-1V37zm12-11.5s-1-.5-2-.5c-5.5 0-8-1-8-3 0-1.5 4-4.5 6-5s4 .5 4 1v7.5zM980 23v7l8 4.5s2 1 2.5-.5-2.5-4-2.5-4l-8-7zm-3 3.5V31l14.5 9-31-5.5 16.5-8zM994.128 39.2h5.04v1.728h-2.976v1.224h2.544v1.728h-2.544v1.392h3.096V47h-5.16v-7.8zm6.624 0h2.064v4.272c0 .696.094 1.186.282 1.47.188.284.486.426.894.426.408 0 .71-.142.906-.426.196-.284.294-.774.294-1.47V39.2h1.992v4.032c0 1.336-.26 2.322-.78 2.958-.52.636-1.324.954-2.412.954-1.096 0-1.91-.318-2.442-.954-.532-.636-.798-1.622-.798-2.958V39.2z"/></g><g fill="#9DC51C"><path d="M1033.33 12.554c-.458-.306-.443-.77.05-1.043l7.24-4.02c.486-.27 1.267-.275 1.76 0l7.24 4.02c.486.27.505.74.05 1.044l-7.34 4.892c-.458.306-1.205.304-1.66 0l-7.34-4.892zM1040 21.5V30l-10.5-10.5s-1.5-2-.64-3 2.14-.5 2.14-.5l9 5.5zm3 15.5s8.5-5 9.5-5.5 1-2.5-.5-3-6.5-.5-7.5-1-1.5-1-1.5-1V37zm12-11.5s-1-.5-2-.5c-5.5 0-8-1-8-3 0-1.5 4-4.5 6-5s4 .5 4 1v7.5zm-27-2.5v7l8 4.5s2 1 2.5-.5-2.5-4-2.5-4l-8-7zm-3 3.5V31l14.5 9-31-5.5 16.5-8zM1042.488 43.16c0-.656.104-1.238.312-1.746.208-.508.488-.936.84-1.284s.758-.614 1.218-.798c.46-.184.942-.276 1.446-.276.496 0 .946.102 1.35.306.404.204.746.446 1.026.726l-1.128 1.272c-.192-.168-.38-.298-.564-.39-.184-.092-.404-.138-.66-.138-.232 0-.454.052-.666.156-.212.104-.396.252-.552.444-.156.192-.28.428-.372.708-.092.28-.138.596-.138.948 0 .736.154 1.3.462 1.692.308.392.714.588 1.218.588.304 0 .566-.058.786-.174.22-.116.414-.266.582-.45l1.128 1.248c-.336.384-.72.672-1.152.864-.432.192-.888.288-1.368.288-.512 0-.996-.082-1.452-.246-.456-.164-.856-.412-1.2-.744s-.616-.748-.816-1.248c-.2-.5-.3-1.082-.3-1.746zm10.692.588l-.132-.54c-.096-.376-.192-.784-.288-1.224-.096-.44-.192-.856-.288-1.248h-.048c-.088.4-.178.818-.27 1.254-.092.436-.186.842-.282 1.218l-.132.54h1.44zm.372 1.596h-2.184l-.384 1.656h-2.112l2.376-7.8h2.496l2.376 7.8h-2.184l-.384-1.656z"/></g><g><path d="M1380.445 39.943c-5.79-.82-8.94-6.67-5.438-14.312.692-1.523 1.62-2.494 2.508-1.347.53.687 1.063 1.372 1.595 2.06.543.76.45 1.86-.035 2.566-2.716 4.037-1.444 8.834 2.227 9.897 1.695.49 2.42 0 2.536.35.17.52-1.823 1.01-3.393.786z" fill="#31AADE"/><path d="M1376.708 43.373c-10.293-1.46-15.892-11.857-9.667-25.44 1.232-2.708 2.884-4.436 4.46-2.395l2.835 3.66c.964 1.35.8 3.307-.062 4.56-4.828 7.18-2.567 15.707 3.958 17.596 3.014.873 4.304 0 4.508.624.302.922-3.24 1.79-6.03 1.395z" fill="#1794D1"/><path d="M1370.403 47.66c-17.057-2.42-26.334-19.65-16.02-42.156 2.04-4.49 4.778-7.354 7.388-3.972 1.57 2.022 3.133 4.043 4.7 6.066 1.598 2.24 1.323 5.48-.103 7.558-8 11.897-4.253 26.027 6.56 29.157 4.99 1.446 7.13 0 7.47 1.034.498 1.53-5.37 2.968-9.994 2.312z" fill="#2276B9"/><path d="M1385.982 33.648c-.104 2.163-1.632 3.847-3.414 3.762-1.78-.084-3.14-1.906-3.038-4.07.104-2.162 1.632-3.847 3.414-3.76 1.782.083 3.14 1.905 3.038 4.068z" fill="#E92F7C"/></g><g><path d="M.956.11C.422.134.076.38.076.906V24.37c0 .41.294.78.745.78h41.89c.378 0 .678-.034.854-.53l4.322-13.527c.157-.503.054-.757-.374-1.03C33.867 1.323 13.467.05 4.202.05 2.87.05 1.773.078.955.11" fill="url(#j)" transform="translate(1392 11)"/><path d="M1401.62 26.11c-1.537-.744-2.586-1.13-2.333-1.878.298-.885 1.845-1.22 3.245-1.188.71.016 1.213.107 1.79.24l.51-1.6c-.734-.136-1.257-.204-2.13-.224-2.81-.065-5.348.71-6 2.35-.774 1.945 1.42 3.04 3.323 3.942 1.51.714 2.702 1.395 2.283 2.288-.326.692-1.395 1.018-2.95.983-1.343-.03-3.022-.417-4.344-1.083l-.787 1.7c.972.452 2.978 1.066 4.69 1.105 3.213.074 5.294-.734 6.127-2.485.985-2.07-1.46-3.203-3.424-4.15" fill="#FFF"/><path d="M1405.98 29.03c.012.04.04.05.084.05.044 0 .065-.012.077-.05.018-.052 1.566-4.85 1.566-4.85 1.578 2.257 3.144 5.227 3.983 8.364h2.57l1.274-3.973c.013-.04.042-.05.084-.05.044 0 .073.014.078.05.388 2.496 2.87 4.172 6.386 4.172 2.274 0 4.33-.596 4.84-.87l1.333-4.198h5.12l.52-1.626h-5.12l.882-2.757h6.1l.532-1.684h-8.57l-2.907 9.092c-.618.155-1.38.232-2.178.232-1.716 0-3.09-.408-3.87-1.318-.584-.683-.817-1.564-.672-2.546.345-2.343 2.626-3.824 5.677-3.824.642 0 1.303.04 1.898.116l.603-1.767c-.734-.112-1.625-.16-2.498-.16-2.706 0-5.06.93-6.583 2.573-.05.05-.098.05-.127.05-.048 0-.08-.01-.067-.05l.765-2.397h-2.233l-2.445 7.668c-.777-2.263-2.378-5.238-4.335-7.668h-2.398l-1.794 5.582c.902.67 1.187 1.154 1.423 1.843" fill="#FFF"/></g><path d="M1464 48c13.255 0 24-10.745 24-24s-10.745-24-24-24-24 10.745-24 24 10.745 24 24 24zm0-12c6.627 0 12-5.373 12-12s-5.373-12-12-12-12 5.373-12 12 5.373 12 12 12z" fill="url(#k)"/><g transform="translate(1488)"><rect fill="#0596DE" width="48" height="48" rx="4"/><path d="M9.618 24.425s-.042.083-.11.248c-.083.165-.166.385-.276.688-.234.593-.523 1.46-.66 2.49-.07.524-.096 1.088-.07 1.694.015.302.042.62.084.935.027.164.04.302.068.37.028.11.07.235.11.36.345.975 1.376 2.16 2.807 3.218 1.446 1.046 3.22 2.023 5.19 2.972 1.98.922 4.21 1.83 6.672 2.188 1.225.165 2.49.206 3.756.028.633-.083 1.252-.22 1.872-.413.62-.18 1.21-.413 1.788-.702 1.156-.563 2.202-1.347 3.055-2.283.853-.936 1.527-2.023 2.023-3.165.247-.578.454-1.155.632-1.76.18-.606.303-1.184.468-1.872l.124-.495.096-.468c.07-.317.152-.62.207-.936.055-.315.137-.632.192-.948.055-.317.11-.633.166-.936.44-2.49.523-4.953.11-7.017-.206-1.033-.522-1.955-.95-2.767-.22-.4-.467-.77-.728-1.128-.275-.344-.578-.674-.908-.963-1.32-1.197-3.096-1.995-4.87-2.505-1.79-.51-3.565-.784-5.174-.935-1.61-.165-3.04-.22-4.238-.262-1.197-.027-2.147-.04-2.793-.027-.648 0-.992.014-.992.014h-.248l-.096-.358.22-.11s.316-.166.936-.428c.62-.247 1.527-.605 2.724-.963 1.197-.36 2.67-.716 4.417-.95 1.748-.234 3.77-.358 6.04-.083 1.13.138 2.326.385 3.55.812.304.095.62.233.923.357.303.137.62.275.922.44.62.317 1.224.716 1.816 1.156.593.454 1.143.977 1.652 1.555.495.59.95 1.238 1.335 1.926.37.688.688 1.417.908 2.16.124.372.206.743.303 1.128.082.372.137.757.192 1.13.207 1.512.165 3.026 0 4.484-.165 1.46-.468 2.89-.853 4.28-.096.343-.206.687-.303 1.03-.11.345-.22.69-.344 1.02-.11.344-.247.688-.385 1.018l-.206.51c-.07.164-.14.315-.208.48l-.44.977c-.165.345-.33.69-.51 1.02-.357.66-.77 1.307-1.224 1.926-.908 1.224-1.995 2.298-3.178 3.192-1.183.894-2.463 1.596-3.784 2.147-.33.137-.66.26-.99.37-.33.125-.675.235-1.005.317-.673.193-1.347.358-2.035.496-1.362.26-2.71.44-4.073.536-2.697.18-5.407.042-7.884-.605-2.477-.634-4.72-1.762-6.522-3.248-.922-.73-1.72-1.583-2.394-2.504-.66-.936-1.197-1.996-1.404-3.15-.055-.29-.096-.58-.11-.868-.014-.33-.014-.592.028-.812.027-.234.055-.454.11-.674.04-.22.082-.44.15-.647.22-.825.538-1.555.91-2.16.73-1.21 1.554-1.913 2.132-2.312.138-.11.275-.192.4-.26.11-.07.205-.125.288-.166.165-.084.234-.125.234-.125l.22-.11.22.206-.082.235zm16.098-8.82c-1.032 5.243-2.05 10.485-3.082 15.727-.33 1.72 3.247-.26 3.467-1.444 1.033-5.243 2.05-10.485 3.083-15.727.33-1.705-3.247.276-3.467 1.445z" fill="#FFF"/></g><g transform="translate(1536)"><rect fill="url(#l)" width="48" height="48" rx="4"/><path d="M12.638 27.414c.513.484 1.1.876 1.76 1.177.66.302 1.32.452 1.98.452.82 0 1.445-.17 1.87-.506.425-.337.638-.785.638-1.342 0-.293-.055-.543-.165-.748-.11-.205-.263-.385-.46-.54-.2-.153-.434-.296-.705-.428-.27-.132-.568-.264-.89-.396l-1.98-.858c-.353-.147-.7-.33-1.046-.55-.346-.22-.657-.484-.936-.792-.28-.308-.502-.667-.67-1.078-.17-.41-.254-.88-.254-1.408 0-.572.12-1.104.363-1.595.242-.49.576-.92 1-1.286.426-.367.936-.653 1.53-.858.594-.205 1.243-.308 1.947-.308.836 0 1.643.165 2.42.495.777.33 1.445.774 2.002 1.33l-1.298 1.63c-.47-.382-.953-.683-1.452-.903-.5-.22-1.056-.33-1.672-.33-.69 0-1.24.15-1.65.45-.41.302-.616.716-.616 1.244 0 .28.062.517.187.715.126.197.294.373.507.527.213.154.458.293.737.418.28.125.565.246.858.363l1.958.814c.425.176.814.38 1.166.616.352.235.656.506.913.814.256.308.457.664.604 1.067.147.402.22.868.22 1.396 0 .587-.117 1.137-.352 1.65-.235.513-.576.964-1.023 1.353-.448.388-.99.696-1.63.923-.637.227-1.36.34-2.166.34-.968 0-1.903-.182-2.805-.55-.903-.366-1.7-.886-2.388-1.56l1.496-1.74zm11.484-10.802h8.69v2.156h-6.138v4.07h5.236v2.156h-5.236V31h-2.552V16.612zm13.772 6.732h2.046c.983 0 1.734-.205 2.255-.616.52-.41.78-1.027.78-1.848 0-.836-.26-1.415-.78-1.738-.52-.323-1.272-.484-2.255-.484h-2.046v4.686zM43.196 31l-3.102-5.632h-2.2V31h-2.552V16.612h4.862c.748 0 1.445.073 2.09.22.645.147 1.203.385 1.672.715.47.33.84.766 1.11 1.31.272.542.408 1.216.408 2.023 0 1.1-.26 1.987-.78 2.662-.522.675-1.215 1.16-2.08 1.452L46.056 31h-2.86z" fill="#FFF"/></g><g><path d="M1627.26 31.876l4.552-4.555-27.31-27.31-4.555 4.553 27.312 27.313zm-15.948 15.927l4.554-4.554-27.312-27.313L1584 20.49l27.312 27.314z" fill="#D9D9D9"/><path fill="#43AD2A" d="M1623.818 35.305l-27.32-27.32-4.555 4.553 27.322 27.322 4.553-4.555"/><path d="M1599.928 43.26l4.554 4.553 27.31-27.313-4.552-4.553-27.312 27.312M1584 27.31l4.554 4.554 27.312-27.312L1611.312 0 1584 27.312" fill="#77787E"/></g><path d="M1632 38h36v10h-36V38zm0-12h36v10h-36V26zm0-13h36v10h-36V13zm6-4h33v32l9-9V0h-33l-9 9z" fill="#F00"/><g transform="translate(1680)"><rect fill="#395185" width="48" height="48" rx="4"/><path d="M33.12 47.97V29.38h6.24l.933-7.243H33.12v-4.625c0-2.098.582-3.527 3.59-3.527l3.835-.002v-6.48c-.663-.087-2.94-.284-5.59-.284-5.53 0-9.317 3.375-9.317 9.575v5.342h-6.255v7.244h6.255v18.59h7.48" fill="#FFF"/></g><g><path d="M1776 24c0 13.255-10.745 24-24 24s-24-10.745-24-24 10.745-24 24-24 24 10.745 24 24" fill="#000"/><path fill="#FFF" d="M1752 22h-24v4h24"/><path d="M1755.886 29h-7.772c-.615 0-1.114-.5-1.114-1.114v-7.773c0-.616.5-1.113 1.114-1.113h7.772c.615 0 1.114.497 1.114 1.113v7.773c0 .615-.5 1.114-1.114 1.114z" fill="#FFF"/></g><g fill="#E8308A"><path d="M1815.51 28.072c-.478.033-1.845 1.594-4.6 3.984 3.822-4.704 8.325-16.085 3.025-28.62-.716.435-2.97 1.625-5.193 6.558-3.86-6.14-9.875-9.812-9.875-9.812s-9.867 10.046-5.12 28.937c-13.504 4.03-10.474 10.41-6.47 15.334.112.146.23.29.35.432 0 0-4.202-6.645-1.637-9.512 0 0 .933-1.524 4.867-3.06 2.492-.976 3.938-1.07 3.938-1.07-.778-7.6-.943-16.687 4.792-25.56.526.37 8.54 4.828 10.293 17.838.496 6.945-5.558 13.697-8.964 15.792-3.475 2.087-7.786 4.243-12.89 6.342-1.673.69-3.42 1.367-5.28 2.027 0 0 20.345-2.826 33.75-18.132-.003 0 .978-1.606-.986-1.478zm-3.698-9.47c-.225-2.413-.96-4.64-1.968-6.652l-.012-.02c1.665-3.517 2.95-4.2 2.95-4.2s6.727 17.176-6.61 28.053c-.107.075-.433.313-.5.367 3.53-3.113 7.142-8.558 6.14-17.55z"/></g></g></svg>