<?xml version="1.0" encoding="UTF-8" standalone="no"?>
<svg width="384px" height="48px" viewBox="0 0 384 48" version="1.1" xmlns="http://www.w3.org/2000/svg" xmlns:xlink="http://www.w3.org/1999/xlink" xmlns:sketch="http://www.bohemiancoding.com/sketch/ns">
    <!-- Generator: Sketch 3.3.2 (12043) - http://www.bohemiancoding.com/sketch -->
    <title>konnectors-services-sprite</title>
    <desc>Created with Sketch.</desc>
    <defs></defs>
    <g id="Page-1" stroke="none" stroke-width="1" fill="none" fill-rule="evenodd" sketch:type="MSPage">
        <g id="bouygues" sketch:type="MSLayerGroup" transform="translate(0.000000, 4.000000)">
            <path d="M28.5706667,38.8808889 C31.8533333,41.1777778 38.3484444,37.424 43.0755556,30.4853333 C47.8044444,23.5466667 48.9768889,16.0666667 45.6942222,13.7697778 C42.4106667,11.4728889 36.08,15.0337778 31.3528889,21.9742222 C26.624,28.912 25.2888889,36.5831111 28.5706667,38.8808889 L28.5706667,38.8808889 Z" id="Shape" fill="#EA5B0F" sketch:type="MSShapeGroup"></path>
            <path d="M19.8515556,38.8808889 C16.5688889,41.1777778 10.0737778,37.424 5.34666667,30.4853333 C0.617777778,23.5466667 -0.554666667,16.0666667 2.728,13.7697778 C6.01155556,11.4728889 12.3422222,15.0337778 17.0702222,21.9742222 C21.8,28.912 23.1333333,36.5831111 19.8515556,38.8808889 L19.8515556,38.8808889 Z" id="Shape" fill="#0055A4" sketch:type="MSShapeGroup"></path>
            <ellipse id="Oval" fill="#009DCC" sketch:type="MSShapeGroup" cx="24.2133333" cy="7.75377778" rx="15.0826667" ry="7.30933333"></ellipse>
        </g>
        <path d="M83.0054028,15.5813288 L81.8791336,17.5637868 L71.6604721,17.5637868 L56.0034461,47.1285471 L50.282385,48 L50,47.7096715 L64.4405743,17.5637868 L56.0034461,17.5637868 L57.0322122,15.5813288 L65.2838355,15.5813288 C68.284624,10.2099392 70.7212655,6.19424678 79.3477927,2.32216111 C81.8791336,1.16240448 85.8194403,0 89.3817279,0 C91.2565588,0 93.2259333,0.388143101 93.2259333,1.54883427 C93.2259333,2.22512533 92.2876612,3.87224142 90.5995814,3.87224142 C88.818827,3.87224142 86.8505427,2.90375274 84.6944171,2.90375274 C78.9735118,2.90375274 77.2844974,6.19440253 75.972879,8.95221222 L72.6917303,15.5814845 L83.0054028,15.5814845" id="free" fill="#C70119" sketch:type="MSShapeGroup"></path>
        <path d="M119.99779,0 C106.746555,0 96,10.7450812 96,24.0007367 C96,34.6043771 102.876086,43.5991283 112.413027,46.7727063 C113.6138,46.9937076 114.051383,46.2526167 114.051383,45.6161331 C114.051383,45.0474232 114.030756,43.5372479 114.018969,41.5349765 C107.343258,42.9847448 105.934743,38.3171982 105.934743,38.3171982 C104.842997,35.5443691 103.269468,34.8062249 103.269468,34.8062249 C101.090396,33.3181497 103.434482,33.3476166 103.434482,33.3476166 C105.843396,33.5170509 107.11047,35.8213573 107.11047,35.8213573 C109.251235,39.4885049 112.728322,38.4291722 114.095583,37.8147887 C114.313638,36.2648332 114.933914,35.2069738 115.619018,34.6073237 C110.289941,34.0017803 104.686823,31.9420486 104.686823,22.7454495 C104.686823,20.1258479 105.622395,17.9821357 107.157617,16.3054729 C106.910095,15.6984561 106.086497,13.2571288 107.393352,9.95389668 C107.393352,9.95389668 109.40741,9.30857301 113.992449,12.4143774 C115.90632,11.8810277 117.960158,11.6158261 120.000737,11.6055128 C122.039842,11.6158261 124.092207,11.8810277 126.009024,12.4143774 C130.591117,9.30857301 132.602228,9.95389668 132.602228,9.95389668 C133.912029,13.2571288 133.088431,15.6984561 132.842383,16.3054729 C134.380552,17.9821357 135.308757,20.1258479 135.308757,22.7454495 C135.308757,31.965622 129.696799,33.9944136 124.351515,34.5881703 C125.211946,35.3292612 125.979557,36.7937629 125.979557,39.0332423 C125.979557,42.2407072 125.950091,44.8293686 125.950091,45.6161331 C125.950091,46.2585101 126.383253,47.0054943 127.600233,46.771233 C137.129808,43.5902882 144,34.6014304 144,24.0007367 C144,10.7450812 133.253445,0 119.99779,0" id="github" fill="#161614" sketch:type="MSShapeGroup"></path>
        <path d="M169.656584,0 L175.074199,0 L175.074199,32.8142349 C175.074199,38.6418149 172.480961,42.6128114 160.214591,48 L160,46.2352313 C169.08274,40.3521352 169.656584,39.2850534 169.656584,33.5364769 L169.656584,0 L169.656584,0 Z" id="jawbone" fill="#1A1918" sketch:type="MSShapeGroup"></path>
        <g id="rescue-time_logo" sketch:type="MSLayerGroup" transform="translate(192.000000, 0.000000)">
            <path d="M45.2440891,13.159012 L34.8400138,13.159012 L34.8400138,2.75493678 C34.8400138,1.23329207 33.6057476,0 32.0841029,0 L15.914923,0 C14.3932783,0 13.159012,1.23329207 13.159012,2.75493678 L13.159012,13.159012 L2.75493678,13.159012 C1.23329207,13.159012 0,14.3923041 0,15.914923 L0,32.0841029 C0,33.6057476 1.23426623,34.8400138 2.75493678,34.8400138 L13.159012,34.8400138 L13.159012,45.2440891 C13.159012,46.7657338 14.3932783,47.9990258 15.914923,47.9990258 L32.0841029,47.9990258 C33.6057476,47.9990258 34.8400138,46.7647596 34.8400138,45.2440891 L34.8400138,34.8400138 L45.2440891,34.8400138 C46.7657338,34.8400138 48,33.6057476 48,32.0841029 L48,15.914923 C48,14.3923041 46.7657338,13.159012 45.2440891,13.159012 L45.2440891,13.159012 Z" id="Shape" fill="#C23C2F" sketch:type="MSShapeGroup"></path>
            <path d="M15.8911368,45.9990229 C15.5100491,45.9990229 15.2002931,45.6892738 15.2002931,45.3081945 L15.2002931,32.8 L2.69084368,32.8 C2.30975594,32.8 2,32.4902509 2,32.1081945 L2,15.8908283 C2,15.5097491 2.30975594,15.2 2.69084368,15.2 L15.2002931,15.2 L15.2002931,2.69082834 C15.2002931,2.30974906 15.5100491,2 15.8911368,2 L32.1098403,2 C32.4909281,2 32.800684,2.30974906 32.800684,2.69082834 L32.800684,15.2 L45.3091563,15.2 C45.6902441,15.2 46,15.5097491 46,15.8908283 L46,32.1091717 C46,32.4902509 45.6902441,32.8009771 45.3091563,32.8009771 L32.800684,32.8009771 L32.800684,45.3091717 C32.800684,45.6902509 32.4909281,46 32.1098403,46 L15.8911368,46 L15.8911368,45.9990229 Z" id="Shape" fill="#FFFFFF" sketch:type="MSShapeGroup"></path>
            <g id="Group" transform="translate(20.160000, 2.880000)" fill="#212828" sketch:type="MSShapeGroup">
                <path d="M7.15104,6.16896 L3.60864,0.89472 L0.0672,6.16896 L2.25696,5.7168 L2.25696,18.31296 C1.38432,18.81888 0.7968,19.75968 0.7968,20.83968 C0.7968,22.45344 2.10528,23.76096 3.71712,23.76096 C5.32992,23.76096 6.63744,22.45248 6.63744,20.83968 C6.63744,19.6944 5.976,18.70464 5.01504,18.22656 L5.01504,5.72928 L7.15104,6.16896 L7.15104,6.16896 Z" id="Shape"></path>
                <path d="M20.86464,20.78208 L16.80768,18.0576 L17.08512,19.40256 L7.64544,19.40256 L7.64544,22.1616 L17.08512,22.1616 L16.80768,23.50752 L20.86464,20.78208 Z" id="Shape"></path>
            </g>
        </g>
        <g id="twitter" sketch:type="MSLayerGroup" transform="translate(240.000000, 4.000000)" fill="#54ACEE">
            <path d="M48,4.69855238 C46.2354303,5.49668166 44.3363985,6.03504714 42.343828,6.27597311 C44.3782961,5.03664193 45.9382498,3.07354134 46.6738932,0.731701132 C44.770964,1.88080901 42.6643931,2.71463103 40.4204373,3.16475611 C38.6246879,1.21751895 36.0650387,0 33.2325681,0 C27.7946532,0 23.3856647,4.48637889 23.3856647,10.0207362 C23.3856647,10.804985 23.4723829,11.5694045 23.6409476,12.30408 C15.4563059,11.8856818 8.19925707,7.89701833 3.34206199,1.83421015 C2.49436697,3.31347586 2.00913465,5.034659 2.00913465,6.87283502 C2.00913465,10.3489111 3.74739663,13.4165037 6.38986663,15.2130381 C4.776323,15.1604905 3.25729249,14.709374 1.92923695,13.958835 C1.92826259,14.0004765 1.92826259,14.0431095 1.92826259,14.0857425 C1.92826259,18.9399549 5.32294014,22.9890977 9.82839047,23.9111601 C9.0021314,24.1391971 8.13202607,24.2621387 7.2336642,24.2621387 C6.59838012,24.2621387 5.98160891,24.1996765 5.3804275,24.0816921 C6.63443152,28.0624239 10.2707509,30.9604759 14.5793801,31.0407845 C11.2090616,33.728646 6.96376593,35.3308534 2.34918701,35.3308534 C1.55508191,35.3308534 0.77072042,35.2832631 0,35.1900653 C4.35929603,38.0345783 9.53510747,39.6923077 15.095792,39.6923077 C33.2101577,39.6923077 43.1145485,24.4237475 43.1145485,11.1817417 C43.1145485,10.74748 43.1057792,10.3142098 43.0872663,9.88391407 C45.0106571,8.4740509 46.6807137,6.70825183 48,4.69855238 L48,4.69855238 L48,4.69855238 Z" id="Shape" sketch:type="MSShapeGroup"></path>
        </g>
        <path d="M296.196973,19.8395968 C296.196973,17.4614187 294.361847,15.5333185 292.098346,15.5333185 C289.835126,15.5333185 288,17.4614187 288,19.8395968 C288,22.8626492 292.098346,25.3748425 292.098346,25.3748425 C292.098346,25.3748425 296.196973,22.7087688 296.196973,19.8395968 L296.196973,19.8395968 Z M300.114149,25.3748425 C300.114149,25.3748425 295.266288,27.927359 295.266288,31.4393299 C295.266288,34.2521681 297.436664,36.5327996 300.114149,36.5327996 C302.791351,36.5327996 304.962009,34.2521681 304.962009,31.4393299 C304.962009,27.8493811 300.114149,25.3748425 300.114149,25.3748425 L300.114149,25.3748425 Z M314.333204,17.9286932 C314.333204,14.4947002 311.683093,11.7106219 308.414971,11.7106219 C305.146566,11.7106219 302.497584,14.4947002 302.497584,17.9286932 C302.497584,22.1718182 308.414971,25.3748425 308.414971,25.3748425 C308.414971,25.3748425 314.333204,22.1718182 314.333204,17.9286932 L314.333204,17.9286932 Z M318.250379,25.3748425 C318.250379,25.3748425 311.701718,28.2336372 311.701718,33.1195612 C311.701718,36.9194278 314.632615,40 318.250379,40 C321.867015,40 324.800169,36.9194278 324.800169,33.1195612 C324.800169,28.3107257 318.250379,25.3748425 318.250379,25.3748425 L318.250379,25.3748425 Z M336,16.0729375 C336,11.6139649 332.56002,8 328.316343,8 C324.073794,8 320.632685,11.6139649 320.632685,16.0729375 C320.632685,21.5577793 328.316343,25.3748425 328.316343,25.3748425 C328.316343,25.3748425 336,21.7113631 336,16.0729375 L336,16.0729375 Z" id="withings" fill="#0D9EE3" sketch:type="MSShapeGroup"></path>
        <path d="M371.875531,27.1503833 C372.801213,27.546453 373.35407,28.2911917 373.35407,29.140759 C373.35407,30.2651594 372.489006,30.9351508 371.039637,30.9351508 C369.501391,30.9351508 368.786734,29.5805832 368.603968,29.1662824 L368.378814,28.6535339 L365.498307,28.6535339 L365.493749,28.6512551 L362.824722,28.6512551 C362.095936,29.8672666 360.62788,30.9880209 358.920541,30.9880209 C355.839493,30.9880209 354.302159,28.5806097 354.105719,26.2037356 L366.697455,26.2037356 L366.697455,25.6832389 C366.697455,24.6978502 366.594905,23.7703452 366.403479,22.9093835 C366.763998,24.0141856 367.585763,25.1595518 369.308142,25.9708338 C369.936658,26.2707347 370.886496,26.7183072 371.875531,27.1503833 L371.875531,27.1503833 Z M358.740054,19.5977119 C361.317014,19.5977119 362.579059,21.3756958 362.945047,23.1860398 L354.368246,23.1860398 C354.815819,21.3720496 356.406023,19.5977119 358.740054,19.5977119 L358.740054,19.5977119 Z M384.008755,19.650582 L384.008755,16.3986171 L381.33198,16.3986171 L381.33198,12.5545986 L378.045376,12.5545986 L378.045376,16.3986171 L371.426135,16.3986171 C368.369243,16.4004402 366.150523,18.4555361 366.150523,21.2881867 C366.150523,21.5926454 366.177414,21.9212602 366.238944,22.2612694 C365.197494,18.6524316 362.451897,16.3986171 358.764666,16.3986171 C354.254302,16.3986171 350.806353,19.9103745 350.517391,24.6673132 L350.517391,23.6564011 C350.517391,19.6537724 347.260868,16.3986171 343.258696,16.3986171 C339.256523,16.3986171 336,19.6537724 336,23.6564011 L336,34.0617772 L339.326712,34.0617772 L339.326712,23.6564011 C339.326712,21.4896399 341.090111,19.7253293 343.258696,19.7253293 C345.426368,19.7253293 347.190679,21.4896399 347.190679,23.6564011 L347.190679,34.0617772 L350.517391,34.0617772 L350.517391,25.9662761 C350.808176,30.7405343 354.300336,34.2645977 358.869039,34.2645977 C361.657935,34.2645977 364.118216,32.6443124 365.511524,30.7687924 C366.55115,32.9907025 368.582546,34.2645977 371.092051,34.2645977 C374.000361,34.2645977 376.944221,32.4068529 376.944221,28.8549871 C376.944221,26.7292458 375.709522,24.9913703 373.467102,23.9613155 C373.180419,23.8305077 372.948884,23.7211213 372.727377,23.6162927 L372.697296,23.6007963 C372.446163,23.4827503 372.204146,23.3688061 371.903789,23.2316174 C370.438012,22.573932 369.740674,22.0921763 369.740674,21.1318554 C369.740674,20.2868459 370.496351,19.650582 371.430237,19.650582 L378.045376,19.650582 L378.045376,28.9165169 C378.045376,31.8663021 380.444584,34.2645977 383.393457,34.2645977 L383.393457,30.9779938 C382.256751,30.9779938 381.33198,30.0532234 381.33198,28.9165169 L381.33198,19.650582 C382.646895,19.6514935 383.659631,19.650582 384.008755,19.650582 L384.008755,19.650582 Z" id="Fill-1" fill="#8C979B" sketch:type="MSShapeGroup"></path>
    </g>
</svg>