<svg width="336" height="48" viewBox="0 0 336 48" xmlns="http://www.w3.org/2000/svg" xmlns:sketch="http://www.bohemiancoding.com/sketch/ns"><title>konnectors-services-sprite</title><desc>Created with Sketch.</desc><g sketch:type="MSPage" fill="none"><g sketch:type="MSLayerGroup" transform="translate(0 4)"><path d="M28.571 38.881c3.283 2.297 9.778-1.457 14.505-8.396 4.729-6.939 5.901-14.419 2.619-16.716-3.284-2.297-9.614 1.264-14.341 8.204-4.729 6.938-6.064 14.609-2.782 16.907z" id="Shape" fill="#EA5B0F" sketch:type="MSShapeGroup"/><path d="M19.852 38.881c-3.283 2.297-9.778-1.457-14.505-8.396-4.729-6.939-5.901-14.419-2.619-16.716 3.284-2.297 9.614 1.264 14.342 8.204 4.73 6.938 6.063 14.609 2.781 16.907z" id="Shape" fill="#0055A4" sketch:type="MSShapeGroup"/><ellipse fill="#009DCC" sketch:type="MSShapeGroup" cx="24.213" cy="7.754" rx="15.083" ry="7.309"/></g><path d="M83.005 15.581l-1.126 1.982h-10.219l-15.657 29.565-5.721.871-.282-.29 14.441-30.146h-8.437l1.029-1.982h8.252c3.001-5.371 5.437-9.387 14.064-13.259 2.531-1.16 6.472-2.322 10.034-2.322 1.875 0 3.844.388 3.844 1.549 0 .676-.938 2.323-2.626 2.323-1.781 0-3.749-.968-5.905-.968-5.721 0-7.41 3.291-8.722 6.048l-3.281 6.629h10.314" fill="#C70119" sketch:type="MSShapeGroup"/><path d="M119.998 0c-13.251 0-23.998 10.745-23.998 24.001 0 10.604 6.876 19.598 16.413 22.772 1.201.221 1.638-.52 1.638-1.157 0-.569-.021-2.079-.032-4.081-6.676 1.45-8.084-3.218-8.084-3.218-1.092-2.773-2.665-3.511-2.665-3.511-2.179-1.488.165-1.459.165-1.459 2.409.169 3.676 2.474 3.676 2.474 2.141 3.667 5.618 2.608 6.985 1.993.218-1.55.838-2.608 1.523-3.207-5.329-.606-10.932-2.665-10.932-11.862 0-2.62.936-4.763 2.471-6.44-.248-.607-1.071-3.048.236-6.352 0 0 2.014-.645 6.599 2.46 1.914-.533 3.968-.799 6.008-.809 2.039.01 4.091.276 6.008.809 4.582-3.106 6.593-2.46 6.593-2.46 1.31 3.303.486 5.745.24 6.352 1.538 1.677 2.466 3.82 2.466 6.44 0 9.22-5.612 11.249-10.957 11.843.86.741 1.628 2.206 1.628 4.445 0 3.207-.029 5.796-.029 6.583 0 .642.433 1.389 1.65 1.155 9.53-3.181 16.4-12.17 16.4-22.77 0-13.256-10.747-24.001-24.002-24.001" fill="#161614" sketch:type="MSShapeGroup"/><path d="M169.657 0h5.418v32.814c0 5.828-2.593 9.799-14.86 15.186l-.215-1.765c9.083-5.883 9.657-6.95 9.657-12.699v-33.536z" fill="#1A1918" sketch:type="MSShapeGroup"/><g sketch:type="MSLayerGroup"><path d="M237.244 13.159h-10.404v-10.404c0-1.522-1.234-2.755-2.756-2.755h-16.169c-1.522 0-2.756 1.233-2.756 2.755v10.404h-10.404c-1.522 0-2.755 1.233-2.755 2.756v16.169c0 1.522 1.234 2.756 2.755 2.756h10.404v10.404c0 1.522 1.234 2.755 2.756 2.755h16.169c1.522 0 2.756-1.234 2.756-2.755v-10.404h10.404c1.522 0 2.756-1.234 2.756-2.756v-16.169c0-1.523-1.234-2.756-2.756-2.756z" id="Shape" fill="#C23C2F" sketch:type="MSShapeGroup"/><path d="M207.891 45.999c-.381 0-.691-.31-.691-.691v-12.508h-12.509c-.381 0-.691-.31-.691-.692v-16.217c0-.381.31-.691.691-.691h12.509v-12.509c0-.381.31-.691.691-.691h16.219c.381 0 .691.31.691.691v12.509h12.508c.381 0 .691.31.691.691v16.218c0 .381-.31.692-.691.692h-12.508v12.508c0 .381-.31.691-.691.691h-16.219v-.001z" id="Shape" fill="#fff" sketch:type="MSShapeGroup"/><g fill="#212828" sketch:type="MSShapeGroup"><path d="M219.311 9.049l-3.542-5.274-3.541 5.274 2.19-.452v12.596c-.873.506-1.46 1.447-1.46 2.527 0 1.614 1.308 2.921 2.92 2.921 1.613 0 2.92-1.308 2.92-2.921 0-1.145-.661-2.135-1.622-2.613v-12.497l2.136.44zM233.025 23.662l-4.057-2.724.277 1.345h-9.44v2.759h9.44l-.277 1.346 4.057-2.725z" id="Shape"/></g></g><path d="M288 8.699c-1.765.798-3.664 1.336-5.656 1.577 2.034-1.239 3.594-3.202 4.33-5.544-1.903 1.149-4.01 1.983-6.253 2.433-1.796-1.947-4.355-3.165-7.188-3.165-5.438 0-9.847 4.486-9.847 10.021 0 .784.087 1.549.255 2.283-8.185-.418-15.442-4.407-20.299-10.47-.848 1.479-1.333 3.2-1.333 5.039 0 3.476 1.738 6.544 4.381 8.34-1.614-.053-3.133-.504-4.461-1.254l-.001.127c0 4.854 3.395 8.903 7.9 9.825-.826.228-1.696.351-2.595.351-.635 0-1.252-.062-1.853-.18 1.254 3.981 4.89 6.879 9.199 6.959-3.37 2.688-7.616 4.29-12.23 4.29-.794 0-1.578-.048-2.349-.141 4.359 2.845 9.535 4.502 15.096 4.502 18.114 0 28.019-15.269 28.019-28.511 0-.434-.009-.868-.027-1.298 1.923-1.41 3.593-3.176 4.913-5.185z" sketch:type="MSShapeGroup" fill="#54ACEE"/><path d="M296.197 19.84c0-2.378-1.835-4.306-4.099-4.306-2.263 0-4.098 1.928-4.098 4.306 0 3.023 4.098 5.535 4.098 5.535s4.099-2.666 4.099-5.535zm3.917 5.535s-4.848 2.553-4.848 6.064c0 2.813 2.17 5.093 4.848 5.093 2.677 0 4.848-2.281 4.848-5.093 0-3.59-4.848-6.064-4.848-6.064zm14.219-7.446c0-3.434-2.65-6.218-5.918-6.218-3.268 0-5.917 2.784-5.917 6.218 0 4.243 5.917 7.446 5.917 7.446s5.918-3.203 5.918-7.446zm3.917 7.446s-6.549 2.859-6.549 7.745c0 3.8 2.931 6.88 6.549 6.88 3.617 0 6.55-3.081 6.55-6.88 0-4.809-6.55-7.745-6.55-7.745zm17.75-9.302c0-4.459-3.44-8.073-7.684-8.073-4.243 0-7.684 3.614-7.684 8.073 0 5.485 7.684 9.302 7.684 9.302s7.684-3.663 7.684-9.302z" fill="#0D9EE3" sketch:type="MSShapeGroup"/></g></svg>