<svg xmlns="http://www.w3.org/2000/svg" width="1584" height="48" viewBox="0 0 1584 48"><filter width="200%" height="200%" id="f" filterUnits="objectBoundingBox" y="-50%" x="-50%"><feOffset result="shadowOffsetOuter1" in="SourceAlpha" dy="1"/><feGaussianBlur stdDeviation="1" result="shadowBlurOuter1" in="shadowOffsetOuter1"/><feColorMatrix values="0 0 0 0 0.983710672 0 0 0 0 0.219089168 0 0 0 0 0.11304677 0 0 0 1 0" in="shadowBlurOuter1"/></filter><filter width="200%" height="200%" id="c" filterUnits="objectBoundingBox" y="-50%" x="-50%"><feOffset result="shadowOffsetOuter1" in="SourceAlpha" dy=".5"/><feColorMatrix values="0 0 0 0 0.105882353 0 0 0 0 0.533333333 0 0 0 0 0.725490196 0 0 0 1 0" in="shadowOffsetOuter1"/></filter><filter width="200%" height="200%" id="b" filterUnits="objectBoundingBox" y="-50%" x="-50%"><feOffset result="shadowOffsetOuter1" in="SourceAlpha" dy="-.5"/><feColorMatrix values="0 0 0 0 0.031372549 0 0 0 0 0.403921569 0 0 0 0 0.623529412 0 0 0 1 0" in="shadowOffsetOuter1"/></filter><filter width="200%" height="200%" id="a" filterUnits="objectBoundingBox" y="-50%" x="-50%"><feOffset result="shadowOffsetOuter1" in="SourceAlpha" dy="1"/><feGaussianBlur stdDeviation="1" result="shadowBlurOuter1" in="shadowOffsetOuter1"/><feColorMatrix values="0 0 0 0 0 0 0 0 0 0 0 0 0 0 0 0 0 0 0.281051857 0" in="shadowBlurOuter1"/></filter><title>konnectors-services-sprite</title><path fill="#E21910" d="M624 15.143c0-.552.448-1 .995-1h1.048c.55 0 .995.447.995 1V31.98c0 .55-.448 1-.995 1h-1.048c-.55 0-.995-.448-.995-1V15.143zm14.63-.26c-.903-.646-1.937-1.043-3.086-1.043-2.75 0-5.164 2.28-5.164 5.165 0 3.054 1.614 5.165 4.557 5.165 1.797 0 3.038.972 3.038 2.734 0 1.93-1.164 3.038-2.734 3.038-.526 0-1.095-.257-1.653-.717-.216-.178-.068-.06-.068-.06-.38-.396-1.053-.454-1.497-.136l-.854.608c-.447.318-.52.92-.148 1.328 0 0 .034.108.634.603 1.056.868 2.253 1.41 3.586 1.41 3.216 0 5.772-2.437 5.772-6.077 0-3.626-2.742-5.772-6.076-5.772-1.06 0-1.52-.6-1.52-2.125 0-1.167 1.018-2.126 2.127-2.126.446 0 .894.17 1.32.476.27.194 0 0 0 0 .294.26.882.192 1.31-.15l.817-.654c.43-.343.465-.945.062-1.324 0-.002.1.03-.424-.346zm4.813.26c0-.552.438-1 1.004-1h9.536c.555 0 1.004.446 1.004 1.005v1.01c0 .554-.457 1.004-1.01 1.004h-6.487c-.558 0-1.01.45-1.01 1v2.88c0 .552.457 1 1 1h5.293c.552 0 1 .447 1 .994v1.05c0 .548-.457.993-1 .993h-5.294c-.553 0-1 .448-1 1.007v2.846c0 .557.458 1.008 1.01 1.008h6.488c.557 0 1.01.45 1.01.995v1.05c0 .548-.44.994-1.005.994h-9.536c-.555 0-1.004-.448-1.004-1V15.143zm14.582 0c0-.552.445-1 1.003-1h.425c.554 0 1.267.358 1.6.812l7.312 9.92c.33.448.598.374.598-.192v-9.536c0-.555.448-1.004.995-1.004h1.048c.55 0 .995.447.995 1V31.98c0 .55-.444 1-1.002 1h-.425c-.554 0-1.257-.365-1.574-.82l-7.364-10.547c-.315-.452-.57-.37-.57.18v10.19c0 .55-.45.996-.996.996h-1.048c-.55 0-.995-.448-.995-1V15.143z"/><g fill="#0054A5"><path d="M576.02 15.62h4.61v1.232h-3.04v1.93h2.785v1.225h-2.786v2.195h3.062v1.228h-4.632v-7.81M581.677 15.04h1.502v8.39h-1.503zM594.5 23.364c-.367.13-.9.2-1.506.205-1.892.008-2.846-1.29-2.846-3.05 0-1.664.987-2.978 2.787-2.988.654 0 1.002.05 1.43.148l-.13 1.13c-.382-.12-.694-.18-1.2-.16-.908.04-1.307.814-1.315 1.87-.01 1.064.5 1.844 1.555 1.886.518.016 1.047-.15 1.358-.33l-.132 1.288M599.144 23.43c-.266.067-.732.14-1.108.14-1.176 0-1.823-.727-1.823-1.874v-2.84h-1.14l.12-1.186h1.02v-1.628l1.498-.006v1.634h1.336l-.124 1.187h-1.212v2.595c0 .495.137.952.712.952.266 0 .69-.1.847-.2l-.126 1.226M611.29 20.54c0-.812.38-1.84 1.34-1.84.978 0 1.244 1.063 1.244 1.84 0 .792-.277 1.864-1.268 1.864-.994 0-1.316-1.05-1.316-1.865zm-1.51 2.89h1.45v-.702h.024c.438.615 1.13.84 1.772.84 1.77 0 2.41-1.456 2.41-3.03 0-1.594-.64-3.006-2.41-3.006-.787 0-1.312.328-1.73.876h-.02v-3.37h-1.497v8.392zM622.372 15.04h1.494v8.39h-1.494zM585.463 19.99c.062-.778.492-1.355 1.328-1.355.844 0 1.172.626 1.222 1.354h-2.55zm3.75 1.802c-.607.435-1.377.68-2.105.68-.93 0-1.582-.525-1.645-1.456h3.983c0-2.013-.606-3.484-2.74-3.484-1.797 0-2.678 1.38-2.678 3.052 0 1.888 1.112 2.94 3.01 2.985.846.017 1.534-.232 2.034-.504l.14-1.274zM617.558 19.99c.063-.778.49-1.355 1.33-1.355.836 0 1.178.626 1.22 1.354h-2.55zm3.75 1.802c-.613.435-1.378.68-2.104.68-.926 0-1.582-.525-1.646-1.456h3.98c0-2.013-.604-3.484-2.743-3.484-1.79 0-2.675 1.38-2.675 3.052 0 1.888 1.11 2.94 3.01 2.985.85.017 1.533-.232 2.03-.504l.15-1.274zM605.044 21.768c0-.886.995-.997 1.662-.997h.65c0 .45-.065.863-.313 1.186-.234.314-.593.516-1.053.516-.537 0-.946-.212-.946-.704zm-.725-2.706c.508-.222 1.098-.403 1.732-.435.82-.042 1.303.32 1.303 1.247h-.826c-.63 0-1.368.06-1.935.335-.575.276-.988.785-.988 1.645 0 1.097.994 1.714 2.016 1.714.683 0 1.436-.36 1.78-1h.02c.012.18.012.562.068.86h1.315c-.026-.444-.048-.847-.06-1.28-.014-.43-.026-.868-.026-1.45v-.735c0-1.7-.764-2.448-2.42-2.455-.637 0-1.234.085-1.83.255l-.15 1.297zM600.112 17.67h1.333v1.306h.025c.176-.797.732-1.29 1.46-1.418.197-.036.51 0 .71.08 0 0-.143 1.2-.164 1.393-.29-.11-.857-.127-1.114.013-.656.36-.75 1.443-.75 2.277v2.11h-1.5v-5.76"/></g><path fill="#00ADEE" d="M590.884 28.027c-.34.054-.477.02-.505-.107-.026-.11.017-.232.404-.326 1.727-.416 6.233-.184 6.348 1.3.04.522-.694 1.003-2.764 1.343-.88.146-3.045.187-3.026-.523l.05-.976c.006-.114.11-.247.315-.24.155.004.3.077.31.34.014.327.042.618.042.618 0 .104.06.3.564.35 1.292.132 3.153-.31 3.158-.89.01-.943-2.928-1.08-4.898-.89M590.384 28.988c-.003-.09-.118-.225-.256-.243-.523-.072-1.537-.03-1.89-.01-.354.018-.325.383 0 .41.214.02 1.182.075 1.182.075.08 0 .147.044.147.116 0 .186-.47.5-1.57.5-.774 0-1.283-.37-1.283-.923 0-.774 1.045-1.185 2.468-.97.183.027.38-.102.373-.23-.014-.275-.88-.302-1.248-.302-1.62 0-2.51.61-2.51 1.504 0 .837.718 1.397 2.08 1.4 1.815 0 2.53-.755 2.507-1.326M602.363 27.647c-.012-.12-.167-.166-.338-.178-.68-.048-2.567-.168-3.534.282-.513.24-.74.583-.82.947-.102.468-.103 1.23.09 1.432.22.23.766.07.76-.15-.005-.167-.032-.427-.032-.427-.02-.473.833-.302 1.868-.42.3-.012.358-.44-.03-.427l-1.54.043c-.038.002-.05-.03-.05-.046.062-.95 3.324-.85 3.406-.858.166-.015.23-.113.22-.2M609.288 27.674c-.04-.084-.11-.13-.22-.13-.175 0-.26.13-.26.25 0 .128.248.724.71 1.288.382.465 1.15 1.126 2.18 1.126 1.214 0 2.5-.768 3.82-2.264.057-.064.11-.128.11-.203 0-.11-.097-.197-.228-.197-.07 0-.118.036-.226.13-1.147 1.052-2.33 1.638-3.292 1.638-.987 0-1.992-.626-2.594-1.636M621.1 29.3l2.326-1.116c.12-.053.188-.186.188-.326 0-.184-.145-.348-.358-.348h-2.818c-.12 0-.194.1-.194.21 0 .13.075.202.184.214l1.552.186c.13.012.15.088.15.144 0 .03-.02.095-.085.128l-1.743.787c-.238.11-.357.262-.357.475 0 .264.226.52.494.52h3.29c.14 0 .235-.096.235-.213 0-.13-.095-.21-.204-.22l-2.627-.216c-.074-.01-.127-.042-.127-.107-.002-.054.02-.087.095-.12M618.11 29.852c-.75 0-1.533-.252-1.533-1.026 0-.554.407-.925 1.027-.925.882 0 1.256.317 1.256.502 0 .073-.055.116-.117.116l-1.244.075c-.12.01-.205.09-.205.214 0 .113.085.198.204.198l1.295.056c.375.01.604-.26.604-.552 0-.734-1-1.083-1.89-1.083-1.093 0-1.812.563-1.812 1.4 0 .894.857 1.503 2.155 1.503.857 0 1.416-.165 1.566-.25.052-.033.16-.075.16-.193 0-.12-.097-.2-.227-.2-.137 0-.644.167-1.243.167M607.356 29.54c-.296.08-1.025.084-1.255.084-1.092 0-1.79-.064-1.882-.064-.164 0-.24.107-.24.207 0 .143.154.195.323.227.155.033 1.345.204 2.822.204.604 0 1.133-.048 1.544-.128.18-.036.28-.15.304-.28.023-.134-.036-.253-.192-.38-.162-.132-1.46-.854-1.654-.973-.268-.164-.213-.44.02-.46.162-.013.845-.06 1.013-.075.14-.012.208-.105.208-.197 0-.137-.138-.182-.248-.193-.338-.042-.856-.074-1.2-.074-.427 0-.935.055-1.116.107-.137.04-.204.138-.21.23-.006.11.07.214.143.28.247.22 1.584.95 1.746 1.054.16.1.162.35-.124.43"/><path fill="#FFF" d="M585.78 31.633c5.406 1.443 11.995 2.293 19.106 2.293 7.11 0 13.7-.85 19.104-2.293h-38.21"/><path fill="#FCFDFF" d="M585.81 31.633c5.397 1.44 11.977 2.287 19.076 2.287 7.1 0 13.677-.847 19.076-2.287H585.81"/><path fill="#FAFDFF" d="M585.837 31.633c5.392 1.438 11.96 2.28 19.05 2.28 7.086 0 13.654-.843 19.047-2.28h-38.097"/><path fill="#F9FCFF" d="M585.866 31.633c5.385 1.434 11.943 2.276 19.02 2.276 7.075 0 13.634-.843 19.02-2.276h-38.04"/><path fill="#F7FBFF" d="M585.894 31.633c5.38 1.43 11.928 2.27 18.992 2.27s13.612-.84 18.99-2.27h-37.982"/><path fill="#F6FBFD" d="M585.92 31.633c5.374 1.427 11.912 2.265 18.966 2.265 7.053 0 13.59-.838 18.963-2.265h-37.93"/><path fill="#F5FBFD" d="M585.95 31.633c5.366 1.424 11.895 2.26 18.937 2.26 7.04 0 13.57-.836 18.936-2.26H585.95"/><path fill="#F4FAFD" d="M585.98 31.633c5.358 1.42 11.875 2.254 18.906 2.254 7.03 0 13.547-.834 18.906-2.254H585.98"/><path fill="#F3FAFD" d="M586.006 31.633c5.354 1.417 11.86 2.248 18.88 2.248 7.018 0 13.525-.83 18.878-2.247h-37.758"/><path fill="#F2F9FD" d="M586.035 31.633c5.346 1.413 11.844 2.243 18.85 2.243 7.007 0 13.505-.83 18.852-2.243h-37.702"/><path fill="#F1F9FD" d="M586.063 31.633c5.34 1.41 11.827 2.236 18.823 2.236 6.995 0 13.48-.827 18.822-2.237h-37.645"/><path fill="#EFF8FD" d="M586.09 31.633c5.334 1.407 11.812 2.232 18.796 2.232 6.983 0 13.46-.825 18.794-2.23h-37.59"/><path fill="#EEF8FD" d="M586.12 31.633c5.326 1.402 11.793 2.227 18.766 2.227 6.972 0 13.438-.824 18.766-2.227H586.12"/><path fill="#EDF8FD" d="M586.148 31.633c5.32 1.4 11.776 2.22 18.738 2.22 6.96 0 13.417-.82 18.737-2.22h-37.475"/><path fill="#ECF7FD" d="M586.176 31.633c5.313 1.396 11.76 2.215 18.71 2.215 6.95 0 13.396-.818 18.71-2.215h-37.42"/><path fill="#EBF7FD" d="M586.204 31.633c5.307 1.393 11.743 2.21 18.682 2.21 6.938 0 13.374-.817 18.68-2.21h-37.362"/><path fill="#EAF6FD" d="M586.232 31.633c5.302 1.39 11.728 2.203 18.654 2.203s13.353-.814 18.653-2.203H586.23"/><path fill="#E9F6FD" d="M586.26 31.633c5.294 1.386 11.71 2.197 18.626 2.197 6.915 0 13.33-.812 18.624-2.197h-37.25"/><path fill="#E8F6FD" d="M586.288 31.633c5.288 1.383 11.694 2.192 18.598 2.192s13.31-.81 18.597-2.192h-37.195"/><path fill="#E7F5FD" d="M586.317 31.633c5.28 1.38 11.677 2.188 18.57 2.188 6.89 0 13.286-.808 18.567-2.187h-37.137"/><path fill="#E6F5FC" d="M586.345 31.633c5.274 1.375 11.66 2.182 18.54 2.182 6.88 0 13.267-.807 18.54-2.182h-37.08"/><path fill="#E5F5FC" d="M586.373 31.633c5.27 1.37 11.644 2.176 18.513 2.176 6.868 0 13.244-.806 18.512-2.177h-37.025"/><path fill="#E4F4FC" d="M586.402 31.633c5.26 1.37 11.627 2.17 18.484 2.17 6.856 0 13.223-.8 18.483-2.17H586.4"/><path fill="#E3F4FC" d="M586.43 31.633c5.255 1.366 11.61 2.164 18.456 2.164s13.2-.798 18.456-2.164H586.43"/><path fill="#E2F3FC" d="M586.458 31.633c5.25 1.36 11.593 2.158 18.428 2.158 6.833 0 13.18-.796 18.427-2.157h-36.855"/><path fill="#E1F3FC" d="M586.487 31.633c5.24 1.358 11.576 2.153 18.4 2.153 6.82 0 13.156-.795 18.397-2.153h-36.797"/><path fill="#E0F3FC" d="M586.515 31.633c5.234 1.355 11.56 2.147 18.37 2.147 6.812 0 13.137-.792 18.372-2.147h-36.742"/><path fill="#DFF2FC" d="M586.543 31.633c5.228 1.352 11.543 2.143 18.343 2.143 6.8 0 13.113-.79 18.343-2.143h-36.687"/><path fill="#DEF2FC" d="M586.57 31.633c5.224 1.348 11.527 2.137 18.316 2.137 6.787 0 13.092-.79 18.314-2.137h-36.63"/><path fill="#DDF1FC" d="M586.6 31.633c5.215 1.345 11.51 2.13 18.286 2.13 6.776 0 13.07-.785 18.286-2.13H586.6"/><path fill="#DCF1FC" d="M586.627 31.633c5.21 1.342 11.493 2.125 18.26 2.125 6.764 0 13.048-.783 18.257-2.125h-36.517"/><path fill="#DBF1FC" d="M586.656 31.633c5.202 1.338 11.477 2.12 18.23 2.12s13.026-.782 18.23-2.12h-36.46"/><path fill="#DAF0FC" d="M586.684 31.633c5.195 1.334 11.46 2.114 18.202 2.114s13.005-.78 18.2-2.114h-36.402"/><path fill="#D9F0FC" d="M586.71 31.633c5.19 1.33 11.444 2.11 18.176 2.11 6.73 0 12.983-.78 18.174-2.11h-36.35"/><path fill="#D8EFFC" d="M586.74 31.633c5.184 1.328 11.427 2.104 18.147 2.104 6.72 0 12.962-.775 18.145-2.104h-36.29"/><path fill="#D6EFFB" d="M586.768 31.633c5.177 1.324 11.41 2.098 18.118 2.098 6.707 0 12.94-.772 18.116-2.097h-36.234"/><path fill="#D5EFFB" d="M586.797 31.633c5.17 1.32 11.393 2.092 18.09 2.092 6.694 0 12.918-.77 18.088-2.092h-36.178"/><path fill="#D4EEFB" d="M586.825 31.633c5.164 1.318 11.376 2.086 18.06 2.086s12.898-.77 18.062-2.087h-36.122"/><path fill="#D3EEFB" d="M586.853 31.633c5.157 1.314 11.36 2.08 18.033 2.08 6.673 0 12.875-.767 18.032-2.08h-36.065"/><path fill="#D2EEFB" d="M586.88 31.633c5.15 1.31 11.344 2.075 18.006 2.075 6.66 0 12.854-.765 18.004-2.075h-36.01"/><path fill="#D1EDFB" d="M586.91 31.633c5.143 1.307 11.325 2.07 17.976 2.07 6.65 0 12.832-.764 17.976-2.07H586.91"/><path fill="#D0EDFB" d="M586.938 31.633c5.137 1.304 11.31 2.064 17.948 2.064s12.81-.76 17.947-2.064h-35.895"/><path fill="#CFECFB" d="M586.966 31.633c5.13 1.3 11.292 2.06 17.92 2.06 6.626 0 12.788-.76 17.92-2.06h-35.84"/><path fill="#CEECFB" d="M586.994 31.633c5.124 1.297 11.276 2.053 17.892 2.053s12.767-.756 17.892-2.053h-35.784"/><path fill="#CDECFB" d="M587.022 31.633c5.118 1.293 11.26 2.047 17.864 2.047 6.604 0 12.745-.754 17.862-2.047h-35.726"/><path fill="#CCEBFB" d="M587.05 31.633c5.11 1.29 11.243 2.04 17.836 2.04 6.592 0 12.723-.75 17.835-2.04h-35.67"/><path fill="#CBEBFB" d="M587.078 31.633c5.105 1.287 11.227 2.037 17.808 2.037s12.702-.75 17.807-2.037h-35.615"/><path fill="#CAEBFB" d="M587.107 31.633c5.1 1.283 11.21 2.03 17.78 2.03 6.567 0 12.68-.747 17.777-2.03h-35.557"/><path fill="#C9EAFB" d="M587.135 31.633c5.092 1.28 11.192 2.026 17.75 2.026 6.56 0 12.66-.747 17.75-2.026h-35.5"/><path fill="#C8EAFB" d="M587.163 31.633c5.085 1.276 11.176 2.02 17.723 2.02 6.546 0 12.637-.743 17.722-2.02h-35.445"/><path fill="#C7E9FA" d="M587.192 31.633c5.078 1.272 11.16 2.014 17.694 2.014 6.534 0 12.615-.74 17.693-2.014H587.19"/><path fill="#C6E9FA" d="M587.22 31.633c5.07 1.27 11.142 2.01 17.666 2.01 6.523 0 12.593-.74 17.665-2.01h-35.33"/><path fill="#C6E9FA" d="M587.248 31.633c5.065 1.266 11.126 2.003 17.638 2.003s12.57-.737 17.638-2.003h-35.276"/><path fill="#C5E9FA" d="M587.276 31.633c5.06 1.262 11.11 1.998 17.61 1.998s12.55-.735 17.608-1.997h-35.218"/><path fill="#C4E8FA" d="M587.304 31.633c5.053 1.26 11.093 1.992 17.582 1.992 6.488 0 12.528-.732 17.58-1.992h-35.162"/><path fill="#C2E8FA" d="M587.332 31.633c5.046 1.256 11.077 1.987 17.554 1.987 6.477 0 12.507-.73 17.553-1.986H587.33"/><path fill="#C1E8FA" d="M587.36 31.633c5.04 1.252 11.06 1.98 17.526 1.98 6.465 0 12.485-.73 17.523-1.98h-35.05"/><path fill="#C0E7FA" d="M587.39 31.633c5.032 1.248 11.042 1.976 17.496 1.976s12.464-.728 17.496-1.977H587.39"/><path fill="#BFE7FA" d="M587.417 31.633c5.026 1.245 11.025 1.97 17.47 1.97 6.44 0 12.44-.725 17.467-1.97h-34.937"/><path fill="#BEE7FA" d="M587.446 31.633c5.02 1.242 11.01 1.964 17.44 1.964 6.43 0 12.42-.722 17.44-1.964h-34.88"/><path fill="#BDE6FA" d="M587.474 31.633c5.013 1.238 10.992 1.958 17.412 1.958 6.42 0 12.398-.72 17.41-1.957h-34.822"/><path fill="#BCE6FA" d="M587.502 31.633c5.007 1.236 10.975 1.953 17.384 1.953 6.407 0 12.377-.718 17.383-1.953H587.5"/><path fill="#BBE5FA" d="M587.53 31.633c5 1.23 10.96 1.947 17.356 1.947 6.396 0 12.355-.716 17.354-1.947h-34.71"/><path fill="#BAE5FA" d="M587.56 31.633c4.992 1.23 10.94 1.942 17.326 1.942 6.385 0 12.333-.713 17.327-1.94H587.56"/><path fill="#B9E5FA" d="M587.586 31.633c4.988 1.225 10.926 1.936 17.3 1.936 6.373 0 12.312-.712 17.3-1.937h-34.6"/><path fill="#B8E4FA" d="M587.615 31.633c4.98 1.222 10.908 1.93 17.27 1.93s12.29-.708 17.272-1.93h-34.542"/><path fill="#B7E4F9" d="M587.643 31.633c4.974 1.22 10.892 1.925 17.243 1.925 6.35 0 12.27-.706 17.242-1.925h-34.485"/><path fill="#B6E4F9" d="M587.67 31.633c4.968 1.214 10.877 1.92 17.216 1.92s12.246-.706 17.214-1.92h-34.43"/><path fill="#B4E3F9" d="M587.7 31.633c4.96 1.21 10.858 1.914 17.187 1.914 6.327 0 12.225-.703 17.186-1.914H587.7"/><path fill="#B3E3F9" d="M587.728 31.633c4.954 1.207 10.842 1.908 17.158 1.908 6.315 0 12.203-.7 17.157-1.907h-34.315"/><path fill="#B2E2F9" d="M587.756 31.633c4.947 1.204 10.824 1.902 17.13 1.902 6.304 0 12.182-.698 17.13-1.902h-34.26"/><path fill="#B1E2F9" d="M587.784 31.633c4.94 1.2 10.808 1.897 17.102 1.897 6.292 0 12.16-.695 17.1-1.896h-34.202"/><path fill="#B0E2F9" d="M587.813 31.633c4.935 1.197 10.79 1.892 17.073 1.892 6.28 0 12.138-.694 17.072-1.892h-34.145"/><path fill="#AFE1F9" d="M587.84 31.633c4.93 1.193 10.775 1.887 17.046 1.887 6.27 0 12.116-.693 17.045-1.887h-34.09"/><path fill="#AEE1F9" d="M587.87 31.633c4.92 1.19 10.757 1.88 17.016 1.88 6.258 0 12.095-.69 17.017-1.88H587.87"/><path fill="#ADE1F9" d="M587.897 31.633c4.915 1.188 10.74 1.875 16.99 1.875 6.246 0 12.072-.688 16.986-1.875h-33.976"/><path fill="#ACE0F9" d="M587.925 31.633c4.908 1.184 10.726 1.87 16.96 1.87s12.053-.687 16.96-1.87h-33.92"/><path fill="#ABE0F9" d="M587.953 31.633c4.9 1.18 10.708 1.863 16.933 1.863 6.223 0 12.03-.684 16.932-1.863h-33.865"/><path fill="#A9E0F9" d="M587.982 31.633c4.895 1.176 10.69 1.858 16.904 1.858 6.212 0 12.008-.68 16.903-1.856H587.98"/><path fill="#A8DFF9" d="M588.01 31.633c4.89 1.174 10.675 1.853 16.876 1.853 6.2 0 11.986-.68 16.875-1.853h-33.75"/><path fill="#A7DFF8" d="M588.038 31.633c4.882 1.17 10.657 1.847 16.848 1.847 6.19 0 11.965-.677 16.847-1.847h-33.695"/><path fill="#A6DEF8" d="M588.067 31.633c4.876 1.166 10.64 1.842 16.82 1.842 6.177 0 11.942-.676 16.818-1.842h-33.638"/><path fill="#A5DEF8" d="M588.095 31.633c4.87 1.163 10.624 1.836 16.79 1.836 6.167 0 11.923-.674 16.79-1.837h-33.58"/><path fill="#A4DEF8" d="M588.122 31.633c4.862 1.16 10.608 1.83 16.764 1.83 6.154 0 11.9-.67 16.763-1.83H588.12"/><path fill="#A3DDF8" d="M588.152 31.633c4.855 1.157 10.59 1.825 16.734 1.825 6.143 0 11.878-.668 16.734-1.824h-33.468"/><path fill="#A2DDF8" d="M588.18 31.633c4.85 1.152 10.573 1.82 16.706 1.82 6.132 0 11.856-.668 16.706-1.82H588.18"/><path fill="#A0DDF8" d="M588.207 31.633c4.843 1.148 10.558 1.813 16.68 1.813 6.12 0 11.834-.665 16.677-1.813h-33.357"/><path fill="#9FDCF8" d="M588.236 31.633c4.836 1.146 10.54 1.808 16.65 1.808 6.108 0 11.813-.66 16.65-1.807h-33.3"/><path fill="#9EDCF8" d="M588.264 31.633c4.83 1.143 10.524 1.803 16.622 1.803 6.097 0 11.79-.66 16.62-1.803h-33.242"/><path fill="#9DDCF8" d="M588.292 31.633c4.823 1.14 10.507 1.797 16.594 1.797 6.085 0 11.77-.658 16.593-1.797H588.29"/><path fill="#9CDBF8" d="M588.32 31.633c4.817 1.135 10.49 1.79 16.566 1.79 6.074 0 11.747-.655 16.565-1.79h-33.13"/><path fill="#9BDBF8" d="M588.348 31.633c4.81 1.133 10.475 1.785 16.538 1.785 6.062 0 11.727-.652 16.536-1.785h-33.074"/><path fill="#99DBF8" d="M588.376 31.633c4.804 1.13 10.458 1.78 16.51 1.78 6.05 0 11.704-.65 16.508-1.78h-33.018"/><path fill="#98DAF8" d="M588.405 31.633c4.797 1.125 10.44 1.774 16.48 1.774 6.04 0 11.684-.648 16.48-1.773h-32.96"/><path fill="#97DAF7" d="M588.433 31.633c4.79 1.12 10.424 1.77 16.453 1.77 6.027 0 11.66-.648 16.452-1.77h-32.905"/><path fill="#96D9F7" d="M588.46 31.633c4.785 1.118 10.408 1.764 16.426 1.764 6.017 0 11.64-.646 16.424-1.764h-32.85"/><path fill="#95D9F7" d="M588.49 31.633c4.777 1.116 10.39 1.758 16.396 1.758 6.005 0 11.618-.642 16.396-1.757H588.49"/><path fill="#94D9F7" d="M588.518 31.633c4.77 1.112 10.374 1.752 16.368 1.752 5.993 0 11.596-.64 16.367-1.752h-32.735"/><path fill="#93D8F7" d="M588.546 31.633c4.765 1.107 10.357 1.747 16.34 1.747 5.98 0 11.574-.64 16.34-1.747h-32.68"/><path fill="#91D8F7" d="M588.575 31.633c4.757 1.105 10.34 1.74 16.31 1.74 5.97 0 11.555-.636 16.312-1.74h-32.622"/><path fill="#90D8F7" d="M588.602 31.633c4.752 1.102 10.324 1.736 16.284 1.736 5.96 0 11.53-.635 16.282-1.736h-32.566"/><path fill="#8FD7F7" d="M588.63 31.633c4.745 1.098 10.308 1.73 16.256 1.73 5.947 0 11.51-.633 16.255-1.73h-32.51"/><path fill="#8ED7F7" d="M588.66 31.633c4.737 1.095 10.29 1.725 16.227 1.725 5.936 0 11.487-.63 16.227-1.725H588.66"/><path fill="#8DD7F7" d="M588.687 31.633c4.732 1.09 10.274 1.72 16.2 1.72 5.923 0 11.465-.63 16.197-1.72h-32.397"/><path fill="#8BD6F7" d="M588.73 31.633c4.72 1.086 10.248 1.71 16.156 1.71s11.434-.624 16.155-1.71h-32.31"/><path fill="#8AD6F7" d="M588.772 31.633c4.71 1.082 10.223 1.704 16.114 1.704 5.89 0 11.402-.622 16.112-1.704h-32.226"/><path fill="#89D6F7" d="M588.816 31.633c4.7 1.077 10.195 1.696 16.07 1.696 5.874 0 11.37-.62 16.07-1.697h-32.14"/><path fill="#88D5F7" d="M588.858 31.633c4.688 1.072 10.17 1.69 16.028 1.69 5.856 0 11.338-.618 16.027-1.69h-32.055"/><path fill="#87D5F7" d="M588.9 31.633c4.68 1.068 10.146 1.682 15.986 1.682s11.306-.613 15.984-1.682H588.9"/><path fill="#85D5F6" d="M588.944 31.633c4.667 1.064 10.118 1.676 15.942 1.676 5.823 0 11.274-.613 15.942-1.677h-31.884"/><path fill="#84D4F6" d="M588.987 31.633c4.656 1.06 10.092 1.668 15.9 1.668 5.806 0 11.24-.608 15.897-1.667h-31.797"/><path fill="#83D4F6" d="M589.03 31.633c4.645 1.055 10.066 1.66 15.856 1.66s11.21-.605 15.856-1.66H589.03"/><path fill="#82D4F6" d="M589.072 31.633c4.635 1.05 10.04 1.652 15.814 1.652 5.772 0 11.18-.603 15.813-1.652H589.07"/><path fill="#80D3F6" d="M589.115 31.633c4.624 1.045 10.014 1.646 15.77 1.646 5.757 0 11.147-.602 15.772-1.647h-31.542"/><path fill="#80D3F6" d="M589.158 31.633c4.613 1.04 9.99 1.64 15.73 1.64s11.113-.6 15.727-1.64h-31.457"/><path fill="#7FD3F6" d="M589.2 31.633c4.603 1.035 9.963 1.63 15.686 1.63 5.722 0 11.083-.595 15.685-1.63H589.2"/><path fill="#7ED2F6" d="M589.243 31.633c4.59 1.03 9.937 1.624 15.643 1.624 5.705 0 11.05-.593 15.642-1.624h-31.285"/><path fill="#7CD2F6" d="M589.285 31.633c4.582 1.028 9.912 1.616 15.6 1.616 5.69 0 11.02-.59 15.6-1.617h-31.2"/><path fill="#7BD2F6" d="M589.328 31.633c4.57 1.023 9.886 1.61 15.558 1.61 5.67 0 10.986-.587 15.557-1.61h-31.115"/><path fill="#7AD1F6" d="M589.37 31.633c4.56 1.018 9.86 1.602 15.516 1.602 5.654 0 10.955-.584 15.514-1.602h-31.03"/><path fill="#79D1F6" d="M589.414 31.633c4.55 1.014 9.833 1.595 15.472 1.595 5.638 0 10.923-.58 15.47-1.595h-30.942"/><path fill="#77D1F6" d="M589.457 31.633c4.536 1.01 9.807 1.588 15.43 1.588 5.62 0 10.89-.577 15.427-1.587h-30.857"/><path fill="#76D0F6" d="M589.5 31.633c4.525 1.004 9.78 1.58 15.386 1.58 5.604 0 10.86-.576 15.385-1.58H589.5"/><path fill="#75D0F6" d="M589.543 31.633c4.515 1 9.754 1.573 15.343 1.573 5.587 0 10.827-.573 15.342-1.573h-30.685"/><path fill="#73D0F5" d="M589.585 31.633c4.505.996 9.73 1.566 15.3 1.566s10.797-.57 15.3-1.566h-30.6"/><path fill="#72CFF5" d="M589.63 31.633c4.492.99 9.7 1.56 15.256 1.56 5.554 0 10.763-.568 15.256-1.56H589.63"/><path fill="#71CFF5" d="M589.67 31.633c4.483.986 9.678 1.55 15.216 1.55 5.537 0 10.73-.563 15.214-1.55h-30.43"/><path fill="#6FCFF5" d="M589.714 31.633c4.472.98 9.65 1.543 15.172 1.543s10.7-.562 15.17-1.543h-30.342"/><path fill="#6ECEF5" d="M589.757 31.633c4.46.977 9.625 1.536 15.13 1.536 5.502 0 10.666-.56 15.127-1.537h-30.257"/><path fill="#6DCEF5" d="M589.8 31.633c4.45.973 9.6 1.53 15.086 1.53 5.486 0 10.636-.558 15.085-1.53H589.8"/><path fill="#6BCEF5" d="M589.842 31.633c4.44.968 9.574 1.52 15.044 1.52s10.603-.553 15.042-1.52h-30.086"/><path fill="#6ACEF5" d="M589.885 31.633c4.43.963 9.547 1.514 15 1.514 5.453 0 10.572-.55 15-1.514h-30"/><path fill="#68CDF5" d="M589.928 31.633c4.418.96 9.52 1.507 14.958 1.507 5.436 0 10.54-.548 14.957-1.507h-29.915"/><path fill="#67CDF5" d="M589.97 31.633c4.407.955 9.496 1.5 14.916 1.5s10.508-.545 14.914-1.5h-29.83"/><path fill="#66CDF5" d="M590.014 31.633c4.396.95 9.47 1.492 14.872 1.492 5.4 0 10.476-.543 14.87-1.492h-29.742"/><path fill="#64CCF5" d="M590.056 31.633c4.386.946 9.444 1.485 14.83 1.485 5.385 0 10.443-.54 14.83-1.484h-29.66"/><path fill="#63CCF5" d="M590.1 31.633c4.373.94 9.417 1.478 14.786 1.478 5.368 0 10.41-.535 14.785-1.477H590.1"/><path fill="#61CCF5" d="M590.142 31.633c4.363.937 9.392 1.47 14.744 1.47s10.38-.533 14.743-1.47H590.14"/><path fill="#60CBF5" d="M590.185 31.633c4.353.932 9.365 1.463 14.7 1.463 5.336 0 10.35-.53 14.7-1.463h-29.4"/><path fill="#5ECBF4" d="M590.228 31.633c4.34.927 9.34 1.455 14.658 1.455 5.317 0 10.315-.528 14.657-1.455h-29.315"/><path fill="#5DCBF4" d="M590.27 31.633c4.332.922 9.314 1.448 14.616 1.448 5.3 0 10.284-.525 14.615-1.447h-29.23"/><path fill="#5BCAF4" d="M590.313 31.633c4.32.918 9.288 1.44 14.573 1.44 5.284 0 10.252-.522 14.57-1.44h-29.143"/><path fill="#59CAF4" d="M590.356 31.633c4.31.914 9.262 1.434 14.53 1.434 5.268 0 10.22-.52 14.53-1.434h-29.06"/><path fill="#58CAF4" d="M590.4 31.633c4.297.908 9.235 1.426 14.486 1.426 5.25 0 10.188-.52 14.485-1.427H590.4"/><path fill="#56CAF4" d="M590.44 31.633c4.29.904 9.21 1.42 14.446 1.42 5.233 0 10.156-.516 14.443-1.42h-28.89"/><path fill="#55C9F4" d="M590.484 31.633c4.277.9 9.185 1.412 14.402 1.412 5.216 0 10.124-.512 14.4-1.412h-28.802"/><path fill="#53C9F4" d="M590.527 31.633c4.267.895 9.158 1.404 14.36 1.404 5.2 0 10.092-.51 14.356-1.404h-28.716"/><path fill="#51C9F4" d="M590.57 31.633c4.256.89 9.133 1.397 14.316 1.397 5.183 0 10.06-.507 14.315-1.397h-28.63"/><path fill="#4FC8F4" d="M590.613 31.633c4.244.887 9.106 1.39 14.273 1.39s10.027-.503 14.272-1.39h-28.545"/><path fill="#4EC8F4" d="M590.655 31.633c4.234.88 9.08 1.383 14.23 1.383s9.997-.502 14.23-1.383h-28.46"/><path fill="#4CC8F4" d="M590.698 31.633c4.224.877 9.056 1.375 14.188 1.375s9.964-.498 14.187-1.375h-28.375"/><path fill="#4AC7F4" d="M590.74 31.633c4.214.872 9.03 1.367 14.147 1.367 5.115 0 9.932-.495 14.144-1.367h-28.29"/><path fill="#48C7F4" d="M590.784 31.633c4.2.868 9.003 1.36 14.103 1.36s9.9-.492 14.1-1.36h-28.203"/><path fill="#46C7F4" d="M590.826 31.633c4.19.863 8.977 1.354 14.06 1.354 5.082 0 9.868-.49 14.058-1.354h-28.118"/><path fill="#44C7F4" d="M590.87 31.633c4.178.858 8.95 1.346 14.016 1.346 5.064 0 9.836-.488 14.016-1.347H590.87"/><path fill="#42C6F3" d="M590.912 31.633c4.168.854 8.925 1.34 13.974 1.34s9.805-.485 13.972-1.34h-27.946"/><path fill="#40C6F3" d="M590.955 31.633c4.157.85 8.898 1.332 13.93 1.332s9.773-.482 13.93-1.332h-27.86"/><path fill="#3DC6F3" d="M590.997 31.633c4.147.845 8.873 1.324 13.89 1.324 5.014 0 9.74-.48 13.886-1.324h-27.776"/><path fill="#3BC5F3" d="M591.04 31.633c4.136.84 8.848 1.316 13.846 1.316s9.71-.477 13.845-1.317h-27.69"/><path fill="#38C5F3" d="M591.083 31.633c4.125.836 8.82 1.31 13.803 1.31 4.98 0 9.677-.474 13.8-1.31h-27.603"/><path fill="#36C5F3" d="M591.126 31.633c4.114.832 8.795 1.303 13.76 1.303 4.964 0 9.645-.47 13.76-1.303h-27.52"/><path fill="#33C5F3" d="M591.17 31.633c4.103.827 8.768 1.295 13.716 1.295 4.947 0 9.612-.468 13.716-1.295H591.17"/><path fill="#30C4F3" d="M591.212 31.633c4.093.822 8.743 1.288 13.674 1.288s9.58-.465 13.673-1.287H591.21"/><path fill="#2DC4F3" d="M591.254 31.633c4.082.818 8.718 1.28 13.632 1.28s9.55-.462 13.63-1.28h-27.262"/><path fill="#2AC4F3" d="M591.297 31.633c4.07.813 8.69 1.273 13.59 1.273 4.895 0 9.516-.46 13.586-1.273h-27.176"/><path fill="#27C3F3" d="M591.34 31.633c4.06.81 8.665 1.266 13.546 1.266 4.88 0 9.485-.458 13.545-1.267h-27.09"/><path fill="#23C3F3" d="M591.383 31.633c4.05.805 8.64 1.26 13.503 1.26 4.862 0 9.453-.455 13.502-1.26h-27.005"/><path fill="#1FC3F3" d="M591.426 31.633c4.038.8 8.613 1.252 13.46 1.252 4.846 0 9.42-.452 13.46-1.252h-26.92"/><path fill="#1AC2F3" d="M591.47 31.633c4.026.795 8.585 1.244 13.416 1.244 4.83 0 9.39-.45 13.416-1.244H591.47"/><path fill="#14C2F3" d="M591.51 31.633c4.018.79 8.563 1.236 13.376 1.236 4.812 0 9.357-.446 13.373-1.237h-26.75"/><path fill="#0CC2F3" d="M591.554 31.633c4.006.786 8.535 1.23 13.332 1.23 4.796 0 9.325-.444 13.33-1.23h-26.662"/><path fill="#02C2F2" d="M591.597 31.633c3.995.78 8.51 1.223 13.29 1.223 4.777 0 9.292-.44 13.287-1.223h-26.577"/><path fill="#00C1F2" d="M591.64 31.633c3.984.777 8.483 1.215 13.246 1.215 4.762 0 9.262-.438 13.245-1.215h-26.49"/><path fill="#00C1F2" d="M591.682 31.633c3.975.772 8.458 1.207 13.204 1.207 4.745 0 9.23-.435 13.202-1.207h-26.406"/><path fill="#00C1F2" d="M591.725 31.633c3.963.768 8.432 1.2 13.16 1.2 4.73 0 9.198-.433 13.16-1.2h-26.32"/><path fill="#00C0F2" d="M591.768 31.633c3.952.764 8.406 1.193 13.118 1.193 4.71 0 9.165-.43 13.116-1.193h-26.234"/><path fill="#00C0F2" d="M591.81 31.633c3.942.76 8.38 1.186 13.076 1.186 4.694 0 9.134-.428 13.073-1.187h-26.15"/><path fill="#00C0F2" d="M591.854 31.633c3.93.754 8.354 1.178 13.032 1.178 4.678 0 9.102-.423 13.03-1.177h-26.062"/><path fill="#00C0F2" d="M591.896 31.633c3.92.75 8.33 1.17 12.99 1.17s9.07-.42 12.988-1.17h-25.978"/><path fill="#00BFF2" d="M591.94 31.633c3.908.745 8.3 1.164 12.946 1.164 4.644 0 9.037-.42 12.945-1.164h-25.89"/><path fill="#00BFF2" d="M591.982 31.633c3.897.74 8.276 1.156 12.904 1.156 4.627 0 9.006-.417 12.902-1.157h-25.806"/><path fill="#00BFF2" d="M592.05 31.633c3.878.734 8.233 1.146 12.836 1.146 4.602 0 8.957-.413 12.835-1.147h-25.67"/><path fill="#00BFF2" d="M592.117 31.633c3.86.73 8.192 1.137 12.77 1.137s8.908-.408 12.768-1.137h-25.538"/><path fill="#00BEF2" d="M592.185 31.633c3.84.723 8.15 1.128 12.7 1.128s8.86-.404 12.7-1.127h-25.4"/><path fill="#00BEF2" d="M592.252 31.633c3.822.717 8.107 1.12 12.634 1.12 4.525 0 8.81-.403 12.632-1.12h-25.266"/><path fill="#00BEF2" d="M592.32 31.633c3.803.71 8.065 1.108 12.566 1.108 4.5 0 8.762-.396 12.564-1.107h-25.13"/><path fill="#00BEF2" d="M592.387 31.633c3.785.705 8.023 1.1 12.5 1.1 4.474 0 8.713-.395 12.496-1.1h-24.996"/><path fill="#00BDF2" d="M592.454 31.633c3.767.7 7.98 1.09 12.432 1.09 4.45 0 8.664-.39 12.43-1.09h-24.862"/><path fill="#00BDF2" d="M592.523 31.633c3.746.693 7.938 1.08 12.363 1.08 4.424 0 8.615-.387 12.362-1.08h-24.725"/><path fill="#00BDF1" d="M592.59 31.633c3.728.688 7.896 1.07 12.296 1.07 4.398 0 8.566-.383 12.294-1.07h-24.59"/><path fill="#00BDF1" d="M592.658 31.633c3.71.68 7.854 1.062 12.23 1.062 4.372 0 8.518-.38 12.227-1.062h-24.457"/><path fill="#00BCF1" d="M592.725 31.633c3.69.674 7.812 1.052 12.16 1.052 4.35 0 8.47-.378 12.16-1.052h-24.32"/><path fill="#00BCF1" d="M592.793 31.633c3.67.668 7.77 1.043 12.093 1.043 4.322 0 8.42-.375 12.092-1.043h-24.185"/><path fill="#00BCF1" d="M592.86 31.633c3.652.662 7.73 1.033 12.026 1.033 4.297 0 8.372-.37 12.024-1.033h-24.05"/><path fill="#00BCF1" d="M592.928 31.633c3.634.656 7.686 1.024 11.958 1.024 4.27 0 8.324-.368 11.957-1.024h-23.915"/><path fill="#00BBF1" d="M592.995 31.633c3.614.65 7.644 1.015 11.89 1.015 4.247 0 8.276-.364 11.89-1.015h-23.78"/><path fill="#00BBF1" d="M593.064 31.633c3.596.645 7.6 1.005 11.822 1.005 4.22 0 8.227-.36 11.82-1.005h-23.642"/><path fill="#00BBF1" d="M593.13 31.633c3.577.64 7.56.996 11.756.996 4.195 0 8.177-.358 11.754-.997h-23.51"/><path fill="#00BAF1" d="M593.2 31.633c3.557.633 7.516.986 11.687.986 4.17 0 8.13-.355 11.687-.987H593.2"/><path fill="#00BAF1" d="M593.266 31.633c3.54.627 7.475.977 11.62.977s8.08-.35 11.62-.977h-23.24"/><path fill="#00BAF1" d="M593.333 31.633c3.52.62 7.433.967 11.553.967 4.12 0 8.03-.347 11.55-.967h-23.103"/><path fill="#00BAF1" d="M593.4 31.633c3.502.614 7.392.958 11.486.958s7.982-.343 11.483-.957H593.4"/><path fill="#00B9F1" d="M593.47 31.633c3.48.608 7.347.947 11.416.947 4.068 0 7.935-.34 11.416-.947H593.47"/><path fill="#00B9F1" d="M593.536 31.633c3.463.603 7.306.94 11.35.94 4.043 0 7.886-.338 11.35-.94h-22.7"/><path fill="#00B9F1" d="M593.604 31.633c3.444.597 7.264.93 11.282.93s7.837-.333 11.28-.93h-22.562"/><path fill="#00B9F1" d="M593.67 31.633c3.427.59 7.223.92 11.216.92 3.992 0 7.788-.33 11.214-.92h-22.43"/><path fill="#00B8F1" d="M593.74 31.633c3.406.584 7.18.91 11.146.91 3.967 0 7.74-.326 11.146-.91H593.74"/><path fill="#00B8F1" d="M593.807 31.633c3.387.578 7.137.9 11.08.9 3.94 0 7.69-.322 11.077-.9h-22.157"/><path fill="#00B8F0" d="M593.874 31.633c3.37.572 7.095.892 11.012.892 3.916 0 7.642-.32 11.01-.892h-22.022"/><path fill="#00B8F0" d="M593.942 31.633c3.35.566 7.053.882 10.944.882 3.89 0 7.593-.315 10.942-.882h-21.886"/><path fill="#00B7F0" d="M594.01 31.633c3.33.56 7.01.872 10.876.872s7.545-.312 10.876-.872H594.01"/><path fill="#00B7F0" d="M594.076 31.633c3.312.555 6.97.863 10.81.863 3.84 0 7.496-.31 10.808-.863h-21.618"/><path fill="#00B7F0" d="M594.144 31.633c3.294.55 6.927.854 10.742.854s7.447-.305 10.74-.854h-21.482"/><path fill="#00B7F0" d="M594.212 31.633c3.274.543 6.884.844 10.674.844 3.79 0 7.398-.3 10.673-.844H594.21"/><path fill="#00B6F0" d="M594.28 31.633c3.256.536 6.842.835 10.606.835s7.35-.3 10.605-.835h-21.21"/><path fill="#00B6F0" d="M594.347 31.633c3.237.53 6.8.824 10.54.824 3.737 0 7.3-.294 10.537-.824h-21.077"/><path fill="#00B6F0" d="M594.414 31.633c3.218.524 6.758.816 10.472.816 3.713 0 7.253-.293 10.47-.817h-20.942"/><path fill="#00B5F0" d="M594.482 31.633c3.2.52 6.716.806 10.404.806s7.203-.288 10.402-.807h-20.806"/><path fill="#00B5F0" d="M594.55 31.633c3.18.512 6.673.797 10.336.797 3.662 0 7.155-.285 10.335-.797h-20.67"/><path fill="#00B5F0" d="M594.617 31.633c3.16.506 6.63.787 10.27.787 3.636 0 7.105-.28 10.267-.787h-20.537"/><path fill="#00B5F0" d="M594.686 31.633c3.142.5 6.588.778 10.2.778s7.058-.277 10.2-.777h-20.4"/><path fill="#00B5F0" d="M594.752 31.633c3.124.494 6.547.77 10.134.77s7.01-.275 10.132-.77h-20.266"/><path fill="#00B4F0" d="M594.82 31.633c3.104.488 6.505.76 10.066.76 3.56 0 6.96-.27 10.064-.76h-20.13"/><path fill="#00B4F0" d="M594.888 31.633c3.085.482 6.462.75 9.998.75 3.535 0 6.912-.268 9.997-.75h-19.995"/><path fill="#00B4F0" d="M594.955 31.633c3.067.477 6.42.74 9.93.74s6.864-.264 9.93-.74h-19.86"/><path fill="#00B4F0" d="M595.023 31.633c3.048.47 6.378.73 9.863.73 3.484 0 6.814-.26 9.86-.73h-19.723"/><path fill="#00B3F0" d="M595.09 31.633c3.03.464 6.335.72 9.796.72 3.46 0 6.766-.255 9.794-.72h-19.59"/><path fill="#00B3F0" d="M595.158 31.633c3.01.46 6.293.712 9.73.712 3.434 0 6.716-.253 9.726-.712h-19.456"/><path fill="#00B3EF" d="M595.226 31.633c2.99.452 6.25.702 9.66.702 3.408 0 6.67-.25 9.66-.702h-19.32"/><path fill="#00B3EF" d="M595.293 31.633c2.973.446 6.21.693 9.593.693s6.62-.247 9.592-.693h-19.185"/><path fill="#00B2EF" d="M595.36 31.633c2.955.44 6.168.684 9.526.684 3.357 0 6.57-.243 9.524-.684h-19.05"/><path fill="#00B2EF" d="M595.428 31.633c2.935.434 6.124.674 9.458.674 3.332 0 6.52-.24 9.456-.674h-18.914"/><path fill="#00B2EF" d="M595.496 31.633c2.915.428 6.082.664 9.39.664s6.474-.236 9.39-.664h-18.78"/><path fill="#00B2EF" d="M595.564 31.633c2.897.422 6.04.655 9.322.655s6.425-.233 9.32-.655h-18.642"/><path fill="#00B2EF" d="M595.63 31.633c2.88.416 6 .645 9.256.645 3.256 0 6.376-.23 9.254-.645h-18.51"/><path fill="#00B1EF" d="M595.7 31.633c2.858.41 5.955.636 9.187.636s6.327-.227 9.187-.637H595.7"/><path fill="#00B1EF" d="M595.767 31.633c2.84.404 5.912.627 9.12.627 3.205 0 6.277-.223 9.118-.627h-18.238"/><path fill="#00B1EF" d="M595.834 31.633c2.82.398 5.87.617 9.052.617s6.23-.22 9.05-.617h-18.102"/><path fill="#00B1EF" d="M595.902 31.633c2.802.393 5.83.607 8.984.607s6.18-.215 8.983-.607H595.9"/><path fill="#00B0EF" d="M595.97 31.633c2.782.387 5.786.598 8.916.598 3.13 0 6.132-.21 8.915-.597h-17.83"/><path fill="#00B0EF" d="M596.036 31.633c2.765.38 5.744.588 8.85.588 3.104 0 6.084-.207 8.848-.587h-17.698"/><path fill="#00B0EF" d="M596.104 31.633c2.746.374 5.703.58 8.782.58 3.078 0 6.035-.206 8.78-.58h-17.562"/><path fill="#00B0EF" d="M596.17 31.633c2.73.367 5.66.57 8.716.57 3.054 0 5.985-.203 8.714-.57h-17.43"/><path fill="#00B0EF" d="M596.24 31.633c2.708.362 5.618.56 8.646.56s5.938-.197 8.646-.56H596.24"/><path fill="#00AFEF" d="M596.307 31.633c2.69.356 5.575.55 8.58.55 3.002 0 5.888-.193 8.577-.55h-17.157"/><path fill="#00AFEF" d="M596.374 31.633c2.67.35 5.533.54 8.512.54 2.977 0 5.84-.19 8.51-.54h-17.022"/><path fill="#00AFEF" d="M596.442 31.633c2.652.344 5.492.532 8.444.532s5.79-.188 8.442-.532h-16.886"/><path fill="#00AFEF" d="M596.51 31.633c2.632.338 5.45.522 8.376.522 2.926 0 5.742-.185 8.376-.522H596.51"/><path fill="#00AEEF" d="M596.577 31.633c2.613.332 5.407.514 8.31.514 2.9 0 5.693-.182 8.307-.514h-16.617"/><path fill="#00AEEF" d="M596.645 31.633c2.595.326 5.364.504 8.24.504 2.877 0 5.647-.178 8.24-.504h-16.48"/><path d="M36.432 12.996c-.347-2.814-1.644-5.415-3.728-7.425C30.314 3.268 27.158 2 23.816 2c-3.342 0-6.5 1.267-8.888 3.572-2.093 2.018-3.393 4.633-3.732 7.463-2.87.333-5.523 1.616-7.57 3.677C1.285 19.066 0 22.178 0 25.472 0 32.383 5.7 38 12.71 38h1.41c.73 5.086 5.092 9 10.38 9v-2S16 45 16 36.5s8.5-8.5 8.5-8.5v-2c-5.288 0-9.65 3.914-10.38 9h-1.41C7.348 35 3 30.715 3 25.473c0-2.5.973-4.854 2.754-6.647 1.564-1.573 3.587-2.555 5.79-2.81l2.35-.274.282-2.35c.257-2.148 1.245-4.126 2.835-5.66C18.84 5.968 21.248 5 23.817 5s4.978.968 6.806 2.73c1.583 1.527 2.568 3.493 2.833 5.633l.297 2.407 2.416.213c4.98.44 8.832 4.57 8.832 9.49C45 30.714 40.65 35 35.29 35h-3.47c-.68-2.865-3.248-5-6.32-5-3.59 0-6.5 2.91-6.5 6.5s2.91 6.5 6.5 6.5c3.073 0 5.64-2.135 6.32-5h3.47C42.297 38 48 32.38 48 25.474c0-6.53-5.093-11.906-11.568-12.478zM25.5 41c-2.485 0-4.5-2.015-4.5-4.5s2.015-4.5 4.5-4.5 4.5 2.015 4.5 4.5-2.015 4.5-4.5 4.5z"/><g transform="translate(48 4)"><path fill="#EA5B0F" d="M28.57 38.88c3.284 2.298 9.78-1.456 14.506-8.395 4.73-6.938 5.9-14.42 2.62-16.716-3.285-2.298-9.615 1.263-14.342 8.204-4.73 6.938-6.065 14.61-2.783 16.907z"/><path fill="#0055A4" d="M19.852 38.88c-3.283 2.298-9.778-1.456-14.505-8.395-4.73-6.938-5.902-14.42-2.62-16.715 3.285-2.297 9.615 1.264 14.343 8.205 4.73 6.937 6.063 14.608 2.782 16.906z"/><ellipse fill="#009DCC" cx="24.213" cy="7.754" rx="15.083" ry="7.309"/></g><path fill="#C70119" d="M131.005 15.58l-1.126 1.984h-10.22L104.005 47.13l-5.722.87-.282-.29 14.44-30.146h-8.437l1.03-1.983h8.25c3-5.37 5.438-9.386 14.064-13.258C129.88 1.162 133.82 0 137.382 0c1.875 0 3.844.388 3.844 1.55 0 .675-.938 2.322-2.626 2.322-1.78 0-3.75-.968-5.905-.968-5.72 0-7.41 3.29-8.722 6.048l-3.28 6.63h10.312"/><path fill="#161614" d="M167.998 0C154.748 0 144 10.745 144 24c0 10.605 6.876 19.6 16.413 22.772 1.2.222 1.638-.52 1.638-1.156 0-.57-.02-2.08-.03-4.08-6.677 1.448-8.085-3.22-8.085-3.22-1.092-2.77-2.665-3.51-2.665-3.51-2.18-1.488.165-1.46.165-1.46 2.41.17 3.676 2.475 3.676 2.475 2.142 3.668 5.62 2.61 6.986 1.994.218-1.55.838-2.607 1.523-3.207-5.33-.605-10.933-2.666-10.933-11.862 0-2.62.936-4.764 2.47-6.44-.247-.607-1.07-3.048.237-6.352 0 0 2.014-.646 6.6 2.46 1.913-.534 3.966-.8 6.007-.81 2.04.01 4.092.276 6.01.81 4.582-3.106 6.592-2.46 6.592-2.46 1.31 3.303.486 5.744.24 6.352 1.538 1.676 2.466 3.82 2.466 6.44 0 9.22-5.612 11.25-10.957 11.842.86.74 1.63 2.206 1.63 4.445 0 3.207-.03 5.796-.03 6.583 0 .642.433 1.39 1.65 1.155C185.13 43.588 192 34.6 192 24c0-13.255-10.747-24-24.002-24"/><path fill="#1A1918" d="M217.657 0h5.417v32.814c0 5.827-2.593 9.8-14.86 15.186L208 46.235c9.083-5.884 9.657-6.95 9.657-12.698V0z"/><g><path fill="#C23C2F" d="M285.244 13.16H274.84V2.754c0-1.522-1.234-2.755-2.756-2.755h-16.17c-1.52 0-2.755 1.233-2.755 2.755V13.16h-10.405c-1.522 0-2.755 1.233-2.755 2.755v16.17c0 1.52 1.234 2.755 2.755 2.755h10.404v10.404c0 1.52 1.233 2.755 2.755 2.755h16.17c1.52 0 2.755-1.235 2.755-2.756V34.84h10.404c1.52 0 2.756-1.234 2.756-2.756v-16.17c0-1.52-1.234-2.755-2.756-2.755z"/><path fill="#FFF" d="M255.89 46c-.38 0-.69-.31-.69-.69V32.8h-12.51c-.38 0-.69-.31-.69-.692V15.89c0-.38.31-.69.69-.69h12.51V2.69c0-.38.31-.69.69-.69h16.22c.38 0 .69.31.69.69V15.2h12.51c.38 0 .69.31.69.69v16.22c0 .38-.31.69-.69.69H272.8v12.508c0 .382-.31.69-.69.69h-16.22z"/><g fill="#212828"><path d="M267.31 9.05l-3.54-5.275-3.543 5.274 2.19-.453v12.596c-.873.506-1.46 1.447-1.46 2.527 0 1.614 1.308 2.92 2.92 2.92 1.613 0 2.92-1.308 2.92-2.92 0-1.146-.66-2.135-1.623-2.613V8.61l2.137.44zM281.024 23.662l-4.056-2.725.277 1.346h-9.44v2.758h9.44l-.277 1.348"/></g></g><g><path fill="#54ACEE" d="M336 8.7c-1.765.797-3.664 1.335-5.656 1.576 2.034-1.24 3.595-3.202 4.33-5.544-1.903 1.15-4.01 1.983-6.253 2.433C326.626 5.218 324.066 4 321.233 4c-5.438 0-9.847 4.486-9.847 10.02 0 .786.087 1.55.255 2.285-8.184-.42-15.44-4.408-20.298-10.47-.848 1.478-1.333 3.2-1.333 5.038 0 3.476 1.737 6.543 4.38 8.34-1.614-.052-3.133-.503-4.46-1.254-.002.04-.002.083-.002.126 0 4.854 3.395 8.903 7.9 9.825-.826.23-1.696.352-2.594.352-.635 0-1.252-.062-1.854-.18 1.254 3.98 4.89 6.88 9.2 6.96-3.37 2.687-7.616 4.29-12.23 4.29-.795 0-1.58-.05-2.35-.143 4.36 2.845 9.535 4.502 15.096 4.502 18.114 0 28.02-15.27 28.02-28.51 0-.435-.01-.868-.028-1.3C333.01 12.475 334.68 10.71 336 8.7z"/></g><path fill="#0D9EE3" d="M344.197 19.84c0-2.378-1.835-4.307-4.1-4.307S336 17.46 336 19.84c0 3.023 4.1 5.535 4.1 5.535s4.097-2.666 4.097-5.535zm3.917 5.535s-4.848 2.553-4.848 6.064c0 2.81 2.17 5.093 4.848 5.093 2.677 0 4.848-2.28 4.848-5.094 0-3.59-4.848-6.065-4.848-6.065zm14.22-7.446c0-3.435-2.65-6.22-5.92-6.22s-5.916 2.785-5.916 6.22c0 4.242 5.917 7.445 5.917 7.445s5.918-3.203 5.918-7.446zm3.916 7.445s-6.548 2.858-6.548 7.744c0 3.8 2.93 6.88 6.548 6.88s6.55-3.08 6.55-6.88c0-4.81-6.55-7.745-6.55-7.745zM384 16.073c0-4.46-3.44-8.073-7.684-8.073-4.242 0-7.684 3.614-7.684 8.073 0 5.485 7.684 9.302 7.684 9.302S384 21.71 384 16.073z"/><path fill="#8C979B" d="M419.876 27.15c.925.396 1.48 1.14 1.48 1.99 0 1.125-.866 1.795-2.315 1.795-1.538 0-2.252-1.355-2.436-1.77l-.225-.513h-2.882l-.004-.002h-2.67c-.73 1.216-2.196 2.337-3.903 2.337-3.08 0-4.618-2.408-4.814-4.785h12.592v-.52c0-.986-.103-1.913-.294-2.774.36 1.105 1.183 2.25 2.905 3.062.627.3 1.577.75 2.566 1.18zm-13.136-7.552c2.577 0 3.84 1.778 4.205 3.588h-8.577c.447-1.814 2.038-3.588 4.372-3.588zm25.27.052v-3.252h-2.678v-3.844h-3.287v3.844h-6.62c-3.056.002-5.274 2.057-5.274 4.89 0 .305.028.633.09.973-1.042-3.608-3.787-5.862-7.475-5.862-4.51 0-7.958 3.512-8.247 8.27v-1.012c0-4.002-3.257-7.258-7.26-7.258S384 19.654 384 23.656V34.06h3.327V23.657c0-2.167 1.763-3.93 3.932-3.93 2.167 0 3.93 1.763 3.93 3.93V34.06h3.328v-8.094c.29 4.773 3.783 8.298 8.352 8.298 2.79 0 5.25-1.62 6.643-3.496 1.04 2.222 3.07 3.496 5.58 3.496 2.908 0 5.853-1.858 5.853-5.41 0-2.125-1.234-3.863-3.478-4.893-.286-.13-.518-.24-.74-.344l-.03-.016c-.25-.118-.492-.232-.793-.37-1.465-.657-2.163-1.138-2.163-2.1 0-.844.756-1.48 1.69-1.48h6.614v9.266c0 2.95 2.4 5.35 5.35 5.35v-3.287c-1.138 0-2.063-.927-2.063-2.063V19.65h2.676z"/><path fill="#60A6CF" d="M434.88 36.336c8.613-5.53 18.375-1.552 23.237 1.11-6.735-2.66-16.61-3.283-23.236-1.11zm2.104-3.217c-1.398 1.032-2.188 1.904-2.188 1.904 0 .038.813-.456 2.188-1.036v-.87zm0-3.43c-.907-1.76-.594-3.753-.594-3.753s-1.537 3.522.594 5.62V29.69zm0-9.358v3.2c-1.418.815-2.372 2.333-2.372 4.07 0 1.738.954 3.256 2.372 4.072v.57c-.57.387-1.13.8-1.59 1.152-2.042-1.303-3.395-3.57-3.395-6.148 0-3.203 2.083-5.924 4.984-6.916zm0 3.2v-3.2c.658-.226 1.357-.36 2.085-.394-.038.365-.058.736-.058 1.112 0 .63.055 1.248.16 1.85-.795.033-1.54.26-2.188.63zm0 8.712c.5-.338 1.012-.657 1.48-.9-.23-.146-.443-.312-.636-.502-.36-.353-.635-.746-.845-1.152v1.868l.056.054c.09.086.183.164.28.238-.115-.055-.228-.113-.337-.176v.57zm0 1.744v-.87c2.692-1.985 7.646-4.57 13.6-2.704 9.05 2.836 14.81 6.693 21.805 4.957s7.61-5.556 7.61-5.556-1.234 5.396-8.126 6.58c-6.89 1.184-13.238-.145-21.312-3.154-5.45-2.03-10.723-.455-13.578.748zM450 11c4.138 0 7.7 2.44 9.29 5.942h-3.237c-1.43-1.763-3.627-2.893-6.09-2.893-2.425 0-4.59 1.09-6.02 2.804.076-.06.154-.122.236-.18 3.382-2.415 7.894.247 7.894.247s-4.287-1.238-7.187.794c-2.898 2.033-2.433 6.1-2.433 6.1s-.02-.053-.048-.15l.037.14c-.694-.513-1.538-.847-2.455-.935-.11-.59-.167-1.2-.167-1.82C439.823 15.5 444.38 11 450 11zm9.747 20.744s4.32 2.21 8.382 1.852c4.06-.36 5.296-1.8 5.296-1.8s-1.49 2.75-5.4 2.905-8.28-2.853-8.28-2.956zm-3.312-13.972h3.632v3.63h-3.632v-3.63zm14.42 10.06h2.808v2.81h-2.81v-2.81zM460.81 14.445h4.843v4.84h-4.842v-4.84zm14.057 8.38h4.843v4.84h-4.843v-4.84zm-8.75-3.166h2.7v2.698h-2.7v-2.7zm1.805 5.316h2.7v2.698h-2.7v-2.698zm-5.683.268h2.7v2.7h-2.7v-2.7zm9.462-5.492h2.7v2.7h-2.7v-2.7z"/><path opacity=".9" fill="#01A1AB" enable-background="new" d="M524.932 19.286l-.425.938-.43-.944-.245 1.248h.16l.137-.764.376.806.363-.81.144.767h.166l-.248-1.24zm-1.56 1.243h.167v-1.063h.267v-.157h-.697v.157h.264v1.062zm-2.958-.425c-2.008 0-2.994 1.54-2.994 1.54V17.76h-3.114v12.823h3.146v-5.876c0-.987.837-1.808 1.842-1.808 1.372 0 1.606.803 1.606 1.657v6.025h3.213V23.52c0-1.94-1.657-3.415-3.7-3.415zm-11.568 3.114c0-.403.318-.62.82-.62.904 0 1.27.803 1.27.803l2.36-1.037c-.635-1.44-1.89-2.26-3.363-2.26-2.275 0-3.934 1.355-3.934 3.348 0 3.615 4.602 2.945 4.602 4.217 0 .487-.602.722-1.104.722-.92 0-1.44-.904-1.44-.904l-2.392 1.206c.803 1.506 2.075 2.142 3.8 2.142 2.176 0 4.116-1.188 4.116-3.414 0-3.517-4.736-3.048-4.736-4.203zm-8.948-3.115c-3.163 0-5.623 2.31-5.623 5.39 0 2.86 2.41 5.44 5.557 5.44 3.348 0 5.607-2.36 5.607-5.49 0-3.097-2.428-5.34-5.542-5.34zM490.715 23c-.335-.133-.987-.4-1.39-.552-.67-.25-1.456-.484-1.456-1.17 0-.67.468-1.122 1.288-1.122 1.24 0 2.578 1.02 2.578 1.02l1.305-2.51c-.92-.603-2.442-1.373-4.1-1.373-2.276 0-4.402 1.523-4.402 4.084 0 1.808.888 2.963 2.512 3.7.552.25 1.506.62 1.907.77 1.256.47 1.34.72 1.34 1.255 0 .687-.92 1.004-1.858 1.004-1.223 0-2.395-.686-3.014-1.238-.284.486-1.338 2.595-1.338 2.595 1.338.837 2.61 1.59 4.418 1.59 2.576 0 5.12-1.44 5.12-4.185 0-1.926-.987-3.097-2.91-3.867zM528 32.98l-46.487 3.35L480 15.35 526.487 12 528 32.98z"/><g><path fill="#FF6122" d="M528 0h48v48h-48"/><path fill="#FFF" d="M533.928 38.505c-1.31 0-1.55 1.18-1.55 2.032 0 .854.24 2.035 1.55 2.035s1.55-1.182 1.55-2.035c0-.85-.24-2.032-1.55-2.032m0 5.548c-1.733 0-3.297-1.104-3.297-3.516 0-2.41 1.564-3.515 3.298-3.515 1.732 0 3.294 1.104 3.294 3.515 0 2.412-1.562 3.516-3.294 3.516M538.424 37.198h1.668v.782c.318-.422 1.102-.92 1.836-.92.07 0 .155 0 .228.01v1.647h-.086c-.763 0-1.597.118-1.866.71v4.432h-1.78v-6.662M544.357 41.875c0 .45.28.867.79.867.55 0 1.087-.228 1.624-.7v-1.58c-1.637.204-2.413.626-2.413 1.413m2.455 1.404c-.678.444-1.412.66-2.202.66-1.243 0-1.98-.826-1.98-1.937 0-1.492 1.372-2.28 4.196-2.598v-.37c0-.485-.366-.77-1.045-.77s-1.228.27-1.625.77l-1.183-.675c.62-.87 1.565-1.304 2.836-1.304 1.738 0 2.714.753 2.714 1.978 0 0-.002 4.815 0 4.827h-1.554l-.156-.58M549.908 37.376l1.452-.2.16.79c.817-.6 1.468-.917 2.286-.917 1.37 0 2.08.726 2.08 2.166v4.638h-1.755V39.52c0-.814-.21-1.182-.845-1.182-.522 0-1.046.236-1.643.738v4.777h-1.735v-6.477M563.303 37.175v6.308c0 1.11-.088 2.947-3.26 2.964-1.31.01-2.524-.516-2.767-1.658l1.73-.28c.07.327.273.653 1.254.653.908 0 1.345-.435 1.345-1.476v-.777l-.022-.023c-.28.5-.702.972-1.72.972-1.554 0-2.776-1.078-2.776-3.33 0-2.23 1.262-3.476 2.677-3.478 1.33-.003 1.82.604 1.938.922l-.023-.003.145-.795h1.478zm-3.127 5.253c1.33-.01 1.443-1.364 1.443-2.244 0-1.046-.51-1.89-1.456-1.89-.63 0-1.333.46-1.333 1.962 0 .82.06 2.183 1.346 2.172zM568.81 39.645c0-.89-.51-1.414-1.343-1.414-.792 0-1.287.515-1.356 1.415h2.7zm-1.316 4.335c-1.963 0-3.134-1.264-3.134-3.455 0-2.216 1.186-3.478 3.106-3.478s3.064 1.225 3.064 3.39c0 .116-.014.23-.014.344h-4.436c.012 1.265.537 1.9 1.568 1.9.662 0 1.102-.267 1.513-.852l1.283.71c-.562.947-1.58 1.442-2.95 1.442zM569.48 34.67v.293h.687v1.91h.364v-1.91h.69v-.292h-1.74zm4.052 0l-.646 1.672-.657-1.67h-.563v2.2h.364v-1.837h.01l.724 1.838h.232l.718-1.838h.01v1.838h.364V34.67h-.556z"/></g><path fill="#D72938" d="M689.984 2c.85.003 1.295.667 1.453.886.074.22.136.443.214.897.012.09.017.146.017.24 0 .37-.09.582-.227.926-.12.298-.17.485-.39.723-.32.344-.545.45-.64.575-.04.06-.37.363-.464.502-.095.14-.463.716-.612 1.03-.12.258-.11.687-.54 1.284-.177.245-.327.365-.422.652-.094.29-.093.48-.246.742-.283.476-.543.683-.777 1.183-.226.485-.234.798-.385 1.307-.16.532-.524.743-.58 1.292-.03.257.03.41 0 .67-.085.79-.632 1.07-1.023 1.765-.143.257-.143.447-.19.74-.065.41-.134.632-.264 1.027-.22.664-.202 1.08-.332 1.765-.086.45-.137.708-.21 1.16-.038.234-.178.35-.178.59l.002.23c0 .156-.097.23-.105.39-.028.353-.09.548-.14.898-.24 1.77-.568 2.722-.997 4.454-.155.625-.152.998-.297 1.623-.106.465-.208.725-.245 1.203-.028.38-.024.592-.05.97-.032.438.02.687.02 1.123 0 .252-.022.395-.052.645-.18 1.426-.49 2.47-.522 3.656v.78l-.12 1.13v.192c.004.602-.55 1.186-1.084 1.186-.725-.002-.957-.762-1.073-1.522-.073-.478-.15-.753-.22-1.233-.036-.27-.166-.393-.228-.657-.02-.093-.013-.148-.026-.23-.016-.08-.293-1.354-.51-2.212-.18-.708-.37-2.027-.4-2.06-.037-.037-.13-.55-.17-1.053-.025-.296-.135-.61-.157-.74-.02-.146.035-.23.012-.373-.066-.4-.09-.63-.18-1.023-.088-.378-.134-.576-.197-.974v-.16c-.05-.692-.27-1.507-.394-2.474-.055-.437-.032-.692-.07-1.13-.035-.348-.06-.82-.224-.884-.225-.088-.297.235-.38.404-.184.367-.29.57-.445.956-.217.548-.293.875-.54 1.412-.277.595-.378.95-.63 1.557-.196.48-.51.908-.966.92-.387.01-.78-.42-.798-.775-.02-.284.13-.92.322-1.438.204-.543.357-.972.477-1.415.125-.474.203-.606.333-1.11.165-.652.42-1.085.6-1.734.21-.766.418-1.116.668-1.87.118-.355.2-.61.298-.973.046-.17.225-.684.334-1.13.085-.35.15-.72.244-.885.184-.278.5-.35.838-.346.71 0 1.19.37 1.198 1.075.006.468-.063 1.025.024 1.5.006.325.053.197.102.514.195 1.245.28 1.404.382 2.384.124.566.212 1.585.212 1.585 0 .398.147 1.085.238 1.473.086.382-.003.534.138 1.13.105.46.172 1.045.186 1.2.015.204.064.59.1.79.024.146.055.46.15.95.11.336.074.616.23.974.038.096.096.2.2.2.09 0 .172-.14.233-.26.207-.39.188-.636.34-1.052.188-.523.27-.87.352-1.38.136-.585.277-1.692.54-2.755.268-1.074.37-1.69.577-2.774.143-.742.294-1.19.423-1.893.075-.334.174-.52.172-.864.028-.2.086-.323.124-.53.142-.736.27-1.263.332-1.892v-.173c.033-.132.082-.438.247-.762.172-.525.34-.803.634-1.27.437-.695.372-1.23.63-2.013.04-.06.232-.488.275-.823.04-.043.15-.28.196-.558.102-.115.53-1.92.83-2.647.015-.178.167-.404.25-.657.07-.24.497-1.327.695-1.993.168-.538.115-.883.336-1.396.238-.55.384-1.164.44-1.467.136-.337.268-.512.477-.812.3-.43.493-.71.982-.904.228-.09.383-.186.624-.186zm14.415 8.888c.537 0 1.084.36 1.063.9-.02.43-.154.514-.247.67-.146.24-.09.643-.91.723-.432 0-.966-.496-.966-1.054 0-.63.428-1.238 1.06-1.238zm5.33 1.84c.75.003 1.13.74 1.11 1.558-.002.076-.028.117-.028.195 0 .21.03.323.03.53 0 .194-.067.707-.067.707 0 .398-.12.618-.12 1.016 0 .113.033.178.033.29 0 .23-.034.357-.052.585-.047.56.333.597.46.854.27.125.402.358.71.358.14.002.572-.18.69-.22.56-.25.887-.382 1.428-.67.84-.44 1.184-.8 2-1.31.54-.346 1.043-.687 1.685-.686.53 0 1.03.397 1.18.764.07.178.173.406.173.642 0 .085.037.13.037.213 0 .123-.004.194-.017.317-.04.347-.03.56-.158.882-.13.334-.355.455-.654.653-.33.226-.602.334-1.008.334h-.213c-.285-.003-.41-.09-.696-.09-.448 0-.723.182-1.12.38-.478.236-1.02.544-1.185.625-.468.218-1.42.725-2.296 1.248-1.795 1.072-3.035 1.644-4.772 2.797-.673.45-.856.666-1.57 1.042-.44.236-.743.282-1.164.547-.714.448-1.098.763-1.68 1.377-.514.436-1.25 1.195-1.875 1.513-.578.295-1.24.842-1.655 1.34-.085.105-.49.362-.543.973l.132 1.674c0 .318-.146.528-.126.904l.02 1.183c0 .443.15.49.15.857l.013.472c0 .557.22.845.23 1.397-.055.6.007.862.02 1.433.018.557.1.892.234 1.43.1.402.064.62.24.99.255.55.368.856.64 1.4.183.362.294.66.294 1.067.002.793-.632 1.288-1.482 1.377-.076.01-.727.01-.992-.165-.332-.228-.425-.658-.444-1.057-.024-.555-.012-.762-.104-1.328.006-.292-.07-.453-.146-.732-.17-.63-.287-.992-.302-1.646-.017-.84.05-1.312.05-2.15-.035-.556-.078-.87-.145-1.42-.07-.545-.177-.862-.24-1.405-.112-.917-.112-1.432-.164-2.354-.016-.226-.016-.346-.04-.57-.004-.278-.122-.41-.306-.413-.38 0-.54.277-.87.465-.46.256-.694.503-1.082.857-.783.573-1.11.903-1.74 1.59-.418.454-.614.76-1.076 1.165-.373.326-.615.486-.972.83-.293.28-.393.506-.617.85-.202.303-.395.426-.67.666-1.005.884-1.197.85-2.436 2.417-.362.46-.63.525-.723.677-.018.03-.428.367-.576.514-.203.204-.516.504-.694.646-.395.316-.537.6-.918.936-.432.38-.702.61-1.253.792-.256.083-.355.177-.63.177-.562 0-.946-.536-.947-1.1 0-.357.178-.49.39-.776.407-.553.683-.84 1.198-1.287.846-.742 1.145-1.37 2.083-1.994.325-.217 1.145-.67 1.366-.84.38-.295.716-.62 1.017-.994.132-.17.28-.214.406-.39.132-.186.177-.323.335-.494.355-.385.626-.543 1.058-.845.562-.393.88-.566 1.413-1.003.38-.308.543-.574.846-.954.6-.75 1.164-.95 1.943-1.517.36-.263.476-.518.758-.864.154-.19.67-.853 1.183-1.305.343-.303.553-.46.9-.76.596-.515.806-.33.79-1.12 0-.136.037-.325-.166-.31-.19.016-.24.176-.378.3-.294.26-.475.388-.866.382-.8-.016-1.306-.73-1.33-.778-.226-.446-.59-1.805-.605-2.225 0 0-.025-.563 0-.885.03-.402.134-1.136.385-1.573.138-.242.26-1.2.43-2.08.062-.322.24-.648.344-.96.146-.45.22-.72.49-1.11.478-.684.743-1.457 1.58-1.453.187 0 .27.046.44.127.107.058.23.078.293.178.058.09.004.173.09.24.158.122.23.372.23.62 0 .143 0 .227-.017.366-.062.564-.403.792-.758 1.235-.344.432-.427.573-.644 1.08-.176.415-.22.842-.306 1.284-.102.52-.19.985-.227 1.345-.012.113-.024.21-.024.33 0 .13.098.373.23.373.206 0 .393-.248.463-.444.165-.455.293-.68.408-1.153.17-.675.278-.973.542-1.546.327-.707.36-1.158.552-1.738.23-.7.43-1.344 1.166-1.34.235 0 .39 0 .594.12.462.258.576.697.576 1.226-.005.162-.01.257-.025.42-.17 1.58-.563 2.433-.694 4.026-.02.225 0 .357-.02.582-.034.4-.125.615-.123 1.018 0 .18.04.28.09.45.026.09.057.195.15.195.185 0 .262-.133.416-.23.3-.188.5-.25.793-.443.454-.3.747-.42 1.186-.738.446-.327.904-.83 1.367-1.132.454-.293.512-.218.997-.524.59-.373.945-.565 1.502-.984.332-.256.346-.436.828-.707.463-.263.73-.404 1.182-.688.24-.152.362-.27.618-.387.213-.1.425-.196.425-.432-.003-.235-.148-.373-.27-.573-.172-.29-.204-.447-.205-.783 0-.167-.006-.292.02-.456.106-.654.36-1 .358-1.66l.02-.216c-.03-.024-.047-.054-.09-.054-.09 0-.145.12-.202.19-.17.196-.267.318-.433.52-.22.26-.36.4-.51.706-.088.166-.072.285-.142.46-.152.38-.26.605-.388.995-.347 1.046-.322 2.43-1.427 2.428-.726 0-1.315-.578-1.316-1.303 0-.42.118-1.056.17-1.103.178-.15.035-.55.14-.643.087-.072.12-.44.12-.8 0-.166.046-.264.046-.43l.02-.268c0-.302.095-.46.14-.757.088-.603.245-.75.296-.922.026-.1.02-.146.055-.245.194-.546.15-.87.684-1.32.19-.192.31-.396.58-.396.626.002.8.358.96.343.292-.03.39-.253.597-.458.626-.61 1.03-1.345 1.912-1.343zm-6.983 3.857c.596 0 1.186.22 1.17.982-.01.45-.244.67-.404 1.087-.133.345-.064.578-.157.936-.14.532-.364.477-.333 1.377.01.675.01 1.057-.014 1.732-.027.648-.56 1.105-1.212 1.115-.565.01-1.144-.66-1.142-1.226 0-.405.115-.623.14-1.027.02-.352-.008-.55.016-.9.035-.597.198-.916.384-1.485.093-.282.087-.465.195-.742.155-.404.2-.632.44-1.023.102-.44.434-.83.917-.828zm-16.235 2.102c.358 0 .613.176.8.485.185.304.34.493.34.85 0 .062-.018.097-.018.16.004.61-.51 1.093-1.12 1.093-.61-.004-1.055-.628-1.053-1.162 0-.213.132-.35.154-.583.058-.55.41-.846.898-.843zm4.475 1.65c.627 0 .905.517 1.213 1.063.302.53.64.817.64 1.422 0 .608-.397.913-.865 1.3-.267.22-.498.174-.846.28-.16.05-.194.265-.215.458-.037.354-.062.55-.07.902-.015.586.006.917.008 1.5-.062.326-.008.545-.16.832-.242.46-.627.69-1.15.688-.605 0-1.124-.48-1.113-1.088.002-.18.078-.727.068-1.194-.017-.708-.072-1.11-.074-1.82-.002-.354.158-.543.158-.9v-.3c-.01-.26.244-.495.51-.706.38-.304.54-.643.718-1.097.293-.75.456-1.34 1.177-1.34zm-4.47 2.804c.305.005.514.114.692.355.288.393.47.684.47 1.17 0 .105-.007.162-.017.267-.048.397-.177.614-.39.952-.133.215-.137.383-.243.618-.2.43-.318.825-.335 1.166-.02.702-.03 1.1-.013 1.802.007.352.09.545.09.894.003.73-.426 1.472-1.156 1.472-.723.003-1.412-.954-1.376-1.963.017-.363.074-.563.142-.92.107-.557.194-1.19.297-1.43.138-.32.13-.435.154-.533l.084-.576c0-.236.092-.286.13-.518.08-.497.14-.773.298-1.254.097-.296.232-.43.334-.722.15-.42.392-.78.838-.78z"/><path fill="#52BC0F" d="M746.273 0c-3.815 0-7.453 1.436-9.594 3.724V1.166l-.372-.373h-7.775l-.373.373-.16 46.53.16.304 8.335-4.993.2-.335-.016-25.82c0-5.89 2.837-9.268 7.783-9.268 5.378 0 7.775 3.08 7.775 9.992v19.876l.376.373h7.775l.372-.373V17.284C760.764 5.977 755.754 0 746.272 0z"/><g><path d="M36 36.434v.57C36 38.657 34.656 40 32.998 40H5.002C3.344 40 2 38.652 2 37.003v-.574C.924 35.732.298 34.47.467 33.034L2 20h34l1.533 13.035c.17 1.444-.455 2.705-1.533 3.4zM36 3.57v-.573C36 1.347 34.656 0 32.998 0H5.002C3.344 0 2 1.342 2 2.997v.57C.922 4.26.297 5.52.467 6.963L2 20h34l1.533-13.036c.17-1.432-.457-2.696-1.533-3.393z" filter="url(#a)" transform="translate(771 2)"/><path fill="#E2E2E2" d="M807 38.434v.57c0 1.654-1.344 2.996-3.002 2.996h-27.996c-1.658 0-3.002-1.348-3.002-2.997v-.574c-1.076-.697-1.702-1.96-1.533-3.395L773 22h34l1.533 13.035c.17 1.444-.455 2.705-1.533 3.4zm0-32.863v-.573C807 3.347 805.656 2 803.998 2h-27.996C774.344 2 773 3.342 773 4.997v.57c-1.078.693-1.703 1.955-1.533 3.397L773 22h34l1.533-13.036c.17-1.432-.457-2.696-1.533-3.393z"/><path fill="#E2E2E2" d="M776 2h28c1.657 0 3 1.343 3 3v3c0 1.657-1.343 3-3 3h-28c-1.657 0-3-1.343-3-3V5c0-1.657 1.343-3 3-3z"/><path fill="#AAA9A8" d="M776 33h28c1.657 0 3 1.344 3 3v3c0 1.656-1.343 3-3 3h-28c-1.657 0-3-1.344-3-3v-3c0-1.656 1.343-3 3-3z"/><path d="M.467 6.964C.21 4.774 1.782 3 3.995 3h30.01c2.206 0 3.785 1.787 3.528 3.964L36 20H2L.467 6.964z" filter="url(#b)" transform="translate(771 2)"/><path fill="#0D7DC0" d="M771.467 8.964C771.21 6.774 772.782 5 774.995 5h30.01c2.206 0 3.785 1.787 3.528 3.964L807 22h-34l-1.533-13.036z"/><g transform="translate(771 22)"><path d="M2 0h34l1.533 13.035C37.79 15.225 36.218 17 34.005 17H3.995C1.79 17 .21 15.213.467 13.035L2 0z" filter="url(#c)"/><path fill="#0AABF4" d="M2 0h34l1.533 13.035C37.79 15.225 36.218 17 34.005 17H3.995C1.79 17 .21 15.213.467 13.035L2 0z"/><defs><filter id="d" filterUnits="userSpaceOnUse" x="2" y="0" width="37.025" height="17"><feColorMatrix values="1 0 0 0 0 0 1 0 0 0 0 0 1 0 0 0 0 0 1 0"/></filter></defs><mask maskUnits="userSpaceOnUse" x="2" y="0" width="37.025" height="17" id="e"><path fill="#FFF" d="M2 0h34l1.533 13.035C37.79 15.225 36.218 17 34.005 17H3.995C1.79 17 .21 15.213.467 13.035L2 0z" filter="url(#d)"/></mask><path mask="url(#e)" fill="#099DE1" d="M2 0l17 17h20.025V0"/></g><path fill="#E8E8E8" d="M781 29c0-3 6-5 9-5s9 2 9 5v3h-18v-3zm9-9c2.21 0 4-1.79 4-4s-1.79-4-4-4-4 1.79-4 4 1.79 4 4 4z"/><g transform="translate(792 24)"><circle fill="#FD7461" cx="12" cy="12" r="12"/><path d="M17.657 17.657C19.14 16.177 20 14.157 20 12c0-4.418-3.582-8-8-8v2c3.313 0 6 2.687 6 6 0 1.62-.646 3.133-1.757 4.242L14 14v6h6l-2.343-2.343zm-9.9-9.9L10 10V4H4l2.343 2.343C4.86 7.823 4 9.843 4 12c0 4.418 3.582 8 8 8v-2c-3.313 0-6-2.687-6-6 0-1.62.646-3.132 1.757-4.242z" filter="url(#f)"/><path fill="#FFF" d="M17.657 17.657C19.14 16.177 20 14.157 20 12c0-4.418-3.582-8-8-8v2c3.313 0 6 2.687 6 6 0 1.62-.646 3.133-1.757 4.242L14 14v6h6l-2.343-2.343zm-9.9-9.9L10 10V4H4l2.343 2.343C4.86 7.823 4 9.843 4 12c0 4.418 3.582 8 8 8v-2c-3.313 0-6-2.687-6-6 0-1.62.646-3.132 1.757-4.242z"/></g></g><g><path fill="#0077B5" d="M820 0h40c2.21 0 4 1.79 4 4v40c0 2.21-1.79 4-4 4h-40c-2.21 0-4-1.79-4-4V4c0-2.21 1.79-4 4-4z"/><path fill="#FFF" d="M831.19 39.276V18.848h-6.79v20.428h6.79zm-3.393-23.217c2.367 0 3.84-1.57 3.84-3.53-.043-2.005-1.473-3.53-3.795-3.53C825.52 9 824 10.525 824 12.53c0 1.96 1.474 3.53 3.752 3.53h.045zm7.476 23.216h6.79V27.868c0-.61.044-1.22.224-1.657.49-1.218 1.607-2.482 3.483-2.482 2.457 0 3.44 1.874 3.44 4.62v10.93H856V27.56c0-6.274-3.35-9.194-7.817-9.194-3.663 0-5.27 2.047-6.164 3.442h.044v-2.962h-6.79c.088 1.917 0 20.428 0 20.428z"/></g><g fill="#264670"><path d="M908.885 11.55l-5.124 8.72h-5.38l-6.353 10.795h5.392L893.34 38h13.242c3.385-4.052 5.418-9.23 5.418-14.874 0-4.21-1.136-8.158-3.115-11.577zM882.66 38h.013l-.006-.012L899.12 10H885.2l-9.488 16.152-8.59-14.616C865.14 14.956 864 18.91 864 23.126c0 5.644 2.032 10.82 5.418 14.874h13.242zM898.128 39.2h5.04v1.728h-2.976v1.225h2.544v1.728h-2.544v1.393h3.096V47h-5.16v-7.8zm6.624 0h2.064v4.272c0 .695.094 1.186.28 1.47.19.284.487.426.896.426s.71-.142.906-.427c.195-.282.294-.772.294-1.468V39.2h1.99v4.032c0 1.336-.26 2.322-.778 2.957-.52.636-1.324.954-2.412.954-1.096 0-1.91-.318-2.442-.955-.532-.636-.798-1.622-.798-2.958V39.2z"/></g><g fill="#264670"><path d="M956.885 11.55l-5.124 8.72h-5.38l-6.353 10.795h5.392L941.34 38h13.242c3.385-4.052 5.418-9.23 5.418-14.874 0-4.21-1.136-8.158-3.115-11.577zM930.66 38h.013l-.006-.012L947.12 10H933.2l-9.488 16.152-8.59-14.616C913.14 14.956 912 18.91 912 23.126c0 5.644 2.032 10.82 5.418 14.874h13.242zM946.488 43.16c0-.656.104-1.238.312-1.746s.488-.936.84-1.284c.353-.348.76-.614 1.22-.798s.94-.275 1.444-.275c.496 0 .946.102 1.35.305.404.205.747.447 1.026.727l-1.128 1.27c-.19-.168-.38-.297-.563-.39-.186-.092-.405-.138-.66-.138-.233 0-.455.052-.667.156-.212.104-.396.252-.552.443-.155.193-.28.43-.37.71-.093.28-.14.596-.14.947 0 .736.154 1.3.463 1.692.308.39.714.587 1.218.587.305 0 .566-.058.787-.175.22-.115.414-.266.582-.45l1.127 1.25c-.336.383-.72.67-1.152.862-.432.192-.888.29-1.368.29-.512 0-.996-.083-1.452-.247s-.855-.412-1.2-.744c-.344-.332-.615-.748-.815-1.248s-.302-1.08-.302-1.745zm10.692.588l-.132-.54c-.096-.376-.19-.784-.288-1.224-.096-.44-.19-.856-.288-1.248h-.048c-.088.4-.178.818-.27 1.254s-.187.842-.282 1.218l-.132.54h1.44zm.372 1.596h-2.184L954.984 47h-2.112l2.376-7.8h2.496l2.376 7.8h-2.185l-.383-1.656z"/></g><g fill="#3E669C"><path d="M1056 10v28h48V10h-48zm12 26l-6.5-9.5-3.5 3.5v-7l10-11h7l-10 11 9.5 13h-6.5zm34 0h-24s-4-2-4-7h7c0 2 .5 4 6 4s5-3 5-3 0-1.5-4-2.5-7.5-2-9-2.5-4.5-2.5-4.5-6.5 3-6 4-6.5h23.5v24z"/><circle cx="1097" cy="18" r="3"/><path d="M1091 21v-2c0-1-.5-4-5-4s-4.017 2-4.017 2.5c0 2.5 9.017 3.5 9.017 3.5zM1092.192 43.88h2.544v-1.728h-2.544v-1.224h2.976V39.2h-5.04V47h5.16v-1.73h-3.096M1101.192 43.473c0 .695-.1 1.186-.294 1.47-.196.284-.498.426-.906.426s-.706-.143-.895-.428c-.188-.283-.28-.773-.28-1.47V39.2h-2.065v4.032c0 1.336.266 2.322.798 2.957.532.636 1.347.954 2.442.954 1.088 0 1.892-.318 2.412-.955.52-.636.78-1.622.78-2.958V39.2h-1.992v4.273z"/></g><g fill="#3E669C"><path d="M1152 10h-48v28h48V10zm-36 26l-6.5-9.5-3.5 3.5v-7l10-11h7l-10 11 9.5 13h-6.5zm34 0h-24s-4-2-4-7h7c0 2 .5 4 6 4s5-3 5-3 0-1.5-4-2.5-7.5-2-9-2.5-4.5-2.5-4.5-6.5 3-6 4-6.5h23.5v24z"/><circle cx="1145" cy="18" r="3"/><path d="M1139 21v-2c0-1-.5-4-5-4s-4.017 2-4.017 2.5c0 2.5 9.017 3.5 9.017 3.5zM1143.066 45.193c-.22.117-.482.175-.786.175-.504 0-.91-.196-1.218-.588-.31-.392-.463-.956-.463-1.692 0-.352.046-.668.138-.947.092-.28.216-.516.372-.708.155-.19.34-.34.552-.443.212-.105.434-.157.666-.157.256 0 .476.046.66.138.184.094.372.223.563.39l1.13-1.27c-.28-.28-.623-.52-1.026-.727-.404-.203-.854-.305-1.35-.305-.505 0-.986.092-1.446.275s-.866.45-1.22.798c-.35.35-.63.777-.84 1.285s-.31 1.09-.31 1.746c0 .665.1 1.247.3 1.747s.47.916.814 1.248c.345.332.744.58 1.2.744s.94.245 1.452.245c.48 0 .937-.097 1.368-.29.432-.19.815-.478 1.152-.862l-1.128-1.248c-.166.183-.36.333-.58.448zM1149.744 39.2h-2.496l-2.376 7.8h2.112l.384-1.656h2.184l.384 1.656h2.185l-2.376-7.8zm-2.004 4.548l.132-.54c.096-.376.19-.782.282-1.218s.182-.854.27-1.254h.048c.097.392.192.808.288 1.248.096.44.192.848.288 1.224l.132.54h-1.44z"/></g><g><path fill="#FFF" d="M1156 2h40c1.104 0 2 .896 2 2v40c0 1.104-.896 2-2 2h-40c-1.104 0-2-.896-2-2V4c0-1.104.896-2 2-2z"/><path fill="#855CEA" d="M1195.995 2H1191v-.997c0-.565-.447-1.003-1-1.003-.557 0-1 .45-1 1.003V2h-5v-.997c0-.565-.447-1.003-1-1.003-.557 0-1 .45-1 1.003V2h-5v-.997c0-.565-.447-1.003-1-1.003-.557 0-1 .45-1 1.003V2h-5v-.997c0-.565-.447-1.003-1-1.003-.557 0-1 .45-1 1.003V2h-5v-.997c0-.565-.447-1.003-1-1.003-.557 0-1 .45-1 1.003V2h-4.995c-1.107 0-2.005.897-2.005 2.005v39.99c0 1.107.897 2.005 2.005 2.005h39.99c1.107 0 2.005-.897 2.005-2.005V4.005c0-1.106-.897-2.005-2.005-2.005zm.005 40h-40V11h40v31zm0-33h-40V4h5v1.997c0 .565.447 1.003 1 1.003.557 0 1-.45 1-1.003V4h5v1.997c0 .565.447 1.003 1 1.003.557 0 1-.45 1-1.003V4h5v1.997c0 .565.447 1.003 1 1.003.557 0 1-.45 1-1.003V4h5v1.997c0 .565.447 1.003 1 1.003.557 0 1-.45 1-1.003V4h5v1.997c0 .565.447 1.003 1 1.003.557 0 1-.45 1-1.003V4h5v5z"/><path fill="#855CEA" d="M1192 15h-32c-.545 0-1 .45-1 1.003v20.994c0 .564.447 1.003 1 1.003h32c.545 0 1-.45 1-1.003V16.003c0-.564-.447-1.003-1-1.003zm-25 21h-6v-5h6v5zm0-7h-6v-5h6v5zm0-7h-6v-5h6v5zm8 14h-6v-5h6v5zm0-7h-6v-5h6v5zm8 7h-6v-5h6v5zm0-7h-6v-5h6v5zm0-7h-6v-5h6v5zm8 14h-6v-5h6v5zm0-7h-6v-5h6v5zm0-7h-6v-5h6v5z"/></g><g><path fill="#FF5D47" d="M1210 18.006c0-1.108.9-2.006 1.99-2.006h24.02c1.1 0 1.99.897 1.99 2.006v9.988c0 1.108-.9 2.006-1.99 2.006h-24.02c-1.098 0-1.99-.896-1.99-2.006v-9.988z"/><path fill="#FFF" d="M1224.59 21.895c-.402-.52-.59-.895-.59-.895s-.188.375-.59.895c0 0-.48.576-.717.808-1.1 1.088-2.944 2.297-5.693 2.297-5 0-7-4-7-4v-3.002c0-1.103.9-1.998 1.99-1.998h24.02c1.1 0 1.99.898 1.99 1.998V21s-2 4-7 4c-2.75 0-4.592-1.21-5.693-2.298l-.716-.807z"/><path fill="#FF5D47" d="M1212 22l-.21-.895c.018.038.096.17.232.363.248.35.56.706.932 1.037 1.057.94 2.375 1.495 4.046 1.495s2.99-.555 4.046-1.495c.373-.33.684-.686.932-1.037.137-.193.215-.325.233-.363.738-1.474 2.842-1.474 3.58 0 .018.038.096.17.232.363.248.35.56.706.932 1.037 1.057.94 2.375 1.495 4.046 1.495s2.99-.555 4.046-1.495c.373-.33.684-.686.932-1.037.137-.193.215-.325.233-.363L1236 22v-4.002c0 .002-24.01.002-24.01.002.012 0 .01 4 .01 4zm12.59.895c-.402-.52-.59-.895-.59-.895s-.188.375-.59.895c0 0-.48.576-.717.808-1.1 1.088-2.944 2.297-5.693 2.297-5 0-7-4-7-4v-4.002c0-1.103.9-1.998 1.99-1.998h24.02c1.1 0 1.99.898 1.99 1.998V22s-2 4-7 4c-2.75 0-4.592-1.21-5.693-2.298l-.716-.807zM1202 29.99c0-1.1.898-1.99 2.005-1.99h39.99c1.108 0 2.005.898 2.005 1.99v16.02c0 1.1-.898 1.99-2.005 1.99h-39.99c-1.108 0-2.005-.898-2.005-1.99V29.99z"/><path fill="#FFF" d="M1217.684 38.012c-.468-.58-.684-1.012-.684-1.012s-.25.398-.747.943c0 0-.417.397-.64.64C1214.387 39.7 1212.35 41 1209.5 41c-5 0-7.5-4-7.5-4v-7c0-1.104.898-2 2.005-2h39.99c1.108 0 2.005.888 2.005 2v7s-2.5 4-7.5 4c-2.85 0-4.887-1.3-6.113-2.417-.218-.225-.64-.64-.64-.64-.498-.545-.747-.943-.747-.943s-.216.432-.684 1.012c0 0-.37.434-.587.654-1.097 1.098-2.95 2.334-5.73 2.334s-4.633-1.236-5.73-2.334l-.586-.654z"/><path fill="#FF5D47" d="M1204 30v8l-.304-1.06c.032.05.136.196.31.404.308.37.683.745 1.118 1.094 1.23.983 2.677 1.562 4.376 1.562s3.147-.58 4.376-1.562c.436-.35.81-.724 1.12-1.094.172-.208.275-.354.308-.405.828-1.325 2.786-1.23 3.485.165.018.038.096.17.232.363.248.35.56.705.932 1.037 1.057.94 2.375 1.495 4.046 1.495s2.99-.555 4.046-1.494c.373-.332.684-.687.932-1.037.137-.194.215-.326.233-.364.7-1.396 2.658-1.49 3.486-.166.032.052.136.197.31.405.308.37.683.745 1.118 1.094 1.23.98 2.677 1.56 4.376 1.56s3.147-.58 4.376-1.562c.436-.35.81-.724 1.12-1.094.172-.208.275-.354.308-.405L1244 38v-8c0-.003.003 0-.005 0h-39.99c-.003 0-.005.002-.005 0zm13.684 9.012c-.468-.58-.684-1.012-.684-1.012s-.25.398-.747.943c0 0-.417.397-.64.64C1214.387 40.7 1212.35 42 1209.5 42c-5 0-7.5-4-7.5-4v-8c0-1.104.898-2 2.005-2h39.99c1.108 0 2.005.888 2.005 2v8s-2.5 4-7.5 4c-2.85 0-4.887-1.3-6.113-2.417-.218-.225-.64-.64-.64-.64-.498-.545-.747-.943-.747-.943s-.216.432-.684 1.012c0 0-.37.434-.587.654-1.097 1.098-2.95 2.334-5.73 2.334s-4.633-1.236-5.73-2.334l-.586-.654zM1215 8h4v9h-4V8zm7 0h4v9h-4V8zm7 0h4v9h-4V8z"/><path fill="#FF5D47" d="M1217 8c.553 0 1-.448 1-1 0-.475-.42-1.988-.98-3.37-.286-.708-.58-1.315-.827-1.712-.094-.15-.165-.245-.187-.266.184.183.475.348.994.348s.81-.165.993-.348c-.02.02-.093.116-.187.266-.247.397-.54 1.004-.828 1.71-.56 1.384-.978 2.897-.978 3.372 0 .552.447 1 1 1zm0 2c-1.657 0-3-1.343-3-3s2-7 3-7 3 5.343 3 7-1.343 3-3 3zm7-2c.553 0 1-.448 1-1 0-.475-.42-1.988-.98-3.37-.286-.708-.58-1.315-.827-1.712-.094-.15-.165-.245-.187-.266.184.183.475.348.994.348s.81-.165.993-.348c-.02.02-.093.116-.187.266-.247.397-.54 1.004-.828 1.71-.56 1.384-.978 2.897-.978 3.372 0 .552.447 1 1 1zm0 2c-1.657 0-3-1.343-3-3s2-7 3-7 3 5.343 3 7-1.343 3-3 3zm7-2c.553 0 1-.448 1-1 0-.475-.42-1.988-.98-3.37-.286-.708-.58-1.315-.827-1.712-.094-.15-.165-.245-.187-.266.184.183.475.348.994.348s.81-.165.993-.348c-.02.02-.093.116-.187.266-.247.397-.54 1.004-.828 1.71-.56 1.384-.978 2.897-.978 3.372 0 .552.447 1 1 1zm0 2c-1.657 0-3-1.343-3-3s2-7 3-7 3 5.343 3 7-1.343 3-3 3z"/></g><g><path fill="#E3373D" d="M1252 0h40c2.21 0 4 1.79 4 4v40c0 2.21-1.79 4-4 4h-40c-2.21 0-4-1.79-4-4V4c0-2.21 1.79-4 4-4z"/><path fill="#FFF" d="M1248 14h48v29h-48z"/><path d="M1291.826 25.055c-.854-.51-1.6-.755-2.277-.755-.847 0-1.578.387-2.24 1.185-1.248 1.5-1.507 4.62-1.687 6.193-.075.032-.157.058-.24.082-.217.065-.42.127-.498.23.655.773.783 2.085.91 3.352.097.978.194 1.988.477 2.675.155.034.374.052.67.052.137 0 .282-.005.427-.005.242 0 .482.01.673.07-.454-1.166-.63-2.746-.49-5.054 1.85-.444 3.494-1.78 4.29-3.488.478-1.03.86-2.662-.017-4.537zm-1.69 3.613c-.42 1.185-1.392 2.262-2.536 2.576.36-1.99.855-4.227 2.227-5.543l.08-.075.055.098c.606 1.125.43 2.222.174 2.945zM1267.174 32.438c-.24 0-.516.07-.78.143-.27.076-.55.147-.8.147-.068 0-.134-.018-.197-.03-.302-.06-.545-.25-.723-.52-.32-.484-.398-1.278-.11-2.246.462.13 1.044.147 1.68.147h.156c.163 0 .312.054.41.093.312-1.295.144-3.06-.107-4.076-.194-.042-.367-.114-.54-.174-.3-.106-.584-.21-.97-.21-.067 0-.137-.003-.205.005-1.226.168-2.06 1.918-2.248 3.562-.177 1.518.145 3.34 1.57 3.9.293.114.657.172 1.082.172.848-.002 1.83-.243 2.472-.497-.153-.284-.375-.415-.69-.415zm-2.72-3.363c.1-.728.356-1.298.778-1.785.164.674.197 1.368.09 1.903l-.14.07-.056.012c-.114 0-.195-.034-.268-.062-.065-.03-.123-.05-.203-.05l-.214.01.015-.098zM1259.814 22.738c-.08.008-.158.083-.234.083-.236 0-.443.058-.648.024-.196-.035-.393.17-.624.17h-.065c-.06 0-.115-.24-.142-.256-1.067 1.473-1.436 3.46-1.918 5.476-.268-.477-.512-.967-.755-1.47-.43-.88-.872-1.784-1.374-2.51-.142-.012-.278-.013-.41-.013-.575 0-1.097.106-1.588.252l-.025 1.354c-.054 2.324-.1 4.33.475 6.224.106.02.216.027.323.027.69 0 1.3-.343 1.563-.48.043-.594-.03-1.058-.104-1.55-.04-.252-.08-.506.05-.837.4.528.752 1.108 1.102 1.687.224.366.446.73.617 1.047.115.012.224.017.328.017.27 0 .507-.033.744-.066.247-.033.49-.065.77-.065l.16.058c.316-.716.333-1.77.35-2.788.016-.936.03-1.902.44-2.62.444 2.09 1.052 4.12 1.85 6.203.282-.04.594-.138.882-.228.214-.068.407-.133.56-.133.08 0 .147.035.203.075-.476-1.335-.784-2.85-1.08-4.33-.383-1.906-.78-3.84-1.45-5.35zM1272.098 31.975c-.28.44-.715.687-1.23.687-.546 0-1.09-.283-1.414-.74-.312-.436-.388-.98-.113-1.59.443.093.875.177 1.277.177.335 0 .636-.056.89-.085-.08-.996.034-1.695.155-2.436.1-.62.204-1.257.226-2.028-.558-.43-1.15-.65-1.813-.71-1.633 1.272-2.392 3.223-2.32 5.946.224 1.203 1.78 1.948 3.1 1.948.802 0 1.475-.267 1.873-.663-.08-.26-.3-.405-.63-.508zm-2.24-4.047c.092-.21.183-.42.256-.645l.09-.266.074.27c.175.625.12 1.79-.15 2.418l-.27.004c-.162 0-.323-.014-.443-.185.036-.646.243-1.13.444-1.597zM1276.703 27.332c-.104.002-.124.08-.136.314-.01.19-.025.48-.31.48l-.194.002.01-.068c.068-.845.007-1.816-.06-2.895-.092-1.528-.188-2.958.078-4.25-.33-.404-.832-.617-1.807-.617h-.036c-.08 0-.154-.255-.176-.3-.5 1.574-.257 3.297-.02 5.18.135 1.075.263 2.077.106 3.05-.192 0-.39-.025-.578-.04-.168-.015-.335-.032-.483-.032-.28 0-.446.05-.547.165-.114.13-.147.354-.142.62.386.27 1.052.29 1.696.306l.406.094c.018.574.062 1.123.104 1.672.065.803.13 1.635.114 2.54.17-.024.324-.032.474-.042.288-.02.562-.037.87-.074-.01-.64-.033-1.252-.055-1.84-.03-.822-.06-1.603.01-2.445.285-.082.63-.1.965-.12.56-.03 1.14-.063 1.393-.28-.202-.165-.375-.36-.547-.558-.324-.372-.632-.723-1.133-.86zM1282.872 26.818h-.13c-.06 0-.11.158-.14.13l-.014.602c-.038 1.65-.092 3.94-1.644 4.49-.147-.993-.188-2.076-.225-3.045-.02-.517-.04-.985-.022-1.312-.15-.073-.29-.153-.427-.237-.385-.236-.747-.457-1.333-.535-.233 2.842.047 4.724.832 5.59.322.36.738.542 1.236.542.35 0 .746-.087 1.14-.23l.15-.234c.28-.437.464-.727.883-1.05.105-.194.22-.435.335-.622.513-.837.997-1.732.82-3.176-.4-.335-.897-.912-1.463-.912z"/></g><path fill="#0062AE" d="M1342.205 17.303c1.39-2.315 1.69-2.356 1.792-3.322.08-.764-1.712-1.61-2.738-2.314-1.008-.725-2.276-.966-2.72-.986-.463-.02-1.067.08-.986-.16.628-1.867-.453-2.308-.886-2.4V7.115h-.182v-.182h-17.845c-.77-.175-2.365-.536-2.994-.503-.442 0-1.402.5-1.728.503h-.034c-.175 0-.705-.168-.896-.322-.28-.24-.544-.805-1.953-.542-.543.096-.963.426-1.223.865h-8.02v.182h-.182v9.947c-.493.046-.775.17-.846.242-.08.06-.523.222-.604.564-.28.242-.362.745-.18.926-.04.12-.183.745.36.926.545.846-.26 1.25-.26 1.25s-.625.06-2.337.925c-3.826 1.913-.263 2.84.382 2.9.947.08 1.148.16.847 1.127-.322.967 0 2.336 0 2.336-.766.02-.866.826-.847 1.39-.482 1.73 1.048 1.33 1.45.584 1.408.628 1.898-1.492 2.033-1.42v1.362c-.234.45-.482.823-.482.823-.665 1.45-.102.866-.142 1.49-.055.6.043.983.624 1.157v8.326h.182v.2h5.863c.1.067.204.13.318.183.665.302.726.322.906.04.046-.07.07-.146.08-.222h27.526v-.2h.183V31.074c1.312-.03.87-.328.966-1.548.08-1.288.303-3.02.303-2.88.162 1.23.625 3.344.443 3.604-.18.24-.14.423-.785.825-.663.403-.663.624-.644.665.02.04-.1.402.725.423.827.02 1.794-.564 1.874-.584.302-.162.705-.082.866-.605 0 0 .1-.946 0-1.39.322-.886.423-3.623.342-4.107.705-1.71.584-5.557.563-5.778.648-1.11.95-1.33.89-2.397zm-33.628 23.963c-.07-.087-.113-.186-.04-.323l.04-.077v.4zm.364-1.027c.94-1.375 2.256-1.814 2.256-1.814.735-.245 3.156-1.067 4.23-1.318v4.7h-6.484v-1.57zm26.64-21.407c-.225.928-.342 1.55-.403 1.993h-3.263c.78-.628 1.477-1.26 1.612-1.47.886-.302.504-.805.262-1.126-.262-.322-.886-.282-1.248-.06-1.088.04-.263.44-.423.643-.322.322-1.73.986-2.235 1.35-.072.05-.138.092-.2.126v-5.82c1.723.73 4.585.408 4.992.72.423.3 1.228 2.314.907 3.643zm-.463 3.443c-.2 2.51.585 4.41.72 5.638h-6.155v-5.6c.365-.11 1.064-.583 1.77-1.124h3.684c-.05.568.014.75-.02 1.086zm-31.23 3.142c-.06-1.128.262-1.752.423-1.894.14-.14 1.148-.705 1.73-.885 1.485-.438 2.317-1.01 2.538-1.193v4.538c-.1.025-.227-.023-.302-.023-.685-.1-.725.1-.685.242.022.06.062.1-.623.06-1.048-.04-.705.705-.222.906.543.24 1.828.302 1.83.302v.443h-4.227c-.13-1.505-.43-1.888-.46-2.497zm6.242-9.102c.12-.302-.183-.765.02-1.127.07-.158.487-.65.758-.987h3.03c.27.054.546.087.822.08.173-.003.33-.035.48-.08h.184v6.624h-5.725c.165-.117.302-.24.348-.362.16-.423.12-.826-.18-.846-.646.34-.304.06-.605.1-.16.114-.26.17-.322.2v-2.382c.55-.457 1.107-1.046 1.19-1.222zm6.583-5.356c-.02-.202.222-.624.362-.906.122-.303.604-.866.625-1.168.02-.04.704.06.905.06.222-.02 1.008-.08 1.41-.1.422 0 1.208.28 1.53.262.155-.01.5-.017.865-.014v4.746h-6.505c.46-.38.74-.908.888-1.188.222-.484-.04-1.49-.08-1.692zm12.604 3.337v6.122c-.165.022-.277-.014-.342-.036-.14-.06-.986-.423-1.107-.443-.14-.02-.1.102-1.107-.422-1.327-.705-1.61-.684-2.516-.563-.926.12-1.228.282-1.228-.1 0-.383.522-.665.522-.665.705-.242.402-.685.342-.806-.04-.14 0-.483-.18-.785.36-.324-.344-.646-.465-.827-.05-.093-.15-.603-.462-1.007v-.563h6.378l.167.094zm-20.376 6.95c.04-.02.078-.036.122-.057h6.36v1.617c-.845.578-1.287.994-2.233 1.583-1.05.665-2.78 1.37-3.647 1.63 0 0-.382.142-.543.02-.02-.022-.04-.034-.06-.053v-4.74zm6.847-.057h2.134c-.755.492-1.602 1.025-2.133 1.375V21.19zm6.624-6.756c-.297-.184-.704-.256-1.268-.07-2.014.644-2.295 1.43-2.617 1.67s-.523.444-.604.726c-.06.282.303.523-.02 1.107-.34.583 0 .947.04 1.047.04.12.08.684.443.785 1.007.1.685.2 1.128.36-.1.124-.51.414-1.037.766h-2.687v-6.624h6.623v.232zm-13.47 13.02c.11-.162.384-.356 1.23-.325 2.275.073 4.264-1.306 5.254-1.84v2.625h-6.482v-.46zm6.847-2.345c.94-.442 2.995-1.56 3.423-1.424.423.12 1.59 2.175 1.47 2.557-.187.598-.785.99-1.063 1.67h-3.83V25.11zm3.71 3.167c-.493 1.854.21 1.71.015 2.758-.06.344-1.69 1.37-2.86 2.66-.282.316-.573.545-.864.715v-6.132h3.71zm2.914 5.747v.796h-.887c.42-.32.704-.61.888-.796zm.365-.342c.36-.38.992-1.246 1.146-1.297.183-.04.505-.02 1.57.442 2.66 1.148 2.72.604 3.163 1.107.07.297.174.593.288.886h-6.166v-1.138zm6.542-3.192c-.758-.494-2.218-1.547-3.105-2.213h3.105v2.213zm-3.58-2.576c-.104-.08-.182-.143-.226-.182-.08-.08.122-1.066.142-1.43.04-.36-.06-1.227.424-2.395.563-.362.423-1.168.584-1.57.357-.02 1.593.22 2.656.04v5.538h-3.58zm.783-15.142c-.14-.02-.464.1-.383.202.362.443 1.328.242 1.63.403.155.082.466.27.782.462h-5.774V9.1c.362.013.695.037.824.09.302.12 1.592.825 1.77.724.183-.1-.18-.362-.14-.483.02-.12 1.128.123 1.27-.18.14-.302-.806-.705-1.128-.806-.322-.1-1.107-.1-1.37-.16-.17-.04-.71-.285-1.227-.46v-.528h6.543v5.575c-.94-.18-1.24-.416-1.41-.5-.2-.102-.664-.665-1.81-.665-.022 0-.766.06-.746.463.805.303 1.168.604 1.168.604zm-4.11-5.06c-.14-.038-.27-.067-.38-.075-.183-.02-1.29-.24-1.49-.282-.055-.005-.164-.028-.3-.06h2.17v.416zm-11.25 6.127c.076-.215.088-.707.197-.726.08-.01.662.39 1.446.725h-1.642zm-2.583-.932c-.06.312-.124.627-.19.93h-6.413V7.297h6.604v5.612zm-.274 1.294c-.21.906-.414 1.632-.45 1.69-.04.082-.522.826-.704 1.108-.183.262-.424.342-.564.503-.16.14-.1.463.24.564.323.1.767-.303.887-.282.08 0 .02.323.24.323.14.01.368-.11.625-.29v2.373c-.083.194-.114.138-.402.253-.403.18-.947.282-1.934.322-.284.018-.58.04-.867.06h-2.44c-.05-.04-.088-.09-.095-.16.645-.746.32-.826.442-1.17.12-.36.02-.805.06-1.187.062-.362-.1-.745-.16-.786-.08-.02-.362-.18-.584-.2-.172-.018-.35-.203-.624-.26v-2.86h6.33zm-5.342 19.23c.142-.28-.603-.947-.222-1.65.303-.564 1.692-1.753 1.672-2.478-.004-.388-.016-.725-.034-1.026h4.2v6.543h-6.603v-1.104c.652.08.857-.023.988-.284zm5.98-5.155h6.483v6.316c-.234.102-.466.173-.69.227h-5.793v-6.543zm4.28 6.907c-.848.377-2.112 1.58-3.856 2.537-.146.08-.283.147-.422.217v-2.753h4.278zm2.567 1.855l.02-.003c2.215-.203 2.014-.645 2.86-.867.987-.257 1.75-.62 2.332-.986h1.41v6.623h-6.623V37.04zm6.988-1.856h6.313c.072.163.15.318.23.475v6.147h-6.543v-6.623zm6.907 1.135c.463.775.935 1.37 1.146 1.56.403.343 1.25 1.37 1.27 2.257.035.748-.484 1.33.832 1.67h-3.248V36.32zm6.623 5.03c-.142-.13-.41-.285-.926-.487-1.128-.423-1.632-1.17-2.074-1.954-.314-.532-.94-2.217-1.39-3.726h4.39v6.165zm-4.493-6.53c-.164-.58-.294-1.12-.36-1.53-.246-1.465-.945-2.048-1.77-2.567v-2.445h6.19c.08.97-.107 1.41-1.398 2.175-1.43.825.262.724.262.724s.08-.113 1.57-.1v3.744h-4.494zm3.125-26.478c-.745.423-.443.947-.585 1.188-.14.22-.442.382-.442.664s.302.322.302.342c.02.463.06.805.06.906 0 .363.444.322.384.423-.14.16-.825.362-1.35.705-.503.322-1.006.543-1.33.523-.34-.02-.562.08-2.012-.12-.104-.014-.19-.028-.28-.042V7.297h6.622v.772c-.327-.035-.783-.034-1.37.274zm-25.392-.06c.12 1.027 1.007 1.63 1.41 1.67.422.062.402-.08.785-.16s.423.102.584.062c.14-.06.04-.14.22-.2.183-.082.646-.082.767-.304.062-.1.322-.402.322-.402-.422 1.69-.563 1.67-.563 1.67-1.954-.522-3.384-.422-3.727-.16-.206.138-.308.185-.402.484V7.296h.707c-.107.308-.15.644-.102.986zm-7.57 33.525v-6.623h6.604v2.932c-1.382.648-2.256.813-2.256.813-1.007.362-.483 1.006-.202 1.127 0 .08.504 1.026.625 1.188.065.098.23.326.467.562h-5.24z"/><g fill="#9DC51C"><path d="M985.33 12.554c-.458-.306-.443-.77.05-1.042l7.24-4.023c.486-.27 1.267-.274 1.76 0l7.24 4.022c.486.27.505.738.05 1.042l-7.34 4.893c-.458.306-1.205.304-1.66 0l-7.34-4.893zM992 21.5V30l-10.5-10.5s-1.5-2-.64-3S983 16 983 16l9 5.5zm3 15.5s8.5-5 9.5-5.5 1-2.5-.5-3-6.5-.5-7.5-1-1.5-1-1.5-1V37zm12-11.5s-1-.5-2-.5c-5.5 0-8-1-8-3 0-1.5 4-4.5 6-5s4 .5 4 1v7.5zM980 23v7l8 4.5s2 1 2.5-.5-2.5-4-2.5-4l-8-7zm-3 3.5V31l14.5 9-31-5.5 16.5-8zM994.128 39.2h5.04v1.728h-2.976v1.225h2.544v1.728h-2.544v1.393h3.096V47h-5.16v-7.8zm6.624 0h2.064v4.272c0 .695.094 1.186.28 1.47.19.284.487.426.896.426s.71-.142.906-.427c.195-.282.294-.772.294-1.468V39.2h1.99v4.032c0 1.336-.26 2.322-.778 2.957-.52.636-1.324.954-2.412.954-1.096 0-1.91-.318-2.442-.955-.532-.636-.798-1.622-.798-2.958V39.2z"/></g><g fill="#9DC51C"><path d="M1033.33 12.554c-.458-.306-.443-.77.05-1.042l7.24-4.023c.486-.27 1.267-.274 1.76 0l7.24 4.022c.486.27.505.738.05 1.042l-7.34 4.893c-.458.306-1.205.304-1.66 0l-7.34-4.893zM1040 21.5V30l-10.5-10.5s-1.5-2-.64-3 2.14-.5 2.14-.5l9 5.5zm3 15.5s8.5-5 9.5-5.5 1-2.5-.5-3-6.5-.5-7.5-1-1.5-1-1.5-1V37zm12-11.5s-1-.5-2-.5c-5.5 0-8-1-8-3 0-1.5 4-4.5 6-5s4 .5 4 1v7.5zm-27-2.5v7l8 4.5s2 1 2.5-.5-2.5-4-2.5-4l-8-7zm-3 3.5V31l14.5 9-31-5.5 16.5-8zM1042.488 43.16c0-.656.104-1.238.312-1.746s.488-.936.84-1.284c.353-.348.76-.614 1.22-.798s.94-.275 1.444-.275c.496 0 .946.102 1.35.305.404.205.747.447 1.026.727l-1.128 1.27c-.19-.168-.38-.297-.563-.39-.186-.092-.405-.138-.66-.138-.233 0-.455.052-.667.156-.212.104-.396.252-.552.443-.155.193-.28.43-.37.71-.093.28-.14.596-.14.947 0 .736.154 1.3.463 1.692.308.39.714.587 1.218.587.305 0 .566-.058.787-.175.22-.115.414-.266.582-.45l1.127 1.25c-.337.383-.72.67-1.152.862-.432.192-.888.29-1.368.29-.512 0-.996-.083-1.452-.247s-.855-.412-1.2-.744c-.344-.332-.615-.748-.815-1.248s-.302-1.08-.302-1.745zm10.692.588l-.132-.54c-.096-.376-.192-.784-.288-1.224-.096-.44-.19-.856-.288-1.248h-.048c-.088.4-.178.818-.27 1.254s-.187.842-.282 1.218l-.132.54h1.44zm.372 1.596h-2.184l-.384 1.656h-2.112l2.376-7.8h2.496l2.376 7.8h-2.185l-.383-1.656z"/></g><g><path fill="#31AADE" d="M1380.445 39.943c-5.792-.82-8.94-6.672-5.438-14.312.692-1.522 1.62-2.494 2.508-1.347.53.687 1.063 1.372 1.596 2.06.543.76.45 1.86-.034 2.565-2.716 4.04-1.444 8.836 2.227 9.898 1.695.492 2.42 0 2.536.352.167.52-1.824 1.008-3.395.785z"/><path fill="#1794D1" d="M1376.708 43.373c-10.293-1.46-15.892-11.857-9.667-25.44 1.232-2.708 2.884-4.436 4.46-2.395l2.835 3.66c.964 1.35.8 3.307-.062 4.562-4.827 7.18-2.566 15.706 3.958 17.594 3.015.873 4.305 0 4.51.624.3.922-3.242 1.792-6.032 1.395z"/><path fill="#2276B9" d="M1370.402 47.66c-17.056-2.42-26.333-19.65-16.018-42.156 2.04-4.49 4.777-7.354 7.387-3.972 1.57 2.022 3.134 4.043 4.7 6.066 1.6 2.238 1.323 5.478-.103 7.558-8 11.896-4.253 26.027 6.56 29.157 4.99 1.445 7.13 0 7.47 1.034.5 1.53-5.37 2.968-9.995 2.312z"/><path fill="#E92F7C" d="M1385.98 33.648c-.103 2.162-1.63 3.848-3.412 3.762-1.78-.084-3.142-1.906-3.038-4.07.104-2.162 1.632-3.847 3.413-3.762 1.783.086 3.142 1.907 3.038 4.07z"/></g><g transform="translate(1392 11)"><linearGradient id="g" gradientUnits="userSpaceOnUse" x1="-915.838" y1="393.203" x2="-914.838" y2="393.203" gradientTransform="matrix(47.8788 0 0 -25.0997 43849.29 9881.888)"><stop offset="0" stop-color="#961D71"/><stop offset=".195" stop-color="#B10169"/><stop offset=".454" stop-color="#BF0251"/><stop offset=".726" stop-color="#CA013E"/><stop offset="1" stop-color="#F1001D"/></linearGradient><path fill="url(#g)" d="M.956.11C.422.134.076.38.076.906V24.37c0 .41.294.78.745.78h41.89c.378 0 .678-.034.855-.53 0 0 4.246-13.287 4.32-13.527.158-.503.056-.756-.373-1.03C33.867 1.323 13.467.05 4.202.05 2.87.05 1.773.078.955.11"/><path fill="#FFF" d="M9.62 15.108c-1.538-.742-2.586-1.13-2.333-1.876.3-.885 1.845-1.22 3.245-1.188.708.017 1.212.107 1.79.24l.51-1.6c-.733-.136-1.257-.204-2.13-.225-2.81-.066-5.348.71-6 2.35-.774 1.945 1.42 3.04 3.322 3.94 1.51.716 2.703 1.397 2.283 2.29-.326.69-1.395 1.018-2.948.982-1.346-.03-3.024-.417-4.347-1.084l-.786 1.7c.972.452 2.978 1.065 4.688 1.105 3.214.074 5.295-.733 6.128-2.485.986-2.07-1.46-3.2-3.423-4.15"/><path fill="#FFF" d="M13.98 18.03c.013.04.042.05.085.05s.064-.012.076-.05c.02-.053 1.566-4.852 1.566-4.852 1.577 2.26 3.144 5.23 3.983 8.365h2.57l1.273-3.974c.013-.042.042-.05.083-.05.045 0 .073.012.08.05.387 2.494 2.868 4.17 6.385 4.17 2.274 0 4.33-.595 4.842-.868l1.332-4.2h5.12l.52-1.624h-5.12l.882-2.757h6.1l.532-1.685H35.72l-2.908 9.09c-.617.157-1.38.234-2.177.234-1.717 0-3.09-.41-3.87-1.32-.585-.683-.817-1.563-.673-2.546.345-2.343 2.627-3.823 5.677-3.823.642 0 1.302.04 1.897.117l.603-1.768c-.734-.114-1.625-.162-2.5-.162-2.704 0-5.058.93-6.582 2.573-.047.052-.097.05-.126.05-.047 0-.08-.01-.066-.05l.765-2.395H23.53l-2.445 7.668c-.777-2.263-2.378-5.24-4.335-7.668H14.35l-1.792 5.58c.9.672 1.185 1.157 1.42 1.846"/></g><linearGradient id="h" gradientUnits="userSpaceOnUse" x1="1464" y1="48" x2="1464"><stop offset="0" stop-color="#FFE900"/><stop offset="1" stop-color="#FFD600"/></linearGradient><path fill="url(#h)" d="M1464 0c-13.255 0-24 10.745-24 24s10.745 24 24 24 24-10.745 24-24-10.745-24-24-24zm0 36c-6.627 0-12-5.373-12-12s5.373-12 12-12 12 5.373 12 12-5.373 12-12 12z"/><g><path fill="#0596DE" d="M1492 0h40c2.21 0 4 1.79 4 4v40c0 2.21-1.79 4-4 4h-40c-2.21 0-4-1.79-4-4V4c0-2.21 1.79-4 4-4z"/><path fill="#FFF" d="M1497.617 24.425s-.04.083-.11.248c-.082.165-.164.386-.274.688-.234.593-.523 1.46-.66 2.49-.07.523-.097 1.088-.07 1.693.015.302.043.62.084.936.027.164.04.302.068.37.027.11.07.234.11.358.344.977 1.376 2.16 2.807 3.22 1.445 1.046 3.22 2.022 5.188 2.972 1.98.922 4.21 1.83 6.673 2.188 1.225.165 2.49.207 3.757.027.633-.082 1.252-.22 1.87-.412.62-.18 1.212-.413 1.79-.702 1.155-.562 2.2-1.348 3.055-2.283.853-.936 1.526-2.022 2.022-3.164.247-.578.454-1.156.633-1.762s.303-1.183.468-1.87l.124-.496.096-.467c.07-.316.15-.62.207-.936.055-.315.138-.632.192-.948s.11-.634.165-.936c.44-2.49.522-4.954.11-7.018-.207-1.032-.523-1.954-.95-2.766-.22-.4-.467-.77-.73-1.128-.274-.344-.577-.674-.907-.963-1.32-1.196-3.096-1.994-4.87-2.503-1.79-.51-3.564-.784-5.175-.936-1.61-.164-3.04-.22-4.237-.26-1.197-.028-2.146-.042-2.793-.028-.647 0-.99.014-.99.014h-.248l-.097-.358.22-.11s.317-.166.937-.427c.62-.247 1.527-.604 2.724-.962 1.197-.357 2.67-.715 4.417-.95s3.77-.357 6.04-.082c1.13.138 2.325.385 3.55.812.303.097.62.234.922.358.303.138.62.275.922.44.62.316 1.225.715 1.816 1.156.592.454 1.143.977 1.65 1.555.496.592.95 1.238 1.336 1.926.37.688.687 1.417.907 2.16.123.372.206.743.303 1.128.082.373.137.758.192 1.13.206 1.512.165 3.026 0 4.484s-.468 2.89-.854 4.28c-.096.344-.206.688-.303 1.03-.11.345-.22.69-.344 1.02-.11.344-.246.688-.384 1.02l-.207.508c-.07.165-.14.316-.207.48l-.44.978c-.165.344-.33.688-.51 1.02-.357.66-.77 1.307-1.224 1.926-.91 1.225-1.996 2.297-3.18 3.19s-2.463 1.597-3.784 2.147c-.33.138-.66.262-.99.37-.33.126-.674.235-1.004.317-.675.193-1.35.358-2.037.496-1.362.262-2.71.44-4.072.537-2.697.178-5.408.04-7.885-.605-2.477-.633-4.72-1.762-6.52-3.248-.923-.73-1.72-1.582-2.396-2.504-.66-.936-1.197-1.995-1.403-3.15-.056-.29-.098-.578-.11-.867-.015-.33-.015-.593.027-.813.027-.233.055-.453.11-.674.04-.22.082-.44.15-.646.22-.826.537-1.555.908-2.16.73-1.21 1.555-1.912 2.133-2.312.138-.11.275-.193.4-.262.108-.07.205-.124.288-.165.165-.083.233-.124.233-.124l.22-.11.22.207-.083.235zm16.1-8.82c-1.033 5.242-2.05 10.484-3.083 15.727-.33 1.72 3.247-.262 3.468-1.444 1.03-5.242 2.05-10.485 3.082-15.727.33-1.705-3.247.276-3.468 1.445z"/></g><g transform="translate(1536)"><radialGradient id="i" cx="-1059.142" cy="411.901" r=".88" gradientTransform="matrix(48 0 0 -48 50871 19787.5)" gradientUnits="userSpaceOnUse"><stop offset="0" stop-color="#F10001"/><stop offset=".425" stop-color="#E00000"/><stop offset="1" stop-color="#9E0017"/></radialGradient><path fill="url(#i)" d="M4 0h40c2.21 0 4 1.79 4 4v40c0 2.21-1.79 4-4 4H4c-2.21 0-4-1.79-4-4V4c0-2.21 1.79-4 4-4z"/><path fill="#FFF" d="M12.638 27.414c.514.484 1.1.877 1.76 1.177.66.302 1.32.452 1.98.452.82 0 1.444-.17 1.87-.506s.638-.784.638-1.343c0-.293-.055-.542-.165-.748-.108-.205-.263-.385-.46-.538-.2-.154-.434-.298-.705-.43-.27-.132-.568-.264-.89-.395l-1.98-.858c-.353-.147-.7-.33-1.046-.55-.346-.22-.657-.484-.936-.792-.278-.308-.503-.667-.67-1.078-.17-.41-.254-.88-.254-1.408 0-.572.12-1.104.362-1.595.242-.49.576-.92 1.002-1.286.425-.367.935-.653 1.528-.858.594-.206 1.243-.308 1.947-.308.835 0 1.642.165 2.42.495.776.33 1.443.774 2 1.33l-1.297 1.63c-.47-.382-.953-.683-1.452-.903-.498-.22-1.055-.33-1.67-.33-.69 0-1.24.15-1.65.45-.41.302-.617.716-.617 1.244 0 .278.062.517.188.715s.294.373.507.527c.213.154.46.293.737.418.278.125.564.246.857.363l1.96.814c.425.176.813.38 1.165.616.353.235.656.506.913.814.257.308.46.663.605 1.067.146.4.22.867.22 1.395 0 .586-.117 1.137-.352 1.65-.234.513-.575.964-1.022 1.353s-.99.696-1.628.924-1.36.34-2.167.34c-.968 0-1.903-.183-2.805-.55-.902-.365-1.698-.887-2.388-1.56l1.498-1.738zm11.484-10.802h8.69v2.156h-6.14v4.07h5.237v2.156h-5.237V31H24.12V16.612zm13.773 6.732h2.045c.983 0 1.734-.205 2.256-.616.52-.41.78-1.027.78-1.848 0-.836-.26-1.415-.78-1.738-.52-.323-1.272-.484-2.256-.484h-2.045v4.686zm5.3 7.656l-3.102-5.632h-2.2V31h-2.552V16.612h4.863c.748 0 1.444.074 2.09.22s1.203.385 1.672.715c.47.33.84.767 1.11 1.31s.408 1.216.408 2.023c0 1.1-.26 1.987-.78 2.662s-1.215 1.16-2.08 1.452L46.056 31h-2.86z"/></g></svg>