<svg xmlns:sketch="http://www.bohemiancoding.com/sketch/ns" xmlns="http://www.w3.org/2000/svg" width="60" height="60" viewBox="0 0 60 60"><title>konnectors</title><desc>Created with Sketch.</desc><path sketch:type="MSShapeGroup" d="M37 46h4.289v-3h.001v3c7.007-.001 12.71-5.62 12.71-12.527 0-6.528-5.093-11.905-11.568-12.477-.348-2.814-1.644-5.415-3.728-7.425-2.39-2.305-5.546-3.571-8.888-3.571-3.343 0-6.499 1.267-8.888 3.572-2.092 2.018-3.393 4.634-3.732 7.463-2.87.334-5.523 1.616-7.572 3.677-2.338 2.355-3.625 5.466-3.625 8.761 0 6.908 5.7 12.527 12.71 12.527h2.29v-3h-2.29c-5.362 0-9.71-4.286-9.71-9.527 0-2.502.973-4.854 2.754-6.646 1.564-1.574 3.587-2.555 5.789-2.811l2.351-.273.282-2.35c.257-2.149 1.245-4.126 2.835-5.66 1.828-1.764 4.236-2.731 6.805-2.731 2.568 0 4.978.968 6.805 2.73 1.583 1.527 2.569 3.494 2.833 5.634l.297 2.407 2.416.213c4.98.44 8.832 4.568 8.832 9.49 0 5.239-4.35 9.526-9.711 9.526v3h.001v-3h-4.29v3l.002-.002z"/><path d="M22 44.5c0-8.5 8.5-8.5 8.5-8.5v-2c-5.799 0-10.5 4.701-10.5 10.5s4.701 10.5 10.5 10.5v-2s-8.5 0-8.5-8.5zM31.5 38c-3.59 0-6.5 2.91-6.5 6.5s2.91 6.5 6.5 6.5 6.5-2.91 6.5-6.5-2.91-6.5-6.5-6.5zm0 11c-2.485 0-4.5-2.016-4.5-4.5s2.015-4.5 4.5-4.5c2.484 0 4.5 2.016 4.5 4.5s-2.016 4.5-4.5 4.5z"/></svg>